<svg xmlns="http://www.w3.org/2000/svg" viewBox="0 0 116 88">
    <title>Cefla</title>
    <path d="M0 41.3l.2-.6a8.6 8.6 0 017.4-7.5c2.7-.5 5.5-.4 8 .8 2.5 1.2 4 3.1 4.3 5.9v.3h-7c-.4-1.7-1-2.3-2.5-2.4-1.5 0-2.5.7-2.9 2a9.8 9.8 0 000 5c.4 1.6 1.3 2.2 2.9 2.2 1.3 0 2.1-.8 2.4-2.2l.1-.4h7a7.2 7.2 0 01-1.7 4.4 8.2 8.2 0 01-4.3 2.6 14 14 0 01-7.2 0c-3.8-1-6.1-3.7-6.6-7.6a2.6 2.6 0 00-.1-.4v-2zM10.9 0h5.5L27 .3a271.3 271.3 0 0139 4.3c8.5 1.7 16.8 4.1 24.7 7.8a56.5 56.5 0 0114.4 9.1c4.1 3.8 7.3 8 9.1 13.4a25.5 25.5 0 011.2 10.2v.6c-1 8-4.6 14.7-9.8 20.6a62 62 0 01-19.5 14.8A70.7 70.7 0 0163.5 88a2.9 2.9 0 01-.7 0c2-.6 4-1.1 6-1.9A46.7 46.7 0 0096.4 59 32.6 32.6 0 0089.9 24a52.5 52.5 0 00-15.2-11.3 98 98 0 00-23.2-8.1c-8-1.8-16-3-24.2-3.6C21.4.6 15.4.3 9.5.2V0h1.4zm68 39h-7a5 5 0 012.2-4.3c1.4-1 3-1.4 4.7-1.6a19 19 0 018 .6c.5.2 1.1.4 1.7.8 1.7 1 2.2 2.6 2.2 4.5v10c0 .6.1 1.2.6 1.7l.2.5h-6.7c-.4 0-.5 0-.5-.4l-.4-1.2-.6.4a9.5 9.5 0 01-8.6 1.5c-2.5-.8-3.8-3-3.6-5.8a4.5 4.5 0 013.3-4.2c2-.6 4-.8 6-1.1a16 16 0 002.6-.7c.5-.1.8-.6.8-1 0-.7-.3-1.2-1-1.3a9.7 9.7 0 00-2.5 0c-.9 0-1.3.7-1.5 1.5zm4.9 4.4l-3.5 1-1 .5c-.8.4-1 .9-1 1.5.2.6.7 1.1 1.5 1.2a6.4 6.4 0 001.6 0c1.3-.2 2-1 2.3-2.3v-2zm-41.5.6H29c-.2 1.4.7 3 2 3.3.8.3 1.7.3 2.4 0 .4-.2 1-.4 1.1-.7.3-.6.7-.6 1.3-.6h5.8l-.2.8c-.7 2-2 3.3-4 4a14.1 14.1 0 01-9.7.4 8.5 8.5 0 01-5.9-8c0-1.4 0-2.7.5-4a8.3 8.3 0 015.4-5.6 13 13 0 017-.4c4 .8 6.6 3.6 7.3 7.6l.3 3.1zm-7-3.6c-.2-1.3-.5-2.4-1.7-3a3.3 3.3 0 00-3.4.2c-1 .7-1.2 1.7-1.3 2.8h6.3zM47 51.2V37.6h-2.2v-4H47V33c0-.7 0-1.4.2-2a4.4 4.4 0 014-4.1c.8-.2 1.8-.2 2.7-.2H57v4.4c-1 0-2.1-.3-2.7.7-.3.4-.3 1-.5 1.7h3.2v4h-3v13.7h-7zm21.7 0h-7V27.3h7v23.9z"/>
</svg>