<svg role="img" aria-labelledby="enel-svg" xmlns="http://www.w3.org/2000/svg" viewBox="0 0 128 88">
    <title id="enel-svg">Enel</title>
    <path d="M116.3 22.1h5.2v32.1c0 3.5 1.7 5 4.7 7l-3 4c-4.4-2.8-7-5.9-7-11v-32zM45.7 46.8v-10c3-2.8 7-4.5 11.5-4.5h.4a14 14 0 0114 13.6v18.8h-5.2V46c0-4.8-4-8.6-9-8.7h-.2c-7 0-10.8 5.6-11.5 9.6z"/>
    <path d="M45.7 33.6h-5.2v17.2h5.2V33.6zM35.3 46H17.1v5h18.2v-5z"/>
    <path d="M18.1 32.2A18 18 0 006 37.1C2.6 40 .7 44 .7 48.8c0 4.6 2 8.7 5.2 11.7 3.1 3 7.4 4.7 12.1 4.7 5.6 0 10.6-2.5 13.8-6.4l-4.1-3a12.5 12.5 0 01-9.6 4.5h-.1c-3.3 0-6.3-1.3-8.5-3.3-2.2-2.1-3.7-5-3.7-8.2 0-3.3 1.4-6.2 3.6-8.2a12.5 12.5 0 018.5-3.4h.2c3.3 0 6.4 1.3 8.6 3.4 1.5 1.4 2.6 3.3 3.2 5.3h5.3c-.6-3.4-2.4-6.4-4.9-8.8-3-3-7.4-4.8-12.2-4.8zm63.4 5c-3 3-5 7-5 11.6s2 8.7 5.2 11.7 7.5 4.7 12.2 4.7c5.6 0 10.6-2.5 13.8-6.4l-4.1-3a12.5 12.5 0 01-9.6 4.5h-.1c-3.4 0-6.4-1.3-8.6-3.3a11.2 11.2 0 010-16.4 12.5 12.5 0 018.6-3.4v-5a18 18 0 00-12.4 5z"/>
    <path d="M105.8 45.9c-.6-2-1.8-4-3.3-5.4L106 37a16 16 0 015 8.9v5H92.9v-5h12.9z"/>
</svg>