<svg role="img" aria-labelledby="enel-svg" xmlns="http://www.w3.org/2000/svg" viewBox="0 0 128 88">
  <title id="enel-svg">Enel</title>
  <g clip-path="url(#clip0_1837_1015)">
    <path
      d="M29.8031 46.4275H35.2825C34.6357 42.7494 32.8573 39.3648 30.1954 36.7455L26.4768 40.5626C28.1166 42.1646 29.2698 44.1979 29.8031 46.4275Z"
      fill="url(#paint0_linear_1837_1015)" />
    <path
      d="M17.9091 37.0738C19.5656 37.073 21.2057 37.4013 22.7343 38.0397C24.2628 38.678 25.6493 39.6137 26.8133 40.7923L30.6303 36.9753C27.2878 33.6129 22.7486 31.7128 18.0076 31.6912H17.8107V37.0738H17.9091Z"
      fill="url(#paint1_linear_1837_1015)" />
    <path
      d="M17.9074 37.0738V31.6912C15.5341 31.6873 13.1843 32.162 10.9986 33.0868C8.81285 34.0116 6.83601 35.3676 5.18622 37.0738L9.00322 40.7923C10.1692 39.6164 11.5561 38.6825 13.0842 38.0443C14.6123 37.4062 16.2514 37.0763 17.9074 37.0738Z"
      fill="url(#paint2_linear_1837_1015)" />
    <path
      d="M5.3832 49.5225C5.37302 47.8646 5.69706 46.2217 6.33596 44.6918C6.97485 43.162 7.91551 41.7766 9.10174 40.6183L5.28474 36.8013C3.59255 38.4565 2.25223 40.4365 1.34421 42.6226C0.436192 44.8086 -0.0208004 47.1555 0.000661292 49.5225V49.7178H5.3832V49.5225Z"
      fill="url(#paint3_linear_1837_1015)" />
    <path
      d="M5.38321 49.0401H0.000671387C0.00586603 51.4266 0.484252 53.7884 1.40815 55.9889C2.33205 58.1893 3.68313 60.1848 5.38321 61.8597L9.10175 58.0427C7.91388 56.8652 6.97308 55.4623 6.33454 53.9164C5.69599 52.3705 5.37256 50.7126 5.38321 49.0401Z"
      fill="url(#paint4_linear_1837_1015)" />
    <path
      d="M17.9074 61.5659C16.2509 61.5667 14.6108 61.2384 13.0822 60.6C11.5537 59.9617 10.1672 59.026 9.00322 57.8474L5.18622 61.6644C8.52873 65.0268 13.0679 66.9269 17.8089 66.9485H18.0042V61.5659H17.9074Z"
      fill="url(#paint5_linear_1837_1015)" />
    <path
      d="M27.7913 56.6741C26.6294 58.2168 25.1202 59.4638 23.3861 60.3141C21.6519 61.1643 19.7418 61.5938 17.8107 61.5676V66.9501C20.5605 66.9586 23.2746 66.3263 25.7376 65.1035C28.2007 63.8807 30.345 62.1009 32.0005 59.9052L27.7913 56.6741Z"
      fill="url(#paint6_linear_1837_1015)" />
    <path
      d="M106.96 46.4275H112.44C111.793 42.7494 110.015 39.3648 107.353 36.7455L103.634 40.5626C105.24 42.1906 106.387 44.2138 106.96 46.4275Z"
      fill="url(#paint7_linear_1837_1015)" />
    <path
      d="M94.9188 37.0738C96.5753 37.073 98.2154 37.4013 99.7439 38.0397C101.272 38.678 102.659 39.6137 103.823 40.7923L107.64 36.9753C104.297 33.6129 99.7583 31.7128 95.0172 31.6912H94.8203V37.0738H94.9188Z"
      fill="url(#paint8_linear_1837_1015)" />
    <path
      d="M95.0352 37.0738V31.6912C92.6619 31.6873 90.3121 32.162 88.1264 33.0868C85.9407 34.0116 83.9638 35.3676 82.314 37.0738L86.131 40.7923C87.297 39.6164 88.6839 38.6825 90.212 38.0443C91.7401 37.4062 93.3792 37.0763 95.0352 37.0738Z"
      fill="url(#paint9_linear_1837_1015)" />
    <path
      d="M82.5799 49.5241C82.5697 47.8663 82.8938 46.2233 83.5327 44.6935C84.1716 43.1636 85.1122 41.7782 86.2985 40.62L82.4815 36.803C79.1191 40.1455 77.2189 44.6846 77.1974 49.4257V49.621H82.5799V49.5241Z"
      fill="url(#paint10_linear_1837_1015)" />
    <path
      d="M82.5799 49.0401H77.1974C77.2026 51.4266 77.681 53.7884 78.6049 55.9889C79.5288 58.1893 80.8798 60.1848 82.5799 61.8597L86.2985 58.0427C83.9372 55.6384 82.6037 52.4099 82.5799 49.0401Z"
      fill="url(#paint11_linear_1837_1015)" />
    <path
      d="M95.0336 61.5659C93.3771 61.5667 91.737 61.2384 90.2084 60.6C88.6799 59.9617 87.2934 59.026 86.1294 57.8474L82.4109 61.6644C85.7534 65.0268 90.2926 66.9269 95.0336 66.9485H95.2289V61.5659H95.0336Z"
      fill="url(#paint12_linear_1837_1015)" />
    <path
      d="M104.709 56.6741C103.547 58.2168 102.038 59.4638 100.304 60.3141C98.5696 61.1643 96.6595 61.5938 94.7283 61.5676V66.9501C97.4779 66.9583 100.192 66.326 102.654 65.1031C105.117 63.8803 107.261 62.1007 108.917 59.9052L104.709 56.6741Z"
      fill="url(#paint13_linear_1837_1015)" />
    <path d="M117.726 39.1283H123.108V55.2743H117.726V39.1283Z" fill="url(#paint14_linear_1837_1015)" />
    <path
      d="M123.106 54.9116C123.106 58.7286 124.867 60.391 128 62.544L124.966 66.9468C120.371 63.9126 117.822 60.5863 117.822 54.91L123.106 54.9116Z"
      fill="url(#paint15_linear_1837_1015)" />
    <path
      d="M57.7021 31.7323C55.5039 31.7292 53.3267 32.1597 51.295 32.9992C49.2634 33.8386 47.4172 35.0704 45.8622 36.6241V47.486C46.5465 43.18 50.3635 37.0147 57.7021 37.0147H58.0943V31.6338C57.9753 31.7024 57.8395 31.7365 57.7021 31.7323Z"
      fill="url(#paint16_linear_1837_1015)" />
    <path
      d="M72.358 48.2589H66.9755V46.4981C66.9836 44.012 66.013 41.6225 64.2733 39.8463C62.5337 38.0701 60.1649 37.05 57.6791 37.0065V31.6239C61.5827 31.6409 65.3201 33.2052 68.0719 35.9739C70.8236 38.7426 72.365 42.4895 72.358 46.3931V48.2589Z"
      fill="url(#paint17_linear_1837_1015)" />
    <path d="M40.5502 33.114H45.9328V51.8052H40.5502V33.114Z" fill="#BCBCB6" />
    <path d="M117.726 21H123.108V39.6912H117.726V21Z" fill="#BCBCB6" />
    <path d="M67.033 47.6714H72.4155V66.3626H67.033V47.6714Z" fill="#BCBCB6" />
    <path d="M16.8326 46.2585H35.5238V51.6411H16.8326V46.2585Z" fill="#BCBCB6" />
    <path d="M93.7504 46.2585H112.442V51.6411H93.7504V46.2585Z" fill="#BCBCB6" />
  </g>
  <defs>
    <linearGradient id="paint0_linear_1837_1015" x1="28.7663" y1="38.5754" x2="33.3196" y2="45.7628"
      gradientUnits="userSpaceOnUse">
      <stop stop-color="#E41F13" />
      <stop offset="1" stop-color="#E30613" />
    </linearGradient>
    <linearGradient id="paint1_linear_1837_1015" x1="18.0927" y1="33.7481" x2="26.4951" y2="40.9293"
      gradientUnits="userSpaceOnUse">
      <stop stop-color="#E42313" />
      <stop offset="1" stop-color="#E41F13" />
    </linearGradient>
    <linearGradient id="paint2_linear_1837_1015" x1="17.653" y1="33.6297" x2="9.38248" y2="41.0771"
      gradientUnits="userSpaceOnUse">
      <stop stop-color="#E42313" />
      <stop offset="1" stop-color="#E52D12" />
    </linearGradient>
    <linearGradient id="paint3_linear_1837_1015" x1="6.53503" y1="38.5967" x2="-0.485651" y2="46.832"
      gradientUnits="userSpaceOnUse">
      <stop stop-color="#E52D12" />
      <stop offset="1" stop-color="#E74018" />
    </linearGradient>
    <linearGradient id="paint4_linear_1837_1015" x1="2.03021" y1="49.3093" x2="9.34962" y2="58.0786"
      gradientUnits="userSpaceOnUse">
      <stop stop-color="#E74018" />
      <stop offset="1" stop-color="#E84617" />
    </linearGradient>
    <linearGradient id="paint5_linear_1837_1015" x1="6.91665" y1="60.514" x2="15.5957" y2="67.3"
      gradientUnits="userSpaceOnUse">
      <stop stop-color="#E84617" />
      <stop offset="1" stop-color="#EA561F" />
    </linearGradient>
    <linearGradient id="paint6_linear_1837_1015" x1="18.5202" y1="67.3612" x2="24.6128" y2="55.6614"
      gradientUnits="userSpaceOnUse">
      <stop offset="0.27" stop-color="#EA561F" />
      <stop offset="1" stop-color="#E9531E" stop-opacity="0" />
    </linearGradient>
    <linearGradient id="paint7_linear_1837_1015" x1="109.437" y1="44.9172" x2="105.613" y2="39.4863"
      gradientUnits="userSpaceOnUse">
      <stop stop-color="#006FB9" />
      <stop offset="1" stop-color="#0078C0" />
    </linearGradient>
    <linearGradient id="paint8_linear_1837_1015" x1="104.935" y1="37.8436" x2="97.8418" y2="32.0309"
      gradientUnits="userSpaceOnUse">
      <stop stop-color="#0078C0" />
      <stop offset="1" stop-color="#0085CA" />
    </linearGradient>
    <linearGradient id="paint9_linear_1837_1015" x1="84.871" y1="37.9983" x2="92.0173" y2="32.0505"
      gradientUnits="userSpaceOnUse">
      <stop stop-color="#0091D0" />
      <stop offset="1" stop-color="#0085CA" />
    </linearGradient>
    <linearGradient id="paint10_linear_1837_1015" x1="79.7093" y1="48.2494" x2="85.5312" y2="41.2201"
      gradientUnits="userSpaceOnUse">
      <stop stop-color="#009DD7" />
      <stop offset="1" stop-color="#0091D0" />
    </linearGradient>
    <linearGradient id="paint11_linear_1837_1015" x1="79.682" y1="50.322" x2="85.6678" y2="57.3403"
      gradientUnits="userSpaceOnUse">
      <stop stop-color="#009DD7" />
      <stop offset="1" stop-color="#00A9DD" />
    </linearGradient>
    <linearGradient id="paint12_linear_1837_1015" x1="84.2567" y1="60.5322" x2="91.9059" y2="66.738"
      gradientUnits="userSpaceOnUse">
      <stop offset="0.006" stop-color="#00A9DD" />
      <stop offset="0.942" stop-color="#70C5E9" />
    </linearGradient>
    <linearGradient id="paint13_linear_1837_1015" x1="94.7425" y1="68.6355" x2="101.18" y2="55.1048"
      gradientUnits="userSpaceOnUse">
      <stop offset="0.319" stop-color="#70C5E9" />
      <stop offset="1" stop-color="#70C5E9" stop-opacity="0" />
    </linearGradient>
    <linearGradient id="paint14_linear_1837_1015" x1="120.417" y1="39.2736" x2="120.417" y2="55.3066"
      gradientUnits="userSpaceOnUse">
      <stop stop-color="#009767" />
      <stop offset="1" stop-color="#73BA64" />
    </linearGradient>
    <linearGradient id="paint15_linear_1837_1015" x1="122.423" y1="59.6766" x2="127.811" y2="62.8563"
      gradientUnits="userSpaceOnUse">
      <stop stop-color="#73BA64" />
      <stop offset="1" stop-color="#73BA64" stop-opacity="0" />
    </linearGradient>
    <linearGradient id="paint16_linear_1837_1015" x1="45.7888" y1="39.5758" x2="58.0699" y2="39.5758"
      gradientUnits="userSpaceOnUse">
      <stop offset="0.005" stop-color="#E60064" />
      <stop offset="0.996" stop-color="#E54C88" />
    </linearGradient>
    <linearGradient id="paint17_linear_1837_1015" x1="65.048" y1="38.1615" x2="65.048" y2="47.6268"
      gradientUnits="userSpaceOnUse">
      <stop offset="0.021" stop-color="#E54C88" />
      <stop offset="1" stop-color="#E54C88" stop-opacity="0" />
    </linearGradient>
    <clipPath id="clip0_1837_1015">
      <rect width="128" height="88" fill="white" />
    </clipPath>
  </defs>
</svg>
