<svg role="img" aria-labelledby="fca-bank-svg" xmlns="http://www.w3.org/2000/svg" viewBox="0 0 246 88">
  <title id="fca-bank-svg">FCA Bank</title>
  <path fill="#44525A" fill-rule="evenodd" d="M147.24 56.57H136.4V31.62h10.37c4.9 0 8.16 2.4 8.16 6.12v.1c0 3.34-2.2 5.06-4.22 5.92 2.98.77 5.66 2.49 5.66 5.93v.1c-.19 4.1-3.74 6.78-9.12 6.78Zm5.67-18.64c0-2.77-2.3-4.59-6.25-4.59h-8.45v9.85h8.26c3.75-.1 6.44-1.91 6.44-5.26Zm1.44 11.76c0-3.06-2.7-4.88-7.59-4.88h-8.45v10.04h9.12c4.13 0 6.92-1.91 6.92-5.16Zm30.64 6.88-3.18-6.98h-14.78l-3.17 6.98h-1.93l11.72-25.14h1.83l11.71 25.14H185Zm-10.57-23.13-6.63 14.43h13.26l-6.63-14.43Zm39.09 23.13L195.84 34.4v22.17H194V31.62h1.73l17.29 21.7v-21.7h1.82v24.95h-1.34Zm18.82-12.62-6.24 6.3v6.32h-1.83V31.62h1.83v16.44l15.94-16.44h2.5l-10.95 11 11.43 13.95h-2.4l-10.28-12.62Z" clip-rule="evenodd"/>
  <path fill="#5C79AE" d="M67.81 32.1H44.38v24.56h5.1v-8.5h17.37v-5.07H49.47v-5.92h18.34V32.1Zm16.72 20.64a8.5 8.5 0 0 0 8.16-5.92h5.19a13.5 13.5 0 0 1-13.35 10.99 13.51 13.51 0 0 1-13.64-13.48c0-7.45 6.14-13.47 13.64-13.47a13.6 13.6 0 0 1 13.35 11h-5.2a8.5 8.5 0 0 0-8.15-5.94 8.47 8.47 0 0 0-8.55 8.41 8.53 8.53 0 0 0 8.55 8.41Zm12.48 3.83L112.57 30l15.37 26.57h-5.86l-9.6-16.54-9.61 16.54h-5.86Z"/>
  <path fill="#DB373F" d="M36.22 30.29v13.09L9.9 57.52c-2.6 1.24-5.95.29-6.82-2.58L.01 47.97c4.32-.86 11.04-4.5 11.04-4.5l19.6-10.32 5.57-2.86Z"/>
</svg>
