<svg role="img" aria-labelledby="fca-bank-svg" xmlns="http://www.w3.org/2000/svg" viewBox="0 0 246 88">
    <title id="fca-bank-svg">FCA Bank</title>
    <path fill-rule="evenodd" d="M44.4 32.1h23.4v5H49.5v6h17.4v5H49.5v8.6h-5.1V32zm48.3 14.7c-1 3.5-4.3 6-8.2 6a8.5 8.5 0 01-8.5-8.5c0-4.6 3.8-8.4 8.5-8.4 3.9 0 7.1 2.5 8.2 6h5.2c-1.2-6.3-6.7-11-13.4-11-7.5 0-13.6 6-13.6 13.4 0 7.5 6 13.5 13.6 13.5 6.7 0 12.2-4.7 13.4-11h-5.2zM112.6 30L97 56.6h5.9l9.6-16.6 9.6 16.6h5.8L112.6 30zm34.6 26.6h-10.8v-25h10.4c4.9 0 8.1 2.4 8.1 6.1v.1c0 3.4-2.2 5.1-4.2 6 3 .7 5.7 2.4 5.7 5.9-.2 4.2-3.8 6.9-9.2 6.9zm5.7-18.7c0-2.7-2.3-4.6-6.2-4.6h-8.5v9.9h8.3c3.7-.1 6.4-2 6.4-5.3zm1.4 11.8c0-3-2.6-4.9-7.5-4.9h-8.5v10h9.1c4.2 0 7-1.9 7-5.1zm30.7 6.9l-3.2-7H167l-3.1 7h-2l11.8-25.2h1.8l11.7 25.2H185zm-10.6-23.2L167.8 48H181l-6.6-14.5zm39.1 23.2l-17.7-22.2v22.2H194v-25h1.7L213 53.3V31.6h1.9v25h-1.4zM232.3 44l-6.2 6.3v6.3h-1.8v-25h1.8v16.5l16-16.5h2.4l-11 11 11.5 14h-2.4L232.3 44zm-196-.6V30.3l-5.7 2.9-19.5 10.3S4.3 47 0 48l3 7c.8 2.8 4.2 3.8 6.8 2.5l26.3-14.1z" clip-rule="evenodd"/>
</svg>