<svg xmlns="http://www.w3.org/2000/svg" viewBox="0 0 45 88">
  <path fill-rule="evenodd" d="m44 38.9.3-.7c.3-.3.4.5.3 1 0 .6-.4 1.1-1 1.9-.6.8-.6 1.5-.6 1.5v1c-.1.8.1 1.9.1 1.9l.2 1.6c0 .7 0 2.3-.6 3.5a11 11 0 0 1-.9 1.2l-.7.7-1.2.7-.7.2h-.1v.2l.3.5.2 1V56l-.2.3-.1.5v.7l.2.9c0 .2-.4-.4-.5-.7-.3-.5-.3-1.2-.3-1.6v-.9l-.5-.8-.4-.4v.5l.3.5.2.9-.2 1.3s-.2.8-.5 1.3l-.9 1.3-.7 1c-.3.5-.2.8-.2 1-.1.2-.4-.3-.5-.6l.1-.8.4-.8.4-.6s.5-1 .6-1.6c.2-.7 0-1.4 0-1.4s0-.2-.2-.2-.3.2-.4.3v.3l-.1.6-.2.5-.1.2-.1 1c0 .1-.2 0-.2 0l-.2-.8v-.7l.3-1s.2-.7.1-1.2c0-.6-.2-.7-.2-.7h-.3c-.2 0-.2.4-.2.4l-.2.9c-.2 1-.5 1.5-1.1 2.3a25.3 25.3 0 0 1-3 2.7l-1.2.8s-.5.5-.7 1c-.3.7-.3 1.1-.1 1.6a2 2 0 0 0 .4 1c.1.2.3.4.3.7v.7l.1.2-.1.7-.4.3-.6.2c-2.1 1.3-2.9 2.2-4 3.6l-.3.4c0 .2 0 .3-.3.6l-.5.3c-.2 0-.4.2-.5.4v.6c.1.3.2.6-.4 1-1.4.5-3.8 0-3.9-.1 0-.5.5-1.1.7-1.4l1.2-1c.5-.2.8-.4 1-1 0-.1.1-.3.8-.9a25.8 25.8 0 0 0 3.8-3.2c.3-.3.5-.5.6-.9.2-.4-.1-.7-.1-.7L26 65l-.7-1.3-.5-1.1-.5-1.6s-.3-1-.3-1.6a7.7 7.7 0 0 1 1.2-4.7c.3-.5.6-1 .8-1.8.1-.4.2-1.1 0-1-.2 0-.2.2-.3.4l-.1.5-.8 1.6c-.4.6-.8 1.1-1 2-.3 1-.4 1.6-.4 2.6v.3l.2 1.3.1.6.1.3.3.8a7.7 7.7 0 0 0 .5 1.2v.9l-.2.2c0 .2 0 .3-.5.4-.4.1-1.4-.2-1.4-.2s-4-1.2-6.4-.9l-.5.2h-1.3c-.2-.1-.4-.2-.6-.1h-.2v.1l-.4.5c-.2.3-.4.6-1.5.3-1.1-.2-2.4-.9-2.2-1.3.3-.5.6-.6 1.2-.8l.3-.2c.8-.3 1.7-.3 2.3-.3h.7l1-.2h1.2l1.7.2H22c.2 0 .3-.3.5-.5v-.2c.2-.3 0-.6 0-.6v-.2l-.4-.5-.5-1-.7-1.2-.6-1.5a92.5 92.5 0 0 0-.5-1.5 8 8 0 0 1-.3-1.6v-.1c0-.7 0-1.2.2-1.8l.7.4c.6.3.9.5 1.4 1l1 .7.3.4c.2.2.4.4.5.3.2-.2-.3-.9-.8-1.2l-1.2-1-.4-.2a15 15 0 0 0-.7-.5l-1.3-1-.7-.6-1-1-1.3-1-.9-1-.8-1a72.5 72.5 0 0 1-1.5-2.3l-.6-.2-.9-.4c-.8-.4-1-.9-1-.9l-.1-.2-.4-.3-.3-.1-.4-.3-.7-.4-1-.6-.5-.4-.3-.2h-.2l-.3-.1-.3.1-.1.2.2 1.2.1 1.2.1 1.5a8.1 8.1 0 0 0 .7 1.6v1c.2.4.5.4.8.6.4 0 .9.2 1 .9.3 1.1-.2 2.3-.2 2.3s-.2.6-.6.7c-.4 0-1-.8-1.4-1.5l-1-1.8-.1-.5h-.1l-.2-.3c-.2-.1-.3-.2-.4-.5V45l-.2-.3v-.3c-.2-.4-.3-1.4-.3-1.4v-1l-.2-.7-.3-2V38.1l.1-.3.3-.4.4-.6.5-.4.7-.2h.7l2 .5h.2l1 .4c.7.4.9.3.3-.2l-.5-.5-.3-.2-.6-.6-.8-1-.3-.5-.2-.3h-.6c-.2-.1-.3.2-.3.2s-.5 1-1 1.5l-.6.6-1.2 1.5-.4 1.2c0 .2 0 .5-.2.6v.2c-.1 0-.2 0-.2.2-.1.3 0 .5.1.7.2.3.4.5.3.8-.3 1-2.6 1.9-2.9 1.7-.3-.1 0-1.4 0-1.9a6 6 0 0 1 .6-1.3v-.3l.1-.3v-.4l.3-.5.6-1a21.6 21.6 0 0 0 1.7-3l.9-1.5.3-.6a16.3 16.3 0 0 1 .5-.8l.2-.3.4-.6.7-.4c.5-.2.8 0 1.2 0a4.5 4.5 0 0 1 1.7 1.2l.2.2v.2l.3.1.7.5a4304.7 4304.7 0 0 0 2 1.3l.1.1s.2 0 .3-.2l1-.8c.7-.4 1-.6 1.4-.6l.3-.2.7-.6.4-.5.4-.6.8-.8.9-1c.7-.8 1-1.4 1-1.4l.5-.9.8-1.8.2-.7-.1-.4c-.1-.2-.3-.2-.4-.1h-1.7l-.6-.2-.7-.2h-.2c-.4-.1-.7-.2-1.1-.1h-.3l-.3.1-.4.2-.6.1h-.5l-.3-.1-.1-.2v-.2l.4-.1.3-.1.3-.1h.2l.3-.2.1-.3h-.5l-.5.2-.6.1-.6.1h-.1l-.2-.2v-.4c-.1-.2-.2-.4-.1-.7v-.2l.1-.1v-.2h.2l.6-1 .3-.3.7-.2h.3l.5-.2c.5 0 .8-.2.8-.2l1.6-.7.7-.5a4.6 4.6 0 0 1 1.7-.7v-.1l-.2-.1h-.4l.2-.2.2-.1c0-.1-.1 0-.2 0a2 2 0 0 1-.6-.2h-.2l-.3-.1-.6-.2-.7.2c-.2 0-.2-.2-.2-.2.6-.3.6-.3 1-.3a3.2 3.2 0 0 1 .5 0h.5l-.2-.2h-.3l-.2-.1c-.2 0-.3 0-.3-.2H19.3l.2-.1H20.7a61 61 0 0 0 1.4.6l.6-.1c.2-.2.2-.3 0-.4 0-.2-.2-.4 0-.8l.2-.5V13c.1 0 .2 0 .3.2l.2.2.5.4c.4.3.9.6 1.3 1.3h1.1c.6.1 1.2.8 1.4 1 .2.3.4.3.4.3H29.8l.9.1c.2 0 1 .6.6.8H31l-.3-.2H30c-.5.2-1.6.5-1.2.7H29.1l.7.2.7.4a7.9 7.9 0 0 0 .6.4l.3.2h.7l.7.2.6.5.3.2.2.2c.1 0 .2 0 .3.2.1.2 0 .2-.2.1h-.1l-.4-.1a2 2 0 0 1-.4-.2l-.4-.2h-1.9l-.4-.2-.5-.1-.4-.1c-.4-.2-.8-.3-.7 0 0 .2.4.3.4.3l.6.3.4.3v.4l.5.5c.2.3.6.3.6.3l.8.1c.6.1 1.1.4 1.1.4l.7.6c.3.3.1.5 0 .5l-.3-.3-.2-.2-.5-.3h-.4s-.6.2-1 .1c-.6 0-.9-.2-.9-.2l-.3-.2s-.5-.5-.5-.3.2.3.2.3l.3.3.2.2.3.3.3.2H31.4l.5.2.7.5h.6c.2 0 .1.2.1.2l-.2.2h-.7L32 24l-.6-.1h-.2a2.5 2.5 0 0 1-.8-.3l-.3-.1-.3-.2-.4-.2h-.7c-.2.2 0 .3.5.4l.6.2c.8.4 1.2.7 1.3 1l.4.6s.5.2.7.5l.2.2.1.2.5.3.5.3c0 .2-.3.2-.6.1h-.2l-.6-.3-.5-.4-.4-.1H31l-.6-.4a4 4 0 0 0-.6-.2l-.3-.2c-.3-.1-.6-.2-.5 0v.1l.2.3.2.2.9.6.9.7.1.4.1.1v.3l.3.3c.3.3.5.3.8.4l.4.1.2.1v.1c.2.1 0 .2 0 .2s-.5.1-.8 0c-.3 0-.5 0-.7-.2h-.2c-.4-.2-.6-.5-.6-.6l-.2-.1v-.1l-.3-.1H30l-.2-.1-.3-.1-.3-.1-.3-.1h-.5c-.2.1 0 .3.3.4l.6.3.2.3a3.5 3.5 0 0 0 .4.5l.3.1.6.3.7.7.2.4.2.2v.2s.2.3.4.3c.1.1 0 .2 0 .2 0 .1-.1 0-.2 0l-.3-.1-.1-.1-.1-.2-.4-.3h-.4v-.1l-.2-.1-.3-.1-.3-.2s-.4-.3-.7-.3c-.2 0 0 0 0 0a1.9 1.9 0 0 0 .6.7c.2.1.4.3.3.4h-.3c-.3 0-.5-.3-.5-.3l-.6-.2c-.5-.1-.3.1-.2.3l.3.2.3.1h.1l.6.2.6.3.6.4c.3.3.6.3.8.4h.1v.2l-.4.2-.8-.1a2 2 0 0 1-.7-.4h-.2l-.4-.3h-1c-.3.1 0 .2 0 .2H29.1l.7.2c.3.1.4.3.6.5l.1.1.5.4.2.1v.2H31l-.2-.1-.3-.1-.2-.1-.3-.2H28l-.7-.2c-.3 0-.5-.2-.5 0-.1 0 .1.2.3.2l.3.1 1 .4.6.3c.4.1.6.4.9.6l.3.4c.3.3.5.3.8.4h.7l.6-.3c.1-.2.2-.2.3-.1v.2l-.2.2-.5.3-1.1.2c-.5 0-1.2-.4-1.2-.4l-.6-.3-.4-.1a4 4 0 0 0-.6-.2h-.5l-.4-.2h-.3c-.2-.1-.1 0 0 0 0 .2.2.2.3.3h.1l.4.1.3.1.7.4.5.4.5.5.2.1v.3c0 .2-.1.1-.1.1h-.2l-.1-.2-.2-.2-.6-.4-.7-.2h-.3c0 .2 0 .2.2.2h.2l.4.3.5.4.3.5.4.5.3.2v.2H29.5l-.4-.2-.5-.4-.5-.4-.4-.2-.4-.2h-.1a6 6 0 0 0-.4-.1l-.5-.1-.7-.5h-.3l-.2.7c-.2 1.2.2 2 .7 3.1.7 1.7 2.7 3.7 2.7 3.7l.7.4.5.4c.6.4 1.4 1 2 1.7a11.4 11.4 0 0 0 2.6 3.5c.4.6.7 1.7.7 1.7v.2l.1.1h1.1l1.3-.6.9-.7.6-.6c.5-.5.8-1.3.9-1.6l.3-2v-2l-.4-2-.4-1.2-.2-1.2-.1-1.2.1-1.3c.2-.9.7-1.7.7-1.7l.7-1 1.1-1 .2-.1.2-.2c.4-.3.8-.7 1-.6.2.1 0 .3-.2.5h-.1v.1c-.4.4-1 1-1.5 1.8-.5.9-.7 1.4-.8 1.9V38.7s1.2-.8 1.8-1.5l.9-1.3.6-.8.2.5-.4 1.1a53 53 0 0 0-.7 1.1l-.2.2v.1c-.4.4-.6.7-.8 1.3-.5 1-.2 1.7-.2 1.7s0 .4.2.4c.4 0 1.1-1 1.6-1.7l.4-1ZM25.8 33l.2.2h.3l-.1-.2H25.9c-.1 0 0 0 0 0Zm.3-.9.3.1h.3l-.2-.1V32h-.3c-.1 0 0 .1 0 .1Zm.3-1a1.2 1.2 0 0 0 .4.2s.2.1.2 0l-.2-.2h-.4Zm.2-.8.3.1h.2l.2.1-.2-.3h-.4c-.1 0 0 .1 0 .1Zm.2-1 .4.1h.4l-.3-.3h-.4v.2Zm.1-1.2.4.2h.2c.2.1.3.2.3 0l-.3-.3-.1-.1H27c-.1.1 0 .2 0 .2Zm0-1.1a1.3 1.3 0 0 0 .7.3h.4c0-.2-.2-.4-.3-.5h-.2s-.3-.1-.4 0c-.2 0-.1.2-.1.2Zm.2-1.3.5.2.3.1c.2 0 .4.1.4 0l-.4-.5-.2-.1h-.5c-.2.1-.1.3-.1.3Zm0-5.1.4.2h.5l-.2-.3h-.2s-.2-.1-.4 0h-.1Zm.7 1.4h.3l-.3-.4h-.2s-.2-.1-.4 0c-.1 0 0 .2 0 .2l.3.2h.3Zm0 2h-.5l-.1.2s.3.3.5.3c.3.1.6.2.5 0l-.3-.4h-.2Zm-.6-1.1.5.2.5.1-.3-.5h-.2s-.2-.1-.4 0-.1.2-.1.2Zm1-3.7s0-.2-.2-.2h-.9l-.2-.1h-.3l-.1.3s-.1.5.3.3l.4-.1.2-.1.4-.1h.4Zm-1.3-1.8-.1-.1h-.4c-.1.1 0 .2 0 .2s.1.2.3.2h.1c.2 0 .4.1.4 0l-.3-.3Zm-.8-1.5h-.3c-.2.1-.1.2-.1.2l.4.2h.4l-.2-.3-.2-.1Zm-.4 18h-.2l.2.1c.1 0 .2.1.2 0l-.1-.1h-.1ZM14.3 20.9l.2-.1c.1 0 .2 0 .2-.2 0-.3-.3-.4-.5-.4l-.3.2c0 .3-.2.5-.2.5v.4c.1 0 .2 0 .3-.2l.1-.1.2-.1Zm2.2.6c0 .2.2.2.2.2s.3-.2.3-.4-.3 0-.3 0-.2 0-.2.2Zm2.3-2.8c.5-.2.8-.8.8-.8s.2-.4-.2 0a6 6 0 0 1-.8.5l-1.7.6v.1c1 0 1.4-.2 1.9-.4ZM.8 42.3l.2-.4v-.5c-.3 0-.3.2-.3.4l.1.5Zm.6-3.3c0 .3.3-.3.3-.3s.3-.5.2-.6l-.2.2-.2.2s-.2.4 0 .5ZM4.8 34l.4-.6c.2-.2.1-.4.1-.5 0 0-.2-.1-.4.2l-1 1.8c.2.2.6-.4 1-1Zm2-2.8c-.1.2.5 0 .5 0h.3c0-.2 0-.2-.3-.3 0 0-.4 0-.5.3ZM9 34.8c.2.3.3.4.5.2l-.4-.7-.3-.4h-.2s-.2.2.2.6l.2.3Zm-4 8.3.2.2c.1 0 0-.1 0-.1L5 41.8V41s0-.2-.2-.2l-.2.1V42l.1.6.3.5Zm-.2-5.3s.2 0 .3-.3l.2-.4s-.2-.1-.4.2v.5Zm2.7 11.5s-.3-.3-.4-.2l.3.6s.1.2.3 0c.2 0 .1-.2.1-.2s-.1-.2-.3-.2ZM8.7 40c.3.3.8.6 1 .6.3 0 .3-.1.2-.2l-.2-.2-.6-.4-.5-.3-.7-.2h-.3c-.2.2 0 .2.2.3l.4.1.5.3Zm3.6-3.9.8-1s.2-.3-.1-.1c-.2 0-.6.4-.9 1-.3.4-.7 1.3-.6 1.4l.5-.7.3-.6Zm-.9 27 .2-.3s.1-.1-.4 0l-.3.1.2.2h.3Zm4.3-.6.2.2.3-.1-.2-.1h-.3Zm4.5.5h.6c.1-.1.2-.3 0-.3h-1.5l-1.6-.2-.2.1.3.3 1.2.2h1.2Zm3-.7.2-.1s.2-.2.1-.3h-.2a1 1 0 0 0-.3.3s0 .1.1 0Zm2-4.5c0-.4.1-.5.3-1 .4-.7-.5-.4-.6.6a3 3 0 0 0 .1 1.5c.3.3.3-.1.2-.6v-.5ZM20 73.9v-.1l.2-.1.2-.1v-.2s-.2-.2-.3-.1c-.2 0-.3.1-.4.3l-.2.2s-.2.3.1.4c.4 0 .4-.1.4-.3Zm2.7-2.7.2-.2v-.3h-.2l-.3.3v.2h.2Zm1.2-48.3c.2 0 .3-.4.3-.4s.1-.3 0-.2c-.3.3-1 .4-1.4.5l-.3.1h1.4Zm0-1.1v-.2c-.3.4-.8.7-1.1.8h-.1c0 .1.6 0 .9-.2.2 0 .2-.4.2-.4Zm-1.5-4.3-.3-.1-.4.1.2.1h.2l.3.2.1.2h.2l-.3-.5ZM21 18l-.3.3v.2h.6c.2 0 .3.1.4.3.1.2.4.3.5.2.1 0 0-.4 0-.4s0-.5-.3-.6l-.3-.1-.6.1Zm-.4 4s-.1.2 0 .1h.3l.7-.1.5-.6.5-.5c.1-.3-.1-.1-.4.2a5 5 0 0 1-1.6.9Zm-3.8 10.8s-.2.2-.1.3c0 .2.2 0 .2 0l1-.2a6 6 0 0 1 1.4.2h.4l.3.2h.3c.1 0-.6-.8-1.4-.9-1.3-.1-2.1.4-2.1.4Zm-2 11c-.2.2 2 3.2 4 4.7a149 149 0 0 1 2 1.2l-1-1-2.4-2.3-1.2-1.5c-.7-.8-1.2-1.3-1.4-1.2Zm6.4-13.6s1.1-1 2-2.4c.4-.9.6-2.8.2-2.3l-.3.7-.4 1.2C22.2 28.5 21 30 21 30s-.3.5.1.2Zm2.5 9.3c.2 1.4.8 2.5 1.7 3.4.5.7 1.8 1.7 2 1.6l-.4-.4-1.8-2a6 6 0 0 1-1-2.7c0-.1 0-.6-.3-.6-.2 0-.2.4-.2.7Zm.6 30.4 1.3-1 1.2-1.4v-.1h-.3l-.1.1-.1.1-.3.3-.6.6-.8.7-.2.2-.2.3v.2h.1ZM27 48.6l.3-.3c.6-.4-.5-.6-1 0-.4.4-.5 1-.3 1.4.2.3.3 0 .4-.3l.2-.6.4-.2Zm1.9 18h-.3c-.1 0 0 .2 0 .2s-.1.1 0 .2l.3-.4Zm4.5-11.9c-.1.3-.2.5 0 .6.4.3.8-1.7.6-2l-.3-.3s-.3 0-.3.4v1.3Zm7.6-4.4c.7-1 .8-1.8.8-3a9.7 9.7 0 0 0-.3-2.1s-.1-.3-.2 0v2s0 .8-.3 1.7c-.3 1-1 1.5-1.4 2-.3.2-.5.5-.5.7-.4.8 1-.3 2-1.3Z" clip-rule="evenodd"/>
  <path d="M21.4 14.6h-.2l-.4-.5.1-.2.2-.3.1-.5c.1 0 .2 0 .3.2a7.1 7.1 0 0 0 .6 1l.2.5h-.5l-.4-.2Z"/>
</svg>