<svg role="img" aria-labelledby="ferrari-svg" xmlns="http://www.w3.org/2000/svg" fill="none" viewBox="0 0 46 88">
  <title id="ferrari-svg">Ferrari</title>
  <g fill-rule="evenodd" clip-path="url(#a)" clip-rule="evenodd">
    <path fill="#fff" d="M46 18.269v1.186l-23-4.031-23 4.03V18.27l23-4.058 23 4.058Z"/>
    <path fill="#33A457" d="M46 17.056v1.213l-23-4.058L0 18.27v-1.212L23 13l23 4.056Z"/>
    <path fill="#CC2131" d="m46 19.454-23-4.03-23 4.03v4.09l.2-.112c.08-.046 8.242-4.57 22.843-4.57 14.603 0 22.669 4.526 22.75 4.57l.198.114.009-4.091Z"/>
    <path fill="#FFF22D" d="M23.044 19.652c13.186 0 20.907 3.71 22.158 4.361v11.775c0 6.42-1.512 12.815-4.492 19.011C34.187 68.333 24.372 73.647 23 74.341c-1.374-.694-11.197-6.008-17.718-19.542C2.302 48.603.79 42.208.79 35.79V24.014c1.263-.65 9.065-4.363 22.254-4.363Z"/>
    <path fill="#000" d="m.2 23.431-.2.113v12.244c0 6.54 1.538 13.051 4.57 19.352 7.12 14.78 18.155 19.95 18.266 20l.164.075.163-.075c.111-.05 11.138-5.222 18.257-20 3.033-6.3 4.571-12.812 4.571-19.352V23.545l-.197-.113c-.081-.045-8.148-4.57-22.75-4.57S.28 23.385.2 23.431Zm22.844-3.779c13.186 0 20.907 3.71 22.158 4.361v11.775c0 6.42-1.512 12.815-4.492 19.011C34.187 68.333 24.372 73.647 23 74.341c-1.374-.694-11.197-6.008-17.718-19.542C2.302 48.603.79 42.208.79 35.79V24.014c1.263-.65 9.065-4.363 22.254-4.363Z"/>
    <path fill="#000" d="M26.497 62.93c.383.266.105.726-.178.797-.295.08-.548-.247-.69.112-.081.193.137 1.655 1.632 1.655 1.396 0 2.062-1.792 2.193-2.062.132-.269.217-.612.085-.612-.612 0-.79.363-.79.363s-.047-.35.258-.614c.25-.215.58-.163.699-.163.25 0 .21-.186.36-.553.345-.866.58-.905.804-1.3.185-.321-.164-.447-.854-.512-.692-.066-1.063-.038-1.372.007-.31.044-.618.17-.81.644-.103.256.085.51.448.444.362-.068.71-.342.71-.342s-.163.649-.703.783c-.501.123-1.093-.18-1.014-.687.104-.658.559-1.14 1.389-1.302.831-.168 1.66-.04 2.398.142.736.186 1.278.073 1.963.033 1.476-.079 2.391-.427 2.391-.427s-.665.54-1.587.79c-.922.251-1.745.147-2.011.251-.215.092-.519.519-.769 1.006-.23.448-.475.965-.37.965.858.032 1.172-.155 1.172-.155s-.17.37-.578.544c-.283.115-.764.115-.764.115s-.217.548-.46 1.042c-.246.494-.647 1.265-1.37 1.647-.727.38-2.115.856-2.99-.402-.924-1.32-.08-2.82.808-2.208Zm-10.735.173a.462.462 0 0 1-.402.664c-.212 0-.475-.157-.53.108-.05.262.562 1.613 1.984 1.613 1.423 0 2.083-.824 1.982-1.561-.111-.824-1.42-1.15-2.462-1.7-.51-.267-1.663-.446-1.663-1.525 0-2.305 3.507-.833 3.507-.833s.008-.288.17-.301c.08-.008.239-.04.291.221.052.263.284 1.647.284 1.647s-.515-1.054-1.93-1.514c-.25-.088-1.344-.296-1.338.57.013.515.64.746 1.727 1.168 1.428.56 2.16 1.081 1.823 2.583-.321 1.442-1.731 1.679-2.416 1.679-.684 0-2.258-.48-2.258-2.062 0-1.119 1.097-1.092 1.231-.757Zm7.494-8.665.576.273c.332.128.544.071.62.04.08-.035.385-.361.45-.64.032-.113.015-.211-.045-.284-.224-.265-.62-1.485-.768-2.144-.054-.245.012-.92.063-1.463.045-.466.073-.756.05-.831-.04-.116-.212-.227-.41-.353l-.315-.214c-.167-.137-.175-.323-.184-.524l-.033-.31c-.073-.29-1.547-1.795-1.775-1.81-.331-.02-.417.342-.438.56-.013.129.134.7.267 1.205l.147.61c.151.96 1.17 2.648 1.605 3.369l.207.35c.089.203.054.364-.104.454-.154.088-1.48-.05-2.112-.196-.272-.062-.608-.198-.935-.33-.375-.15-.73-.295-.936-.306a.824.824 0 0 0-.441.077l-.144.04-.143-.045c-.176-.078-.504-.22-1.4-.3-1.306-.123-1.404.14-1.457.282-.065.18.734 1.029.876 1.143.182.146.77.37 1.128.31.41-.066 1.078-.149 1.16-.132l.136.082.124.089c.114.046.844.086 1.064.098.255.014.923.152 1.412.254l.546.11c.213.04.764.312 1.21.536Z"/>
    <path fill="#000" d="M36.766 37.501c-.03-.036-.054-.038-.069-.034-.014.005-.032.018-.038.06-.024.182-.252.65-.433.719-.367.142-.557.572-.695.886-.07.162-.14.316-.194.318-.023.002-.05-.023-.077-.076-.227-.39-.1-.986.002-1.467l.023-.118c.083-.405.557-.973.84-1.313l.126-.151c.193-.24.242-1.056.206-1.118-.012-.003-.02.003-.025.01a.046.046 0 0 0-.01.013h-.005v.004c-.011.012-.021.014-.031.055-.05.255-.517.773-1.312 1.461-.163.141-.35.396-.502.601-.098.135-.213.29-.243.297-.197-1.052.16-1.653.33-1.944l.078-.147c.337-.916 1.204-1.61 1.213-1.617.012-.026.012-.055-.01-.073-.033-.025-.094-.014-.19.034l-.052.026c-.303.147-1.214.591-1.774 1.661a5.126 5.126 0 0 0-.557 2.28c0 .332.04.607.108.789.197.524.54 1.826.646 2.337.066.317.077 1.404.077 2.086 0 .333-.002.567-.002.576-.002 0-.173.552-.173.552-.001.006-.084.438-.79 1.16-.71.726-1.502.957-1.51.96-.317.024-.607.011-.617-.03 0-.83-1.421-2.76-2.148-3.397a15.068 15.068 0 0 0-2.343-1.73c-1.026-.624-2.167-3.242-2.18-3.267l-.098-.354-.07-.89.085.051.35.204.401.154.526.104.293.15.27.177.422.304.433.228c.01.002.52.029.52.029l.012-.043-.593-.278c0-.008-.213-.373-.213-.373l-.248-.357-.308-.184c-.127-.02-.254-.038-.38-.054 0-.003-.076-.067-.114-.102l.096-.059c0 .005.408.052.409.052 0 .005.363.251.363.251l.396.305.375.147.048.019-.162-.421a27.756 27.756 0 0 0-.305-.289l-.449-.381c-.003-.003-.352-.183-.352-.183l-.376-.127-.394-.252.007-.05.545.218.475.13c0-.003.396.15.396.15l.57.278.478.105c.008 0 .583-.103.583-.103.008-.003.556-.385.556-.385.006-.01.107-.237.107-.237l.022-.052-.176.073-.499.252-.343.076-.39-.077h.002c0-.005-.315-.298-.315-.298l-.447-.432-.404-.207c-.006-.003-.478-.08-.478-.08l-.292-.149c.001 0 .002-.005.002-.013 0-.034-.009-.11-.012-.145l.594.05.65-.053c0 .002.367.077.367.077l.37.153.38.05.068.01-.423-.405-.427-.307-.354-.13c-.006-.002-.588-.05-.6-.052.005 0 .006-.01.006-.025 0-.035-.006-.085-.009-.111l.275-.047c0 .002.44.101.44.101 0 .002.418.252.418.252l.45.154c.013 0 .658-.101.658-.101l.039-.005-.197-.26a8.444 8.444 0 0 0-.335-.11l-.268-.199-.399-.28a29.347 29.347 0 0 0-.303-.105 58.026 58.026 0 0 0-.476-.077c0-.005-.231-.217-.236-.22a.428.428 0 0 0 .027-.11l.248.07.32.152.453.143-.1-.2-.177-.184-.154-.199.067-.016c0 .006.482.252.482.252l.377.128c0 .002.29.274.29.274.004.004.553.314.553.314l.056.031-.1-.268a61.137 61.137 0 0 0-.302-.388l-.248-.428a69.804 69.804 0 0 0-.451-.462c-.004-.005-.576-.31-.577-.31 0-.003-.218-.25-.218-.25a153.26 153.26 0 0 1-.399-.407c0-.005-.04-.145-.062-.215.068.021.388.127.388.127l.447.127.32.2c0 .002.266.325.266.325.01.007.433.186.433.186l1.081.14.063.008-.297-.312c-.007-.006-.58-.26-.58-.26l-.343-.251c0-.005-.193-.35-.193-.35l-.2-.355-.327-.31-.403-.232-.394-.328c0-.003-.095-.2-.156-.33l.274.263.523.458c.006.004.405.182.405.182l.342.276.396.405c.014.006.634.093.634.093l.078.012-.63-.546c0-.01-.142-.447-.142-.447-.109-.106-.219-.21-.33-.314l-.171-.202c0-.005-.171-.525-.171-.525a32.002 32.002 0 0 0-.355-.364c0-.003-.569-.533-.57-.535v-.002c0-.008-.02-.089-.032-.142l.103.053.522.304c.005.003.627.18.627.18l.648.154.75.12-.176-.357c-.013-.011-.386-.163-.386-.163l-.345-.202c-.004 0-.426-.18-.426-.18l-.372-.151c0-.004-.242-.315-.376-.487.129.086.328.222.328.222.01.003.335.029.335.029h1.022c0 .003.413.227.413.227 0 .002.353.382.353.382l.046.05-.043-.43a10.611 10.611 0 0 0-.228-.292 108.61 108.61 0 0 0-.605-.335l-.476-.18-.724-.127v-.001c0-.007-.137-.17-.137-.17l-.524-.485a23.389 23.389 0 0 0-.254-.13c0-.002-.08-.083-.13-.135h.269c0 .004.411.251.411.251.004.003.553.18.553.18l.7.102c0 .008.26.299.26.299l.378.232c.144.027.288.052.432.077l.06.01-.886-1.087c-.006-.005-.43-.233-.43-.233a96.99 96.99 0 0 0-.5-.155c0-.005-.438-.502-.438-.502a71.686 71.686 0 0 0-.553-.334 22.634 22.634 0 0 0-.398-.097l.107-.177c.002.004.44-.194.44-.194l.64-.125a.978.978 0 0 0 .067-.169c-.009-.025-.283-.203-.283-.203a32.91 32.91 0 0 0-.328-.105c-.02.003-.194.104-.194.105 0-.003-.537.021-.537.021l-.64-.152c0-.003-.662-.554-.662-.554a43.43 43.43 0 0 0-.304-.155l-1.102-.129c0-.014-.257-.397-.257-.397l-.35-.384-.448-.404-.014.03-.149.33c0-.003-.147.226-.147.226v.005c0 .043.02.263.02.263.007.014.151.162.155.166a2.3 2.3 0 0 0-.055.232c-.001-.016-.599.009-.6.009 0-.003-.488-.227-.488-.227l-.378-.129c-.007-.002-.877.024-.877.024-.02.01-.167.239-.167.239l-.02.03.383.055c0 .002.057.038.088.058l-.098.08c0-.005-.533-.03-.533-.03-.009.002-.383.154-.383.154l-.04.017.187.125c.011.004.807.029.807.029l.591.152c0 .009.113.17.113.17l.11.157-.253.14-.72.304-1.493.838c-.001-.001-.983.146-.983.146-.008.002-.385.212-.385.212-.008.006-.31.425-.31.425-.004.005-.175.528-.175.528-.013.887.022.907.035.914.03.019.285.164.484.058.224-.122.704-.242.954-.296.123-.025.18.02.191.065.014.05-.024.118-.116.143l-.051.015c-.434.118-.877.261-.863.428l.077.128c.194.142.697.075.964.014l.28-.078c.24-.073.513-.155.747-.129.135.016.254.074.394.14.19.092.409.196.733.217.541.038.911.147.94.18.073.147.026.365-.01.54l-.028.16c-.152 1.374-1.686 2.927-2.425 3.672-.2.202-.332.335-.36.39l-.085.197c-.072.182-.13.34-.365.434-.135.053-.451.29-.818.565-.53.395-1.186.887-1.367.865-.303-.035-1.716-1.008-1.776-1.068-1.377-1.333-1.953-1.06-2.297-.896l-.055.025c-.41.187-.842 1.35-.88 1.6l-.167.716-.128.527c-.038.178-.207.615-.369 1.038l-.332.92c-.055.214-.188.513-.296.755l-.147.359c-.103.42-.104 2.726.074 2.93l.008.008.035.01c.178-.018.562-.413.746-.604l.043-.044c.155-.157.32-.574.32-.75 0-.172-.08-.532-.111-.63-.25-.76-.156-1.486-.11-1.834l.018-.155c.013-.161.175-.34.332-.511l.198-.23a.689.689 0 0 1 .338-.236l.178-.102.027-.028c.118-.118.315-.317.402-.583l.168-.73.037-.194c.008-.039.028-.06.061-.068.067-.014.167.039.21.096l1.218 1.414c.313.266.633.583.633.652v.006h-.007c-.17.018-1.03-.165-1.172-.205-1.166-.342-1.699-.282-2.11.232-.467.589-.32 2.392-.225 2.59.088.178.515 2.375.534 2.668.02.287.13.8.247.918l.031.033c.144.142.523.522.59.898.072.408.94 1.502 1.27 1.6a.161.161 0 0 0 .147-.028c.252-.18.367-1.055.38-1.424.017-.461-.149-.684-.324-.922l-.068-.093c-.129-.176-.356-.24-.506-.282-.065-.019-.152-.04-.152-.06 0-.006-.018-.681-.233-.811-.168-.103-.339-.754-.36-1.002-.019-.246-.114-.84-.242-1.101-.129-.262-.238-.745-.182-1.117.023-.16.137-.21.23-.225.16-.026.344.043.373.1.064.127 1.294.87 1.709 1.029.257.097.606.392.914.655.22.183.408.342.525.398.159.076.608.085.97.092.19.004.39.008.417.024-.147.059-.145.316-.133.399.15 1.063 4.017 3.983 4.316 4.147.346.186 1.588 1.482 1.697 1.659.113.174.222.363.201.509-.03.216.057.462.23.663.165.187.38.3.58.3.172 0 .288-.155.373-.267l.018-.023c.231-.306.573-.753.618-1.453.047-.717.374-1.002.481-1.021.048-.009.083.005.096.037.013.033-.003.087-.068.13-.141.096-.23.413-.327.753l-.036.346c-.008.257-.018.548-.274.83-.384.416-.824 1.374-.938 2.584-.07.729.259 1.779.975 3.117l.05.096.193.325c.196.314.523.838.508.96-.021.173-.037.308-.335.683-.328.41-1.524 1.803-1.641 1.825-.238 0-.278.03-.47.175l-.201.154c-.221.157-.26.274-.297.378a.402.402 0 0 1-.156.224l-.077.051c-.016.014-.059.075-.54.556-.55.545-.797 1.161-.712 1.774.027.192.192.259.682.28.488.024 1.608-.76 1.658-1.015l.017-.098c.043-.23.115-.618.242-.674.153-.067.415-.369.607-.589l.037-.041c.103-.118.127-.236.152-.348.02-.088.04-.178.098-.259a.473.473 0 0 1 .19-.128c.149-.071.336-.162.47-.5.135-.332.936-.907 1.52-1.325.3-.212.534-.382.59-.457.076-.1.123-.293.123-.498 0-.243-.065-.501-.217-.645-.222-.206-.431-.819-.493-1.011v-.004c0-.08-.008-.226-.02-.497l-.001-.038c0-.718 1.067-1.42 1.528-1.723l.21-.145c1.672-1.474 1.999-2.595 2.06-2.903l.035-.368c.01-.256.019-.499.173-.53.06-.012.16.036.22.109.035.039.087.12.052.215-.076.207-.101 2.285-.102 2.372.006.014.18.22.18.22l.032.037.01-.049c.002-.024.098-.59.098-.79 0-.225.36-1.184.447-1.201 0 .003.006.011.006.011.042.133.096.46.096.806 0 .34-.052.696-.217.903-.25.31-.45.8-.58 1.124l-.12.275a.306.306 0 0 0-.017.119c0 .263.136.825.225.929.023.025.042.025.055.02.03-.01.055-.048.055-.269 0-.84.706-1.45.715-1.454.622-.494.758-1.41.758-2.107 0-.528-.078-.931-.08-.942a33.17 33.17 0 0 0-.299-.436c.015.007.096-.06.123-.081l.31.41c.048.068.169.263.169.34 0 .432.066.728.114.945l.012.052c.05.23.36.965.375.996l.033.078.01-.084c0-.004.05-.388 0-.717-.028-.184.007-.41.043-.655l.056-.56c0-.456-.065-.744-.227-1.006l-.083-.126c-.032-.051-.064-.101-.06-.112l.06-.026a3.683 3.683 0 0 0 2.175-1.95c.262-.567.276-1.442.276-1.61 0-.22-.01-1.355-.2-1.94-.113-.344-.077-.714-.04-1.113l.041-.684c0-.467.246-.814.485-1.15l.284-.44c.186-.367.087-.688.013-.78Z"/>
    <path fill="#000" d="M22.053 22.864a3.38 3.38 0 0 0 .301-.131c.012-.025-.052-.29-.052-.29-.202-.239-.404-.477-.608-.714l-.03-.035-.01.044-.066.286c0-.003-.193.46-.193.46l-.008.019.407.208.259.153Z"/>
    <path fill="#fff" d="M22.174 24.699c.064.024.162.013.254-.028.14-.066.224-.179.188-.26l-.065-.059c-.063-.024-.16-.013-.251.029-.121.054-.198.143-.198.22 0 .013.004.028.008.04l.064.058Zm2.432-1.004.116.063a.148.148 0 0 0 .098.082.168.168 0 0 0 .142-.036c.031-.024.039-.07.019-.128-.031-.096-.132-.2-.24-.2-.139 0-.266.015-.266.118 0 .058.067.08.13.101Zm.139.41c-.054.04-.078.094-.063.148l.011.045c.014.053.02.064.068.07l.088.016c.114.029.293-.042.334-.132.013-.03.024-.087-.053-.14a.353.353 0 0 0-.385-.006Zm.362 1.576c-.033-.015-.019-.067.006-.142.02-.061.039-.12.007-.152-.027-.027-.076-.025-.16.007-.301.108-.347.415-.38.639l-.01.069c-.018.1.033.133.065.145.104.037.291-.058.333-.13.047-.077.307-.148.497-.2l.072-.02c.088-.023.133-.057.14-.103.009-.06-.057-.114-.116-.15-.055-.031-.136-.008-.22.016-.085.023-.175.047-.234.021Zm-3.18.115a.195.195 0 0 0 .151-.08.527.527 0 0 0 .008-.529c-.09-.175-.244-.287-.401-.293h.002l-.035-.004-.29.023c-.152.034-.294.147-.328.258-.018.056-.008.108.03.146.233.246.634.497.863.48Zm-2.852-.232c.035.085.194.094.427.025l.051-.016.418-.163.606-.398c.018-.014.176-.133.143-.21-.023-.05-.101-.04-.159-.03-.167.03-.33.111-.505.196l-.246.114-.11.045c-.374.155-.681.294-.625.437Zm-1.274.443c-.126 0-.182.068-.228.129l-.057.063c-.097.083-.126.285-.114.438.005.063.023.179.085.215.12.074.178.022.3-.094l.095-.081c.12-.101.26-.216.278-.392a.222.222 0 0 0-.051-.181c-.074-.08-.208-.097-.308-.097Zm.697.055c-.036-.008-.058.004-.069.015-.037.036-.022.113-.01.174l.007.043-.008.026c-.008.022-.017.05 0 .073.016.024.054.034.118.034.082.001.09-.008.118-.08l.022-.057c.02-.05.02-.094.001-.13-.034-.062-.117-.085-.179-.098Zm.674 1.092a.166.166 0 0 0 .112-.281.167.167 0 0 0-.112-.051.165.165 0 0 0-.151.102.163.163 0 0 0-.012.064c0 .091.072.166.163.166Zm3.034-.405a.13.13 0 0 0-.126.048c-.045.052-.318.24-.518.377l-.259.183-.02.02c-.033.03-.049.05-.028.113l.032.044.068-.014.1-.037.145-.023c.143-.018.299-.04.372-.115l.096-.157.143-.229c.068-.075.072-.127.062-.156a.087.087 0 0 0-.067-.054Zm.3.925c0 .085.043.118.066.13.064.034.156.001.211-.075l.186-.162c.1-.072.212-.154.312-.28.092-.118.052-.191.02-.223-.064-.061-.193-.075-.237-.04l-.054.037c-.121.08-.408.266-.48.493a.375.375 0 0 0-.024.12Zm1.209-.09c-.038-.056-.103-.08-.152-.055l-.13.099c-.092.075-.207.17-.306.198-.242.065-.57.173-.59.338v.022c0 .046.02.073.04.088.092.075.315.03.476-.03.247-.092.397-.203.591-.38.12-.108.114-.217.07-.28Zm-.939 1.907-.078-.009c-.204.055-.55.652-.794 1.097l-.044.078-.73 1.37-.229.436c-.025.04-.016.097.022.135.035.036.097.055.172.008.122-.081.566-.522.772-.868l.275-.379c.176-.23.376-.487.494-.793l.041-.105c.279-.723.322-.833.1-.97Zm2.745-2.633a.16.16 0 0 0-.148.094.158.158 0 0 0-.014.06c0 .086.073.155.162.155.09 0 .16-.07.16-.155a.157.157 0 0 0-.16-.154Zm-.077.645c0 .086.073.155.162.155a.156.156 0 0 0 .158-.155.157.157 0 0 0-.158-.155.16.16 0 0 0-.162.155Zm.149.343c-.101 0-.185.067-.185.147 0 .081.084.147.185.147.102 0 .185-.066.185-.147 0-.08-.083-.147-.185-.147Zm-.008.43c-.116 0-.208.072-.208.163 0 .09.092.163.208.163.117 0 .208-.074.208-.163 0-.09-.091-.164-.208-.164Zm.008.544c-.128 0-.234.076-.234.172 0 .094.106.17.234.17s.232-.076.232-.17c0-.096-.104-.172-.232-.172Zm-.08.912c.146-.012.253-.092.244-.184l-.045-.084a.318.318 0 0 0-.226-.055c-.14.013-.244.088-.244.175l.001.01.047.082a.307.307 0 0 0 .224.056Zm-.007.573c.162-.024.277-.113.264-.205l-.048-.076c-.057-.044-.158-.061-.262-.046-.16.022-.277.113-.264.205l.05.076c.057.044.156.06.26.046Zm-.274.277c0 .1.122.18.282.18.159 0 .279-.08.279-.18 0-.1-.12-.18-.28-.18-.16.001-.28.08-.28.18Zm.498.586c0-.107-.145-.188-.33-.188-.184 0-.33.081-.33.188 0 .105.146.188.33.188.185 0 .33-.083.33-.188Zm-.211.494c0-.104-.109-.187-.24-.187-.134 0-.242.083-.242.187s.108.188.242.188c.132 0 .24-.084.24-.188Zm-.113.619c0-.117-.115-.213-.258-.213-.14 0-.255.096-.255.213 0 .117.114.212.255.212.143 0 .258-.095.258-.212Zm-.21.602c0-.105-.093-.189-.208-.189-.114 0-.21.083-.21.188 0 .104.096.188.21.188.115 0 .209-.084.209-.188Zm-.361.356c-.11 0-.202.084-.202.188 0 .103.091.187.202.187.11 0 .2-.085.2-.187 0-.105-.09-.188-.2-.188Zm-.17.903c.113 0 .209-.073.209-.164 0-.09-.096-.162-.21-.162-.114 0-.207.073-.207.162 0 .09.093.164.207.164Zm-.193.395c.105 0 .192-.061.192-.138 0-.077-.085-.138-.192-.138-.11 0-.194.06-.194.138 0 .077.087.138.194.138Zm-.186.38c.1 0 .185-.062.185-.139 0-.076-.085-.137-.185-.137-.104 0-.185.061-.185.138 0 .076.082.138.185.138Zm-5.458-.336.033.006.252-.045c.224-.05.56-.125.975-.136.303-.008.632.098.87.175.217.073.325.104.366.06.026-.03.01-.073-.004-.103-.065-.14-.35-.603-1.282-.624-.605-.014-1.098.398-1.203.571-.021.036-.027.062-.016.081l.009.015Zm3.462 1.75c.059-.038.084-.105.08-.2-.02-.378-.12-.42-.328-.42-.21 0-.363.211-.363.32 0 .104.076.194.223.268.083.044.274.106.388.032Zm2.856 4.604c.3.14.406.19.45.204.002 0 .004.005.004.005l.002-.003c.02.006.027.004.032-.003-.003-.002-.014-.02-.02-.025a.041.041 0 0 0 .006-.01l-.02-.01c-.198-.25-1.394-1.95-1.649-3.07-.04-.184-.087-.356-.207-.425-.068-.037-.153-.04-.257-.005-.024.007-.042.026-.053.055a.272.272 0 0 0-.013.098c0 .4.426 1.5.565 1.726.77 1.25 1.146 1.455 1.16 1.463Zm9.775.486-.046.01c.002.006.012.34.012.769 0 .625-.022 1.459-.13 1.833-.088.304-.49.884-.815 1.35l-.378.567a.123.123 0 0 0-.016.062.17.17 0 0 0 .078.142c.038.026.175.093.366-.134l.241-.255c.322-.322.723-.72 1.005-1.602.309-.966-.312-2.725-.317-2.742Zm-10.071 3.15c.029.03.076.037.125.02a.207.207 0 0 0 .139-.179c.011-.12.095-.283.22-.422a.382.382 0 0 0-.023-.53l-.16-.064c-.104.004-.18.086-.185.089-.053.257-.106.514-.157.772-.015.042-.03.247.04.314Zm5.214 2.851-.008-.003-.008.003c-.006.005-.14.068-.18.2-.025.088.024.165.062.228l.045.084.02.168.03.248a.118.118 0 0 0 .12.084c.063-.002.136-.05.16-.149a2.37 2.37 0 0 0 .049-.551c0-.219-.277-.309-.29-.312Zm-8.093-2.013c-.018-.02-1.93-2.095-2.343-2.639-.42-.556-.622-.599-.828-.485a.11.11 0 0 0-.054.085c-.03.226.448.774.866 1.175.585.563 2.31 1.885 2.329 1.898l.03-.034Zm-7.492-6.122c-.388-.24-1.058-.374-1.065-.377l-.018.04.744.561c.123.101.664.437.839.3a.089.089 0 0 0 .035-.074c-.006-.1-.194-.236-.535-.45Zm-.182-3.174.052-.022c.067-.076-.087-.29-.274-.463-.169-.156-.34-.256-.43-.251l-.051.022a.07.07 0 0 0-.016.047c0 .098.134.27.29.416.168.155.342.257.429.251Zm1.987-.27-.076.004c-.144.06-.373.428-.556.892-.13.329-.227.686-.227.902 0 .102.022.172.071.192l.075-.004c.145-.062.373-.43.558-.893.129-.33.225-.687.225-.903 0-.102-.02-.171-.07-.19Zm-3.577-2.268c-.187 0-.335.089-.335.2 0 .112.148.2.335.2.19 0 .336-.088.336-.2 0-.111-.147-.2-.336-.2Zm-1.19 2.477.058-.005c.101-.05.254-.324.369-.666.121-.365.188-.756.07-.797l-.057.005c-.103.051-.255.325-.369.667-.124.364-.186.755-.07.796Zm.312 1.885c.099-.133.118-.283.045-.338l-.086-.019c-.071.01-.157.07-.22.158-.1.133-.12.282-.046.337l.086.02c.071-.01.158-.07.22-.158ZM11.715 40l-.008-.005-.038-.003c-.133.03-.04.613.03.92.098.428.23.773.322.83l.008.007.037.003c.136-.03.04-.616-.03-.92-.097-.43-.228-.774-.321-.832Zm-1.348.783c-.108 0-.196.08-.196.18 0 .094.088.175.196.175.107 0 .197-.08.197-.175 0-.1-.09-.18-.197-.18Zm3.312 4.23a.227.227 0 0 0-.228.223c0 .12.102.22.228.22a.225.225 0 0 0 .228-.22.227.227 0 0 0-.228-.224Zm11.196 5.892c.007.011.028.048.06.044h.012l.024-.036.206-.626.16-.417.137-.318c.042-.106.042-.177 0-.219-.065-.06-.201-.009-.218-.002-.01.008-.386.634-.386.634a.77.77 0 0 0-.1.418c0 .22.055.441.105.522Zm.937 3.127.007-.063c.005-.038.118-.908-.15-1.244a.325.325 0 0 0-.23-.13c-.08-.007-.136.016-.166.067-.164.267.477 1.272.505 1.316l.034.054Zm1.5 1.656a.23.23 0 0 0-.217.14.233.233 0 0 0-.019.09c0 .129.105.23.235.23a.23.23 0 0 0 0-.46Zm-3.53-2.804c-.11 0-.204.086-.204.191 0 .11.094.193.204.193a.197.197 0 0 0 .203-.193c0-.105-.091-.191-.203-.191Zm2.572 3.395-.025-.006c-.122 0-.583.403-.976.805-.035.037-.888.912-.775 1.026l.007.008.027.005c.123 0 .584-.404.975-.804.036-.038.89-.91.774-1.028l-.007-.006Zm-2.562 2.366c-.071 0-.183.066-.282.166-.12.119-.206.283-.142.35l.063.023c.073 0 .184-.065.284-.166.116-.12.205-.282.139-.35l-.062-.023Zm-1.124 1.62c-.088 0-.211.071-.32.18-.112.114-.177.239-.177.326 0 .033.009.06.03.079l.08.03c.085 0 .213-.07.318-.18.157-.16.22-.331.15-.406l-.081-.03Zm-5.876-8.158c-.169 0-.306.096-.306.217 0 .12.137.213.306.213.17 0 .305-.093.305-.213 0-.121-.135-.217-.305-.217Zm2.488.174c-.12 0-.212.065-.212.15 0 .08.093.145.212.145.116 0 .211-.066.211-.146 0-.083-.095-.149-.21-.149Zm3.038 1.016.018-.028c.034-.143-.682-.366-1.065-.463-.46-.118-1.007-.212-1.127-.14l-.009.006-.02.03c-.034.144.682.365 1.066.465.46.115 1.006.207 1.128.135l.009-.005Z"/>
  </g>
  <defs>
    <clipPath id="a">
      <path fill="#fff" d="M0 0h46v88H0z"/>
    </clipPath>
  </defs>
</svg>
