<svg role="img" aria-labelledby="hertz-svg" xmlns="http://www.w3.org/2000/svg" viewBox="0 0 82 88">
  <title id="hertz-svg">Hertz</title>
  <path fill="#000" fill-rule="evenodd" d="m18.949 29-2.205 10.347h-8.11L10.834 29H6.169L1.452 51.211h4.662l1.628-7.7h8.115l-1.634 7.7h4.623L23.566 29h-4.617ZM58.06 43.415l.102-.471 1.193-5.606h4.9l.888-4.173h-4.906l.87-4.165h-4.621l-3.031 14.328c-.456 2.141-.627 3.814.3 5.618.864 1.676 3.814 3.276 7.55 2.265l.826-3.873c-2.528.314-3.545-.015-4.044-.547-.617-.664-.343-1.924-.027-3.376Zm-15.615-2.77c.596-2.793 1.515-4.561 3.133-5.912a8.846 8.846 0 0 1 7.985-1.57l-.89 4.173c-1.843-.151-3.378-.091-4.437.991-.77.789-1.107 2.071-1.547 4.121l-1.864 8.763h-4.626l2.246-10.566Zm39.235-7.48H67.244l-.885 4.173h8.376l-10.476 9.861-.851 4.013h14.438l.89-4.17h-8.423l10.528-9.907.839-3.97Zm-54.526 1.8a9.45 9.45 0 0 1 5.8-2.132c.637 0 4.121.045 6.01 2.636 2.147 2.939.77 7.738.68 8.055a.382.382 0 0 0-.005.017H27.526c-.816 6.28 6.932 3.707 8.471 2.524l1.839 3.106a13.152 13.152 0 0 1-7.6 2.368c-10.165 0-7.815-12.86-3.082-16.574Zm1.393 4.755h7.416a2.7 2.7 0 0 0-2.656-3.186 4.656 4.656 0 0 0-4.76 3.186Zm51.77 9.844h.548c.295 0 .45.149.399.406a.506.506 0 0 1-.348.384l.208.44h-.32l-.177-.4h-.216l-.084.4h-.272l.262-1.23Zm.573.557a.236.236 0 0 0 .092-.136v-.001c.026-.119-.043-.18-.18-.181h-.264l-.076.361h.27a.237.237 0 0 0 .158-.043Z" clip-rule="evenodd"/>
  <path fill="#FDD20B" d="M76.405 58.027H0l.877-4.132h76.41l-.882 4.132Z"/>
</svg>
