<svg role="img" aria-labelledby="ied-svg" viewBox="0 0 128 88" fill="none" xmlns="http://www.w3.org/2000/svg">
  <title id="ied-svg">IED</title>
  <g clip-path="url(#clip0_1837_564)">
    <path d="M101.09 50.39V56.6H81.45V30.57H101.09V36.57H89.3V40.35H98.82V46.13H89.3V50.39H101.08H101.09ZM69.19 56.6H77.19V30.57H69.19V56.6Z" fill="#CC0200"/>
    <path fill-rule="evenodd" clip-rule="evenodd" d="M104.14 30.57V56.6H114.74C118.47 56.6 121.51 55.39 123.84 52.95C126.19 50.52 127.36 47.35 127.36 43.46C127.36 40.06 126.26 37.06 124.09 34.46C121.91 31.86 118.62 30.56 114.24 30.56H104.14V30.57ZM114.24 50.62H112.16V36.48H114.24C115.77 36.48 116.94 37.17 117.74 38.54C118.56 39.91 118.96 41.54 118.96 43.44C118.96 45.66 118.51 47.4 117.6 48.69C116.68 49.97 115.57 50.62 114.24 50.62V50.62ZM20.8 51.1C22.0151 53.785 23.7997 56.1735 26.03 58.1L46.22 34.16L20.8 51.1ZM29.02 60.23C32.0536 62.0041 35.5058 62.9362 39.02 62.93C50.05 62.92 59 53.9 59 42.76C59 37.99 57.34 33.6 54.6 30.15C48.06 37.84 35.54 52.52 29 60.22L29.02 60.23ZM39.02 22.61C27.97 22.61 19.02 31.64 19.02 42.77C19.02 44.35 19.2 45.87 19.54 47.35L50.65 26.38C47.2653 23.926 43.1907 22.6063 39.01 22.61H39.02ZM22.16 62.68C21.9951 62.849 21.8652 63.0489 21.7779 63.2683C21.6906 63.4877 21.6476 63.7222 21.6513 63.9583C21.655 64.1944 21.7054 64.4274 21.7996 64.644C21.8938 64.8605 22.0298 65.0563 22.2 65.22C22.55 65.55 23 65.74 23.5 65.74C23.97 65.74 24.44 65.54 24.77 65.19L29.01 60.23C27.9486 59.6156 26.9475 58.9024 26.02 58.1L22.16 62.68V62.68ZM5.99999 56.47L21.98 24.65C22 24.62 22.13 23.94 22.13 23.94C22.1377 23.5143 21.9951 23.0995 21.7272 22.7686C21.4594 22.4376 21.0834 22.2117 20.6655 22.1305C20.2476 22.0493 19.8144 22.118 19.4421 22.3246C19.0698 22.5312 18.7823 22.8624 18.63 23.26L18.65 23.23L0.139995 60.88C-0.0287777 61.2435 -0.0714297 61.6529 0.0187968 62.0433C0.109023 62.4338 0.326968 62.783 0.638097 63.0355C0.949226 63.2881 1.33575 63.4296 1.73641 63.4377C2.13707 63.4457 2.52897 63.3199 2.84999 63.08L20.8 51.1C20.26 49.9 19.83 48.64 19.54 47.34L5.99999 56.47ZM54.6 30.16L58.84 25.19C59.47 24.55 59.51 23.49 58.9 22.77C58.6031 22.426 58.1889 22.2047 57.7379 22.1493C57.2869 22.0938 56.8314 22.2081 56.46 22.47L50.65 26.38C52.1343 27.4523 53.4635 28.7243 54.6 30.16V30.16Z" fill="#CC0200"/>
  </g>
  <defs>
    <clipPath id="clip0_1837_564">
      <rect width="128" height="88" fill="white"/>
    </clipPath>
  </defs>
</svg>
