<svg xmlns="http://www.w3.org/2000/svg" viewBox="0 0 128 88">
    <title>IED</title>
    <path d="M101 50.4v6.2H81.6v-26H101v6H89.3v3.7h9.5v5.8h-9.5v4.3h11.8zm-31.8 6.2h8v-26h-8v26z"/>
    <path fill-rule="evenodd" d="M104.1 30.6v26h10.6a12 12 0 009.1-3.6 13 13 0 003.6-9.5c0-3.4-1.1-6.4-3.3-9-2.2-2.6-5.5-4-9.9-4h-10zm10.1 20h-2V36.5h2c1.6 0 2.7.7 3.5 2 .9 1.4 1.3 3 1.3 5a9 9 0 01-1.4 5.2c-1 1.3-2 2-3.4 2zm-93.4.5a20.3 20.3 0 005.2 7l20.2-24-25.4 17zm8.2 9.1A19.7 19.7 0 0039 63a20 20 0 0015.6-32.8L29 60.3zm10-37.6a20 20 0 00-19.5 24.8l31.1-21A19.8 19.8 0 0039 22.6zm-16.8 40a1.8 1.8 0 000 2.6c.3.3.8.5 1.3.5s1-.2 1.3-.5l4.2-5a19.5 19.5 0 01-3-2.1l-3.8 4.6zM6 56.6l16-31.9.1-.7a1.8 1.8 0 00-3.5-.6L.1 60.8A1.8 1.8 0 003 63l17.9-12c-.5-1.2-1-2.5-1.3-3.8L6 56.5zm48.6-26.3l4.2-5c.7-.6.7-1.7.1-2.4a1.8 1.8 0 00-2.4-.3l-5.8 3.9a19.9 19.9 0 013.9 3.8z" clip-rule="evenodd"/>
</svg>