<svg xmlns="http://www.w3.org/2000/svg" viewBox="0 0 186 88">
    <path fill-rule="evenodd" clip-rule="evenodd" d="M96.44 41.056c1.08-.139 1.804-.59 2.168-1.357.21-.419.314-1.021.314-1.809 0-1.607-.57-2.775-1.708-3.504-1.139-.724-2.767-1.088-4.89-1.088-2.453 0-4.19.665-5.216 1.997-.574.737-.946 1.83-1.122 3.282h-4.392c.088-3.458 1.206-5.865 3.354-7.222 2.151-1.352 4.643-2.03 7.481-2.03 3.29 0 5.962.628 8.013 1.88 2.039 1.255 3.056 3.206 3.056 5.857v16.126c0 .49.101.88.302 1.177.196.297.619.443 1.268.443.21 0 .444-.012.708-.037.259-.026.54-.067.837-.118v3.475c-.733.21-1.289.34-1.67.394-.386.05-.905.08-1.57.08-1.621 0-2.797-.574-3.53-1.725-.38-.612-.653-1.474-.808-2.588-.958 1.256-2.332 2.345-4.128 3.266-1.796.925-3.772 1.386-5.932 1.386-2.596 0-4.718-.788-6.363-2.362-1.646-1.574-2.47-3.546-2.47-5.911 0-2.592.812-4.601 2.432-6.029 1.62-1.427 3.747-2.307 6.376-2.637l7.49-.947Zm-9.906 12.71c.992.783 2.169 1.172 3.53 1.172 1.653 0 3.257-.38 4.81-1.147 2.612-1.268 3.919-3.35 3.919-6.238v-3.785c-.574.369-1.315.674-2.22.917-.904.243-1.791.419-2.658.524l-2.843.364c-1.703.226-2.984.582-3.843 1.067-1.457.817-2.181 2.123-2.181 3.91-.004 1.365.494 2.433 1.486 3.216Z"/>
    <path d="M69.767 30.003h-4.471v27.995H70V41.898c0-1.989.637-3.743 1.91-5.267 1.272-1.524 3.093-2.286 5.463-2.286.276 0 .536.009.77.026.235.016.49.05.77.104v-4.97a43.418 43.418 0 0 0-1.071-.104 6.428 6.428 0 0 0-.444-.025c-1.863 0-3.512.678-4.94 2.026-1.428 1.353-2.328 2.496-2.692 3.438v-4.836ZM17.814 30C7.975 30 0 37.98 0 47.822v7.638a2.543 2.543 0 0 0 2.543 2.543 2.55 2.55 0 0 0 2.551-2.543v-7.638a2.543 2.543 0 1 1 5.086 0v7.638a2.543 2.543 0 0 0 2.544 2.543 2.543 2.543 0 0 0 2.547-2.543v-7.638a2.548 2.548 0 0 1 5.095 0v7.638a2.543 2.543 0 1 0 5.086 0v-7.638a2.545 2.545 0 0 1 2.551-2.547 2.543 2.543 0 0 1 2.543 2.547v7.638a2.544 2.544 0 0 0 2.547 2.543 2.543 2.543 0 0 0 2.543-2.543v-7.638C35.636 37.98 27.657 30 17.814 30ZM39.636 30.003h4.522v11.89l12.066-11.89h6.011L51.476 40.41l11.362 17.584h-6.012l-8.804-14.243-3.864 3.739v10.508h-4.522V30.003ZM114.195 41.893v-11.89h-4.526v27.995h4.522V47.49l3.864-3.738 8.804 14.242h6.012l-11.362-17.583 10.759-10.408h-6.007l-12.066 11.89Z"/>
    <path fill-rule="evenodd" clip-rule="evenodd" d="M152.062 30.773c1.855.934 3.266 2.14 4.233 3.622.934 1.41 1.557 3.056 1.871 4.94.277 1.29.415 3.345.415 6.167h-20.359c.088 2.846.753 5.132 1.997 6.853 1.243 1.72 3.173 2.583 5.781 2.583 2.437 0 4.384-.812 5.836-2.44a8.327 8.327 0 0 0 1.729-3.283h4.627c-.122 1.03-.528 2.173-1.215 3.437-.686 1.265-1.456 2.294-2.302 3.098-1.419 1.395-3.174 2.336-5.267 2.822-1.122.28-2.395.419-3.814.419-3.462 0-6.397-1.269-8.804-3.802-2.407-2.537-3.609-6.083-3.609-10.65 0-4.497 1.21-8.147 3.638-10.952 2.424-2.805 5.593-4.208 9.508-4.208 1.967-.004 3.881.465 5.735 1.394Zm1.683 10.994c-.188-2.039-.632-3.667-1.323-4.886-1.276-2.264-3.412-3.399-6.401-3.399-2.143 0-3.939.779-5.388 2.34-1.453 1.562-2.219 3.542-2.307 5.945h15.419Z"/>
    <path d="M167.184 33.976v-3.973h-4.471v27.995h4.706v-14.66c0-1.83.117-3.233.351-4.22.235-.989.746-1.94 1.528-2.864.98-1.148 2.11-1.914 3.4-2.299.716-.226 1.633-.339 2.746-.339 2.194 0 3.71.87 4.547 2.612.507 1.043.758 2.42.758 4.128v17.642h4.785V40.043c0-2.826-.385-4.994-1.151-6.51-1.394-2.771-4.078-4.157-8.051-4.157-1.813 0-3.458.356-4.94 1.072-1.482.716-2.885 1.892-4.208 3.529Z"/>
</svg>