<svg role="img" aria-labelledby="rai-svg" xmlns="http://www.w3.org/2000/svg" viewBox="0 0 63 88">
  <title id="rai-svg">RAI</title>
  <g clip-path="url(#clip0_1837_569)">
    <path d="M63 12.3528H0V75.6632H63V12.3528ZM12.6856 43.2605H13.3177C15.4498 43.2605 17.8525 42.8643 17.8525 40.1113C17.8525 37.3665 15.4498 36.9622 13.3177 36.9622H12.6846V43.2605H12.6856ZM27.0662 57.2133H18.9247L12.7499 47.488H12.6835V57.2123H6.1452V31.9259H15.9175C20.8924 31.9259 24.6635 34.3123 24.6635 39.707C24.6635 43.1993 22.7233 46.2167 19.1545 46.8519L27.0662 57.2133ZM33.5852 48.6327C33.5852 50.8077 35.0188 52.4875 37.491 52.4875C39.9601 52.4875 41.3938 50.8077 41.3938 48.6327C41.3938 46.519 39.9601 44.7442 37.491 44.7442C35.0188 44.7442 33.5852 46.519 33.5852 48.6327ZM47.2633 57.2133H41.1967V55.3069H41.1232C40.0592 57.0152 37.9597 57.7831 35.9511 57.7831C30.8781 57.7831 27.3082 53.5229 27.3082 48.5949C27.3082 43.6659 30.8209 39.4394 35.8899 39.4394C37.8525 39.4394 39.9274 40.1787 41.1967 41.689V40.0143H47.2633V57.2133ZM57.4716 33.4045C57.4716 35.2875 55.9307 36.8274 54.0661 36.8274C52.2015 36.8274 50.6606 35.2875 50.6606 33.4045C50.6606 31.5307 52.2015 29.9919 54.0661 29.9919C55.9307 29.9919 57.4706 31.5307 57.4706 33.4055L57.4716 33.4045ZM57.1019 57.2133H51.0343V40.0123H57.1019V57.2133Z" fill="#00008A"/>
  </g>
  <defs>
    <clipPath id="clip0_1837_569">
      <rect width="63" height="88" fill="white"/>
    </clipPath>
  </defs>
</svg>
