<svg role="img" aria-labelledby="siae-svg" xmlns="http://www.w3.org/2000/svg" viewBox="0 0 83 88">
    <title id="siae-svg">SIAE</title>
    <path d="M19.3 22.1H16a.6.6 0 00-.6.6v42.6a.6.6 0 00.6.6h3.3a.6.6 0 00.6-.6V22.7a.6.6 0 00-.6-.6zm30.3 0H39.2a.6.6 0 00-.6.6v42.6a.6.6 0 00.6.6h10.2a.6.6 0 00.6-.6v-3a.6.6 0 00-.4-.6.6.6 0 00-.2 0H43v-16h5.2a.6.6 0 00.5-.6v-2.2a.6.6 0 00-.1-.4.5.5 0 00-.4-.2H43v-16h6.6a.4.4 0 00.3 0 .3.3 0 000-.3v-3.5a.4.4 0 000-.3.4.4 0 00-.3 0zM35.3 65.3V28a6 6 0 00-4.4-5.8 3.7 3.7 0 00-.8-.1 8.7 8.7 0 00-1.7 0l-.8.1h-.1l-.1.1-.3.1a.4.4 0 00-.2 0l-.7.4a6.2 6.2 0 00-2.2 2.2 5.9 5.9 0 00-.8 3v37.2a.6.6 0 00.1.4.5.5 0 00.4.2H27a.6.6 0 00.6-.6V45.6h3.3v19.7a.6.6 0 00.6.6h3.2a.6.6 0 00.6-.6zM31 30v12.2h-3.3V28a1.7 1.7 0 01.5-1 1.5 1.5 0 011.1-.5 1.7 1.7 0 011.7 1.7v2zM12.1 51v-.5a11.2 11.2 0 00-.6-3.5 10.7 10.7 0 00-1.5-3.2l-4.2-5.6a6.8 6.8 0 01-1-2 6.6 6.6 0 01-.4-2v-6A1.6 1.6 0 016 26.6a1.6 1.6 0 011.2.5 1.5 1.5 0 01.5 1.1v3a.6.6 0 00.6.6h3.3a.6.6 0 00.6-.6v-3a6 6 0 00-1.9-4.2 6 6 0 00-8.5 0A5.8 5.8 0 000 28.1v6c0 1.2.2 2.4.6 3.5a10.7 10.7 0 001.6 3.1l4.2 5.7a6.1 6.1 0 011 1.9c.2.6.3 1.3.3 2v9.5a1.7 1.7 0 01-1.9 1.6 1.8 1.8 0 01-.3 0 1.6 1.6 0 01-.8-.6 1.6 1.6 0 01-.3-1v-3a.6.6 0 00-.6-.5H.6a.6.6 0 00-.6.6v3.9l.2.5.1.5.2.4.3.5.2.4.2.4h.1l.3.4.3.3A6.2 6.2 0 006 65.9l.8-.1a6.2 6.2 0 00.9-.2A6.8 6.8 0 009 65a15.9 15.9 0 00.7-.5c.2 0 .3-.2.4-.3l.3-.3.3-.3v-.1l.2-.2.1-.1.2-.4.3-.5V62a3.2 3.2 0 01.2-.2.8.8 0 000-.3.8.8 0 01.1-.2.8.8 0 000-.2l.1-.3a.8.8 0 000-.3.8.8 0 01.1-.2v-9.5zM60 22a1.9 1.9 0 011.5.6c.3.5.5 1 .5 1.6v4.5a2.4 2.4 0 01-.5 1.6 1.9 1.9 0 01-1.5.6h-2.2V22H60zm0 8a1 1 0 00.7-.3c.2-.3.3-.6.3-1v-4.5a1.4 1.4 0 00-.3-1 1 1 0 00-.8-.3h-1V30h1zm4.2-.9l-.3 1.8h-1l1.7-8.9h1.5l1.7 9h-1l-.4-1.9h-2.2zm.1-.8h2l-1-5.1-1 5zm4.6 2.6V22h1v8h2.5v1h-3.5zm4.6 0V22h1v8H77v1h-3.5zm5.5-1.8l-.3 1.8h-.9l1.7-8.9h1.4l1.7 9h-1l-.3-1.9H79zm.2-.8h2l-1-5.1-1 5zm-19.4 5.4a1.9 1.9 0 011.5.6c.4.4.5 1 .5 1.5V37a2.3 2.3 0 01-.5 1.6 2 2 0 01-1.6.6h-.9v3.5h-1v-9h2zm0 4.5a1 1 0 00.8-.3l.2-.9v-1.2a1.4 1.4 0 00-.2-1 1 1 0 00-.8-.2h-1v3.6h1zm4 2.6l-.4 1.8h-1l1.8-9h1.4l1.7 9h-1l-.3-1.8h-2.3zm0-.9h2l-1-5.1-1 5.1zm6.6-6.2a2 2 0 011.5.5c.3.4.5 1 .5 1.5v.7a2.3 2.3 0 01-.3 1.2 1.4 1.4 0 01-.9.7 1.3 1.3 0 01.9.7c.2.3.3.7.3 1.1v1.6a2.6 2.6 0 00.1 1l-1-.1a1.5 1.5 0 010-.4 2.6 2.6 0 01-.1-.5v-1.6a1.2 1.2 0 00-.4-1 1.5 1.5 0 00-1-.3h-.6v3.8h-1v-9h2zm-.3 4.2c.3 0 .7 0 1-.3a1.2 1.2 0 00.3-1v-.8a1.5 1.5 0 00-.3-.9 1 1 0 00-.8-.3h-1v3.3h.8zm4.9 4.7v-8h-1.7v-1h4.3v1H76v8h-1zm6.8-5v.9h-2.2v3.2h2.6v.9h-3.6v-9h3.6v1h-2.6v3h2.2zM60 45.3a1.9 1.9 0 011.5.6 2.4 2.4 0 01.5 1.6V52c0 .6-.2 1.2-.5 1.6a1.9 1.9 0 01-1.5.6h-2.2v-8.9H60zm0 8a1 1 0 00.7-.3c.2-.3.3-.6.3-1v-4.5a1.4 1.4 0 00-.3-1 1 1 0 00-.8-.3h-1v7.1h1zm4.2-8v9h-1v-9h1zm7.5 2.2v.8h-1v-.9a1.6 1.6 0 00-.2-1 1 1 0 00-1.6 0 1.6 1.6 0 00-.2 1v4.7a1.6 1.6 0 00.2 1 1 1 0 001.6 0c.2-.3.3-.6.3-1V51h1v1a2.6 2.6 0 01-.6 1.7 1.8 1.8 0 01-1.5.6 1.9 1.9 0 01-1.5-.6 2.5 2.5 0 01-.5-1.6v-4.6a2.5 2.5 0 01.5-1.6 1.8 1.8 0 011.5-.7 1.8 1.8 0 011.5.7c.4.4.5 1 .5 1.6zm2.2 2.7v4h-1v-8.9h1v4h2.2v-4h1v9h-1v-4H74zm5.5-4.9v9h-1v-9h1zM61.8 59.1v.8h-1v-.8a1.5 1.5 0 00-.2-1 1 1 0 00-.8-.3.9.9 0 00-.8.3 1.6 1.6 0 00-.2 1v4.7c0 .3 0 .6.2 1a.9.9 0 00.8.3 1 1 0 00.8-.4c.2-.3.3-.6.3-1v-1h.9v1a2.5 2.5 0 01-.5 1.7 2.2 2.2 0 01-3 0 2.5 2.5 0 01-.5-1.7v-4.6a2.5 2.5 0 01.5-1.6 2.2 2.2 0 013 0c.4.5.5 1 .5 1.6zM65 57a2 2 0 011.5.5c.3.4.5 1 .4 1.5v.7c0 .4 0 .9-.2 1.2a1.3 1.3 0 01-.9.7 1.3 1.3 0 011 .6c0 .4.2.8.1 1.2V65l.1.5.2.4h-1a1.5 1.5 0 01-.2-.4 2.6 2.6 0 010-.5v-1.6a1.4 1.4 0 00-.4-1 1.4 1.4 0 00-1-.3H64v3.8h-1v-9h2zm-.3 4.2c.3 0 .7 0 1-.3a1.2 1.2 0 00.3-1v-.8a1.5 1.5 0 00-.3-.9 1 1 0 00-.8-.3h-1v3.3h.8zm6.7-.3v1h-2.1v3H72v1h-3.7v-9H72v1h-2.7v3h2.2zm2.8 3.2l-.3 1.8h-1l1.7-9h1.5l1.7 9h-1l-.4-1.8h-2.2zm.1-.9h2l-1-5.1-1 5.1zM54.1 22h.4v44h-.4V22z"/>
</svg>