<svg role="img" aria-labelledby="siae-svg" xmlns="http://www.w3.org/2000/svg" viewBox="0 0 83 88">
  <title id="siae-svg">SIAE</title>
  <g clip-path="url(#clip0_1837_579)">
    <path d="M19.269 22.13H16.049C15.9696 22.1284 15.8907 22.1428 15.817 22.1725C15.7433 22.2022 15.6764 22.2465 15.6204 22.3028C15.5643 22.359 15.5202 22.4261 15.4908 22.4999C15.4613 22.5736 15.4471 22.6526 15.449 22.732V65.272C15.4468 65.3515 15.4608 65.4306 15.4902 65.5045C15.5195 65.5784 15.5636 65.6455 15.6197 65.7019C15.6759 65.7582 15.7429 65.8025 15.8167 65.8321C15.8905 65.8617 15.9695 65.8759 16.049 65.874H19.269C19.3487 65.8761 19.428 65.8619 19.502 65.8323C19.5761 65.8027 19.6433 65.7584 19.6996 65.7019C19.756 65.6455 19.8002 65.5782 19.8297 65.5041C19.8592 65.43 19.8732 65.3507 19.871 65.271V22.731C19.8732 22.6513 19.8592 22.5721 19.8297 22.498C19.8002 22.424 19.7559 22.3568 19.6996 22.3004C19.6433 22.2441 19.576 22.1998 19.502 22.1703C19.4279 22.1409 19.3487 22.1268 19.269 22.129V22.13ZM49.609 22.13H39.223C39.1435 22.1282 39.0645 22.1426 38.9907 22.1722C38.9169 22.2019 38.8499 22.2461 38.7937 22.3024C38.7375 22.3587 38.6934 22.4258 38.6638 22.4996C38.6343 22.5734 38.6201 22.6525 38.622 22.732V65.272C38.6198 65.3516 38.6338 65.4308 38.6633 65.5047C38.6927 65.5787 38.7368 65.6459 38.7931 65.7022C38.8493 65.7585 38.9164 65.8028 38.9904 65.8324C39.0643 65.8619 39.1434 65.8761 39.223 65.874H49.393C49.4726 65.8759 49.5518 65.8616 49.6257 65.832C49.6997 65.8023 49.7668 65.758 49.823 65.7016C49.8792 65.6451 49.9234 65.5779 49.9528 65.5039C49.9822 65.4298 49.9962 65.3506 49.994 65.271V62.263C49.9976 62.1432 49.9642 62.0252 49.8983 61.925C49.8325 61.8248 49.7374 61.7473 49.626 61.703C49.5521 61.673 49.4728 61.6583 49.393 61.66H43.04V45.635H48.188C48.3324 45.6256 48.4684 45.5635 48.57 45.4604C48.6715 45.3573 48.7317 45.2205 48.739 45.076V42.927C48.7414 42.8474 48.7274 42.7681 48.6978 42.6941C48.6682 42.6201 48.6237 42.553 48.567 42.497C48.5179 42.4434 48.4583 42.4005 48.3919 42.3709C48.3255 42.3413 48.2537 42.3257 48.181 42.325H43.032V26.34H49.606C49.6569 26.3417 49.7077 26.333 49.7551 26.3144C49.8026 26.2959 49.8458 26.2678 49.882 26.232C49.9148 26.2019 49.9413 26.1655 49.9596 26.1249C49.978 26.0844 49.988 26.0405 49.989 25.996V22.516C49.9923 22.4645 49.9846 22.4128 49.9663 22.3645C49.948 22.3162 49.9196 22.2724 49.883 22.236C49.8464 22.1996 49.8026 22.1713 49.7543 22.1529C49.7061 22.1344 49.6546 22.1263 49.603 22.129H49.608L49.609 22.13ZM35.319 65.27V28.058C35.2968 26.7622 34.8595 25.5077 34.0715 24.4789C33.2835 23.45 32.1862 22.701 30.941 22.342H30.898C30.6407 22.2561 30.3748 22.1988 30.105 22.171C29.5271 22.1127 28.9449 22.1127 28.367 22.171C28.09 22.197 27.817 22.255 27.552 22.342H27.595L27.465 22.385L27.378 22.428L27.12 22.514C27.0601 22.5146 27.0012 22.5293 26.948 22.557L26.174 22.943C25.2697 23.4759 24.5161 24.2302 23.984 25.135C23.4386 26.0584 23.1568 27.1136 23.169 28.186V65.27C23.167 65.3497 23.1813 65.4289 23.211 65.5029C23.2408 65.5769 23.2854 65.6439 23.342 65.7C23.3912 65.7533 23.4507 65.796 23.5168 65.8255C23.583 65.8551 23.6545 65.8709 23.727 65.872H26.987C27.0665 65.8738 27.1454 65.8594 27.2192 65.8298C27.2929 65.8001 27.3599 65.7558 27.416 65.6995C27.4721 65.6432 27.5162 65.5761 27.5456 65.5023C27.575 65.4285 27.5891 65.3494 27.587 65.27V45.632H30.892V65.27C30.8902 65.3495 30.9046 65.4286 30.9342 65.5025C30.9638 65.5763 31.0081 65.6434 31.0644 65.6996C31.1206 65.7559 31.1877 65.8002 31.2615 65.8298C31.3354 65.8594 31.4145 65.8738 31.494 65.872H34.713C34.7926 65.8741 34.8718 65.8599 34.9458 65.8304C35.0198 65.8009 35.087 65.7566 35.1433 65.7003C35.1996 65.644 35.2439 65.5768 35.2734 65.5028C35.3029 65.4288 35.3171 65.3496 35.315 65.27H35.319V65.27ZM30.899 30.12V42.324H27.595V27.972C27.6495 27.5763 27.8392 27.2117 28.132 26.94C28.2771 26.7999 28.4485 26.6898 28.6362 26.6161C28.8239 26.5423 29.0243 26.5062 29.226 26.51C29.6693 26.5137 30.0933 26.6917 30.4064 27.0055C30.7194 27.3193 30.8964 27.7437 30.899 28.187V30.123V30.121V30.12ZM12.147 50.876V50.36C12.1248 49.1743 11.9145 47.9997 11.524 46.88C11.1779 45.7555 10.6485 44.6959 9.95701 43.744L5.75101 38.07C5.34808 37.4913 5.03707 36.8538 4.82901 36.18C4.58202 35.5188 4.44258 34.8223 4.41601 34.117V28.187C4.40794 27.7624 4.56396 27.3511 4.85158 27.0388C5.1392 26.7264 5.53624 26.537 5.96001 26.51H6.05701C6.27524 26.5066 6.49196 26.5467 6.69455 26.6279C6.89714 26.7091 7.08154 26.8298 7.23701 26.983C7.396 27.1309 7.52207 27.3107 7.60701 27.5105C7.69194 27.7104 7.73386 27.9259 7.73001 28.143V31.066C7.7278 31.1457 7.74187 31.2249 7.77134 31.299C7.80081 31.373 7.84507 31.4402 7.90142 31.4966C7.95777 31.5529 8.02501 31.5972 8.09905 31.6267C8.17309 31.6561 8.25235 31.6702 8.33201 31.668H11.551C11.6305 31.6698 11.7095 31.6554 11.7833 31.6258C11.8571 31.5961 11.9241 31.5519 11.9803 31.4956C12.0365 31.4393 12.0807 31.3722 12.1102 31.2984C12.1397 31.2245 12.1539 31.1455 12.152 31.066V28.144C12.1385 27.3548 11.9684 26.5761 11.6517 25.8531C11.335 25.1301 10.8779 24.4771 10.307 23.932C9.17205 22.8293 7.65194 22.2124 6.06951 22.2124C4.48708 22.2124 2.96697 22.8293 1.83201 23.932C1.2546 24.4715 0.794086 25.1238 0.478965 25.8485C0.163844 26.5731 0.000827904 27.3548 1.0392e-05 28.145V34.118C0.0220104 35.303 0.23201 36.478 0.62301 37.598C0.968853 38.7224 1.49797 39.782 2.18901 40.734L6.39601 46.406C6.80777 46.9718 7.11961 47.6039 7.31801 48.275C7.56101 48.929 7.70001 49.618 7.73101 50.315V59.769C7.72923 60.0099 7.67572 60.2476 7.57412 60.466C7.47252 60.6844 7.32519 60.8784 7.14211 61.035C6.95902 61.1915 6.74444 61.3069 6.5129 61.3733C6.28135 61.4397 6.03824 61.4557 5.80001 61.42C5.71252 61.4052 5.62627 61.3838 5.54201 61.356C5.21094 61.2505 4.92405 61.0385 4.72601 60.753C4.52926 60.4769 4.42431 60.146 4.42601 59.807V56.885C4.42821 56.8054 4.41418 56.7262 4.38477 56.6523C4.35535 56.5783 4.31118 56.5111 4.25494 56.4548C4.1987 56.3984 4.13158 56.3542 4.05766 56.3246C3.98374 56.2951 3.90458 56.2809 3.82501 56.283H0.60201C0.522317 56.2806 0.442983 56.2946 0.368882 56.324C0.29478 56.3535 0.227475 56.3977 0.171098 56.4541C0.114722 56.5105 0.0704643 56.5778 0.0410433 56.6519C0.0116223 56.726 -0.00234119 56.8053 1.0392e-05 56.885V60.323C0.0290104 60.495 0.0580104 60.653 0.0870104 60.796V60.839C0.11401 61.005 0.15001 61.169 0.19401 61.332C0.23701 61.489 0.27401 61.639 0.30201 61.783H0.34401C0.37401 61.93 0.41701 62.074 0.47401 62.213L0.51701 62.256C0.60301 62.399 0.68201 62.543 0.75301 62.686C0.82001 62.823 0.89901 62.952 0.99001 63.073V63.116L1.24901 63.459L1.33601 63.589C1.42201 63.703 1.50801 63.81 1.59501 63.91C1.68501 64.012 1.78501 64.105 1.89501 64.185C2.44401 64.705 3.08401 65.12 3.78201 65.41C4.50201 65.712 5.27601 65.866 6.05701 65.861C6.34401 65.861 6.63101 65.84 6.91501 65.797C7.20492 65.7528 7.49132 65.6879 7.77201 65.603L7.73001 65.646C8.1937 65.495 8.6399 65.2949 9.06101 65.049V65.092C9.20401 65.005 9.34201 64.919 9.47401 64.833C9.60501 64.745 9.72801 64.644 9.83901 64.532C9.96001 64.44 10.075 64.339 10.182 64.231L10.225 64.188C10.338 64.102 10.439 64.001 10.525 63.887C10.61 63.773 10.711 63.672 10.825 63.586L10.868 63.499C10.898 63.439 10.934 63.381 10.975 63.327C11.021 63.267 11.071 63.21 11.125 63.155V63.111C11.207 63.004 11.279 62.889 11.34 62.768L11.383 62.725C11.44 62.582 11.498 62.453 11.555 62.339L11.597 62.252C11.626 62.194 11.655 62.13 11.684 62.058C11.7108 61.9924 11.7399 61.9277 11.771 61.864V61.822C11.8005 61.7603 11.822 61.6951 11.835 61.628C11.8483 61.5608 11.8701 61.4956 11.9 61.434V61.347C11.9299 61.2854 11.9517 61.2202 11.965 61.153C11.982 61.073 12.004 60.995 12.03 60.917V60.874C12.0563 60.798 12.0705 60.7184 12.072 60.638C12.0737 60.5572 12.0882 60.4772 12.115 60.401V50.861H12.158L12.147 50.874V50.876ZM59.95 22.043C60.2311 22.0199 60.5137 22.0601 60.7772 22.1604C61.0408 22.2608 61.2785 22.4188 61.473 22.623C61.826 23.083 62.001 23.655 61.966 24.234V28.746C61.9943 29.3175 61.8197 29.8807 61.473 30.336C61.2822 30.5462 61.0456 30.7098 60.7815 30.8142C60.5175 30.9185 60.233 30.9609 59.95 30.938H57.848V22.043H59.95ZM59.95 30.035C60.0951 30.0456 60.2407 30.0221 60.3751 29.9664C60.5095 29.9106 60.629 29.8242 60.724 29.714C60.916 29.431 61.007 29.092 60.983 28.751V24.191C61.0043 23.8628 60.9129 23.5372 60.724 23.268C60.6223 23.1549 60.4958 23.067 60.3544 23.0112C60.213 22.9553 60.0605 22.933 59.909 22.946H58.836V30.036H59.952H59.95V30.035ZM64.2 29.134L63.855 30.937H62.955L64.629 22.043H66.089L67.762 30.938H66.777L66.434 29.132H64.198L64.199 29.134H64.2ZM64.329 28.274H66.303L65.273 23.16L64.329 28.274ZM68.872 30.937V22.043H69.859V30.035H72.391V30.937H68.872V30.937ZM73.464 30.937V22.043H74.451V30.035H76.983V30.937H73.463H73.464ZM79.043 29.134L78.704 30.937H77.804L79.478 22.043H80.938L82.61 30.938H81.623L81.28 29.132H79.047L79.043 29.134V29.134ZM79.171 28.274H81.145L80.158 23.16L79.171 28.274V28.274ZM59.778 33.687C60.0627 33.66 60.3497 33.6982 60.6174 33.7987C60.8851 33.8992 61.1264 34.0594 61.323 34.267C61.659 34.72 61.826 35.275 61.795 35.837V36.91C61.8397 37.4939 61.6549 38.0722 61.28 38.522C61.0734 38.7133 60.8296 38.8598 60.5637 38.9524C60.2978 39.045 60.0157 39.0816 59.735 39.06H58.835V42.584H57.848V33.687H59.778ZM59.735 38.199C59.8827 38.2126 60.0315 38.1951 60.1721 38.1477C60.3126 38.1004 60.4417 38.0242 60.551 37.924C60.748 37.658 60.84 37.329 60.809 37V35.797C60.8324 35.4785 60.7494 35.1612 60.573 34.895C60.4729 34.7869 60.3492 34.7034 60.2114 34.6512C60.0736 34.599 59.9256 34.5794 59.779 34.594H58.835V38.203L59.735 38.199V38.199ZM63.728 40.777L63.385 42.582H62.441L64.161 33.687H65.62L67.294 42.582H66.307L65.964 40.777H63.728V40.777ZM63.858 39.917H65.832L64.802 34.804L63.858 39.918V39.917ZM70.378 33.687C70.6506 33.6628 70.9252 33.6962 71.184 33.7851C71.4427 33.874 71.6799 34.0164 71.88 34.203C72.223 34.627 72.391 35.164 72.353 35.707V36.437C72.3705 36.8558 72.2752 37.2716 72.077 37.641C71.8922 37.9556 71.5931 38.1867 71.242 38.286C71.4237 38.3301 71.594 38.4122 71.7417 38.5268C71.8894 38.6414 72.0112 38.786 72.099 38.951C72.279 39.318 72.369 39.723 72.359 40.132V41.722C72.3613 42.0305 72.4192 42.3361 72.53 42.624L71.543 42.581C71.4799 42.4503 71.4362 42.3112 71.413 42.168C71.3858 42.0195 71.3717 41.8689 71.371 41.718V40.088C71.393 39.9047 71.3736 39.7188 71.3143 39.544C71.2549 39.3692 71.1571 39.21 71.028 39.078C70.7546 38.88 70.4209 38.7831 70.084 38.804H69.395V42.585H68.408V33.687H70.381H70.378V33.687ZM70.121 37.899C70.441 37.914 70.758 37.823 71.021 37.641C71.1506 37.5138 71.249 37.3583 71.3085 37.1867C71.368 37.0152 71.387 36.8321 71.364 36.652V35.792C71.3806 35.4809 71.2976 35.1726 71.127 34.912C71.0312 34.7976 70.9088 34.7085 70.7706 34.6523C70.6323 34.5962 70.4824 34.5748 70.334 34.59H69.392V37.855H70.122V37.898L70.121 37.899V37.899ZM74.971 42.582V34.59H73.338V33.687H77.588V34.59H75.956V42.582H74.97H74.971ZM81.75 37.641V38.5H79.56V41.68H82.222V42.582H78.575V33.687H82.222V34.59H79.56V37.64H81.75V37.641ZM59.95 45.332C60.2331 45.3091 60.5177 45.3515 60.7818 45.4561C61.0458 45.5606 61.2823 45.7245 61.473 45.935C61.8194 46.3904 61.994 46.9535 61.966 47.525V52.035C62.001 52.615 61.826 53.186 61.473 53.647C61.2786 53.8513 61.0409 54.0094 60.7773 54.1098C60.5138 54.2102 60.2311 54.2502 59.95 54.227H57.848V45.332H59.95V45.332ZM59.95 53.324C60.0952 53.3347 60.2409 53.3111 60.3754 53.2552C60.5098 53.1992 60.6292 53.1125 60.724 53.002C60.913 52.732 61.004 52.407 60.983 52.078V47.48C61.0045 47.1515 60.9132 46.8255 60.724 46.556C60.6223 46.443 60.4958 46.355 60.3544 46.2992C60.213 46.2433 60.0605 46.221 59.909 46.234H58.836V53.324H59.952H59.95ZM64.2 45.332V54.227H63.21V45.332H64.2V45.332ZM71.71 47.48V48.254H70.77V47.438C70.7885 47.1056 70.7058 46.7755 70.533 46.491C70.4313 46.3822 70.3084 46.2955 70.1718 46.2363C70.0352 46.177 69.8879 46.1464 69.739 46.1464C69.5901 46.1464 69.4428 46.177 69.3062 46.2363C69.1696 46.2955 69.0467 46.3822 68.945 46.491C68.7723 46.7755 68.6897 47.1057 68.708 47.438V52.121C68.6899 52.453 68.7725 52.7828 68.945 53.067C69.0467 53.1758 69.1696 53.2625 69.3062 53.3217C69.4428 53.381 69.5901 53.4116 69.739 53.4116C69.8879 53.4116 70.0352 53.381 70.1718 53.3217C70.3084 53.2625 70.4313 53.1758 70.533 53.067C70.705 52.782 70.788 52.453 70.769 52.121V50.961H71.714V52.078C71.7461 52.6604 71.5797 53.2364 71.242 53.712C71.0566 53.9233 70.8239 54.0879 70.563 54.1925C70.302 54.2971 70.0201 54.3387 69.74 54.314C69.457 54.337 69.1725 54.2946 68.9084 54.1903C68.6444 54.0859 68.4078 53.9223 68.217 53.712C67.8663 53.2419 67.6918 52.6636 67.724 52.078V47.48C67.6986 46.9023 67.8726 46.3335 68.217 45.869C68.4044 45.6532 68.6398 45.4844 68.9044 45.3762C69.1689 45.268 69.4551 45.2234 69.74 45.246C70.0183 45.2261 70.2974 45.2722 70.5545 45.3805C70.8117 45.4887 71.0397 45.6561 71.22 45.869C71.564 46.333 71.738 46.902 71.713 47.48H71.71V47.48ZM73.942 50.23V54.226H72.954V45.33H73.936V49.326H76.126V45.33H77.112V54.225H76.125V50.23H73.942V50.23ZM79.434 45.332V54.227H78.447V45.332H79.434ZM61.795 59.125V59.942H60.856V59.082C60.8748 58.7469 60.7839 58.4148 60.597 58.136C60.4989 58.0173 60.3736 57.9241 60.2317 57.8644C60.0897 57.8046 59.9355 57.7802 59.782 57.793C59.6316 57.7784 59.48 57.8022 59.3413 57.8622C59.2026 57.9222 59.0814 58.0164 58.989 58.136C58.8165 58.4203 58.7339 58.75 58.752 59.082V63.766C58.734 64.101 58.824 64.433 59.012 64.712C59.1031 64.8279 59.2211 64.9198 59.3559 64.9796C59.4906 65.0394 59.638 65.0653 59.785 65.055C59.9385 65.0679 60.0928 65.0435 60.2347 64.9837C60.3766 64.924 60.502 64.8308 60.6 64.712C60.787 64.432 60.878 64.101 60.859 63.766V62.606H61.803V63.723C61.8353 64.3082 61.6612 64.8861 61.311 65.356C60.8983 65.7429 60.3537 65.9582 59.788 65.9582C59.2223 65.9582 58.6778 65.7429 58.265 65.356C57.9145 64.8862 57.7401 64.3083 57.772 63.723V59.125C57.7466 58.5473 57.9206 57.9785 58.265 57.514C58.6713 57.115 59.218 56.8915 59.7875 56.8915C60.357 56.8915 60.9037 57.115 61.31 57.514C61.653 57.979 61.824 58.548 61.796 59.125H61.795ZM64.972 56.977C65.2446 56.9529 65.5191 56.9864 65.7779 57.0753C66.0367 57.1641 66.2738 57.3065 66.474 57.493C66.82 57.931 66.988 58.483 66.946 59.04V59.727C66.962 60.144 66.873 60.557 66.687 60.93C66.596 61.0907 66.4728 61.2309 66.3252 61.3419C66.1776 61.4528 66.0087 61.5322 65.829 61.575C66.0163 61.6127 66.1928 61.6921 66.3451 61.8074C66.4975 61.9227 66.6219 62.0709 66.709 62.241C66.875 62.611 66.957 63.015 66.946 63.421V65.011C66.947 65.164 66.969 65.316 67.011 65.462C67.052 65.615 67.102 65.766 67.161 65.913L66.131 65.871C66.0679 65.7403 66.0242 65.6012 66.001 65.458C65.9738 65.3095 65.9597 65.1589 65.959 65.008V63.418C65.9819 63.2298 65.9652 63.0389 65.9099 62.8575C65.8546 62.6762 65.762 62.5084 65.638 62.365C65.3602 62.1603 65.0181 62.0624 64.674 62.089H63.986V65.871H62.999V56.976H64.972V56.977V56.977ZM64.712 61.187C65.039 61.209 65.365 61.117 65.634 60.929C65.7544 60.8051 65.8457 60.6559 65.901 60.4922C65.9564 60.3285 65.9745 60.1546 65.954 59.983V59.125C65.9748 58.7998 65.8922 58.4764 65.718 58.201C65.6219 58.087 65.4995 57.998 65.3613 57.9419C65.2232 57.8858 65.0734 57.8642 64.925 57.879H63.98V61.188H64.711L64.712 61.187ZM71.448 60.93V61.832H69.304V64.969H71.966V65.871H68.319V56.976H71.966V57.878H69.304V60.929H71.451L71.448 60.93ZM74.195 64.067L73.852 65.872H72.952L74.626 56.977H76.086L77.76 65.872H76.772L76.429 64.067H74.195ZM74.325 63.25H76.299L75.311 58.094L74.324 63.25H74.325ZM54.07 22H54.5V66H54.07V22Z" fill="#2A3A54"/>
  </g>
  <defs>
    <clipPath id="clip0_1837_579">
      <rect width="83" height="88" fill="white"/>
    </clipPath>
  </defs>
</svg>
