<svg role="img" aria-labelledby="tim-svg" xmlns="http://www.w3.org/2000/svg" viewBox="0 0 119 88">
  <title id="tim-svg">TIM</title>
  <path fill="#004691" fill-rule="evenodd" d="M69.129 30.664c0-2.215-.126-2.299-.753-2.299H47.013c-.627 0-.753 0-.752 2.3v2.047c0 2.215.167 2.382.752 2.382h7.107v23.95c0 .543.418.669 2.843.669h1.254c2.383 0 3.052-.126 3.052-.669v-23.95h7.107c.585 0 .752-.25.752-2.382l.001-2.048Zm9.03-2.299c2.299 0 2.967.209 2.967.669l.001 30.01c0 .543-.669.669-2.968.669H76.82c-2.425 0-2.843-.126-2.843-.669v-30.01c0-.46.418-.669 2.843-.669h1.339Zm35.576 0h2.091c2.299 0 2.968.209 2.968.669v30.01c0 .543-.669.669-2.968.669h-1.254c-2.467 0-2.927-.126-2.927-.669V41.238h-.167s-.293 1.004-.711 2.007l-4.348 10.741c-.208.544-.376.71-2.633.71h-1.422c-2.216 0-2.466-.208-2.675-.71l-4.766-11.16a11.164 11.164 0 0 1-.544-1.588h-.167v17.806c0 .543-.669.669-3.01.669h-1.296c-2.383 0-2.843-.126-2.843-.669v-30.01c0-.46.46-.669 2.76-.669h2.34c2.258 0 3.303.167 3.554.752l4.139 9.78c1.923 4.556 2.843 7.022 3.344 8.862.544-1.84 1.965-5.392 3.345-8.694l4.139-9.948c.209-.46.376-.752 3.051-.752Z" clip-rule="evenodd"/>
  <path fill="#EB0028" d="M36.077 35.073H2.161a1.801 1.801 0 0 1-1.804-1.802v-3.099a1.798 1.798 0 0 1 .526-1.273 1.8 1.8 0 0 1 1.277-.53h33.917a1.796 1.796 0 0 1 1.281.535 1.8 1.8 0 0 1 .522 1.268v3.098a1.797 1.797 0 0 1-1.803 1.803Zm-20.71 5.614H2.161A1.803 1.803 0 0 0 .357 42.49v3.098a1.8 1.8 0 0 0 1.803 1.803h13.207v-6.704Zm21.991.535a1.792 1.792 0 0 0-1.281-.535H22.87v6.703h13.207c.501 0 .954-.204 1.281-.534.322-.325.522-.774.522-1.268V42.49c0-.495-.199-.943-.522-1.268Zm0 12.317a1.796 1.796 0 0 0-1.281-.535l-.001.001H22.87v6.703h13.207c.501 0 .954-.205 1.281-.535.322-.325.522-.773.522-1.268v-3.098c0-.495-.199-.942-.522-1.268Zm-21.991-.535H2.161a1.802 1.802 0 0 0-1.668 1.112c-.09.22-.137.454-.136.691v3.098a1.8 1.8 0 0 0 1.803 1.803h13.207v-6.704Z"/>
</svg>
