<svg xmlns="http://www.w3.org/2000/svg" viewBox="0 0 230 88">
    <path d="M73.7 50l12.5-5.5-17.8-7.7V27l29 12.7v9.6L69 61.6s-2-8.7 4.7-11.7zm26-1.2V39.2l29.1-12.8s2 8.7-4.7 11.7l-13.4 5.8 18 8v9.7l-29-12.8z"/>
    <path fill-rule="evenodd" d="M134.9 55.7V30h5.8c5.5 0 9.7 1.5 9.8 7.3 0 2.5-1 4.5-2.5 5.7 3.5 1.6 6 3.7 6 8.8 0 1.5-.3 2.8-.8 4H148a5.4 5.4 0 001.4-3.7c0-5.7-3.7-6.5-7.3-6.5h-2.8v10.2h-4.3zm6-21.9c2.4 0 5.7.1 5.5 4-.2 4-3 4.2-4.3 4.2h-3v-8.2h1.7z" clip-rule="evenodd"/>
    <path d="M134.9 55.7h4.3v2h4.5a6 6 0 004.2-2h5.3a8.7 8.7 0 01-8.2 5.7h-10.1v-5.7z"/>
    <path fill-rule="evenodd" d="M155.3 55.7c.3 4 3.5 6 8.6 6.1 1.7 0 3.5-.4 5-1.2.9.9 1.3.9 2.6.8h.7V45.3c0-4.8-2.8-7.2-8-7.2-2.2 0-5.2.8-7.3 1.8l.8 1.3c1 1.4 2 1.1 3.5.8l2.8-.5c1.9 0 4.3.5 4.3 3.1V47c-9 0-13 2.9-13 8v.7zm13 0v-5.4h-2.5c-3.5 0-6.2 2-6.2 4.5l.1 1c.4 1.7 2 2.8 4.2 2.8a14.2 14.2 0 004.4-.6v-2.3zm10.5 5.7V44.3v-.5a9.5 9.5 0 015-2.2c3.2 0 5 1.8 5 5.1v14.7h3.9V46c0-5.5-4-8-8.5-7.8-1.9 0-4 .6-5.8 2.2l-.2-.5s-1-2.2-3.3-1.1v22.7h3.9z" clip-rule="evenodd"/>
    <path d="M200.8 55.7h-5a11 11 0 0010.2 6.1c2.2 0 4.3-.5 6.2-1.4l-1.1-3.2c-1.3.5-3 1.1-4.9 1.1a6.9 6.9 0 01-5.4-2.6zm12.3 0a8.5 8.5 0 010-.6c0-5.2 4-8.1 13-8.1v-2.4c0-2.6-2.4-3.1-4.3-3-1.1 0-2 .2-2.8.4-1.4.3-2.4.6-3.5-.8l-.8-1.3c2.1-1 5-1.8 7.4-1.8 5.1 0 7.9 2.4 7.9 7.2v10.4h-4v-5.4h-2.4c-3.5 0-6.2 2-6.2 4.5l.1 1h-4.4z"/>
    <path d="M226 55.7h4v5.7h-.7c-1.3 0-1.7 0-2.6-.8-1.5.8-3.4 1.3-5 1.2-5 0-8.3-2-8.6-6h4.4c.4 1.7 2 2.8 4.2 2.8a14.2 14.2 0 004.4-.6v-2.3zm-30.1 0h5a9 9 0 01-2-5.7c0-4.2 2.2-8.3 6.9-8.3l2.6.2c1.3.3 2.1.4 3.1-.7a3.3 3.3 0 00.7-1.6 17 17 0 00-6.7-1.5c-6.6 0-10.8 5-10.8 12 0 2.1.4 4 1.2 5.6zM.5 50.4C.5 59.6 3.9 61.7 12 62h1c8.3-.3 11.7-2.4 11.7-11.6V30h-6.9v19.5c0 5.1-1 6.1-4.9 6.4h-.6c-4-.3-5-1.3-5-6.4V30H.6v20.4z"/>
    <path fill-rule="evenodd" d="M28.3 61.5h12.1c5.2 0 10-4.3 9.8-10 0-4.6-2.6-6.4-5.2-7.7a8 8 0 002.2-6c0-6-5.6-7.8-11.1-7.8h-7.8v31.5zM35 42.9v-7.6h1.6c3.2 0 4.7 1.6 4.7 3.8 0 2.6-1.5 3.8-3.7 3.8H35zm0 13.4v-9h2.7c4 0 5.7 2.2 5.7 4.3 0 3.1-2 4.7-5.1 4.7H35z" clip-rule="evenodd"/>
    <path d="M53.3 34.6v26.9H60V29.3h-1.7a8.3 8.3 0 00-2 .6c-1.5.6-3.1 2-3.1 4.7z"/>
</svg>