<svg role="img" aria-labelledby="ubi-banca-svg" xmlns="http://www.w3.org/2000/svg" xmlns:xlink="http://www.w3.org/1999/xlink" fill="none" viewBox="0 0 230 88">
  <title id="ubi-banca-svg">UBI Banca</title>
  <defs>
    <path id="b" fill="#fff" d="m99.669 43.42-19.046.293-.024.01-8.07 8.638.007.018 30.939-.41-3.806-8.548Z"/>
    <path id="e" fill="#fff" d="m100.506 44.572-19.048.292-.024.01-8.07 8.638.008.017 30.938-.408-3.804-8.549Z"/>
    <path id="i" fill="#fff" d="m85.083 43.82-12.327 5.192c-4.103 1.774-4.88 5.66-4.88 8.347 0 1.642.287 2.837.287 2.837l27.834-11.748v-9.186l-10.914 4.559Zm13.143-5.108-.004 9.186 24.094-10.211c4.104-1.773 4.88-5.66 4.88-8.35 0-1.642-.287-2.837-.287-2.837L98.226 38.712Z"/>
  </defs>
  <path fill="#004877" d="M213.116 54.919c.571 3.407 3.73 5.065 8.519 5.14 1.693.026 3.526-.366 5.019-1.15 1.04.95 1.445.784 3.341.784l.003-3.1v-1.677h-3.918v1.582a15.173 15.173 0 0 1-4.36.581c-1.956-.026-3.442-.812-4.047-2.161h-4.557Zm-17.018 0c1.982 3.302 5.686 5.136 9.861 5.136 2.171 0 4.301-.47 6.215-1.325l-1.129-2.988c-1.26.47-2.955 1.024-4.869 1.024-1.848 0-3.568-.652-4.871-1.85l-5.207.003Zm-3.493 4.756h-3.915v-4.759h3.915v4.76Zm-13.917-4.756v4.757h-3.915l-.003-4.757h3.918Zm-23.494 0c.571 3.407 3.732 5.065 8.521 5.14 1.693.026 3.523-.366 5.019-1.15 1.039.95 1.445.784 3.341.784l.001-3.1v-1.677h-3.916v1.582a15.18 15.18 0 0 1-4.361.581c-1.956-.026-3.443-.812-4.046-2.161h-4.559Zm-20.542 0v4.757h10.125c3.447 0 6.518-1.745 8.021-4.76l-5.776.003c-1.066.801-2.37 1.236-3.518 1.236h-4.508V54.92h-4.344Zm-74.889 0v4.83h-6.894l.003-4.83h6.891Zm-11.145 0c-1.722 2.917-5.079 4.796-8.629 4.796H27.816V54.92h20.802Zm-25.113 0c-1.41 4-4.87 5.114-10.9 5.294-.335.011-.676.01-1.036-.003-5.985-.189-9.422-1.309-10.824-5.296l22.76.005Zm122.728-17.333c-.183 3.797-3.055 3.906-4.308 3.906h-2.93l-.002-7.631 1.642.002c2.508 0 5.779.07 5.598 3.723ZM34.658 35.195v7.117h2.583c2.24 0 3.739-1.13 3.739-3.523 0-2.025-1.472-3.593-4.685-3.593l-1.637-.001Zm-.04 11.24.044 8.426h3.28c3.091 0 5.19-1.453 5.19-4.408 0-1.935-1.75-4.018-5.78-4.018h-2.734Zm183.055 8.483a3.537 3.537 0 0 1-.298-1.46c0-2.393 2.684-4.122 6.167-4.122 1.589-.085 1.589-.02 2.542-.02v5.6H230V44.565c0-4.489-2.786-6.723-7.962-6.723-2.308 0-5.222.726-7.355 1.71 0 0 .427.78.786 1.216 1.626 1.966 3.113.39 6.309.29 1.87-.057 4.262.428 4.262 2.908 0 .411.044 2.195.044 2.195-9.085 0-13.059 2.727-13.059 7.595 0 .406.03.797.092 1.164l4.556-.002Zm-16.369 0c-1.453-1.337-2.385-3.361-2.385-5.928 0-3.928 2.13-7.809 6.781-7.802 3.156.003 4.283 1.204 5.778-.466a3.002 3.002 0 0 0 .696-1.497c-2.086-.854-4.432-1.367-6.694-1.367-6.603 0-10.906 4.643-10.906 11.218 0 2.267.555 4.234 1.524 5.845h5.206v-.002Zm-26.534 0v-16.54c2.383-1 3.304 1.04 3.304 1.04s.103.189.228.498c1.812-1.518 3.934-1.993 5.783-2.054 4.535-.145 8.52 2.186 8.52 7.327v9.728h-3.915v-9c0-3.122-1.826-4.745-4.916-4.745-1.741 0-3.595.963-5.124 1.995 0 0 .031.15.035.485V54.92h-3.915Zm-15.017 0a3.49 3.49 0 0 1-.298-1.46c0-2.393 2.682-4.122 6.165-4.122 1.591-.085 1.59-.02 2.542-.02v5.6h3.916V44.565c0-4.489-2.784-6.723-7.962-6.723-2.307 0-5.221.726-7.354 1.71 0 0 .426.78.786 1.216 1.627 1.966 3.114.39 6.308.29 1.871-.057 4.263.428 4.263 2.908 0 .411.045 2.195.045 2.195-9.085 0-13.06 2.727-13.06 7.595 0 .406.031.797.092 1.164l4.557-.002Zm-20.757 0-.001-10.153h2.802c3.605 0 7.339.8 7.339 6.13 0 1.738-.902 3.115-2.114 4.026l5.777-.002c.622-1.25.974-2.715.974-4.361 0-4.73-2.454-6.75-5.916-8.206 1.409-1.112 2.541-2.987 2.501-5.357-.088-5.45-4.352-6.796-9.878-6.796h-5.827l.003 24.72h4.34Zm-86.124 0 .007-20.353c0-2.537 1.662-3.803 3.16-4.391a8.591 8.591 0 0 1 2.02-.506c.56-.073 1.707-.07 1.707-.07l-.003 25.32h-6.891Zm-25.056 0-.001-24.682h7.866c5.533 0 11.085 1.67 11.085 7.413.127 2.526-.951 4.408-2.12 5.573 2.522 1.194 5.125 2.847 5.171 7.123a8.592 8.592 0 0 1-1.2 4.57l-20.8.004Zm-27.07 0C.24 53.477 0 51.668 0 49.397v-19.16h6.888l.015 18.324c0 4.755.964 5.705 4.861 5.965.358.025.344.026.69.003 3.928-.26 4.898-1.202 4.898-5.967l.014-18.324h6.89v19.16c0 2.275-.242 4.086-.75 5.524L.746 54.92Z"/>
  <path fill="#ED1C24" d="m109.137 43.27 17.722 7.569v9.358L98.222 47.898V43.27h10.915Z"/>
  <mask id="a" width="30" height="20" x="86" y="29" maskUnits="userSpaceOnUse" style="mask-type:luminance">
    <path fill="#fff" d="m111.355 40.638 3.848-11.14-.025-.024L86.879 42.53l6.954 6.26 17.482-8.107.04-.044Z"/>
  </mask>
  <g mask="url(#a)">
    <path fill="#A90F14" d="m98.308 48.426 25.285-11.26-.299-.672-25.286 11.26.3.672Z"/>
  </g>
  <path fill="#ED1C24" d="m85.081 43.887-17.52-7.48v-9.358l28.435 12.21v4.628H85.08Z"/>
  <mask id="c" width="32" height="10" x="72" y="43" maskUnits="userSpaceOnUse" style="mask-type:luminance">
    <use xlink:href="#b"/>
  </mask>
  <g mask="url(#c)">
    <path fill="#B41218" d="m83.1 43.626 12.566-5.595-.3-.673-12.825 5.709c.32.057.506.286.559.559Z"/>
  </g>
  <mask id="d" width="32" height="10" x="72" y="43" maskUnits="userSpaceOnUse" style="mask-type:luminance">
    <use xlink:href="#b"/>
  </mask>
  <g mask="url(#d)">
    <path fill="#B41218" d="m78.135 45.03-8.055 3.586.3.674 8.338-3.712a1.369 1.369 0 0 1-.584-.548Z"/>
  </g>
  <mask id="f" width="32" height="10" x="73" y="44" maskUnits="userSpaceOnUse" style="mask-type:luminance">
    <use xlink:href="#e"/>
  </mask>
  <g mask="url(#f)">
    <path fill="#AF1116" d="M82.497 44.506a.772.772 0 0 1-.065.213l13.528-6.023-.298-.673-12.565 5.594c.08.393-.122.832-.6.889Z"/>
  </g>
  <mask id="g" width="32" height="10" x="73" y="44" maskUnits="userSpaceOnUse" style="mask-type:luminance">
    <use xlink:href="#e"/>
  </mask>
  <g mask="url(#g)">
    <path fill="#AF1116" d="M80.783 45.441c-.049 0-.091-.01-.138-.013-.13.032-.256.072-.409.072l-.017-.001a1.463 1.463 0 0 1-.803.235 1.56 1.56 0 0 1-.708-.163l-8.332 3.71.3.673 10.144-4.516c-.013 0-.023.003-.037.003Z"/>
  </g>
  <mask id="h" width="32" height="10" x="74" y="45" maskUnits="userSpaceOnUse" style="mask-type:luminance">
    <path fill="#fff" d="m101.342 45.723-19.046.292-.024.01-8.072 8.638.008.016 30.94-.408-3.806-8.548Z"/>
  </mask>
  <g mask="url(#h)">
    <path fill="#A90F14" d="m95.96 38.687-13.52 6.02a.668.668 0 0 1-.64.41c-.032 0-.054-.014-.083-.018a1.41 1.41 0 0 1-.925.34l-10.12 4.506.3.673L96.257 39.36l-.299-.673Z"/>
  </g>
  <mask id="j" width="61" height="35" x="67" y="26" maskUnits="userSpaceOnUse" style="mask-type:luminance">
    <use xlink:href="#i"/>
  </mask>
  <g mask="url(#j)">
    <path fill="#ED1C24" d="M67.874 26.499v33.698h59.32V26.498h-59.32Zm14.623 18.01c-.052.32-.278.607-.698.607-.035 0-.06-.015-.092-.019a1.386 1.386 0 0 1-.924.344c-.034 0-.063-.007-.095-.01a1.57 1.57 0 0 1-.443.068 1.498 1.498 0 0 1-.83.235c-2.006 0-2.008-3.104-.01-3.115.222-.144.496-.235.83-.235.033 0 .06.008.093.009.14-.04.287-.068.455-.068.625 0 1.056.303 1.291.72.04-.007.072-.024.115-.024.06 0 .104.02.157.03.02 0 .036-.012.058-.012.926.002.95 1.368.093 1.47Z"/>
  </g>
  <mask id="k" width="61" height="35" x="67" y="26" maskUnits="userSpaceOnUse" style="mask-type:luminance">
    <use xlink:href="#i"/>
  </mask>
  <g mask="url(#k)">
    <path fill="#ED1C24" d="M97.033 22.608c-19.899 0-36.028 9.415-36.028 21.03 0 11.616 16.13 21.032 36.028 21.032s36.029-9.416 36.029-21.032c0-11.615-16.131-21.03-36.029-21.03ZM82.497 44.51c-.052.32-.278.606-.698.606-.035 0-.06-.015-.092-.019a1.385 1.385 0 0 1-.924.344c-.034 0-.063-.007-.095-.01a1.57 1.57 0 0 1-.443.068 1.498 1.498 0 0 1-.83.235c-2.006 0-2.008-3.103-.01-3.115.222-.144.496-.235.83-.235.033 0 .06.008.093.009.14-.04.287-.068.455-.068.625 0 1.056.303 1.291.72.04-.007.072-.024.115-.024.06 0 .104.02.157.03.02 0 .036-.012.058-.012.926.002.95 1.368.093 1.47Z"/>
  </g>
  <mask id="l" width="61" height="35" x="67" y="26" maskUnits="userSpaceOnUse" style="mask-type:luminance">
    <use xlink:href="#i"/>
  </mask>
  <g mask="url(#l)">
    <path fill="#ED2224" d="M97.037 23.048c-19.501 0-35.31 9.227-35.31 20.61s15.809 20.608 35.31 20.608c19.499 0 35.308-9.226 35.308-20.608 0-11.383-15.808-20.61-35.308-20.61ZM82.497 44.51c-.052.32-.278.606-.698.606-.035 0-.06-.015-.092-.019a1.385 1.385 0 0 1-.924.344c-.034 0-.063-.007-.095-.01-.135.039-.28.067-.443.068a1.498 1.498 0 0 1-.83.235c-2.006 0-2.008-3.104-.01-3.115.222-.144.496-.235.83-.235.033 0 .06.008.093.009.14-.04.287-.068.455-.068.625 0 1.056.303 1.291.72.04-.007.072-.024.115-.024.06 0 .104.02.157.03.021 0 .036-.012.058-.012.926.002.95 1.368.093 1.47Z"/>
  </g>
  <mask id="m" width="61" height="35" x="67" y="26" maskUnits="userSpaceOnUse" style="mask-type:luminance">
    <use xlink:href="#i"/>
  </mask>
  <g mask="url(#m)">
    <path fill="#EE2924" d="M97.017 23.468c-19.102 0-34.588 9.039-34.588 20.19 0 11.15 15.486 20.186 34.588 20.186 19.103 0 34.587-9.038 34.587-20.188 0-11.15-15.484-20.188-34.587-20.188ZM82.497 44.51c-.052.32-.278.606-.698.606-.035 0-.06-.015-.092-.019a1.385 1.385 0 0 1-.924.344c-.034 0-.063-.007-.095-.01a1.57 1.57 0 0 1-.443.068 1.498 1.498 0 0 1-.83.235c-2.006 0-2.008-3.103-.01-3.115.222-.144.496-.235.83-.235.033 0 .06.008.093.009.14-.04.287-.068.455-.068.625 0 1.056.303 1.291.72.04-.007.072-.024.115-.024.06 0 .104.02.157.03.02 0 .036-.012.058-.012.926.002.95 1.368.093 1.47Z"/>
  </g>
  <mask id="n" width="61" height="35" x="67" y="26" maskUnits="userSpaceOnUse" style="mask-type:luminance">
    <use xlink:href="#i"/>
  </mask>
  <g mask="url(#n)">
    <path fill="#EE2D24" d="M97.02 23.886c-18.704 0-33.867 8.852-33.867 19.77 0 10.915 15.163 19.769 33.867 19.769 18.705 0 33.866-8.852 33.866-19.77.001-10.918-15.161-19.77-33.866-19.77ZM82.497 44.51c-.052.32-.278.606-.698.606-.035 0-.06-.015-.092-.019a1.385 1.385 0 0 1-.924.344c-.034 0-.063-.007-.095-.01a1.57 1.57 0 0 1-.443.068 1.498 1.498 0 0 1-.83.235c-2.006 0-2.008-3.104-.01-3.115.222-.144.496-.235.83-.235.033 0 .06.008.093.009.14-.04.287-.068.455-.068.625 0 1.056.303 1.291.72.04-.007.072-.024.115-.024.06 0 .104.02.157.03.02 0 .036-.012.058-.012.926.002.95 1.368.093 1.47Z"/>
  </g>
  <mask id="o" width="61" height="35" x="67" y="26" maskUnits="userSpaceOnUse" style="mask-type:luminance">
    <use xlink:href="#i"/>
  </mask>
  <g mask="url(#o)">
    <path fill="#EE3224" d="M97.022 24.306c-18.306 0-33.146 8.663-33.146 19.349 0 10.685 14.84 19.347 33.146 19.347 18.309 0 33.146-8.662 33.146-19.347 0-10.686-14.837-19.35-33.146-19.35ZM82.497 44.51c-.052.32-.278.606-.698.606-.035 0-.06-.015-.092-.019a1.385 1.385 0 0 1-.924.344c-.034 0-.063-.007-.095-.01-.135.039-.28.067-.443.068a1.498 1.498 0 0 1-.83.235c-2.006 0-2.008-3.104-.01-3.115.222-.144.496-.235.83-.235.033 0 .06.008.093.009.14-.04.287-.068.455-.068.625 0 1.056.303 1.291.72.04-.007.072-.024.115-.024.06 0 .104.02.157.03.021 0 .036-.012.058-.012.926.002.95 1.368.093 1.47Z"/>
  </g>
  <mask id="p" width="61" height="35" x="67" y="26" maskUnits="userSpaceOnUse" style="mask-type:luminance">
    <use xlink:href="#i"/>
  </mask>
  <g mask="url(#p)">
    <path fill="#EE3624" d="M97.026 24.724c-17.91 0-32.427 8.475-32.427 18.93 0 10.45 14.517 18.928 32.427 18.928s32.426-8.476 32.426-18.929c0-10.455-14.516-18.928-32.426-18.928ZM82.497 44.51c-.052.32-.278.606-.698.606-.035 0-.06-.015-.092-.019a1.385 1.385 0 0 1-.924.344c-.034 0-.063-.007-.095-.01a1.63 1.63 0 0 1-.443.068 1.498 1.498 0 0 1-.83.235c-2.006 0-2.008-3.104-.01-3.115.222-.144.496-.235.83-.235.033 0 .06.008.093.009.14-.04.287-.068.455-.068.625 0 1.056.303 1.291.72.04-.007.072-.024.115-.024.06 0 .104.02.157.03.021 0 .036-.012.058-.012.926.002.95 1.368.093 1.47Z"/>
  </g>
  <mask id="q" width="61" height="35" x="67" y="26" maskUnits="userSpaceOnUse" style="mask-type:luminance">
    <use xlink:href="#i"/>
  </mask>
  <g mask="url(#q)">
    <path fill="#EF3A24" d="M97.027 25.146c-17.51 0-31.705 8.285-31.705 18.506 0 10.222 14.197 18.506 31.706 18.506 17.51 0 31.704-8.284 31.704-18.506 0-10.221-14.195-18.506-31.705-18.506ZM82.497 44.51c-.052.32-.278.606-.698.606-.035 0-.06-.015-.092-.019a1.385 1.385 0 0 1-.924.344c-.034 0-.063-.007-.095-.01a1.57 1.57 0 0 1-.443.068 1.498 1.498 0 0 1-.83.235c-2.006 0-2.008-3.103-.01-3.115.222-.144.496-.235.83-.235.033 0 .06.008.093.009.14-.04.287-.068.455-.068.625 0 1.056.303 1.291.72.04-.007.072-.024.115-.024.06 0 .104.02.157.03.021 0 .036-.012.058-.012.926.002.95 1.368.093 1.47Z"/>
  </g>
  <mask id="r" width="61" height="35" x="67" y="26" maskUnits="userSpaceOnUse" style="mask-type:luminance">
    <use xlink:href="#i"/>
  </mask>
  <g mask="url(#r)">
    <path fill="#EF3E23" d="M97.03 25.564c-17.111 0-30.985 8.098-30.985 18.087 0 9.987 13.874 18.086 30.985 18.086 17.113 0 30.985-8.099 30.985-18.086 0-9.99-13.871-18.088-30.985-18.088ZM82.497 44.51c-.052.32-.278.606-.698.606-.035 0-.06-.015-.092-.019a1.385 1.385 0 0 1-.924.344c-.034 0-.063-.007-.095-.01a1.57 1.57 0 0 1-.443.068 1.498 1.498 0 0 1-.83.235c-2.006 0-2.008-3.103-.01-3.115.222-.144.496-.235.83-.235.033 0 .06.008.093.009.14-.04.287-.068.455-.068.625 0 1.056.303 1.291.72.04-.007.072-.024.115-.024.06 0 .104.02.157.03.021 0 .036-.012.058-.012.926.002.95 1.368.093 1.47Z"/>
  </g>
  <mask id="s" width="61" height="35" x="67" y="26" maskUnits="userSpaceOnUse" style="mask-type:luminance">
    <use xlink:href="#i"/>
  </mask>
  <g mask="url(#s)">
    <path fill="#EF4223" d="M97.033 25.984c-16.714 0-30.264 7.908-30.264 17.666 0 9.756 13.55 17.666 30.264 17.666 16.715 0 30.265-7.91 30.265-17.666 0-9.758-13.55-17.666-30.265-17.666ZM82.497 44.51c-.052.32-.278.606-.698.606-.035 0-.06-.015-.092-.019a1.385 1.385 0 0 1-.924.344c-.034 0-.063-.007-.095-.01-.135.039-.28.067-.443.068a1.498 1.498 0 0 1-.83.235c-2.006 0-2.008-3.104-.01-3.115.222-.144.496-.235.83-.235.033 0 .06.008.093.009.14-.04.287-.068.455-.068.625 0 1.056.303 1.291.72.04-.007.072-.024.115-.024.06 0 .104.02.157.03.02 0 .036-.012.058-.012.926.002.95 1.368.093 1.47Z"/>
  </g>
  <mask id="t" width="61" height="35" x="67" y="26" maskUnits="userSpaceOnUse" style="mask-type:luminance">
    <use xlink:href="#i"/>
  </mask>
  <g mask="url(#t)">
    <path fill="#EF4523" d="M97.036 26.404c-16.317 0-29.544 7.72-29.544 17.244 0 9.522 13.228 17.245 29.544 17.245 16.318 0 29.543-7.723 29.543-17.245 0-9.524-13.225-17.244-29.543-17.244ZM82.497 44.51c-.052.32-.278.606-.698.606-.035 0-.06-.015-.092-.019a1.385 1.385 0 0 1-.924.344c-.034 0-.063-.007-.095-.01-.135.039-.28.067-.443.068a1.498 1.498 0 0 1-.83.235c-2.006 0-2.008-3.104-.01-3.115.222-.144.496-.235.83-.235.033 0 .06.008.093.009.14-.04.287-.068.455-.068.625 0 1.056.303 1.291.72.04-.007.072-.024.115-.024.06 0 .104.02.157.03.021 0 .036-.012.058-.012.926.002.95 1.368.093 1.47Z"/>
  </g>
  <mask id="u" width="61" height="35" x="67" y="26" maskUnits="userSpaceOnUse" style="mask-type:luminance">
    <use xlink:href="#i"/>
  </mask>
  <g mask="url(#u)">
    <path fill="#EF4823" d="M97.016 26.823c-15.918 0-28.823 7.53-28.823 16.824 0 9.293 12.905 16.822 28.823 16.822 15.92 0 28.824-7.53 28.824-16.822 0-9.294-12.905-16.824-28.824-16.824ZM82.497 44.51c-.052.32-.278.606-.698.606-.035 0-.06-.015-.092-.019a1.385 1.385 0 0 1-.924.344c-.034 0-.063-.007-.095-.01a1.57 1.57 0 0 1-.443.068 1.498 1.498 0 0 1-.83.235c-2.006 0-2.008-3.103-.01-3.115.222-.144.496-.235.83-.235.033 0 .06.008.093.009.14-.04.287-.068.455-.068.625 0 1.056.303 1.291.72.04-.007.072-.024.115-.024.06 0 .104.02.157.03.02 0 .036-.012.058-.012.926.002.95 1.368.093 1.47Z"/>
  </g>
  <mask id="v" width="61" height="35" x="67" y="26" maskUnits="userSpaceOnUse" style="mask-type:luminance">
    <use xlink:href="#i"/>
  </mask>
  <g mask="url(#v)">
    <path fill="#F04B23" d="M97.02 27.241c-15.52 0-28.103 7.345-28.103 16.405 0 9.057 12.582 16.403 28.103 16.403 15.52 0 28.101-7.346 28.101-16.403 0-9.06-12.581-16.405-28.101-16.405ZM82.497 44.51c-.052.32-.278.606-.698.606-.035 0-.06-.015-.092-.019a1.385 1.385 0 0 1-.924.344c-.034 0-.063-.007-.095-.01a1.57 1.57 0 0 1-.443.068 1.498 1.498 0 0 1-.83.235c-2.006 0-2.008-3.103-.01-3.115.222-.144.496-.235.83-.235.033 0 .06.008.093.009.14-.04.287-.068.455-.068.625 0 1.056.303 1.291.72.04-.007.072-.024.115-.024.06 0 .104.02.157.03.02 0 .036-.012.058-.012.926.002.95 1.368.093 1.47Z"/>
  </g>
  <mask id="w" width="61" height="35" x="67" y="26" maskUnits="userSpaceOnUse" style="mask-type:luminance">
    <use xlink:href="#i"/>
  </mask>
  <g mask="url(#w)">
    <path fill="#F04F23" d="M97.022 27.662c-15.123 0-27.382 7.154-27.382 15.983 0 8.827 12.26 15.981 27.382 15.981 15.122 0 27.38-7.155 27.38-15.981 0-8.828-12.257-15.983-27.38-15.983ZM82.497 44.51c-.052.32-.278.606-.698.606-.035 0-.06-.015-.092-.019a1.385 1.385 0 0 1-.924.344c-.034 0-.063-.007-.095-.01a1.57 1.57 0 0 1-.443.068 1.498 1.498 0 0 1-.83.235c-2.006 0-2.008-3.104-.01-3.115.222-.144.496-.235.83-.235.033 0 .06.008.093.009.14-.04.287-.068.455-.068.625 0 1.056.303 1.291.72.04-.007.072-.024.115-.024.06 0 .104.02.157.03.021 0 .036-.012.058-.012.926.002.95 1.368.093 1.47Z"/>
  </g>
  <mask id="x" width="61" height="35" x="67" y="26" maskUnits="userSpaceOnUse" style="mask-type:luminance">
    <use xlink:href="#i"/>
  </mask>
  <g mask="url(#x)">
    <path fill="#F05223" d="M97.023 28.08c-14.722 0-26.66 6.967-26.66 15.562 0 8.596 11.938 15.566 26.66 15.563 14.726 0 26.662-6.967 26.662-15.563 0-8.595-11.936-15.562-26.662-15.562ZM82.497 44.51c-.052.32-.278.606-.698.606-.035 0-.06-.015-.092-.019a1.385 1.385 0 0 1-.924.344c-.034 0-.063-.007-.095-.01-.135.039-.28.067-.443.068a1.498 1.498 0 0 1-.83.235c-2.006 0-2.008-3.104-.01-3.115.222-.144.496-.235.83-.235.033 0 .06.008.093.009.14-.04.287-.068.455-.068.625 0 1.056.303 1.291.72.04-.007.072-.024.115-.024.06 0 .104.02.157.03.021 0 .036-.012.058-.012.926.002.95 1.368.093 1.47Z"/>
  </g>
  <mask id="y" width="61" height="35" x="67" y="26" maskUnits="userSpaceOnUse" style="mask-type:luminance">
    <use xlink:href="#i"/>
  </mask>
  <g mask="url(#y)">
    <path fill="#F15523" d="M97.027 28.5c-14.326 0-25.94 6.779-25.94 15.14 0 8.365 11.615 15.145 25.94 15.142 14.328 0 25.941-6.776 25.941-15.141 0-8.362-11.613-15.14-25.94-15.14Zm-14.53 16.01c-.052.32-.278.606-.698.606-.035 0-.06-.015-.092-.019a1.385 1.385 0 0 1-.924.344c-.034 0-.063-.007-.095-.01a1.63 1.63 0 0 1-.443.068 1.498 1.498 0 0 1-.83.235c-2.006 0-2.008-3.104-.01-3.115.222-.144.496-.235.83-.235.033 0 .06.008.093.009.14-.04.287-.068.455-.068.625 0 1.056.303 1.291.72.04-.007.072-.024.115-.024.06 0 .104.02.157.03.021 0 .036-.012.058-.012.926.002.95 1.368.093 1.47Z"/>
  </g>
  <mask id="z" width="61" height="35" x="67" y="26" maskUnits="userSpaceOnUse" style="mask-type:luminance">
    <use xlink:href="#i"/>
  </mask>
  <g mask="url(#z)">
    <path fill="#F15822" d="M97.03 28.92c-13.928 0-25.22 6.589-25.22 14.72 0 8.13 11.292 14.722 25.22 14.722 13.931 0 25.221-6.593 25.221-14.722 0-8.13-11.29-14.72-25.22-14.72ZM82.498 44.51c-.052.32-.278.606-.698.606-.035 0-.06-.015-.092-.019a1.385 1.385 0 0 1-.924.344c-.034 0-.063-.007-.095-.01a1.57 1.57 0 0 1-.443.068 1.498 1.498 0 0 1-.83.235c-2.006 0-2.008-3.103-.01-3.115.222-.144.496-.235.83-.235.033 0 .06.008.093.009.14-.04.287-.068.455-.068.625 0 1.056.303 1.291.72.04-.007.072-.024.115-.024.06 0 .104.02.157.03.021 0 .036-.012.058-.012.926.002.95 1.368.093 1.47Z"/>
  </g>
  <mask id="A" width="61" height="35" x="67" y="26" maskUnits="userSpaceOnUse" style="mask-type:luminance">
    <use xlink:href="#i"/>
  </mask>
  <g mask="url(#A)">
    <path fill="#F15B22" d="M97.035 29.337c-13.533 0-24.5 6.404-24.5 14.301 0 7.901 10.966 14.302 24.498 14.302 13.533 0 24.499-6.403 24.499-14.302 0-7.897-10.965-14.301-24.497-14.301ZM82.497 44.51c-.052.32-.278.606-.698.606-.035 0-.06-.015-.092-.019a1.385 1.385 0 0 1-.924.344c-.034 0-.063-.007-.095-.01a1.57 1.57 0 0 1-.443.068 1.498 1.498 0 0 1-.83.235c-2.006 0-2.008-3.104-.01-3.115.222-.144.496-.235.83-.235.033 0 .06.008.093.009.14-.04.287-.068.455-.068.625 0 1.056.303 1.291.72.04-.007.072-.024.115-.024.06 0 .104.02.157.03.021 0 .036-.012.058-.012.926.002.95 1.368.093 1.47Z"/>
  </g>
  <mask id="B" width="61" height="35" x="67" y="26" maskUnits="userSpaceOnUse" style="mask-type:luminance">
    <use xlink:href="#i"/>
  </mask>
  <g mask="url(#B)">
    <path fill="#F15E22" d="M97.037 29.757c-13.132 0-23.78 6.214-23.78 13.88s10.647 13.881 23.78 13.881c13.134 0 23.78-6.215 23.78-13.88 0-7.667-10.646-13.88-23.78-13.88ZM82.497 44.51c-.052.32-.278.606-.698.606-.035 0-.06-.015-.092-.019a1.385 1.385 0 0 1-.924.344c-.034 0-.063-.007-.095-.01-.135.039-.28.067-.443.068a1.498 1.498 0 0 1-.83.235c-2.006 0-2.008-3.104-.01-3.115.222-.144.496-.235.83-.235.033 0 .06.008.093.009.14-.04.287-.068.455-.068.625 0 1.056.303 1.291.72.04-.007.072-.024.115-.024.06 0 .104.02.157.03.02 0 .036-.012.058-.012.926.002.95 1.368.093 1.47Z"/>
  </g>
  <mask id="C" width="61" height="35" x="67" y="26" maskUnits="userSpaceOnUse" style="mask-type:luminance">
    <use xlink:href="#i"/>
  </mask>
  <g mask="url(#C)">
    <path fill="#F16022" d="M97.016 30.197c-12.736 0-23.059 6.028-23.059 13.46 0 7.432 10.323 13.462 23.059 13.462 12.733 0 23.056-6.029 23.056-13.462s-10.322-13.46-23.056-13.46ZM82.497 44.51c-.052.32-.278.606-.698.606-.035 0-.06-.015-.092-.019a1.385 1.385 0 0 1-.924.344c-.034 0-.063-.007-.095-.01a1.57 1.57 0 0 1-.443.068 1.498 1.498 0 0 1-.83.235c-2.006 0-2.008-3.104-.01-3.115.222-.144.496-.235.83-.235.033 0 .06.008.093.009.14-.04.287-.068.455-.068.625 0 1.056.303 1.291.72.04-.007.072-.024.115-.024.06 0 .104.02.157.03.021 0 .036-.012.058-.012.926.002.95 1.368.093 1.47Z"/>
  </g>
  <mask id="D" width="61" height="35" x="67" y="26" maskUnits="userSpaceOnUse" style="mask-type:luminance">
    <use xlink:href="#i"/>
  </mask>
  <g mask="url(#D)">
    <path fill="#F26322" d="M97.018 30.617c-12.337 0-22.337 5.838-22.337 13.039 0 7.202 10.002 13.04 22.337 13.04 12.336 0 22.338-5.838 22.338-13.04 0-7.2-10.002-13.039-22.338-13.039ZM82.497 44.51c-.052.32-.278.606-.698.606-.035 0-.06-.015-.092-.019a1.385 1.385 0 0 1-.924.344c-.034 0-.063-.007-.095-.01-.135.039-.28.067-.443.068a1.498 1.498 0 0 1-.83.235c-2.006 0-2.008-3.104-.01-3.115.222-.144.496-.235.83-.235.033 0 .06.008.093.009.14-.04.287-.068.455-.068.625 0 1.056.303 1.291.72.04-.007.072-.024.115-.024.06 0 .104.02.157.03.021 0 .036-.012.058-.012.926.002.95 1.368.093 1.47Z"/>
  </g>
  <mask id="E" width="61" height="35" x="67" y="26" maskUnits="userSpaceOnUse" style="mask-type:luminance">
    <use xlink:href="#i"/>
  </mask>
  <g mask="url(#E)">
    <path fill="#F26522" d="M97.022 31.036c-11.938 0-21.617 5.65-21.617 12.619 0 6.968 9.679 12.618 21.617 12.618 11.94 0 21.618-5.65 21.618-12.618 0-6.97-9.678-12.619-21.618-12.619ZM82.497 44.51c-.052.32-.278.606-.698.606-.035 0-.06-.015-.092-.019a1.385 1.385 0 0 1-.924.344c-.034 0-.063-.007-.095-.01a1.63 1.63 0 0 1-.443.068 1.498 1.498 0 0 1-.83.235c-2.006 0-2.008-3.104-.01-3.115.222-.144.496-.235.83-.235.033 0 .06.008.093.009.14-.04.287-.068.455-.068.625 0 1.056.303 1.291.72.04-.007.072-.024.115-.024.06 0 .104.02.157.03.02 0 .036-.012.058-.012.926.002.95 1.368.093 1.47Z"/>
  </g>
  <mask id="F" width="61" height="35" x="67" y="26" maskUnits="userSpaceOnUse" style="mask-type:luminance">
    <use xlink:href="#i"/>
  </mask>
  <g mask="url(#F)">
    <path fill="#F26922" d="M97.026 31.455c-11.543 0-20.897 5.462-20.897 12.198 0 6.738 9.354 12.197 20.897 12.197 11.54 0 20.895-5.459 20.895-12.197.002-6.736-9.356-12.198-20.895-12.198ZM82.497 44.51c-.052.32-.278.606-.698.606-.035 0-.06-.015-.092-.019a1.385 1.385 0 0 1-.924.344c-.034 0-.063-.007-.095-.01a1.57 1.57 0 0 1-.443.068 1.498 1.498 0 0 1-.83.235c-2.006 0-2.008-3.103-.01-3.115.222-.144.496-.235.83-.235.033 0 .06.008.093.009.14-.04.287-.068.455-.068.625 0 1.056.303 1.291.72.04-.007.072-.024.115-.024.06 0 .104.02.157.03.021 0 .036-.012.058-.012.926.002.95 1.368.093 1.47Z"/>
  </g>
  <mask id="G" width="61" height="35" x="67" y="26" maskUnits="userSpaceOnUse" style="mask-type:luminance">
    <use xlink:href="#i"/>
  </mask>
  <g mask="url(#G)">
    <path fill="#F36B21" d="M97.03 31.875c-11.145 0-20.178 5.273-20.178 11.777S85.884 55.43 97.03 55.43c11.141 0 20.174-5.273 20.174-11.777s-9.033-11.777-20.174-11.777ZM82.497 44.51c-.052.32-.278.606-.698.606-.035 0-.06-.015-.092-.019a1.385 1.385 0 0 1-.924.344c-.034 0-.063-.007-.095-.01a1.57 1.57 0 0 1-.443.068 1.498 1.498 0 0 1-.83.235c-2.006 0-2.008-3.104-.01-3.115.222-.144.496-.235.83-.235.033 0 .06.008.093.009.14-.04.287-.068.455-.068.625 0 1.056.303 1.291.72.04-.007.072-.024.115-.024.06 0 .104.02.157.03.021 0 .036-.012.058-.012.926.002.95 1.368.093 1.47Z"/>
  </g>
  <mask id="H" width="61" height="35" x="67" y="26" maskUnits="userSpaceOnUse" style="mask-type:luminance">
    <use xlink:href="#i"/>
  </mask>
  <g mask="url(#H)">
    <path fill="#F36E21" d="M97.03 32.294c-10.745 0-19.454 5.085-19.454 11.357 0 6.271 8.71 11.357 19.455 11.357 10.745 0 19.458-5.086 19.458-11.357 0-6.272-8.713-11.357-19.458-11.357ZM82.498 44.51c-.052.32-.278.606-.698.606-.035 0-.06-.015-.092-.019a1.385 1.385 0 0 1-.924.344c-.034 0-.063-.007-.095-.01-.135.039-.28.067-.443.068a1.498 1.498 0 0 1-.83.235c-2.006 0-2.008-3.104-.01-3.115.222-.144.496-.235.83-.235.033 0 .06.008.093.009.14-.04.287-.068.455-.068.625 0 1.056.303 1.291.72.04-.007.072-.024.115-.024.06 0 .104.02.157.03.021 0 .036-.012.058-.012.926.002.95 1.368.093 1.47Z"/>
  </g>
  <mask id="I" width="61" height="35" x="67" y="26" maskUnits="userSpaceOnUse" style="mask-type:luminance">
    <use xlink:href="#i"/>
  </mask>
  <g mask="url(#I)">
    <path fill="#F37021" d="M97.033 32.714c-9.996 0-18.14 4.574-18.682 10.33.248-.252.596-.42 1.053-.422.224-.145.497-.236.832-.236.033 0 .06.007.093.008.14-.04.288-.067.455-.067.625 0 1.057.302 1.292.719.04-.007.07-.024.115-.024.058 0 .103.021.156.031.021-.001.036-.012.059-.012.925 0 .949 1.366.092 1.469-.052.32-.277.606-.697.606-.035 0-.06-.015-.093-.019a1.385 1.385 0 0 1-.924.344c-.034 0-.063-.007-.095-.01a1.63 1.63 0 0 1-.443.068 1.498 1.498 0 0 1-.83.235c-.334 0-.606-.091-.829-.235 1.508 5.157 9.183 9.086 18.446 9.086 10.347 0 18.734-4.895 18.734-10.935 0-6.04-8.387-10.936-18.734-10.936Z"/>
  </g>
  <mask id="J" width="61" height="35" x="67" y="26" maskUnits="userSpaceOnUse" style="mask-type:luminance">
    <use xlink:href="#i"/>
  </mask>
  <g mask="url(#J)">
    <path fill="#F37221" d="M97.036 33.133c-9.373 0-17.063 4.177-17.926 9.516.094-.017.191-.028.296-.028a1.5 1.5 0 0 1 .83-.236c.033 0 .06.008.093.01.14-.04.288-.068.455-.068.625 0 1.057.302 1.292.719.04-.007.07-.024.115-.024.058 0 .103.021.156.031.021-.001.036-.012.059-.012.925 0 .949 1.366.092 1.469-.052.32-.277.606-.697.606-.035 0-.06-.015-.093-.019a1.386 1.386 0 0 1-.924.344c-.034 0-.063-.007-.095-.01a1.57 1.57 0 0 1-.443.068 1.498 1.498 0 0 1-.83.235c-.014 0-.024-.004-.037-.004 1.655 4.81 8.928 8.434 17.657 8.434 9.949 0 18.013-4.71 18.013-10.516s-8.064-10.515-18.013-10.515Z"/>
  </g>
  <mask id="K" width="61" height="35" x="67" y="26" maskUnits="userSpaceOnUse" style="mask-type:luminance">
    <use xlink:href="#i"/>
  </mask>
  <g mask="url(#K)">
    <path fill="#F47521" d="M97.016 33.552c-8.839 0-16.11 3.875-17.147 8.872.115-.025.236-.04.367-.04.033 0 .06.008.093.009.14-.04.288-.068.455-.068.625 0 1.057.303 1.292.72.04-.007.07-.024.115-.024.058 0 .103.02.156.03.021 0 .036-.012.059-.012.925 0 .949 1.367.092 1.47-.052.32-.277.606-.697.606-.035 0-.06-.015-.093-.019a1.385 1.385 0 0 1-.924.344c-.032 0-.06-.008-.092-.01a1.62 1.62 0 0 1-.456.069.092.092 0 0 1-.018-.003c-.057.035-.1.082-.163.11 1.563 4.637 8.559 8.135 16.96 8.135 9.552 0 17.293-4.519 17.293-10.094 0-5.575-7.74-10.095-17.292-10.095Z"/>
  </g>
  <mask id="L" width="61" height="35" x="67" y="26" maskUnits="userSpaceOnUse" style="mask-type:luminance">
    <use xlink:href="#i"/>
  </mask>
  <g mask="url(#L)">
    <path fill="#F47721" d="M97.02 33.972c-8.39 0-15.283 3.646-16.38 8.367.049-.003.091-.014.143-.014.625 0 1.056.303 1.291.72.04-.007.072-.024.115-.024.06 0 .104.02.157.03.021 0 .036-.012.058-.012.926 0 .95 1.367.093 1.47-.052.32-.278.606-.698.606-.035 0-.06-.015-.092-.019a1.385 1.385 0 0 1-.924.344l-.014-.001c1.444 4.482 8.15 7.88 16.25 7.88 9.153 0 16.574-4.333 16.574-9.673 0-5.343-7.421-9.674-16.573-9.674Z"/>
  </g>
  <mask id="M" width="61" height="35" x="67" y="26" maskUnits="userSpaceOnUse" style="mask-type:luminance">
    <use xlink:href="#i"/>
  </mask>
  <g mask="url(#M)">
    <path fill="#F47A20" d="M97.023 34.39c-8.044 0-14.667 3.502-15.695 8.033.334.119.573.348.731.625.045-.007.08-.026.13-.026.06 0 .104.021.157.031.021-.001.036-.012.058-.012.926 0 .95 1.366.093 1.469-.052.32-.278.606-.698.606-.03 0-.052-.014-.082-.017-.082.072-.155.15-.26.199 1.34 4.318 7.782 7.6 15.566 7.6 8.755 0 15.852-4.143 15.852-9.253s-7.097-9.254-15.852-9.254Z"/>
  </g>
  <mask id="N" width="61" height="35" x="67" y="26" maskUnits="userSpaceOnUse" style="mask-type:luminance">
    <use xlink:href="#i"/>
  </mask>
  <g mask="url(#N)">
    <path fill="#F47C20" d="M97.025 34.811c-7.916 0-14.4 3.547-15.066 8.067.04.051.058.115.09.171.048-.008.087-.028.14-.028.06 0 .104.02.157.03.021 0 .036-.012.058-.012.926 0 .95 1.367.093 1.47-.037.227-.156.438-.38.54 1.156 4.208 7.373 7.427 14.908 7.425 8.358 0 15.134-3.95 15.134-8.83s-6.776-8.833-15.134-8.833Z"/>
  </g>
  <mask id="O" width="61" height="35" x="67" y="26" maskUnits="userSpaceOnUse" style="mask-type:luminance">
    <use xlink:href="#i"/>
  </mask>
  <g mask="url(#O)">
    <path fill="#F57E20" d="M97.027 35.229c-7.642 0-13.869 3.477-14.355 7.865.587.22.6 1.13.035 1.374.714 4.258 6.84 7.586 14.32 7.586 7.96 0 14.411-3.766 14.411-8.412 0-4.646-6.451-8.413-14.41-8.413Z"/>
  </g>
  <mask id="P" width="61" height="35" x="67" y="26" maskUnits="userSpaceOnUse" style="mask-type:luminance">
    <use xlink:href="#i"/>
  </mask>
  <g mask="url(#P)">
    <path fill="#F58120" d="M83.34 43.64c0-4.413 6.128-7.993 13.69-7.993 7.562 0 13.691 3.579 13.691 7.994 0 4.416-6.129 7.992-13.691 7.992-7.562 0-13.69-3.576-13.69-7.992Z"/>
  </g>
  <mask id="Q" width="61" height="35" x="67" y="26" maskUnits="userSpaceOnUse" style="mask-type:luminance">
    <use xlink:href="#i"/>
  </mask>
  <g mask="url(#Q)">
    <path fill="#F58320" d="M84.062 43.64c0-4.182 5.808-7.572 12.97-7.572 7.165 0 12.971 3.39 12.971 7.572 0 4.18-5.806 7.57-12.97 7.57-7.163 0-12.97-3.39-12.97-7.57Z"/>
  </g>
  <mask id="R" width="61" height="35" x="67" y="26" maskUnits="userSpaceOnUse" style="mask-type:luminance">
    <use xlink:href="#i"/>
  </mask>
  <g mask="url(#R)">
    <path fill="#F6851F" d="M84.788 43.638c0-3.948 5.484-7.15 12.25-7.15 6.765 0 12.25 3.202 12.25 7.15 0 3.95-5.485 7.151-12.25 7.151-6.766 0-12.25-3.2-12.25-7.15Z"/>
  </g>
  <mask id="S" width="61" height="35" x="67" y="26" maskUnits="userSpaceOnUse" style="mask-type:luminance">
    <use xlink:href="#i"/>
  </mask>
  <g mask="url(#S)">
    <path fill="#F6871F" d="M85.488 43.658c0-3.718 5.161-6.729 11.53-6.729 6.366 0 11.527 3.01 11.527 6.73 0 3.717-5.161 6.73-11.528 6.73-6.368 0-11.53-3.014-11.53-6.73Z"/>
  </g>
  <mask id="T" width="61" height="35" x="67" y="26" maskUnits="userSpaceOnUse" style="mask-type:luminance">
    <use xlink:href="#i"/>
  </mask>
  <g mask="url(#T)">
    <path fill="#F6891F" d="M86.21 43.657c0-3.485 4.84-6.31 10.81-6.31 5.97 0 10.809 2.825 10.809 6.31 0 3.485-4.839 6.31-10.81 6.31-5.97 0-10.809-2.825-10.809-6.31Z"/>
  </g>
  <mask id="U" width="61" height="35" x="67" y="26" maskUnits="userSpaceOnUse" style="mask-type:luminance">
    <use xlink:href="#i"/>
  </mask>
  <g mask="url(#U)">
    <path fill="#F68C1F" d="M86.934 43.656c0-3.253 4.515-5.89 10.087-5.89 5.571 0 10.088 2.637 10.088 5.89 0 3.253-4.517 5.888-10.088 5.888-5.572 0-10.087-2.635-10.087-5.888Z"/>
  </g>
  <mask id="V" width="61" height="35" x="67" y="26" maskUnits="userSpaceOnUse" style="mask-type:luminance">
    <use xlink:href="#i"/>
  </mask>
  <g mask="url(#V)">
    <path fill="#F78E1E" d="M87.657 43.655c0-3.02 4.194-5.468 9.368-5.468 5.173 0 9.367 2.448 9.367 5.468s-4.194 5.467-9.367 5.467c-5.174 0-9.368-2.448-9.368-5.467Z"/>
  </g>
  <mask id="W" width="61" height="35" x="67" y="26" maskUnits="userSpaceOnUse" style="mask-type:luminance">
    <use xlink:href="#i"/>
  </mask>
  <g mask="url(#W)">
    <path fill="#F7901E" d="M88.381 43.653c0-2.787 3.872-5.047 8.647-5.047s8.646 2.26 8.646 5.047-3.871 5.047-8.646 5.047-8.647-2.257-8.647-5.047Z"/>
  </g>
  <mask id="X" width="61" height="35" x="67" y="26" maskUnits="userSpaceOnUse" style="mask-type:luminance">
    <use xlink:href="#i"/>
  </mask>
  <g mask="url(#X)">
    <path fill="#F7921E" d="M89.105 43.652c0-2.556 3.548-4.626 7.926-4.626 4.379 0 7.927 2.07 7.927 4.626 0 2.556-3.548 4.624-7.927 4.624-4.378 0-7.926-2.068-7.926-4.624Z"/>
  </g>
  <mask id="Y" width="61" height="35" x="67" y="26" maskUnits="userSpaceOnUse" style="mask-type:luminance">
    <use xlink:href="#i"/>
  </mask>
  <g mask="url(#Y)">
    <path fill="#F8951D" d="M89.828 43.65c0-2.322 3.226-4.205 7.207-4.205 3.979 0 7.205 1.883 7.205 4.206 0 2.322-3.226 4.205-7.205 4.205-3.981 0-7.207-1.882-7.207-4.205Z"/>
  </g>
  <mask id="Z" width="61" height="35" x="67" y="26" maskUnits="userSpaceOnUse" style="mask-type:luminance">
    <use xlink:href="#i"/>
  </mask>
  <g mask="url(#Z)">
    <path fill="#F8971D" d="M90.552 43.65c0-2.092 2.902-3.786 6.485-3.786 3.581 0 6.487 1.693 6.487 3.786 0 2.09-2.905 3.783-6.487 3.783-3.583 0-6.485-1.693-6.485-3.783Z"/>
  </g>
  <mask id="aa" width="61" height="35" x="67" y="26" maskUnits="userSpaceOnUse" style="mask-type:luminance">
    <use xlink:href="#i"/>
  </mask>
  <g mask="url(#aa)">
    <path fill="#F8991D" d="M91.252 43.647c0-1.857 2.58-3.363 5.763-3.363s5.764 1.506 5.764 3.363-2.581 3.364-5.764 3.364c-3.184 0-5.763-1.506-5.763-3.364Z"/>
  </g>
  <mask id="ab" width="61" height="35" x="67" y="26" maskUnits="userSpaceOnUse" style="mask-type:luminance">
    <use xlink:href="#i"/>
  </mask>
  <g mask="url(#ab)">
    <path fill="#F99B1C" d="M91.976 43.646c0-1.626 2.26-2.944 5.044-2.944 2.787 0 5.043 1.32 5.043 2.944 0 1.628-2.258 2.944-5.043 2.944-2.786.002-5.044-1.316-5.044-2.944Z"/>
  </g>
  <mask id="ac" width="61" height="35" x="67" y="26" maskUnits="userSpaceOnUse" style="mask-type:luminance">
    <use xlink:href="#i"/>
  </mask>
  <g mask="url(#ac)">
    <path fill="#F99E1C" d="M92.7 43.645c0-1.393 1.935-2.524 4.323-2.524 2.387 0 4.323 1.13 4.323 2.524 0 1.394-1.936 2.524-4.323 2.524-2.388 0-4.323-1.13-4.323-2.524Z"/>
  </g>
  <mask id="ad" width="61" height="35" x="67" y="26" maskUnits="userSpaceOnUse" style="mask-type:luminance">
    <use xlink:href="#i"/>
  </mask>
  <g mask="url(#ad)">
    <path fill="#F9A01B" d="M93.422 43.643c0-1.161 1.613-2.103 3.603-2.103 1.99 0 3.603.942 3.603 2.103 0 1.163-1.613 2.105-3.603 2.105-1.99 0-3.603-.942-3.603-2.105Z"/>
  </g>
  <mask id="ae" width="61" height="35" x="67" y="26" maskUnits="userSpaceOnUse" style="mask-type:luminance">
    <use xlink:href="#i"/>
  </mask>
  <g mask="url(#ae)">
    <path fill="#FAA21B" d="M94.146 43.642c0-.928 1.29-1.683 2.882-1.683 1.593 0 2.882.755 2.882 1.683 0 .93-1.289 1.684-2.882 1.684-1.593 0-2.882-.755-2.882-1.684Z"/>
  </g>
  <mask id="af" width="61" height="35" x="67" y="26" maskUnits="userSpaceOnUse" style="mask-type:luminance">
    <use xlink:href="#i"/>
  </mask>
  <g mask="url(#af)">
    <path fill="#FAA41A" d="M94.87 43.64c0-.696.967-1.26 2.16-1.26 1.194 0 2.163.564 2.163 1.26 0 .699-.968 1.264-2.162 1.264s-2.162-.566-2.162-1.263Z"/>
  </g>
  <mask id="ag" width="61" height="35" x="67" y="26" maskUnits="userSpaceOnUse" style="mask-type:luminance">
    <use xlink:href="#i"/>
  </mask>
  <g mask="url(#ag)">
    <path fill="#FAA71A" d="M95.593 43.64c0-.464.645-.842 1.44-.842.797 0 1.44.378 1.44.842 0 .465-.644.841-1.44.841-.795 0-1.44-.376-1.44-.841Z"/>
  </g>
  <mask id="ah" width="61" height="35" x="67" y="26" maskUnits="userSpaceOnUse" style="mask-type:luminance">
    <use xlink:href="#i"/>
  </mask>
  <g mask="url(#ah)">
    <path fill="#FBA919" d="M96.316 43.638c0-.232.322-.42.72-.42.397 0 .72.188.72.42 0 .234-.323.42-.72.42-.398 0-.72-.186-.72-.42Z"/>
  </g>
</svg>
