<svg xmlns="http://www.w3.org/2000/svg" viewBox="0 0 205 88">
    <title>Valentino</title>
    <path d="M3.17 29.08H0v-.5h9.86V29h-2.8l8.13 24.47 6.83-24.47h-2.3v-.43h5.69V29h-3.03L13.6 60.39 3.16 29.08zm15.9 29.8h2.74l8.85-30.6h.5l9.22 30.6h3.1v.36h-9.65v-.36h2.88l-2.8-9.43h-9l-2.67 9.43h2.74v.36h-5.9v-.36zm14.69-9.79l-4.47-14.97-4.24 14.97h8.7zm11.3 9.79h3.24V29H44.9v-.44h10.66v.44H52.1l-.07 29.8h5.62c1.48 0 2.89-.48 4.2-1.44a7.97 7.97 0 002.85-3.82c.29-.72.48-1.33.57-1.83.1-.5.22-1.29.36-2.34h.22v9.86H44.98v-.36h.08zm22.89 0h3.1V29h-2.88v-.44h19.8v7.63h-.23v-.14a9.32 9.32 0 00-.9-3.53 6.8 6.8 0 00-1.97-2.66 4.54 4.54 0 00-1.48-.76 7.14 7.14 0 00-1.77-.17H74.8v14.32h2.23c1.34 0 2.48-.59 3.42-1.76a8.28 8.28 0 001.62-4.65h.28v13.46h-.28v-.21c-.05-2.02-.57-3.62-1.55-4.79a4.87 4.87 0 00-3.93-1.76h-1.87v15.18h5.98c2.2 0 4.1-.85 5.68-2.55a11.03 11.03 0 002.81-6.51h.15v9.5H67.88v-.3h.07zm23.54 0h2.59V29h-2.6v-.44h6.99l11.8 22.6V29.02h-2.52v-.44h5.7v.44h-2.75v30.95L94.44 29v29.87h2.59v.36h-5.54v-.36zm30.37 0h2.74V29H123c-1.68 0-3.14.75-4.39 2.26a12.18 12.18 0 00-2.45 6.01h-.28v-8.7h21.02v8.78h-.22c-.2-2.26-.9-4.21-2.13-5.87-1.22-1.66-2.57-2.48-4.06-2.48h-2.16v29.87h2.88v.36h-9.29v-.36h-.07zm18 0h3.02V29h-2.95v-.44h9.36v.44h-2.95v29.87h2.95v.36h-9.43v-.36zm12.23 0h2.6V29h-2.6v-.44h6.98l11.88 22.6V29.02h-2.45v-.44h5.69v.44h-2.8v30.95L155.1 29v29.87h2.52v.36h-5.54v-.36zm23.4-14.47c0-2.16.3-4.23.93-6.22.63-2 1.47-3.75 2.52-5.26a13.1 13.1 0 013.67-3.6 8.13 8.13 0 014.47-1.33c1.48 0 2.91.44 4.28 1.33 1.37.89 2.57 2.09 3.6 3.6a21.05 21.05 0 013.42 11.55c0 4.13-1.15 7.7-3.46 10.73-2.3 3.02-5.04 4.53-8.2 4.53-3.03.05-5.66-1.46-7.89-4.53a17.88 17.88 0 01-3.34-10.8zm18.42 6.77a36.5 36.5 0 00.72-7.49c0-2.92-.27-5.56-.82-7.92-.56-2.35-1.31-4.1-2.27-5.25a5.48 5.48 0 00-2.05-1.51c-.8-.34-1.65-.5-2.56-.5-1.68 0-3.07.57-4.17 1.72s-1.92 2.88-2.45 5.18a32.92 32.92 0 00-.76 4.18 38.74 38.74 0 00-.25 4.46c0 3.17.26 5.96.8 8.35.52 2.4 1.27 4.15 2.23 5.26.52.57 1.15 1 1.87 1.3.72.28 1.54.43 2.45.43 2.06 0 3.67-.65 4.82-1.95 1.15-1.3 1.97-3.38 2.45-6.26z"/>
</svg>