<svg role="img" aria-labelledby="wind-tre-svg" viewBox="0 0 71 88" fill="none" xmlns="http://www.w3.org/2000/svg">
  <title id="wind-tre">Wind Tre</title>
  <g clip-path="url(#clip0_1837_588)">
    <path fill-rule="evenodd" clip-rule="evenodd" d="M8.78137 58.6102H10.1741L11.9224 64.0499L13.7233 58.5892H14.813L16.6139 64.0499L18.3643 58.6102H19.715L17.1693 66.0001H16.048L14.2471 60.7288L12.4462 66.0001H11.3354L8.78137 58.6102ZM22.6035 58.61H21.3159V65.9493H22.6035V58.61ZM25.9674 58.61H24.7725V65.9493H26.039V60.7286L30.0825 65.9493H31.1597V58.61H29.8932V63.6833L25.9674 58.61ZM33.2551 58.61H35.988C38.2917 58.61 39.8843 60.1916 39.8843 62.2576V62.2786C39.8843 64.3446 38.2917 65.9472 35.988 65.9472H33.2551V58.61ZM34.5426 59.7852V64.7742H35.988C37.528 64.7742 38.5336 63.736 38.5336 62.2997V62.2786C38.5336 60.8424 37.528 59.7831 35.988 59.7831H34.5426V59.7852ZM40.5029 59.8041H42.8276V65.9493H44.1257V59.8041H46.4504V58.61H40.5029V59.8041ZM48.0241 58.61H51.2892C52.2107 58.61 52.9323 58.8817 53.4057 59.3429C53.7928 59.741 54.0137 60.2864 54.0137 60.9266V60.9477C54.0137 62.1544 53.2921 62.8767 52.2759 63.1695L54.2556 65.9472H52.7262L50.9253 63.3906H49.3117V65.9472H48.0241V58.61ZM51.1946 62.2471C52.1161 62.2471 52.703 61.7648 52.703 61.0214V61.0003C52.703 60.2148 52.1371 59.7852 51.1841 59.7852H49.3096V62.2492H51.1946V62.2471ZM61.2383 58.61H55.802V65.9493H61.2908V64.7953H57.0895V62.8241H60.767V61.67H57.0895V59.7641H61.2383V58.61Z" fill="#97999B"/>
    <path d="M21.6237 32.0876C23.5656 31.8665 24.9815 30.2954 24.7858 28.5812C24.7332 28.1242 24.5712 27.703 24.3272 27.3365C24.3524 27.6061 24.3124 27.8693 24.2367 28.1073C24.1504 28.3958 24.0053 28.6528 23.8412 28.8865C23.675 29.1182 23.4877 29.3182 23.2837 29.4994C22.8776 29.8616 22.4169 30.1354 21.9183 30.3354C21.4197 30.5271 20.8832 30.6492 20.3278 30.6471C20.3278 30.6471 20.1258 30.6513 19.9365 30.6282C19.7534 30.6071 19.5431 30.565 19.5115 30.5587C19.2527 30.5018 18.9919 30.426 18.7352 30.308C18.6069 30.2491 18.3018 30.108 18.0052 29.83C17.9252 29.7542 17.8495 29.6699 17.7822 29.5773C18.083 31.1883 19.7555 32.3003 21.6237 32.0876ZM18.2576 28.7265C18.4554 28.9518 18.7709 29.0571 19.137 29.1245C19.3179 29.1561 19.5115 29.175 19.7093 29.1835C19.8039 29.1898 19.9154 29.194 20.0017 29.1877L20.1384 29.1856L20.2773 29.175C20.6455 29.1456 21.0199 29.0508 21.386 28.9223C21.75 28.7875 22.1076 28.617 22.4274 28.4043C22.9428 28.061 23.1154 27.8104 23.2079 27.6735C23.2963 27.5345 23.3594 27.3913 23.3846 27.2523C23.4099 27.1133 23.3952 26.9701 23.3215 26.81C23.2584 26.6752 23.1553 26.532 22.9534 26.3551C22.3895 25.8539 21.466 25.816 20.9211 25.8771C19.6567 26.0224 18.5921 26.7616 18.1966 27.5534C18.0977 27.7661 18.0451 28.0252 18.0662 28.2421C18.083 28.4485 18.1587 28.6127 18.2576 28.7265ZM21.0326 43.3229C20.6413 43.3019 20.2415 43.3545 19.8523 43.4767C19.4631 43.6009 19.0823 43.7884 18.7205 44.0158C18.5374 44.1295 18.3607 44.2559 18.1882 44.3886C18.1882 44.3886 16.7976 45.4205 16.3579 45.6816C15.47 46.1913 14.9273 46.5809 13.9132 46.8167C13.0506 47.0147 12.3711 47.0442 12.3711 47.0442C11.8536 47.0758 11.0373 47.1031 10.0422 46.9557C8.70203 46.7578 7.79107 46.4082 7.79107 46.4082C7.37451 46.2692 6.96847 46.1028 6.56874 45.9238C7.32402 47.0252 8.15503 48.1287 9.1838 48.929C10.0548 49.6071 11.1088 50.062 12.2133 50.1505C14.0352 50.2958 15.3038 49.4218 16.6524 48.2635C17.6181 47.4338 18.4449 46.4334 19.278 45.4752C19.8586 44.8076 20.4498 43.9294 21.1798 43.3377C21.1314 43.3335 21.0831 43.325 21.0326 43.3229ZM31.9304 40.3725C32.3007 40.7073 32.6983 40.9979 33.1106 41.2317C33.5272 41.4613 33.9606 41.6339 34.4108 41.7245C34.861 41.8193 35.3239 41.834 35.7909 41.7771C36.0244 41.7456 36.258 41.7013 36.4936 41.6382C36.7271 41.5729 36.9606 41.4928 37.19 41.4002C38.0378 41.0485 38.8499 40.5136 39.6031 39.8902C40.3583 39.2647 41.0589 38.5487 41.7153 37.7884C42.3717 37.0261 42.9839 36.2174 43.5583 35.3792C43.9874 34.7495 44.3956 34.103 44.7806 33.4417C44.4734 33.2038 44.0737 33.0837 43.6214 33.1132C42.5463 33.1827 41.6227 33.8945 40.8717 34.6063C40.0701 35.3666 39.359 36.2132 38.5175 36.9334C37.6781 37.6537 36.8008 38.3339 35.8519 38.9067C34.6023 39.6607 33.1969 40.1977 31.7726 40.2272C31.781 40.2314 31.9304 40.3725 31.9304 40.3725ZM54.0879 35.7204C55.0325 35.0907 56.0887 34.6 57.1258 34.1451C59.1098 33.2754 62.1393 32.8436 62.8735 30.5797C63.654 28.1726 61.4682 26.6079 59.2507 26.532C53.2527 26.3278 47.3199 30.1501 47.0233 31.2431C47.2336 31.281 47.4588 31.3126 47.6944 31.3379C48.7021 31.4432 49.9329 31.4474 51.2562 31.4474H51.4918C53.5325 31.4474 54.9736 31.5021 55.8972 31.6369C56.3579 31.7043 56.6883 31.7928 56.8944 31.8959C57.1027 32.0033 57.1679 32.1065 57.17 32.2224C57.17 32.3045 57.1174 32.3782 56.9912 32.5025C56.5494 32.9447 55.3944 33.6018 54.353 34.322C53.8313 34.6842 53.3369 35.0633 52.9708 35.4508C52.6047 35.8383 52.3565 36.2342 52.3523 36.6428V36.6618C52.3544 36.9461 52.4385 37.1967 52.5795 37.4199C52.5605 37.2346 52.8046 36.9187 52.9077 36.7776C53.219 36.3501 53.6503 36.011 54.0879 35.7204ZM5.55891 42.9944C5.73352 43.1292 5.92918 43.2745 6.11432 43.3945C6.48459 43.6388 6.85276 43.8494 7.24618 44.0537C7.63749 44.2601 8.03722 44.4496 8.44957 44.6076C8.44957 44.6076 9.02602 44.8455 9.70134 45.0182C10.3767 45.1909 10.9868 45.2646 10.9868 45.2646C11.4202 45.3236 11.8536 45.3362 12.2891 45.3299C12.2891 45.3299 13.0065 45.3089 13.585 45.2015C14.9862 44.9698 16.4105 43.921 16.7744 43.662L17.3572 43.2492C17.5697 43.1018 17.7885 42.9607 18.0178 42.8322C18.4743 42.5732 18.9666 42.3563 19.4947 42.2173C20.0227 42.0783 20.5171 42.0257 21.0746 42.0867C21.1441 42.093 21.5669 42.1352 22.0929 42.3352C22.0929 42.3352 22.4611 42.4763 22.6651 42.6069C22.905 42.7606 23.128 42.9249 23.332 43.0976C24.3272 43.94 27.2368 47.4548 28.0762 48.2067C29.0671 49.0954 30.3126 49.9988 31.3203 50.2663C33.2684 50.7823 34.8063 50.3126 36.5546 49.207C38.4859 47.9855 40.0512 46.1597 41.3829 44.3254C42.7883 42.39 44.0527 40.2798 44.8774 38.0285C45.2855 36.9145 45.6137 35.693 45.3949 34.501C45.3718 34.3789 45.3402 34.2631 45.2981 34.1535C45.0204 34.7453 44.7217 35.3287 44.404 35.9015C43.8928 36.8197 43.331 37.7168 42.702 38.574C42.073 39.4311 41.3829 40.2524 40.5919 41.0043C39.8029 41.7519 38.913 42.4342 37.8758 42.9333C37.5918 43.066 37.2994 43.186 36.9964 43.2871C36.6935 43.3861 36.3779 43.4661 36.0581 43.523C35.4164 43.6346 34.7411 43.6451 34.0868 43.5356C33.4283 43.4303 32.7993 43.2071 32.2228 42.9144C31.6485 42.6153 31.1225 42.251 30.6492 41.8466C30.6492 41.8466 30.3567 41.5897 30.3041 41.5371L29.9928 41.2401C29.7824 41.0422 29.5783 40.8442 29.3742 40.6441C28.9682 40.244 28.2403 39.429 28.2403 39.429C28.2403 39.429 26.9801 37.9548 25.9429 36.8387C25.9429 36.8387 24.973 35.7836 24.4429 35.335C22.6294 33.7955 20.4161 34.1346 18.4554 35.2023C16.6398 36.19 15.0219 38.0875 12.8487 38.2223C11.1551 38.3276 9.60878 37.6895 8.36331 36.5628C6.7076 35.0654 5.12341 33.507 3.79379 31.6875C3.20472 30.8809 1.88352 29.6741 0.553897 30.7124C-0.773618 31.7485 0.469744 35.2213 2.40316 38.8583C2.40316 38.8541 4.13672 41.8951 5.55891 42.9944ZM55.8551 45.1572C55.8404 44.715 55.8215 44.5549 55.8215 44.5549C55.7983 44.3654 55.7626 44.1758 55.7079 43.9905C55.2345 42.3921 53.3305 41.6908 51.9525 42.6701C50.8102 43.4809 50.362 45.0414 50.7744 46.3534C51.8263 49.6914 55.6805 50.3842 58.7206 49.9251C60.2164 49.6998 61.6891 49.1586 62.8798 48.2046C64.0306 47.2822 64.9079 45.8564 64.6218 44.3633C64.4324 42.1246 62.7368 41.0106 59.9702 40.6884C60.1007 40.9579 60.5277 42.9186 59.135 44.1864C58.2851 44.9593 57.3762 45.1657 56.1539 45.1678C56.1097 45.1678 55.8551 45.1572 55.8551 45.1572ZM66.652 35.9626C66.3785 35.7646 66.0566 35.5224 65.9114 35.3813C65.9893 35.2465 66.1281 35.0402 66.2523 34.8633C66.9718 33.8187 68.3245 31.8412 68.3245 29.0192C68.3245 27.3976 67.7334 25.6391 66.307 24.2892C64.8806 22.9372 62.6274 22 59.3222 22C56.1875 22 52.6552 23.0319 49.6047 24.8367C48.2372 25.6496 47.1095 26.5236 46.3206 27.3639C45.5338 28.2042 45.0793 29.0087 45.0772 29.6994C45.0772 30.0343 45.2056 30.3438 45.4496 30.5839C45.6432 30.7735 45.8998 30.9209 46.2133 31.0346C46.5394 28.9097 54.5928 24.2934 60.4899 24.9694C63.126 25.2727 65.0888 27.2375 64.8174 29.9585C64.5566 32.5614 61.91 33.9745 59.6294 34.6569C58.3566 35.0381 57.0796 35.4066 55.8593 35.9352C55.2598 36.1963 54.6538 36.4912 54.13 36.8829C53.7471 37.1693 53.2506 37.5399 53.28 38.0749C54.1826 38.6898 55.6132 39.0457 56.5452 39.1131C57.3005 39.1679 57.513 39.1805 58.3608 39.2058C60.1028 39.2584 61.931 39.3174 63.5573 40.0166C65.8378 40.9958 67.18 43.3566 66.6899 45.8269C66.0587 49.0027 62.8567 50.9255 59.8861 51.4751C56.7072 52.0648 52.7204 51.6036 50.6229 48.8574C49.7646 47.7349 49.2239 46.2313 49.4595 44.8118C49.7204 43.2366 50.8249 41.7287 52.4196 41.3265C53.4252 41.0717 54.4834 41.3075 55.2829 41.9014C55.0851 41.6192 54.8537 41.3623 54.5907 41.1348C53.6672 40.3325 52.3691 39.8818 50.8649 39.8818C49.0072 39.8818 47.5156 40.6547 46.4931 41.7982C45.4706 42.9439 44.9152 44.458 44.9152 45.9512C44.9152 48.3014 45.9987 50.6622 48.1088 52.4312C50.2211 54.2003 53.3579 55.3796 57.4646 55.3796C60.7192 55.3796 64.0033 54.3034 66.49 52.4355C68.5496 50.8834 71.009 48.0529 71.009 43.4114C71.0027 39.1679 68.152 37.0682 66.652 35.9626Z" fill="#FF6900"/>
  </g>
  <defs>
    <clipPath id="clip0_1837_588">
      <rect width="71" height="88" fill="white"/>
    </clipPath>
  </defs>
</svg>
