<svg xmlns="http://www.w3.org/2000/svg" viewBox="0 0 40 32">
  <path d="M22.22 14.7c-.97.82-1.613 1.978-1.687 3.292-.075 1.349.467 2.603 1.42 3.532.97.946 2.353 1.54 3.899 1.54 1.546 0 2.926-.594 3.897-1.54.952-.93 1.494-2.183 1.42-3.533-.073-1.313-.717-2.47-1.687-3.291-.953-.806-2.234-1.299-3.63-1.299-1.398 0-2.68.493-3.631 1.299Z"/>
  <path fill-rule="evenodd" clip-rule="evenodd" d="M12.485 22.941c-.246-.78-.41-1.78-.42-2.294-.008-.512.104-1.365.104-1.365l-7.722 6.32c-1.349 1.09-3.163 1.087-4.016-.006-.84-1.076-.41-2.775.926-3.797l.043-.033.01-.008 14.15-10.86-7.93.015.003-.005c-1.345-.005-2.223-.91-1.97-2.003.246-1.072 1.489-1.92 2.782-1.922h.02l15.645-.017-5.133-4.173.004-.004c-.8-.655-.697-1.694.201-2.322.888-.621 2.246-.623 3.053-.003a.19.19 0 0 1 .02.015l.012.01 12.306 9.448-.003.003c1.22.945 2.245 2.069 3.04 3.352a11.687 11.687 0 0 1 1.749 7.075c-.066.85-.23 1.697-.491 2.532a12.201 12.201 0 0 1-2.614 4.534 13.596 13.596 0 0 1-4.57 3.298A14.715 14.715 0 0 1 25.68 32a14.703 14.703 0 0 1-6.007-1.248 13.505 13.505 0 0 1-4.574-3.285 12.102 12.102 0 0 1-2.614-4.526ZM25.68 26.05c2.41-.005 4.638-.925 6.23-2.546a7.444 7.444 0 0 0 1.699-2.668c.345-.95.479-1.958.392-2.973a7.029 7.029 0 0 0-.857-2.8 7.687 7.687 0 0 0-1.89-2.243c-1.548-1.257-3.516-1.933-5.578-1.93-2.059.003-4.028.685-5.575 1.945a7.719 7.719 0 0 0-1.892 2.251 7.025 7.025 0 0 0-.853 2.8 6.915 6.915 0 0 0 .39 2.976 7.41 7.41 0 0 0 1.702 2.663c1.59 1.618 3.818 2.529 6.232 2.525Z"/>
</svg>