<svg xmlns="http://www.w3.org/2000/svg" viewBox="0 0 33 32">
  <path d="M12.65 16.933h8.36v3.343h-7.524l-.836 1.338v-4.681ZM13.486 14.927 12.816 16l-.166.267v-4.684h8.36v3.344h-7.524Z"/>
  <path fill-rule="evenodd" clip-rule="evenodd" d="M2.41 4.063C.87 6.37.87 9.58.87 16c0 6.42 0 9.63 1.54 11.937a9.143 9.143 0 0 0 2.523 2.522C7.239 32 10.449 32 16.87 32c6.42 0 9.63 0 11.936-1.54a9.143 9.143 0 0 0 2.523-2.523c1.54-2.306 1.54-5.517 1.54-11.937 0-6.42 0-9.63-1.54-11.937a9.144 9.144 0 0 0-2.523-2.522C26.5 0 23.29 0 16.87 0S7.239 0 4.933 1.54A9.143 9.143 0 0 0 2.41 4.064Zm7.9 20.56V7.236c0-.537.132-.836 1.003-.836h.334c.871 0 1.003.3 1.003.836v3.678l.836-1.337h7.524V7.236c0-.537.132-.836 1.003-.836h.334c.871 0 1.003.3 1.003.836v17.387c0 .537-.132.836-1.003.836h-.334c-.871 0-1.003-.299-1.003-.836v-2.34h-8.36v2.34c0 .537-.132.836-1.003.836h-.334c-.871 0-1.003-.299-1.003-.836Z"/>
</svg>