<svg xmlns="http://www.w3.org/2000/svg" viewBox="0 0 33 32">
  <path fill-rule="evenodd" clip-rule="evenodd" d="M21.178.073 2.861 1.38C1.384 1.504.87 2.438.87 3.556v19.411c0 .872.32 1.617 1.092 2.614l4.306 5.412c.707.871 1.35 1.058 2.7.996l21.272-1.245c1.799-.123 2.314-.933 2.314-2.301V6.605c0-.707-.29-.911-1.14-1.515l-.147-.102-5.846-3.982C24.007.012 23.43-.114 21.18.073ZM9.45 6.248c-1.737.113-2.13.138-3.117-.637L3.825 3.682c-.255-.25-.127-.56.515-.623l17.609-1.243c1.478-.125 2.249.373 2.827.808l3.02 2.115c.129.063.45.436.064.436L9.675 6.233l-.225.015ZM7.425 28.256V9.717c0-.81.257-1.182 1.027-1.245L29.34 7.29c.708-.062 1.028.373 1.028 1.182v18.414c0 .81-.13 1.495-1.286 1.557l-19.986 1.12c-1.157.061-1.67-.31-1.67-1.307Zm19.73-17.544c.128.56 0 1.12-.58 1.184l-.963.184v13.687c-.836.436-1.606.684-2.25.684-1.028 0-1.285-.311-2.055-1.244l-6.3-9.58v9.269l1.993.436s0 1.12-1.608 1.12l-4.432.249c-.13-.25 0-.872.449-.995l1.157-.31V13.138l-1.607-.126c-.129-.56.193-1.368 1.093-1.431l4.756-.31 6.554 9.705v-8.585l-1.67-.186c-.13-.686.385-1.184 1.027-1.245l4.436-.25Z"/>
</svg>