<svg xmlns="http://www.w3.org/2000/svg" viewBox="0 0 33 32">
  <path fill-rule="evenodd" clip-rule="evenodd" d="M23.561 31.782a1.992 1.992 0 0 0 1.588-.061l6.588-3.17a2 2 0 0 0 1.133-1.803V5.252a2 2 0 0 0-1.133-1.802L25.15.28a1.992 1.992 0 0 0-2.273.387L10.263 12.173 4.77 8.003a1.332 1.332 0 0 0-1.701.076L1.306 9.682a1.334 1.334 0 0 0-.002 1.971L6.07 16l-4.765 4.347c-.58.529-.58 1.443.002 1.971l1.762 1.603c.475.432 1.19.464 1.701.076l5.494-4.17 12.613 11.506c.2.2.433.35.685.449Zm1.313-23.046L15.304 16l9.57 7.264V8.736Z"/>
</svg>