<svg xmlns="http://www.w3.org/2000/svg" viewBox="0 0 33 32">
  <path d="M23.436 0H10.303C5.1 0 .87 4.232.87 9.433v13.134C.87 27.768 5.1 32 10.303 32h13.133c5.202 0 9.434-4.232 9.434-9.433V9.433C32.87 4.232 28.638 0 23.436 0ZM20.68 20.104c0 .68-.55 1.23-1.23 1.23H9.254a3.051 3.051 0 0 1-3.051-3.052v-7.148c0-.68.55-1.23 1.23-1.23h10.195a3.051 3.051 0 0 1 3.051 3.052v7.148Zm6.857-.145a.762.762 0 0 1-1.166.646l-3.809-2.381a.762.762 0 0 1-.358-.646V13.66c0-.263.136-.507.358-.646l3.81-2.381a.761.761 0 0 1 1.165.645v8.68Z"/>
</svg>