<svg xmlns="http://www.w3.org/2000/svg" viewBox="0 0 24 24">
    <path d="M24 6.1a9.2 9.2 0 00-.2-2.2 5 5 0 00-2.2-3 5 5 0 00-1.9-.7 10.5 10.5 0 00-1.6-.2H5.4a7 7 0 00-2.2.4A5 5 0 00.1 4.6a10.6 10.6 0 000 1.2H0V18.6c0 .9.2 1.7.5 2.4a5 5 0 003.3 2.8L5 24l1.6.1h11l1.6-.1c.8-.1 1.6-.4 2.3-.8a5 5 0 001.9-2.2l.4-1.3.1-2V6zm-6.4 4v5.7c0 .4 0 .9-.3 1.2-.3.6-.7 1-1.4 1.2l-1 .1c-1 0-1.8-.6-2-1.5a1.9 1.9 0 011-2l1-.3 1.2-.3c.3 0 .5-.2.5-.5a.9.9 0 000-.2V8.1a.7.7 0 000-.2c0-.2-.1-.3-.3-.2h-.5l-2.2.5-2.4.4L10 9c-.4.1-.5.2-.5.5v8c0 .4 0 .8-.2 1.2-.3.6-.8 1-1.4 1.2l-1.1.2c-1 0-1.8-.6-2-1.6 0-.8.3-1.6 1.2-2L7 16l.9-.2c.4-.1.6-.3.6-.7V15 6.1v-.3c.1-.3.3-.5.6-.5l.8-.2 2.2-.5 2.2-.4 2-.4.7-.1c.3 0 .5.1.6.5V10z"/>
</svg>