<svg xmlns="http://www.w3.org/2000/svg" viewBox="0 0 246 88">
    <path fill-rule="evenodd" d="M44.38 32.102h23.435v5.065H49.47v5.925h17.383v5.065H49.471v8.505h-5.09v-24.56zM92.69 46.82c-1.057 3.44-4.322 5.925-8.164 5.925-4.706 0-8.548-3.822-8.548-8.41 0-4.682 3.842-8.41 8.548-8.41 3.842 0 7.107 2.486 8.163 5.926h5.187c-1.153-6.212-6.723-10.99-13.35-10.99-7.491 0-13.638 6.02-13.638 13.474 0 7.454 6.05 13.475 13.638 13.475 6.627 0 12.197-4.683 13.35-10.99h-5.187zM112.57 30L97.011 56.567h5.859l9.604-16.533 9.604 16.533h5.858L112.57 30zm34.671 26.566h-10.853V31.624h10.372c4.898 0 8.164 2.39 8.164 6.116v.096c0 3.345-2.209 5.065-4.226 5.925 2.977.764 5.666 2.485 5.666 5.925v.096c-.192 4.109-3.745 6.785-9.123 6.785zm5.666-18.634c0-2.772-2.305-4.587-6.243-4.587h-8.451v9.843h8.259c3.746-.096 6.435-1.912 6.435-5.256zm1.441 11.754c0-3.058-2.69-4.874-7.588-4.874h-8.451v10.034h9.124c4.129 0 6.915-1.91 6.915-5.16zm30.637 6.88l-3.17-6.976h-14.79l-3.169 6.976h-1.921l11.717-25.133h1.825l11.717 25.133h-2.209zM174.42 33.44l-6.627 14.43h13.254l-6.627-14.43zm39.089 23.127l-17.672-22.171v22.17h-1.825V31.624h1.729l17.287 21.693V31.625h1.825v24.941h-1.344zm18.824-12.615l-6.243 6.307v6.307h-1.825V31.624h1.825v16.437l15.943-16.436h2.497l-10.949 10.99 11.429 13.951h-2.401l-10.276-12.614zM36.217 43.38V30.287l-5.57 2.867-19.592 10.32S4.332 47.106.01 47.966l3.073 6.976c.865 2.867 4.226 3.822 6.82 2.58L36.216 43.38z" clip-rule="evenodd"/>
</svg>