<svg xmlns="http://www.w3.org/2000/svg" viewBox="0 0 221 88">
    <path d="M158 55.5v-16c0-5-2.7-5.9-10.4-5.9-8.3 0-11.1 1.1-11.1 6.9V43h7v-2c0-3 .1-3.4 3.8-3.4 3 0 3.2.3 3.2 3.4v5.7h-7.3c-5.8 0-7.5 2.7-7.5 6h7.2v-.2c0-1.5 1-2.7 2.3-2.7h5.5v6.4c0 2.2-1.2 2.7-2.7 2.7h-3c-1.7 0-2.3-1.1-2.3-2.7v-3.6h-7.2v4c0 3.4 2.6 6.1 6.6 6.1h18.8v-4.3H158v-2.9zm58.3 3V34.3h-10.6v4h3v20.4h-3v4.1h13.5v-4.1h-2.9zm-26.9-24.9c-4 0-6.5 5-8.3 7v-6.5h-10.5v4h2.9v20.3h-3v4.3h13.2v-4.3H181V47.5c0-1 6.2-8.8 6.2-8v10.9h7.3V38.2c0-2.8-1.8-4.6-5.1-4.6zM48.6 47.4h-7.5v-7.7c0-1.5.5-2.3 2.3-2.3h3.2c1.2 0 2 .7 2 1.6v8.4zm-3.2-13.8h-1c-8.7 0-11 2-11 6.9v16c0 5.4 3.3 6.4 11 6.5h.9c8.4-.1 11-.8 11-5.9V53H49v2c0 3-.5 3-4 3-4.2 0-4-.2-3.9-3v-5h15.3V39.5c0-4-3-5.8-11-5.8zM209 29.1h7.8V24h-7.8v5.1zM1 29.1h4.5v30.3H0v4.1h20.7v-4.1h-7V45.9h4v3.9h4.8v-12h-4.8v3.5h-4V29h189V24H1.2v5.1zm84.7 4.5c-4 0-6.6 5-8.3 7v-6.5H67v4h2.8v20.3H67v4.3h13v-4.3h-2.7V47.5c0-1 6.2-8.8 6.2-8v10.9H91V38.2c0-2.8-1.8-4.6-5.1-4.6zm33.5 0c-4 0-6.6 5-8.3 7v-6.5h-10.6v4h3v20.3h-3v4.3h13.1v-4.3h-2.7V47.5c0-1 6.2-8.8 6.2-8v10.9h7.4V38.2c0-2.8-1.8-4.6-5.1-4.6z"/>
</svg>