<svg xmlns="http://www.w3.org/2000/svg" viewBox="0 0 63 88">
    <path d="M62 13H.3v62H62V13zM12.7 43.3h.7c2 0 4.4-.4 4.4-3.1s-2.4-3-4.4-3h-.7v6zm14.1 13.6h-8l-6-9.5V57H6.2V32.2H16c4.9 0 8.6 2.3 8.6 7.6 0 3.4-2 6.4-5.4 7l7.7 10.1zm6.4-8.4c0 2.2 1.4 3.8 3.8 3.8s3.9-1.6 3.9-3.8c0-2-1.5-3.8-3.9-3.8a3.7 3.7 0 00-3.8 3.8zM46.6 57h-6v-1.8c-1 1.6-3.1 2.4-5 2.4-5 0-8.5-4.2-8.5-9s3.4-9 8.4-9c1.9 0 4 .8 5.2 2.2v-1.6h5.9v16.8zm10-23.3c0 1.9-1.5 3.4-3.3 3.4s-3.4-1.5-3.4-3.4c0-1.8 1.5-3.3 3.4-3.3s3.3 1.5 3.3 3.3zM56.2 57h-6V40.1h6v16.8zM.3 64.2v-41H0l.3 41z"/>
</svg>