<svg xmlns="http://www.w3.org/2000/svg" viewBox="0 0 33 32">
  <path d="M11.33.323a3.189 3.189 0 0 1 2.44 0 3.19 3.19 0 0 1 1.966 2.948v3.192h-3.185A3.189 3.189 0 0 1 9.606 2.05 3.19 3.19 0 0 1 11.331.323ZM4.055 8.591h8.496a3.189 3.189 0 0 1 3.185 3.192 3.187 3.187 0 0 1-3.185 3.193H4.055A3.188 3.188 0 0 1 .87 11.783a3.189 3.189 0 0 1 3.185-3.192ZM32.486 10.563c.16.387.242.801.241 1.22a3.189 3.189 0 0 1-3.185 3.193h-3.186v-3.193a3.188 3.188 0 0 1 4.406-2.948 3.19 3.19 0 0 1 1.724 1.728ZM24.232 3.271v8.512a3.189 3.189 0 0 1-4.406 2.949 3.189 3.189 0 0 1-1.966-2.949V3.271a3.187 3.187 0 0 1 5.44-2.256 3.19 3.19 0 0 1 .932 2.256ZM21.046 32a3.19 3.19 0 0 0 2.944-4.413 3.187 3.187 0 0 0-2.944-1.97H17.86v3.19A3.187 3.187 0 0 0 21.046 32ZM21.046 23.488h8.495a3.189 3.189 0 0 0 2.945-4.413 3.19 3.19 0 0 0-2.944-1.971h-8.496a3.19 3.19 0 0 0-2.944 4.412 3.19 3.19 0 0 0 2.944 1.972Z"/>
  <path fill-rule="evenodd" clip-rule="evenodd" d="M1.111 21.516a3.19 3.19 0 0 1 2.944-4.413h3.186v3.193a3.188 3.188 0 0 1-4.406 2.948 3.191 3.191 0 0 1-1.724-1.728Z"/>
  <path d="M9.365 28.808v-8.512a3.189 3.189 0 0 1 4.406-2.948 3.19 3.19 0 0 1 1.965 2.948v8.512a3.187 3.187 0 0 1-5.44 2.256 3.189 3.189 0 0 1-.931-2.256Z"/>
</svg>