<svg xmlns="http://www.w3.org/2000/svg" viewBox="0 0 119 88">
    <path fill-rule="evenodd" d="M69.1 30.7c0-2.3-.1-2.3-.7-2.3H47c-.6 0-.7 0-.7 2.3v2c0 2.2.1 2.4.7 2.4h7.1v24c0 .5.4.6 2.9.6h1.2c2.4 0 3-.1 3-.7V35h7.2c.6 0 .7-.2.7-2.3v-2zm9-2.3c2.4 0 3 .2 3 .6v30c0 .6-.6.7-3 .7h-1.3c-2.4 0-2.8-.1-2.8-.7V29c0-.4.4-.6 2.8-.6h1.4zm35.6 0h2.1c2.3 0 3 .2 3 .6v30c0 .6-.7.7-3 .7h-1.2c-2.5 0-3-.1-3-.7V41.2h-.1l-.7 2-4.4 10.8c-.2.5-.4.7-2.6.7h-1.4c-2.3 0-2.5-.2-2.7-.7l-4.8-11.2a11.2 11.2 0 01-.5-1.6h-.2V59c0 .6-.7.7-3 .7h-1.3c-2.4 0-2.8-.1-2.8-.7V29c0-.4.4-.6 2.7-.6h2.4c2.2 0 3.3.1 3.5.7L100 39c1.9 4.6 2.8 7 3.3 8.9.5-1.9 2-5.4 3.3-8.7l4.2-10c.2-.4.4-.7 3-.7zM2.2 35H36a1.8 1.8 0 001.8-1.8v-3.1c0-.5-.2-1-.5-1.3a1.8 1.8 0 00-1.3-.5H2c-.4 0-.9.2-1.2.5a1.8 1.8 0 00-.5 1.3v3a1.8 1.8 0 001.8 1.9zm0 5.6h13.2v6.7H2.2c-.5 0-1-.2-1.3-.5a1.8 1.8 0 01-.5-1.3v-3.1a1.8 1.8 0 011.8-1.8zm33.9 0a1.8 1.8 0 011.8 1.8v3a1.8 1.8 0 01-1.8 1.9H22.9v-6.7H36zM36 53a1.8 1.8 0 011.8 1.8V58a1.8 1.8 0 01-1.8 1.8H22.9V53H36zM2 53h13.3v6.7H2.2c-.5 0-1-.2-1.3-.5a1.8 1.8 0 01-.5-1.3v-3A1.8 1.8 0 012.2 53z" clip-rule="evenodd"/>
</svg>