<svg xmlns="http://www.w3.org/2000/svg" viewBox="0 0 230 88">
    <path d="M73.685 49.919l12.472-5.39-17.76-7.778v-9.773l28.951 12.753.001 9.596L69.01 61.6s-2.052-8.699 4.676-11.681zM99.616 48.753v-4.832l.005-4.761 29.204-12.757s2.05 8.7-4.677 11.683l-13.419 5.835 18.045 7.904V61.6L99.616 48.753z"/>
    <path fill-rule="evenodd" d="M134.862 55.718l-.002-25.805h5.814c5.514 0 9.769 1.438 9.859 7.262.039 2.535-1.09 4.54-2.495 5.726 3.454 1.555 5.904 3.714 5.904 8.771 0 1.497-.255 2.852-.713 4.046 0-.001 0 0 0 0l-5.36-.004a5.364 5.364 0 001.446-3.682c0-5.695-3.727-6.55-7.325-6.55h-2.796v10.236h-4.332zm5.97-21.888c2.502 0 5.763.075 5.585 3.977-.185 4.06-3.049 4.174-4.299 4.174h-2.924l-.001-8.154 1.639.004z" clip-rule="evenodd"/>
    <path d="M134.862 55.718h4.332v1.938h4.499c1.4 0 3.032-.7 4.176-1.942l5.36.004c-1.382 3.593-4.612 5.697-8.265 5.697h-10.101l-.001-5.697z"/>
    <path fill-rule="evenodd" d="M155.288 55.718c.298 4.054 3.532 6.023 8.574 6.11 1.689.028 3.517-.393 5.006-1.23.889.87 1.314.864 2.608.844.216-.003.456-.007.726-.007l.002-5.717V45.27c0-4.797-2.779-7.185-7.946-7.185-2.3 0-5.209.777-7.338 1.828 0 0 .426.834.785 1.298 1.064 1.38 2.069 1.13 3.534.764.769-.192 1.664-.415 2.761-.451 1.866-.061 4.253.457 4.253 3.106 0 .44.044 2.348.044 2.348-9.065 0-13.031 2.912-13.031 8.115 0 .214.007.421.022.626zm13.008 0v-5.372c-.31 0-.518-.007-.714-.014-.404-.016-.752-.028-1.823.034-3.475 0-6.151 1.847-6.151 4.406 0 .335.035.65.102.946.408 1.811 2.016 2.893 4.234 2.927a14.225 14.225 0 004.352-.623v-2.304zM178.801 61.418V44.289c-.004-.355-.034-.516-.034-.516 1.524-1.102 3.376-2.132 5.111-2.132 3.082 0 4.905 1.736 4.905 5.07v9.007l-.001 5.7h3.906v-5.7l.001-9.783c0-5.494-3.978-7.987-8.502-7.831-1.847.065-3.963.574-5.772 2.196-.123-.332-.227-.533-.227-.533s-.917-2.18-3.296-1.113l.002 22.764h3.907z" clip-rule="evenodd"/>
    <path d="M200.817 55.722l-4.963-.005c1.879 3.915 5.756 6.106 10.159 6.106 2.167 0 4.292-.503 6.2-1.414l-1.128-3.194c-1.256.501-2.948 1.095-4.855 1.095a6.86 6.86 0 01-5.413-2.588zM213.085 55.718a8.51 8.51 0 01-.022-.626c0-5.203 3.965-8.115 13.031-8.115 0 0-.045-1.908-.045-2.348 0-2.65-2.386-3.167-4.252-3.106-1.098.036-1.993.26-2.762.451-1.465.366-2.47.616-3.534-.764-.359-.464-.784-1.298-.784-1.298 2.128-1.051 5.037-1.828 7.338-1.828 5.167 0 7.945 2.388 7.945 7.185v10.449h-3.907v-5.372c-.31 0-.519-.007-.714-.014-.405-.016-.753-.028-1.824.034-3.475 0-6.15 1.847-6.15 4.406 0 .335.034.65.101.946h-4.421z"/>
    <path d="M226.093 55.718H230l-.001 5.717c-.271 0-.511.004-.727.007-1.294.02-1.718.026-2.607-.844-1.489.837-3.319 1.258-5.007 1.23-5.042-.087-8.276-2.056-8.573-6.11h4.421c.408 1.811 2.016 2.893 4.235 2.927a14.234 14.234 0 004.352-.623v-2.304zM195.854 55.718h4.963c-1.13-1.402-1.828-3.344-1.828-5.721 0-4.198 2.125-8.346 6.764-8.34 1.085.002 1.93.155 2.633.283 1.336.242 2.156.39 3.133-.78a3.307 3.307 0 00.694-1.602c-2.081-.911-4.423-1.459-6.677-1.459-6.59 0-10.882 4.962-10.882 11.988 0 2.143.433 4.031 1.2 5.63zM.5 50.43c0 9.17 3.421 11.283 11.544 11.56.36.012.699.013 1.034.003 8.178-.266 11.622-2.365 11.622-11.562V29.953h-6.873l-.014 19.585c0 5.095-.97 6.101-4.887 6.377-.329.024-.332.023-.64.002l-.049-.004c-3.887-.28-4.85-1.295-4.85-6.375l-.014-19.585H.5v20.478z"/>
    <path fill-rule="evenodd" d="M28.255 61.46H40.4c5.162 0 9.911-4.263 9.807-10.016-.045-4.57-2.644-6.335-5.158-7.611 1.165-1.246 2.241-3.258 2.115-5.956 0-6.139-5.542-7.924-11.061-7.924h-7.85V61.46zm6.828-18.599v-7.606l1.633.001c3.207 0 4.675 1.676 4.675 3.84 0 2.558-1.495 3.766-3.73 3.766h-2.578zm.004 13.411l-.045-9.005h2.73c4.02 0 5.766 2.227 5.766 4.293 0 3.16-2.094 4.712-5.18 4.712h-3.271z" clip-rule="evenodd"/>
    <path d="M53.264 34.58l-.01 26.916h6.88l.004-32.223s-1.145-.005-1.706.073a8.258 8.258 0 00-2.013.54c-1.497.63-3.154 1.983-3.154 4.694z"/>
</svg>