<svg id="e0iboc9jt2ir1" xmlns="http://www.w3.org/2000/svg" viewBox="0 0 48 48" shape-rendering="geometricPrecision" text-rendering="geometricPrecision">
  <style>
    @keyframes e0iboc9jt2ir2_c_o{0%,20%,4%,to{opacity:.25}16%,8%{opacity:.04}}@keyframes e0iboc9jt2ir6_to__to{0%,20%,4%,to{transform:translate(24px,35px)}8%{transform:translate(21px,35px)}12%{transform:translate(25px,35px)}}@keyframes e0iboc9jt2ir7_to__to{0%,20%,4%,to{transform:translate(35px,24px)}8%{transform:translate(35px,23px)}12%{transform:translate(35px,19px)}}@keyframes e0iboc9jt2ir11_to__to{0%,16%,4%,to{transform:translate(33.406331px,33.663571px)}8%{transform:translate(29.592531px,30.752198px)}12%{transform:translate(31.592531px,27.752198px)}}@keyframes e0iboc9jt2ir11_ts__ts{0%,20%,4%,to{transform:scale(1,1)}12%{transform:scale(.75,.75)}}
  </style>
  <path d="M12.5 12.5h23V24h-1V13.5h-21v21H24v1H12.5v-23z" opacity=".25" clip-rule="evenodd" fill="currentColor" fill-rule="evenodd" style="animation:e0iboc9jt2ir2_c_o 5000ms linear infinite normal forwards"/>
  <rect id="e0iboc9jt2ir3" width="6" height="6" rx="2" ry="2" transform="translate(10 10)" fill="currentColor" stroke="none" stroke-width="1"/>
  <rect id="e0iboc9jt2ir4" width="4" height="4" rx="1" ry="1" transform="translate(22 11)" fill="currentColor" stroke="none" stroke-width="1"/>
  <g id="e0iboc9jt2ir5">
    <g transform="translate(24 35)" style="animation:e0iboc9jt2ir6_to__to 5000ms linear infinite normal forwards">
      <rect id="e0iboc9jt2ir6" width="4" height="4" rx="1" ry="1" transform="translate(-2 -2)" fill="currentColor" stroke="none" stroke-width="1"/>
    </g>
    <g transform="translate(35 24)" style="animation:e0iboc9jt2ir7_to__to 5000ms linear infinite normal forwards">
      <rect id="e0iboc9jt2ir7" width="4" height="4" rx="1" ry="1" transform="translate(-2 -2)" fill="currentColor" stroke="none" stroke-width="1"/>
    </g>
  </g>
  <rect id="e0iboc9jt2ir8" width="4" height="4" rx="1" ry="1" transform="translate(11 22)" fill="currentColor" stroke="none" stroke-width="1"/>
  <rect id="e0iboc9jt2ir9" width="6" height="6" rx="2" ry="2" transform="translate(10 32)" fill="currentColor" stroke="none" stroke-width="1"/>
  <rect id="e0iboc9jt2ir10" width="6" height="6" rx="2" ry="2" transform="translate(32 10)" fill="currentColor" stroke="none" stroke-width="1"/>
  <g style="animation:e0iboc9jt2ir11_to__to 5000ms linear infinite normal forwards">
    <g transform="translate(33.406 33.664)" style="animation:e0iboc9jt2ir11_ts__ts 5000ms linear infinite normal forwards">
      <path id="e0iboc9jt2ir11" d="M27.825 26.412c.002-1.236 1.414-1.94 2.402-1.197l8.173 6.144a1.5 1.5 0 01-.232 2.542l-1.408.701a1 1 0 00-.448 1.342l1.784 3.58a2 2 0 11-3.58 1.785l-1.784-3.58a1 1 0 00-1.341-.45l-1.408.702a1.5 1.5 0 01-2.17-1.344l.012-10.225z" transform="translate(-33.406 -33.664)" fill="currentColor" stroke="none" stroke-width="1"/>
    </g>
  </g>
</svg>