<svg xmlns="http://www.w3.org/2000/svg" viewBox="0 0 71 88">
    <path fill-rule="evenodd" d="M24.8 28.6c.2 1.7-1.2 3.3-3.2 3.5-1.8.2-3.5-1-3.8-2.5l.2.2.7.5.8.3h.4a4.4 4.4 0 003.4-1.1l.5-.6.4-.8.1-.8c.3.4.4.8.5 1.3zM19 29c-.3 0-.6-.2-.8-.4a.8.8 0 01-.2-.5 1.4 1.4 0 01.1-.7c.4-.7 1.5-1.5 2.7-1.6.6 0 1.5 0 2 .5.3.1.4.3.4.4.1.2.1.3 0 .4a1.2 1.2 0 010 .5l-.9.7a5 5 0 01-2.1.8H19zm.7 14.4a3.4 3.4 0 011.3-.2l-1.3 1.5-.5.7-.4.3a21 21 0 01-2.2 2.5c-1.4 1.1-2.7 2-4.5 1.9a5.7 5.7 0 01-3-1.3c-1-.8-1.9-1.9-2.6-3a13.3 13.3 0 003.4 1c1 .2 1.8.2 2.4.1l1.5-.2c.9-.2 1.4-.5 2-.9l.4-.2 1.9-1.3.5-.4a5 5 0 011.1-.5zm13.3-2.3a6.7 6.7 0 01-1.2-.8l-.1-.2a8.4 8.4 0 004-1.3 20 20 0 002.7-2l1.4-1.3 1-1c.7-.7 1.7-1.4 2.7-1.5.5 0 .9.1 1.2.3a32.3 32.3 0 01-3 4.4c-.7.8-1.4 1.5-2.2 2a9.7 9.7 0 01-2.4 1.6 6.6 6.6 0 01-1.4.4 4.2 4.2 0 01-2.7-.6zm24-7l-3 1.5c-.5.3-.9.6-1.2 1v.1l-.3.6a1.4 1.4 0 01-.3-.7c0-.5.3-.9.7-1.3a9 9 0 011.3-1l1.2-.8a11 11 0 001.5-1.1l.2-.3-.3-.3-1-.3-4.4-.2H47.7a9.6 9.6 0 01-.7-.2c.3-1 6.3-4.9 12.3-4.7 2.2.1 4.4 1.7 3.6 4-.6 1.8-2.5 2.5-4.3 3l-1.5.6zm-51 9.2a8.6 8.6 0 01-.5-.4c-1.4-1-3-3.8-3.2-4.1-2-3.7-3.2-7.1-1.9-8.2 1.4-1 2.7.2 3.3 1a32.6 32.6 0 004.6 4.9 6 6 0 004.4 1.6c1.5 0 2.7-1 3.9-1.8l1.8-1.2c2-1 4.1-1.4 6 .1a97 97 0 013.8 4.1 36 36 0 001.7 1.8l.3.3.3.3 1.6 1.1a5.9 5.9 0 004.8.4l.9-.4c1-.5 1.9-1.2 2.7-2 .8-.7 1.5-1.5 2-2.3a25.4 25.4 0 002.7-4.5 2 2 0 010 .4A7 7 0 0145 38a26.3 26.3 0 01-3.5 6.3 18.5 18.5 0 01-4.9 4.9c-1.7 1.1-3.2 1.6-5.2 1-1-.2-2.2-1.1-3.2-2L26 46a39.9 39.9 0 00-3.4-3.4l-.6-.3a4 4 0 00-2.6 0 6.2 6.2 0 00-2.1 1l-.6.3c-.5.4-1.9 1.4-3.2 1.6a8.7 8.7 0 01-2.6 0L9.7 45l-1.3-.4a12.4 12.4 0 01-2.3-1.2zm49.7 1.2v.5h.4c1.2 0 2-.1 3-1 1.3-1.2.9-3.1.8-3.4 2.7.3 4.4 1.4 4.6 3.7.3 1.5-.6 2.9-1.7 3.8a8.7 8.7 0 01-4.2 1.7c-3 .5-6.9-.2-8-3.5a3.4 3.4 0 011.2-3.7 2.5 2.5 0 013.8 1.3l.1.6zM66 35.3l.7.6c1.5 1 4.4 3.2 4.4 7.4a11 11 0 01-4.5 9 15.3 15.3 0 01-9 3c-4.1 0-7.3-1.2-9.4-3a8.5 8.5 0 01-3.2-6.5c0-1.5.6-3 1.6-4.1a5.7 5.7 0 014.3-2c1.5 0 2.8.5 3.8 1.3l.7.8c-.8-.6-1.9-.8-2.9-.6-1.6.4-2.7 2-3 3.5a5.4 5.4 0 001.2 4c2.1 2.8 6.1 3.3 9.3 2.7 3-.6 6.1-2.5 6.8-5.7a5.2 5.2 0 00-3.2-5.8c-1.6-.7-3.4-.7-5.2-.8a32.2 32.2 0 01-1.8 0 7.5 7.5 0 01-3.2-1.1c0-.6.4-1 .8-1.2l1.7-1 3.5-1.2h.3c2.3-.7 5-2.1 5.2-4.7.3-2.8-1.7-4.7-4.3-5-6-.7-14 4-14.3 6a2.1 2.1 0 01-.8-.4 1.2 1.2 0 01-.3-.9c0-.7.4-1.5 1.2-2.3.8-.9 2-1.8 3.3-2.6a19.8 19.8 0 019.7-2.8c3.3 0 5.6 1 7 2.3a6.5 6.5 0 012 4.7 10 10 0 01-2 5.9l-.4.5zM10.2 58.6H8.8l2.5 7.4h1.1l1.8-5.3L16 66h1.2l2.5-7.4h-1.3L16.6 64l-1.8-5.4h-1L11.8 64l-1.7-5.4zm12.4 0h-1.3V66h1.3v-7.3zm3.4 0h-1.2V66H26v-5.2l4 5.3h1.1v-7.4H30v5l-4-5zm7.2 0H36c2.3 0 3.9 1.6 3.9 3.7 0 2-1.6 3.7-4 3.7h-2.7v-7.4zm1.3 1.2v5H36c1.5 0 2.5-1 2.5-2.5s-1-2.5-2.5-2.5h-1.4zm6 0h2.3V66h1.3v-6.2h2.3v-1.2h-5.9v1.2zm7.5-1.2h3.3c.9 0 1.6.3 2.1.7.4.4.6 1 .6 1.6 0 1.3-.7 2-1.7 2.3l2 2.7h-1.6L51 63.5h-1.6V66H48v-7.4zm3.2 3.6c1 0 1.5-.4 1.5-1.2 0-.8-.6-1.2-1.5-1.2h-1.9v2.5h1.9zm10-3.6h-5.4V66h5.5v-1.1h-4.2v-2h3.7v-1.1H57v-2h4.1v-1.1z" clip-rule="evenodd"/>
</svg>