<svg xmlns="http://www.w3.org/2000/svg" viewBox="0 0 71 88">
    <path d="M24.79 28.58c.2 1.72-1.22 3.29-3.17 3.5-1.86.22-3.54-.9-3.84-2.5l.23.25c.3.28.6.42.73.48.25.12.51.2.77.25.03 0 .24.05.43.07a4.401 4.401 0 003.35-1.13c.2-.18.39-.38.55-.61.17-.24.31-.5.4-.78.07-.24.11-.5.09-.77.24.36.4.78.46 1.24zm-5.65.54c-.37-.06-.68-.17-.88-.4a.83.83 0 01-.2-.48 1.4 1.4 0 01.14-.69c.4-.79 1.46-1.53 2.72-1.67.55-.06 1.47-.03 2.03.48.2.17.3.32.37.45.08.16.09.3.06.44a1.2 1.2 0 01-.17.42c-.1.14-.27.4-.78.73a5.06 5.06 0 01-2.15.78h-.58c-.19 0-.38-.02-.56-.06zm.71 14.36a3.35 3.35 0 011.27-.15h.06c-.51.42-.95.98-1.37 1.5l-.53.65-.33.37c-.72.84-1.46 1.7-2.3 2.41-1.35 1.16-2.61 2.04-4.44 1.9a5.73 5.73 0 01-3.03-1.23c-1.02-.8-1.86-1.9-2.61-3 1.104.5 2.272.846 3.47 1.03 1 .14 1.81.12 2.33.08 0 0 .68-.03 1.54-.22.85-.2 1.37-.5 2.04-.9l.4-.24c.45-.26 1.84-1.3 1.84-1.3.17-.12.35-.25.53-.36a5 5 0 011.13-.54zm13.26-2.25a6.697 6.697 0 01-1.18-.86l-.16-.14a8.39 8.39 0 004.08-1.32 20.006 20.006 0 002.67-1.98c.5-.42.95-.9 1.4-1.36.31-.33.62-.65.95-.96.75-.72 1.68-1.43 2.75-1.5.45-.03.85.1 1.16.33a32.317 32.317 0 01-3.06 4.35c-.66.76-1.36 1.47-2.12 2.1a9.68 9.68 0 01-2.41 1.51c-.451.177-.92.305-1.4.38a4.2 4.2 0 01-2.68-.55zm24.02-7.08c-1.04.45-2.1.94-3.04 1.57-.44.3-.87.63-1.18 1.06l-.03.03c-.1.15-.32.44-.3.61a1.41 1.41 0 01-.23-.76v-.02c0-.4.25-.8.62-1.19.421-.421.884-.8 1.38-1.13l1.13-.74a11.004 11.004 0 001.51-1.08c.13-.12.18-.2.18-.28 0-.11-.07-.22-.28-.32-.2-.1-.53-.2-1-.26-.92-.14-2.36-.2-4.4-.2h-.23c-1.33 0-2.56 0-3.57-.1a9.566 9.566 0 01-.67-.1c.3-1.09 6.23-4.91 12.23-4.7 2.22.07 4.4 1.63 3.62 4.04-.56 1.74-2.47 2.4-4.23 3-.53.18-1.05.36-1.51.57zM6.1 43.39a8.598 8.598 0 01-.55-.4c-1.35-1.04-2.97-3.82-3.14-4.1l-.01-.03C.46 35.22-.78 31.75.54 30.7c1.33-1.04 2.65.17 3.24.98a32.574 32.574 0 004.57 4.87 6.06 6.06 0 004.49 1.66c1.46-.09 2.67-.98 3.86-1.85.58-.42 1.15-.84 1.75-1.17 1.96-1.07 4.17-1.4 5.98.13.53.45 1.5 1.5 1.5 1.5 1.04 1.12 2.3 2.6 2.3 2.6a36.005 36.005 0 001.75 1.81l.31.3.35.3c.47.41 1 .78 1.57 1.07a5.898 5.898 0 004.77.37c.3-.1.6-.21.89-.35 1.03-.5 1.92-1.18 2.71-1.93.8-.75 1.48-1.57 2.11-2.43a25.359 25.359 0 002.6-4.42c.044.113.077.23.1.35.21 1.2-.11 2.41-.52 3.53a26.284 26.284 0 01-3.5 6.3c-1.33 1.83-2.9 3.66-4.83 4.88-1.74 1.1-3.28 1.57-5.23 1.06-1-.27-2.25-1.17-3.24-2.06-.39-.35-1.2-1.26-2.06-2.23-1.03-1.17-2.15-2.42-2.69-2.88-.2-.18-.42-.34-.66-.5-.2-.12-.58-.26-.58-.26a4.04 4.04 0 00-2.6-.12 6.199 6.199 0 00-2.13 1.03l-.59.41-.04.03c-.43.3-1.8 1.29-3.14 1.51-.859.15-1.735.17-2.6.06 0 0-.61-.07-1.29-.24-.67-.17-1.25-.41-1.25-.41a12.382 12.382 0 01-2.34-1.21zm49.71 1.16l.04.6.3.02c1.22 0 2.13-.21 2.98-.98 1.39-1.27.96-3.23.83-3.5 2.77.32 4.46 1.43 4.65 3.67.29 1.5-.59 2.92-1.74 3.84a8.7 8.7 0 01-4.16 1.73c-3.04.45-6.9-.24-7.95-3.58a3.36 3.36 0 011.18-3.68 2.45 2.45 0 013.76 1.32c.05.19.09.38.11.56zm10.1-9.17c.14.14.46.38.73.58 1.5 1.11 4.35 3.2 4.36 7.45 0 4.64-2.46 7.47-4.52 9.03a15.3 15.3 0 01-9.03 2.94c-4.1 0-7.24-1.18-9.35-2.95a8.48 8.48 0 01-3.2-6.48c0-1.5.56-3 1.58-4.15a5.74 5.74 0 014.37-1.92c1.5 0 2.8.45 3.73 1.25.26.23.5.49.7.77-.8-.6-1.86-.83-2.87-.57-1.6.4-2.7 1.9-2.96 3.48a5.418 5.418 0 001.16 4.05c2.1 2.74 6.09 3.2 9.27 2.62 2.97-.55 6.17-2.48 6.8-5.65a5.201 5.201 0 00-3.13-5.81c-1.63-.7-3.46-.76-5.2-.81a32.168 32.168 0 01-1.81-.1 7.47 7.47 0 01-3.27-1.04c-.03-.53.47-.9.85-1.19.52-.39 1.13-.68 1.73-.94 1.13-.5 2.31-.85 3.5-1.2l.27-.08c2.28-.69 4.93-2.1 5.19-4.7.27-2.72-1.7-4.69-4.33-5-5.9-.67-13.95 3.95-14.28 6.07a2.099 2.099 0 01-.76-.45 1.22 1.22 0 01-.37-.88c0-.7.45-1.5 1.24-2.34.79-.84 1.92-1.71 3.28-2.52A19.76 19.76 0 0159.32 22c3.3 0 5.56.94 6.99 2.29a6.47 6.47 0 012.01 4.73c0 2.82-1.35 4.8-2.07 5.84l-.34.52zM10.16 58.61H8.78L11.34 66h1.1l1.8-5.27 1.8 5.27h1.13l2.54-7.39h-1.35l-1.75 5.44-1.8-5.46h-1.09l-1.8 5.46-1.75-5.44h-.01zm12.43 0h-1.28v7.34h1.28V58.6v.01zm3.37 0h-1.2v7.34h1.27v-5.22l4.04 5.22h1.08V58.6h-1.27v5.07l-3.92-5.07v.01zm7.29 0h2.73c2.3 0 3.9 1.58 3.9 3.65v.02c0 2.06-1.6 3.67-3.9 3.67h-2.73V58.6v.01zm1.28 1.18v4.98H36c1.54 0 2.54-1.03 2.54-2.47v-.02c0-1.44-1-2.5-2.54-2.5h-1.45l-.02.01zm5.96.01h2.33v6.15h1.3V59.8h2.32v-1.19H40.5v1.2l-.01-.01zm7.52-1.19h3.27c.92 0 1.64.27 2.12.73.38.4.6.95.6 1.59v.02c0 1.2-.72 1.93-1.73 2.22l1.98 2.78h-1.53l-1.8-2.56H49.3v2.56h-1.29V58.6v.01zm3.17 3.64c.93 0 1.51-.49 1.51-1.23V61c0-.79-.56-1.21-1.52-1.21H49.3v2.46h1.88zm10.05-3.64H55.8v7.34h5.5V64.8h-4.21v-1.98h3.68v-1.15h-3.68v-1.9h4.15V58.6l-.01.01z" />
</svg>