<svg xmlns="http://www.w3.org/2000/svg" fill="none" viewBox="0 0 900 470"><defs/><g clip-path="url(#clip0)"><g clip-path="url(#clip1)" opacity=".03"><g fill="#000" fill-rule="evenodd" clip-path="url(#clip2)" clip-rule="evenodd" opacity=".12"><path d="M286.17 688.7l20.92-12.08 12.27 21.25 20.91-12.07L328 664.55l20.92-12.08 36.8 63.75-20.91 12.08-12.27-21.25-20.92 12.07 12.27 21.25-20.91 12.08-36.81-63.75zm141.39 3.37c17.33-10 23.14-32.39 12.97-50-10.16-17.6-32.45-23.76-49.78-13.75-17.32 10-23.13 32.38-12.97 49.99 10.17 17.6 32.45 23.76 49.78 13.76zm-7.94-37.91a12.17 12.17 0 01-4.33 16.66 12.17 12.17 0 01-16.6-4.59 12.17 12.17 0 014.33-16.66 12.17 12.17 0 0116.6 4.59zm79.62-60.14c-6.3-10.92-19.71-15.36-31.03-10.28l-.06-.1-35.56 20.53 36.8 63.74 20.92-12.07-12.27-21.25 4.5-2.6 20.32 16.6 20.92-12.07-23.7-19.36c3.6-7.31 3.28-16-.84-23.14zm-31.01 23.57l8.36-4.83a4.87 4.87 0 001.73-6.67 4.87 4.87 0 00-6.63-1.83l-8.37 4.83 4.9 8.5zm97.38-5.23c17.33-10 23.14-32.38 12.97-49.99-10.16-17.6-32.45-23.76-49.77-13.76-17.33 10-23.14 32.39-12.98 50 10.17 17.6 32.45 23.76 49.78 13.75zm-7.94-37.9a12.17 12.17 0 01-4.33 16.65 12.17 12.17 0 01-16.59-4.58 12.17 12.17 0 014.33-16.67 12.17 12.17 0 0116.59 4.6zm12.97-50l41.2-1.11 21.55-35.12 36.8 63.75-20.91 12.08-15.95-27.63-6.78 12.42-14.14-.34 15.95 27.62-20.91 12.08-36.8-63.75zm112.95-65.21l-16.73 9.66 13.8 77.03 20.91-12.07-.36-5.46 16.73-9.66 4.55 3.04 20.92-12.08-59.82-50.46zm12.5 40.95l9 5.94-8.37 4.83-.64-10.77zm41.89-72.35l-20.92 12.08 36.8 63.74 20.92-12.07-17.17-29.75 38.09 17.67 20.92-12.07-36.8-63.75-20.93 12.07 17.18 29.75-38.1-17.67z"/><path d="M794.52 395.2l20.92-12.07 12.27 21.25 20.92-12.08-12.27-21.25 20.91-12.08 36.8 63.75-20.9 12.08-12.28-21.25-20.91 12.08 12.26 21.25-20.91 12.07-36.8-63.75zm141.4 3.37c17.32-10 23.13-32.38 12.97-49.99-10.17-17.6-32.45-23.76-49.78-13.76-17.33 10-23.14 32.39-12.98 50 10.17 17.6 32.45 23.75 49.78 13.75zm-7.95-37.91a12.17 12.17 0 01-4.33 16.66 12.17 12.17 0 01-16.59-4.59 12.17 12.17 0 014.33-16.66 12.17 12.17 0 0116.59 4.59zm79.62-60.14c-6.3-10.91-19.71-15.35-31.03-10.27l-.06-.11-35.56 20.53 36.8 63.75 20.92-12.08-12.26-21.25 4.5-2.6 20.31 16.6 20.92-12.07-23.7-19.36a24.6 24.6 0 00-.84-23.14zm-31 23.57l8.36-4.83a4.87 4.87 0 001.73-6.66 4.87 4.87 0 00-6.64-1.84l-8.37 4.83 4.91 8.5zm97.38-5.22c17.32-10 23.13-32.39 12.97-50-10.17-17.6-32.45-23.76-49.78-13.75-17.33 10-23.14 32.38-12.97 49.99 10.16 17.6 32.45 23.76 49.78 13.76zm-7.95-37.92a12.18 12.18 0 01-4.32 16.67 12.18 12.18 0 01-16.6-4.59 12.18 12.18 0 014.33-16.66 12.17 12.17 0 0116.59 4.58zm12.97-49.99l41.19-1.11 21.57-35.11 36.8 63.74-20.92 12.08-15.95-27.63-6.77 12.42-14.14-.34 15.95 27.63-20.92 12.07-36.81-63.75zm112.96-65.2l-16.74 9.65 13.8 77.04 20.92-12.08-.37-5.46 16.74-9.66 4.54 3.04 20.92-12.07-59.81-50.47zm12.49 40.95l9 5.93-8.37 4.83-.63-10.76zm41.89-72.36l-20.92 12.08 36.81 63.75 20.92-12.08-17.18-29.75 38.09 17.68 20.92-12.08-36.81-63.75-20.91 12.08 17.17 29.75-38.09-17.68z" opacity=".4"/></g><g clip-path="url(#clip3)" opacity=".25"><path fill="#000" fill-rule="evenodd" d="M386.36 526.24l20.92-12.07 12.26 21.25 20.92-12.08-12.27-21.25 20.92-12.07 36.8 63.74L465 565.84l-12.27-21.25-20.92 12.08 12.27 21.25-20.92 12.07-36.8-63.75zm141.39 3.37c17.33-10 23.14-32.39 12.97-49.99-10.16-17.6-32.45-23.76-49.78-13.76-17.32 10-23.13 32.39-12.97 50 10.16 17.6 32.45 23.75 49.78 13.75zm-7.94-37.91a12.17 12.17 0 01-4.33 16.66 12.17 12.17 0 01-16.6-4.59 12.17 12.17 0 014.33-16.66 12.17 12.17 0 0116.6 4.59zm79.62-60.14c-6.3-10.91-19.71-15.35-31.03-10.28l-.06-.1-35.56 20.53 36.8 63.75 20.92-12.08-12.27-21.25 4.5-2.6 20.32 16.6 20.92-12.07-23.7-19.36c3.6-7.31 3.28-16-.84-23.14zm-31.01 23.57l8.36-4.83a4.87 4.87 0 001.73-6.66 4.87 4.87 0 00-6.63-1.84l-8.37 4.83 4.9 8.5zm97.38-5.22c17.33-10 23.14-32.39 12.98-50-10.17-17.6-32.45-23.76-49.78-13.75-17.33 10-23.14 32.38-12.98 49.99 10.17 17.6 32.45 23.76 49.78 13.76zm-7.94-37.92a12.17 12.17 0 01-4.33 16.67 12.17 12.17 0 01-16.59-4.59 12.17 12.17 0 014.32-16.66 12.17 12.17 0 0116.6 4.58zM670.83 362l41.2-1.11 21.55-35.11 36.8 63.74-20.91 12.08-15.95-27.62-6.78 12.4-14.14-.33 15.95 27.63-20.91 12.07-36.8-63.74zm112.95-65.2l-16.73 9.65 13.8 77.04 20.91-12.08-.36-5.46 16.73-9.66 4.55 3.04 20.92-12.07-59.82-50.47zm12.5 40.95l9 5.93-8.37 4.83-.64-10.76zm41.89-72.36l-20.92 12.08 36.8 63.75 20.92-12.08-17.17-29.75 38.09 17.68 20.92-12.08-36.8-63.75-20.93 12.08 17.18 29.75-38.1-17.68z" clip-rule="evenodd"/></g><g fill="#000" fill-rule="evenodd" clip-path="url(#clip4)" clip-rule="evenodd" opacity=".5"><path d="M55.28 612.78l20.91-12.07 12.27 21.25 20.92-12.08-12.27-21.25 20.92-12.08 36.8 63.75-20.92 12.08-12.26-21.25-20.92 12.08L113 664.46l-20.92 12.07-36.8-63.75zm141.39 3.37c17.32-10 23.13-32.39 12.97-49.99-10.16-17.6-32.45-23.76-49.78-13.76-17.33 10-23.13 32.39-12.97 49.99 10.16 17.6 32.45 23.76 49.78 13.76zm-7.95-37.91a12.17 12.17 0 01-4.32 16.66c-5.78 3.33-13.2 1.28-16.6-4.59s-1.45-13.32 4.33-16.66a12.17 12.17 0 0116.6 4.59zm79.63-60.14c-6.3-10.92-19.72-15.36-31.04-10.28l-.06-.1-35.56 20.53L238.5 592l20.92-12.08-12.27-21.25 4.5-2.6 20.32 16.6 20.91-12.07-23.7-19.36c3.6-7.31 3.28-16-.83-23.14zm-31.02 23.57l8.37-4.83a4.87 4.87 0 001.73-6.67 4.87 4.87 0 00-6.64-1.83l-8.36 4.83 4.9 8.5zm97.39-5.23c17.33-10 23.13-32.38 12.97-49.99-10.16-17.6-32.45-23.76-49.78-13.75-17.33 10-23.13 32.38-12.97 49.98 10.16 17.6 32.45 23.77 49.78 13.76zm-7.95-37.9a12.17 12.17 0 01-4.32 16.65 12.17 12.17 0 01-16.6-4.58 12.17 12.17 0 014.33-16.67 12.17 12.17 0 0116.6 4.6zm12.98-50l41.19-1.11 21.56-35.12 36.8 63.75-20.91 12.08-15.95-27.63-6.78 12.42-14.14-.34 15.95 27.63-20.92 12.07-36.8-63.75zm112.95-65.21l-16.73 9.66 13.8 77.03 20.9-12.07-.35-5.46 16.73-9.66 4.55 3.04 20.91-12.08-59.81-50.46zm12.49 40.96l9 5.93-8.36 4.83-.64-10.76zm41.9-72.36l-20.92 12.08 36.8 63.75 20.92-12.08-17.18-29.75 38.1 17.67 20.91-12.07-36.8-63.75L528 339.85l17.18 29.75-38.1-17.67z"/><path d="M563.63 319.29l20.92-12.08 12.26 21.25 20.92-12.08-12.27-21.25 20.92-12.07 36.8 63.74-20.91 12.08L630 337.63l-20.92 12.08 12.27 21.25-20.92 12.07-36.8-63.74zm141.39 3.36c17.33-10 23.14-32.38 12.97-49.99-10.16-17.6-32.45-23.76-49.78-13.76-17.32 10-23.13 32.39-12.97 50 10.16 17.6 32.45 23.76 49.78 13.75zm-7.94-37.91a12.17 12.17 0 01-4.33 16.66c-5.77 3.34-13.2 1.28-16.6-4.58s-1.44-13.33 4.33-16.67a12.17 12.17 0 0116.6 4.59zm79.62-60.14c-6.3-10.91-19.71-15.35-31.03-10.27l-.06-.11-35.56 20.53 36.8 63.75 20.92-12.08-12.27-21.25 4.5-2.6 20.32 16.6 20.92-12.07-23.7-19.36c3.6-7.31 3.28-16-.84-23.14zm-31.01 23.57l8.36-4.83a4.87 4.87 0 001.73-6.66 4.87 4.87 0 00-6.63-1.84l-8.37 4.83 4.9 8.5zm97.38-5.22c17.33-10 23.14-32.39 12.97-50-10.16-17.6-32.45-23.76-49.77-13.75-17.33 10-23.14 32.38-12.98 49.99 10.17 17.6 32.45 23.76 49.78 13.76zm-7.94-37.92a12.17 12.17 0 01-4.33 16.67 12.17 12.17 0 01-16.59-4.59 12.17 12.17 0 014.32-16.66 12.17 12.17 0 0116.6 4.58zm12.97-49.99l41.2-1.11 21.55-35.11 36.8 63.74-20.91 12.08-15.95-27.62-6.78 12.4-14.14-.33 15.95 27.63-20.91 12.07-36.8-63.75zm112.95-65.2l-16.73 9.65 13.8 77.04 20.91-12.08-.36-5.46 16.73-9.66 4.55 3.04 20.92-12.07-59.82-50.47zm12.5 40.95l9 5.93-8.37 4.83-.64-10.76zm41.89-72.36l-20.92 12.08 36.81 63.75 20.91-12.08-17.17-29.75 38.09 17.68 20.92-12.08-36.81-63.75-20.92 12.08 17.18 29.75-38.09-17.68z" opacity=".75"/></g><g fill="#000" fill-rule="evenodd" clip-path="url(#clip5)" clip-rule="evenodd" opacity=".75"><path d="M261.13 389.32l20.91-12.07 12.27 21.25 20.92-12.08-12.27-21.25 20.92-12.08 36.8 63.75-20.92 12.08-12.26-21.25-20.92 12.07L318.85 441l-20.92 12.08-36.8-63.75zm141.38 3.37c17.33-10 23.14-32.39 12.98-49.99-10.17-17.6-32.45-23.76-49.78-13.76-17.33 10-23.14 32.39-12.97 49.99 10.16 17.6 32.45 23.76 49.77 13.76zm-7.94-37.91a12.17 12.17 0 01-4.32 16.66 12.17 12.17 0 01-16.6-4.59 12.17 12.17 0 014.33-16.66 12.17 12.17 0 0116.6 4.59zm79.63-60.14c-6.3-10.92-19.72-15.36-31.04-10.28l-.06-.1-35.56 20.53 36.8 63.75 20.93-12.08L453 335.21l4.5-2.6 20.32 16.6 20.91-12.07-23.7-19.36c3.6-7.31 3.28-16-.83-23.14zm-31.02 23.57l8.37-4.83a4.87 4.87 0 001.73-6.67 4.87 4.87 0 00-6.64-1.83l-8.36 4.83 4.9 8.5zm97.39-5.23c17.33-10 23.13-32.38 12.97-49.98-10.16-17.6-32.45-23.77-49.78-13.76-17.33 10-23.13 32.38-12.97 49.98 10.16 17.6 32.45 23.77 49.78 13.76zm-7.95-37.9a12.17 12.17 0 01-4.32 16.66 12.17 12.17 0 01-16.6-4.6 12.17 12.17 0 014.33-16.65 12.17 12.17 0 0116.6 4.58zm12.98-50l41.19-1.11 21.56-35.12 36.8 63.75-20.91 12.08-15.95-27.63-6.78 12.42-14.14-.34 15.95 27.62-20.92 12.08-36.8-63.75zm112.95-65.21l-16.73 9.66 13.8 77.03 20.9-12.07-.35-5.46 16.73-9.66 4.55 3.04 20.91-12.07-59.81-50.47zm12.49 40.95l9 5.94-8.36 4.83-.64-10.76zm41.9-72.35L692 140.55l36.81 63.75 20.92-12.08-17.18-29.75 38.1 17.67 20.91-12.07-36.8-63.75-20.92 12.08 17.17 29.74-38.09-17.67z"/><path d="M769.48 95.83l20.91-12.08L802.66 105l20.92-12.08-12.27-21.25 20.92-12.07 36.8 63.74-20.91 12.08-12.27-21.25-20.92 12.08 12.27 21.25-20.92 12.07-36.8-63.75zm141.39 3.36c17.33-10 23.13-32.38 12.97-49.99-10.16-17.6-32.45-23.76-49.78-13.76-17.33 10-23.13 32.39-12.97 50 10.16 17.6 32.45 23.76 49.78 13.75zm-7.95-37.91a12.17 12.17 0 01-4.32 16.66 12.17 12.17 0 01-16.6-4.58 12.17 12.17 0 014.33-16.67 12.17 12.17 0 0116.6 4.59zm79.63-60.14c-6.3-10.91-19.71-15.35-31.03-10.28l-.06-.1-35.56 20.53 36.8 63.75 20.92-12.08-12.27-21.25 4.5-2.6 20.32 16.6 20.92-12.07-23.7-19.36c3.6-7.31 3.27-16-.84-23.14zm-31.01 23.57l8.36-4.83a4.87 4.87 0 001.73-6.66 4.87 4.87 0 00-6.64-1.84l-8.36 4.83 4.9 8.5zm97.38-5.22c17.33-10 23.14-32.39 12.97-50-10.16-17.6-32.45-23.76-49.77-13.75-17.33 10-23.14 32.38-12.98 49.99 10.17 17.6 32.45 23.76 49.78 13.76zm-7.94-37.92a12.18 12.18 0 01-4.33 16.67 12.17 12.17 0 01-16.59-4.59 12.18 12.18 0 014.32-16.66 12.18 12.18 0 0116.6 4.58zm12.97-49.99l41.19-1.11 21.56-35.11 36.81 63.74-20.92 12.08-15.95-27.62-6.78 12.4-14.14-.33 15.95 27.63-20.92 12.07-36.8-63.75zm112.95-65.2l-16.73 9.65 13.79 77.04 20.92-12.08-.36-5.46 16.73-9.66 4.55 3.04 20.92-12.07-59.82-50.47zm12.49 40.95l9.01 5.93-8.37 4.83-.64-10.76zm41.9-72.36l-20.92 12.08 36.8 63.75 20.92-12.08-17.18-29.75 38.1 17.68 20.91-12.08-36.8-63.75-20.92 12.08 17.18 29.75-38.09-17.68z" opacity=".75"/><path d="M-247.23 682.82l20.92-12.08 12.27 21.25 20.91-12.07-12.27-21.25 20.92-12.08 36.8 63.75-20.9 12.08-12.28-21.25-20.92 12.07 12.27 21.25-20.91 12.08-36.8-63.75zm141.4 3.37c17.32-10 23.13-32.39 12.96-50-10.16-17.6-32.45-23.76-49.77-13.75-17.33 10-23.14 32.38-12.98 49.99 10.17 17.6 32.45 23.76 49.78 13.76zm-7.95-37.92a12.17 12.17 0 01-4.33 16.67 12.17 12.17 0 01-16.59-4.59 12.17 12.17 0 014.32-16.66 12.17 12.17 0 0116.6 4.58zm79.62-60.13c-6.3-10.92-19.71-15.36-31.03-10.28l-.06-.1-35.56 20.53 36.8 63.74 20.92-12.07-12.27-21.25 4.5-2.6 20.32 16.6 20.92-12.08-23.7-19.35c3.6-7.31 3.28-16-.84-23.14zm-31.01 23.57l8.37-4.83a4.87 4.87 0 001.73-6.67 4.87 4.87 0 00-6.64-1.83l-8.37 4.83 4.91 8.5zm97.38-5.23c17.33-10 23.14-32.38 12.98-49.99-10.17-17.6-32.45-23.76-49.78-13.76-17.33 10-23.14 32.39-12.97 50 10.16 17.6 32.45 23.76 49.77 13.75zm-7.94-37.91a12.17 12.17 0 01-4.32 16.66 12.17 12.17 0 01-16.6-4.58 12.17 12.17 0 014.33-16.67 12.17 12.17 0 0116.59 4.59zm12.97-49.99l41.2-1.11 21.55-35.12 36.8 63.75-20.9 12.08-15.96-27.63-6.77 12.42-14.14-.34 15.95 27.62-20.92 12.08-36.8-63.75zm112.95-65.21l-16.73 9.66 13.8 77.03L168.17 528l-.36-5.46 16.74-9.66 4.54 3.04 20.92-12.08-59.82-50.46zm12.5 40.95l9 5.94-8.37 4.83-.64-10.77zm41.89-72.35l-20.92 12.08 36.8 63.74 20.92-12.07-17.17-29.75 38.1 17.67 20.9-12.07-36.8-63.75-20.91 12.07 17.17 29.75-38.1-17.67z" opacity=".51"/></g><g fill="#000" fill-rule="evenodd" clip-path="url(#clip6)" clip-rule="evenodd"><path d="M160.75 343.36l20.91-12.07 12.27 21.25 20.92-12.08-12.27-21.25 20.92-12.08 36.8 63.75-20.91 12.08-12.27-21.25-20.92 12.08 12.27 21.24-20.92 12.08-36.8-63.75zm141.39 3.37c17.33-10 23.13-32.39 12.97-49.99-10.16-17.6-32.45-23.76-49.78-13.76-17.33 10-23.13 32.39-12.97 49.99 10.16 17.6 32.45 23.76 49.78 13.76zm-7.95-37.91a12.17 12.17 0 01-4.32 16.66 12.17 12.17 0 01-16.6-4.59 12.17 12.17 0 014.33-16.66 12.17 12.17 0 0116.6 4.59zm79.63-60.14c-6.3-10.91-19.71-15.36-31.03-10.28l-.06-.1-35.56 20.53 36.8 63.75 20.92-12.08-12.27-21.25 4.5-2.6 20.32 16.6 20.92-12.07-23.7-19.36c3.6-7.31 3.27-16-.84-23.14zm-31.01 23.57l8.36-4.83a4.87 4.87 0 001.73-6.67 4.87 4.87 0 00-6.63-1.83l-8.37 4.83 4.9 8.5zm97.38-5.23c17.33-10 23.14-32.38 12.97-49.98-10.16-17.6-32.45-23.77-49.77-13.76-17.33 10-23.14 32.38-12.98 49.98 10.17 17.6 32.45 23.77 49.78 13.76zm-7.94-37.9a12.17 12.17 0 01-4.33 16.65 12.17 12.17 0 01-16.59-4.58 12.17 12.17 0 014.32-16.66 12.17 12.17 0 0116.6 4.58zm12.97-50l41.19-1.11 21.56-35.12 36.8 63.75-20.91 12.08-15.95-27.63-6.78 12.42-14.14-.34 15.95 27.63-20.92 12.07-36.8-63.75zm112.95-65.2l-16.73 9.65 13.8 77.03 20.91-12.07-.36-5.46 16.73-9.66 4.55 3.04 20.92-12.07-59.82-50.47zm12.5 40.94l9 5.94-8.37 4.83-.64-10.77zm41.89-72.35L591.64 94.6l36.8 63.75 20.92-12.08-17.18-29.75 38.1 17.67 20.91-12.07-36.8-63.75-20.92 12.08 17.18 29.75-38.1-17.68z"/><path d="M669.1 49.87l20.92-12.08 12.27 21.25 20.91-12.08-12.26-21.25 20.91-12.07 36.8 63.75-20.91 12.07-12.27-21.25-20.92 12.08 12.27 21.25-20.91 12.07-36.8-63.75zm141.4 3.36c17.32-10 23.13-32.38 12.96-49.99-10.16-17.6-32.45-23.76-49.77-13.76-17.33 10-23.14 32.39-12.98 50 10.17 17.6 32.45 23.76 49.78 13.75zm-7.95-37.91a12.17 12.17 0 01-4.33 16.66 12.17 12.17 0 01-16.59-4.58 12.17 12.17 0 014.33-16.67 12.17 12.17 0 0116.59 4.59zm79.62-60.14c-6.3-10.91-19.71-15.35-31.03-10.27l-.06-.11-35.56 20.53 36.8 63.75L873.25 17 860.97-4.25l4.5-2.6 20.32 16.6 20.92-12.07-23.7-19.36c3.6-7.3 3.28-16-.84-23.14zm-31.01 23.57l8.37-4.83a4.87 4.87 0 001.73-6.66 4.87 4.87 0 00-6.64-1.84l-8.37 4.83 4.91 8.5zm97.38-5.22c17.33-10 23.14-32.39 12.98-50-10.17-17.6-32.45-23.76-49.78-13.75-17.33 10-23.14 32.38-12.97 49.99 10.16 17.6 32.45 23.76 49.77 13.76zM940.6-64.4a12.17 12.17 0 01-4.32 16.67 12.18 12.18 0 01-16.6-4.59 12.17 12.17 0 014.33-16.66 12.17 12.17 0 0116.59 4.58zm12.97-49.98l41.2-1.12 21.55-35.11 36.81 63.75-20.92 12.07-15.95-27.62-6.77 12.41-14.14-.34 15.95 27.63-20.92 12.07-36.8-63.74zm112.95-65.22l-16.73 9.66 13.8 77.04 20.91-12.08-.36-5.46 16.74-9.66 4.54 3.04 20.92-12.07-59.82-50.47zm12.49 40.96l9.01 5.93-8.37 4.83-.64-10.76zm41.9-72.36l-20.92 12.08 36.81 63.75 20.91-12.08-17.17-29.75 38.09 17.68 20.92-12.08-36.81-63.75-20.91 12.08 17.17 29.75-38.09-17.68zM-347.61 636.86l20.92-12.08 12.27 21.25 20.92-12.07-12.27-21.25 20.92-12.08 36.8 63.75-20.92 12.08-12.26-21.25-20.92 12.07 12.27 21.25-20.92 12.08-36.8-63.75zm141.4 3.37c17.32-10 23.13-32.39 12.97-50-10.17-17.6-32.45-23.76-49.78-13.75-17.33 10-23.14 32.38-12.97 49.99 10.16 17.6 32.45 23.76 49.77 13.76zm-7.95-37.92a12.17 12.17 0 01-4.32 16.67 12.17 12.17 0 01-16.6-4.59 12.17 12.17 0 014.33-16.66 12.17 12.17 0 0116.6 4.58zm79.63-60.13c-6.3-10.92-19.72-15.36-31.04-10.28l-.06-.1-35.56 20.53 36.8 63.74 20.93-12.07-12.27-21.25 4.5-2.6 20.32 16.6 20.91-12.07-23.7-19.36c3.6-7.31 3.28-16-.83-23.14zm-31.02 23.57l8.37-4.83a4.87 4.87 0 001.73-6.67 4.87 4.87 0 00-6.64-1.83l-8.36 4.83 4.9 8.5zm97.39-5.23c17.33-10 23.13-32.38 12.97-49.99-10.16-17.6-32.45-23.76-49.78-13.76-17.33 10-23.13 32.39-12.97 50 10.16 17.6 32.45 23.76 49.78 13.75zm-7.95-37.91a12.17 12.17 0 01-4.32 16.66 12.17 12.17 0 01-16.6-4.58 12.17 12.17 0 014.33-16.67 12.17 12.17 0 0116.6 4.59zm12.98-49.99l41.19-1.11 21.56-35.12 36.8 63.75-20.91 12.08-15.95-27.63-6.78 12.42-14.14-.34 15.95 27.62-20.92 12.08-36.8-63.75zm112.95-65.21l-16.73 9.66 13.8 77.03 20.9-12.07-.35-5.46 16.73-9.66 4.55 3.04 20.91-12.08-59.81-50.46zm12.49 40.95l9 5.94-8.36 4.83-.64-10.77zm41.9-72.35l-20.92 12.08 36.8 63.75 20.92-12.08L123.83 410l38.1 17.67 20.91-12.07-36.8-63.75-20.92 12.07 17.18 29.75-38.1-17.67z" opacity=".5"/></g><g fill="#000" fill-rule="evenodd" clip-path="url(#clip7)" clip-rule="evenodd" opacity=".75"><path d="M59.17 295.53l20.92-12.08 12.26 21.25 20.92-12.08L101 271.37l20.92-12.07 36.8 63.74-20.91 12.08-12.27-21.25-20.92 12.08 12.27 21.25-20.92 12.07-36.8-63.74zm141.39 3.36c17.33-10 23.14-32.38 12.97-49.99-10.16-17.6-32.45-23.76-49.78-13.76-17.32 10-23.13 32.39-12.97 50 10.17 17.6 32.45 23.76 49.78 13.75zm-7.94-37.91a12.17 12.17 0 01-4.33 16.66 12.17 12.17 0 01-16.6-4.58 12.17 12.17 0 014.33-16.67 12.17 12.17 0 0116.6 4.59zm79.62-60.14c-6.3-10.91-19.71-15.35-31.03-10.27l-.06-.1-35.56 20.52 36.8 63.75 20.92-12.08-12.27-21.25 4.5-2.6 20.32 16.6 20.92-12.07-23.7-19.35c3.6-7.32 3.28-16.01-.84-23.15zm-31.01 23.57l8.36-4.83a4.87 4.87 0 001.73-6.66 4.87 4.87 0 00-6.63-1.84l-8.37 4.83 4.9 8.5zm97.38-5.22c17.33-10 23.14-32.39 12.97-50-10.16-17.6-32.45-23.75-49.77-13.75-17.33 10-23.14 32.39-12.98 49.99 10.17 17.6 32.45 23.76 49.78 13.76zm-7.94-37.91a12.17 12.17 0 01-4.33 16.66c-5.77 3.33-13.2 1.28-16.59-4.59s-1.45-13.33 4.32-16.66a12.17 12.17 0 0116.6 4.59zm12.97-50l41.2-1.1 21.55-35.12 36.8 63.75-20.91 12.07-15.95-27.62-6.78 12.41-14.14-.34 15.95 27.63-20.91 12.07-36.8-63.74zm112.95-65.2l-16.73 9.65 13.8 77.04 20.91-12.08-.36-5.46 16.73-9.66 4.55 3.05 20.92-12.08-59.82-50.47zm12.5 40.95l9 5.93-8.37 4.84-.64-10.77zm41.89-72.35l-20.92 12.07 36.8 63.75 20.92-12.08-17.17-29.75 38.09 17.68 20.92-12.08-36.8-63.75-20.93 12.08 17.18 29.75-38.1-17.67z"/><path d="M567.52 2.03l20.92-12.08L600.7 11.2 621.62-.88l-12.26-21.25 20.91-12.07 36.8 63.75-20.9 12.07-12.28-21.24-20.91 12.07 12.26 21.25-20.91 12.08-36.8-63.75zm141.4 3.37c17.32-10.01 23.13-32.4 12.97-50-10.17-17.6-32.45-23.76-49.78-13.75-17.33 10-23.14 32.38-12.98 49.99C669.3 9.24 691.59 15.4 708.91 5.4zm-7.95-37.92a12.17 12.17 0 01-4.33 16.67 12.17 12.17 0 01-16.59-4.6 12.17 12.17 0 014.33-16.65 12.17 12.17 0 0116.59 4.58zm79.62-60.14c-6.3-10.9-19.71-15.35-31.03-10.27l-.06-.1-35.56 20.52 36.8 63.75 20.92-12.08-12.26-21.25 4.5-2.6 20.31 16.6 20.92-12.07-23.7-19.35c3.6-7.32 3.28-16-.84-23.15zm-31 23.58l8.36-4.83a4.87 4.87 0 001.73-6.67 4.87 4.87 0 00-6.64-1.83l-8.37 4.83 4.91 8.5zm97.37-5.23c17.33-10 23.14-32.38 12.98-49.99-10.17-17.6-32.45-23.76-49.78-13.76-17.33 10-23.14 32.39-12.97 49.99 10.16 17.6 32.45 23.77 49.77 13.76zm-7.94-37.91a12.17 12.17 0 01-4.32 16.66 12.17 12.17 0 01-16.6-4.59 12.17 12.17 0 014.33-16.66 12.17 12.17 0 0116.6 4.59zm12.97-50l41.2-1.1 21.55-35.12 36.81 63.75-20.92 12.07-15.95-27.62-6.77 12.41-14.14-.33 15.95 27.62-20.92 12.08-36.8-63.75zm112.96-65.2l-16.74 9.66 13.8 77.03 20.92-12.08-.37-5.45 16.74-9.67 4.54 3.05 20.92-12.08-59.81-50.46zm12.49 40.95l9 5.94-8.37 4.83-.63-10.77zm41.89-72.35l-20.92 12.07 36.81 63.75 20.92-12.07-17.18-29.75 38.09 17.67 20.92-12.08-36.81-63.75-20.91 12.08 17.17 29.75-38.09-17.67zM-449.18 589.02l20.91-12.07L-416 598.2l20.92-12.08-12.27-21.25 20.92-12.08 36.8 63.75-20.91 12.08-12.27-21.25-20.92 12.08 12.27 21.25-20.92 12.07-36.8-63.75zm141.39 3.37c17.32-10 23.13-32.38 12.97-49.99-10.16-17.6-32.45-23.76-49.78-13.76-17.33 10-23.14 32.39-12.97 50 10.16 17.6 32.45 23.75 49.78 13.75zm-7.95-37.91a12.17 12.17 0 01-4.32 16.66 12.17 12.17 0 01-16.6-4.59 12.17 12.17 0 014.33-16.66 12.17 12.17 0 0116.6 4.59zm79.63-60.14c-6.3-10.91-19.72-15.35-31.03-10.28l-.07-.1-35.56 20.53 36.81 63.75 20.92-12.08-12.27-21.25 4.5-2.6 20.32 16.6 20.91-12.07-23.7-19.36c3.6-7.31 3.28-16-.83-23.14zm-31.02 23.57l8.37-4.83a4.87 4.87 0 001.73-6.66 4.87 4.87 0 00-6.64-1.84l-8.36 4.83 4.9 8.5zm97.39-5.22c17.33-10 23.13-32.39 12.97-50-10.16-17.6-32.45-23.76-49.78-13.75-17.32 10-23.13 32.38-12.97 49.99 10.16 17.6 32.45 23.76 49.78 13.76zm-7.95-37.92a12.17 12.17 0 01-4.32 16.67c-5.78 3.33-13.2 1.28-16.6-4.59s-1.44-13.33 4.33-16.66a12.17 12.17 0 0116.6 4.58zm12.98-49.99l41.19-1.11 21.56-35.12 36.8 63.75-20.91 12.08-15.95-27.62-6.78 12.4-14.14-.33 15.95 27.63-20.92 12.07-36.8-63.75zm112.95-65.2l-16.73 9.65 13.8 77.03 20.91-12.07-.36-5.46 16.73-9.66 4.55 3.04 20.91-12.07-59.81-50.47zm12.49 40.95l9 5.93-8.36 4.83-.64-10.76zm41.9-72.36l-20.92 12.08L18.5 404l20.92-12.08-17.18-29.75 38.1 17.67 20.91-12.07-36.8-63.75-20.92 12.08 17.18 29.75-38.1-17.68z" opacity=".5"/></g><g fill="#000" fill-rule="evenodd" clip-path="url(#clip8)" clip-rule="evenodd" opacity=".5"><path d="M-349 426.57l20.92-12.08 12.27 21.25 20.92-12.08-12.27-21.25 20.92-12.07 36.8 63.75-20.91 12.07-12.27-21.25-20.92 12.08 12.27 21.25-20.92 12.08-36.8-63.75zm141.4 3.36c17.32-10 23.13-32.38 12.97-49.99-10.16-17.6-32.45-23.76-49.78-13.76-17.33 10-23.14 32.39-12.97 50 10.16 17.6 32.45 23.76 49.78 13.75zm-7.95-37.91a12.17 12.17 0 01-4.32 16.66c-5.78 3.34-13.2 1.28-16.6-4.58s-1.45-13.33 4.33-16.67a12.17 12.17 0 0116.6 4.59zm79.63-60.14c-6.3-10.91-19.72-15.35-31.03-10.27l-.07-.1-35.56 20.52 36.81 63.75 20.92-12.08-12.27-21.25 4.5-2.6 20.32 16.6 20.91-12.07-23.7-19.35c3.6-7.32 3.28-16.01-.83-23.15zm-31.02 23.57l8.37-4.83a4.87 4.87 0 001.73-6.66 4.87 4.87 0 00-6.64-1.84l-8.36 4.84 4.9 8.5zm97.39-5.22c17.33-10 23.13-32.39 12.97-50-10.16-17.6-32.45-23.75-49.78-13.75s-23.13 32.38-12.97 49.99c10.16 17.6 32.45 23.76 49.78 13.76zm-7.95-37.91a12.17 12.17 0 01-4.32 16.66 12.17 12.17 0 01-16.6-4.59 12.17 12.17 0 014.33-16.66 12.17 12.17 0 0116.6 4.59zm12.98-50l41.19-1.1 21.56-35.12 36.8 63.75-20.91 12.07-15.95-27.62-6.78 12.41-14.14-.33L-6.8 314l-20.92 12.08-36.8-63.75zm112.95-65.2l-16.73 9.65 13.8 77.04 20.9-12.08-.35-5.46 16.73-9.66 4.55 3.04 20.91-12.07-59.81-50.47zm12.49 40.95l9 5.93-8.36 4.84-.64-10.77zm41.9-72.35L81.9 177.79l36.8 63.75 20.92-12.08-17.18-29.75 38.1 17.68 20.91-12.08-36.8-63.75-20.92 12.08 17.18 29.75-38.1-17.67z" opacity=".5"/><path d="M159.36 133.07l20.92-12.08 12.27 21.25 20.91-12.08-12.27-21.24 20.92-12.08 36.8 63.75L238 172.66l-12.27-21.25-20.92 12.08 12.27 21.25-20.92 12.08-36.8-63.75zm141.39 3.36c17.33-10 23.14-32.38 12.97-49.98-10.16-17.6-32.45-23.77-49.78-13.76-17.32 10-23.13 32.38-12.97 49.98 10.17 17.6 32.45 23.77 49.78 13.76zm-7.94-37.9a12.17 12.17 0 01-4.33 16.66 12.17 12.17 0 01-16.6-4.6 12.17 12.17 0 014.33-16.65 12.17 12.17 0 0116.6 4.58zm79.62-60.15c-6.3-10.9-19.71-15.35-31.03-10.27l-.06-.1-35.56 20.52 36.8 63.75 20.92-12.07-12.27-21.25 4.5-2.6 20.32 16.6 20.92-12.08-23.7-19.35c3.6-7.32 3.28-16-.84-23.15zm-31.01 23.58l8.36-4.83a4.87 4.87 0 001.73-6.67 4.87 4.87 0 00-6.63-1.83l-8.37 4.83 4.9 8.5zm97.38-5.23c17.33-10 23.14-32.38 12.98-49.99C441.6-10.86 419.33-17.02 402-7.02c-17.33 10-23.14 32.39-12.98 50 10.17 17.6 32.45 23.76 49.78 13.75zm-7.94-37.91a12.17 12.17 0 01-4.33 16.66 12.17 12.17 0 01-16.59-4.59 12.17 12.17 0 014.33-16.66 12.17 12.17 0 0116.59 4.59zm12.97-50l41.2-1.1 21.55-35.12 36.8 63.75-20.91 12.08-15.95-27.63-6.78 12.41-14.14-.33 15.95 27.62-20.91 12.08-36.8-63.75zm112.95-65.2l-16.73 9.66 13.8 77.03 20.91-12.08-.36-5.45 16.73-9.66 4.55 3.04 20.92-12.08-59.82-50.46zm12.5 40.95l9 5.94-8.37 4.83-.64-10.77zm41.89-72.35l-20.92 12.07 36.8 63.75 20.92-12.07-17.17-29.75 38.09 17.67L689.8-88.2 653-151.94l-20.93 12.08 17.18 29.75-38.1-17.67z"/></g><g clip-path="url(#clip9)" opacity=".25"><path fill="#000" fill-rule="evenodd" d="M-171.72 219.6l20.91-12.07 12.27 21.25 20.92-12.08-12.27-21.25 20.92-12.07 36.8 63.75-20.91 12.07-12.27-21.25-20.92 12.08 12.27 21.25-20.92 12.08-36.8-63.75zm141.39 3.37c17.32-10 23.13-32.38 12.97-49.99-10.16-17.6-32.45-23.76-49.78-13.75-17.33 10-23.14 32.38-12.97 49.98 10.16 17.6 32.45 23.77 49.78 13.76zm-7.95-37.9a12.17 12.17 0 01-4.32 16.65 12.17 12.17 0 01-16.6-4.58 12.17 12.17 0 014.33-16.67 12.17 12.17 0 0116.6 4.6zm79.63-60.15c-6.3-10.91-19.72-15.35-31.04-10.27l-.06-.1-35.55 20.52 36.8 63.75 20.92-12.08-12.27-21.25 4.5-2.6 20.32 16.6 20.91-12.07-23.7-19.35c3.6-7.32 3.28-16.01-.83-23.15zM10.33 148.5l8.37-4.83a4.87 4.87 0 001.73-6.66 4.87 4.87 0 00-6.64-1.84L5.43 140l4.9 8.5zm97.39-5.22c17.33-10 23.14-32.39 12.97-50-10.16-17.6-32.45-23.75-49.78-13.75-17.32 10-23.13 32.38-12.97 49.99 10.16 17.6 32.45 23.76 49.78 13.76zm-7.94-37.91a12.17 12.17 0 01-4.33 16.66 12.17 12.17 0 01-16.6-4.59 12.17 12.17 0 014.33-16.66 12.17 12.17 0 0116.6 4.59zm12.97-50l41.19-1.1 21.56-35.12 36.8 63.75-20.91 12.07-15.95-27.62-6.78 12.41-14.14-.33 15.95 27.62-20.92 12.08-36.8-63.75zM225.7-9.83L208.97-.19l13.8 77.03 20.9-12.08-.35-5.46 16.73-9.66 4.55 3.04 20.91-12.07L225.7-9.85zm12.49 40.95l9 5.94-8.36 4.83-.64-10.77zm41.9-72.35l-20.92 12.07 36.8 63.75L316.9 22.5 299.7-7.25l38.1 17.68 20.91-12.08-36.8-63.75L301-53.32l17.18 29.75-38.1-17.67z" clip-rule="evenodd"/></g><g fill="#000" fill-rule="evenodd" clip-path="url(#clip10)" clip-rule="evenodd" opacity=".12"><path d="M34.12-3.85l20.92-12.08L67.31 5.32 88.23-6.76 75.96-28l20.92-12.07 36.8 63.74-20.92 12.08L100.5 14.5 79.58 26.57l12.27 21.25L70.93 59.9 34.13-3.85zM175.52-.5c17.32-10 23.13-32.38 12.97-49.99-10.17-17.6-32.45-23.76-49.78-13.76-17.33 10.01-23.14 32.39-12.97 50C135.9 3.35 158.19 9.51 175.5-.5zm-7.95-37.91a12.17 12.17 0 01-4.32 16.66 12.17 12.17 0 01-16.6-4.58A12.17 12.17 0 01150.98-43a12.17 12.17 0 0116.6 4.59zm79.63-60.14c-6.3-10.91-19.72-15.35-31.04-10.27l-.06-.1-35.56 20.52 36.8 63.75 20.93-12.08L226-57.97l4.5-2.6 20.32 16.6 20.91-12.07-23.7-19.35c3.6-7.32 3.28-16.01-.83-23.15zm-31.02 23.57l8.37-4.83a4.87 4.87 0 001.73-6.66 4.87 4.87 0 00-6.64-1.84l-8.36 4.83 4.9 8.5zm97.39-5.22c17.33-10 23.13-32.39 12.97-50-10.16-17.6-32.45-23.75-49.78-13.75s-23.13 32.38-12.97 49.99c10.16 17.6 32.45 23.76 49.78 13.76zm-7.95-37.91a12.17 12.17 0 01-4.32 16.66c-5.78 3.33-13.2 1.28-16.6-4.59s-1.45-13.33 4.33-16.66a12.17 12.17 0 0116.6 4.59zm12.98-50l41.19-1.1 21.56-35.12 36.8 63.75-20.91 12.07-15.95-27.62-6.78 12.41-14.14-.34 15.95 27.63-20.92 12.08-36.8-63.75zm112.95-65.2l-16.74 9.66 13.8 77.03 20.92-12.08-.36-5.46 16.73-9.66 4.54 3.05 20.92-12.08-59.81-50.47zm12.49 40.95l9 5.93-8.36 4.84-.64-10.77zm41.9-72.35l-20.92 12.07 36.8 63.75 20.92-12.08-17.18-29.75 38.1 17.68 20.91-12.08-36.8-63.75-20.92 12.08 17.17 29.75-38.09-17.68z"/><path d="M-474.23 289.64l20.92-12.07 12.27 21.25 20.91-12.08-12.26-21.25 20.91-12.07 36.8 63.74-20.9 12.08-12.28-21.25-20.91 12.08 12.26 21.25-20.91 12.07-36.8-63.74zm141.4 3.37c17.32-10 23.13-32.38 12.97-49.99-10.17-17.6-32.45-23.76-49.78-13.76-17.33 10-23.14 32.39-12.98 50 10.17 17.6 32.45 23.76 49.78 13.75zm-7.95-37.91a12.17 12.17 0 01-4.33 16.66 12.17 12.17 0 01-16.59-4.59 12.17 12.17 0 014.33-16.66 12.17 12.17 0 0116.59 4.59zm79.62-60.14c-6.3-10.91-19.71-15.35-31.03-10.27l-.06-.11-35.56 20.53 36.8 63.75 20.92-12.08-12.27-21.25 4.5-2.6 20.32 16.6 20.92-12.07-23.7-19.36c3.6-7.31 3.28-16-.84-23.14zm-31.01 23.57l8.37-4.83a4.87 4.87 0 001.73-6.66 4.87 4.87 0 00-6.64-1.84l-8.37 4.83 4.91 8.5zm97.38-5.22c17.33-10 23.14-32.39 12.98-50-10.17-17.6-32.45-23.76-49.78-13.75-17.33 10-23.14 32.38-12.97 49.99 10.16 17.6 32.45 23.76 49.77 13.76zm-7.94-37.92a12.17 12.17 0 01-4.32 16.67c-5.78 3.33-13.2 1.28-16.6-4.59s-1.45-13.33 4.33-16.66a12.17 12.17 0 0116.59 4.58zm12.97-49.99l41.2-1.11 21.55-35.11 36.8 63.74-20.9 12.08-15.96-27.62-6.77 12.41-14.14-.34 15.95 27.63-20.92 12.07-36.8-63.75zM-76.8 60.2l-16.74 9.65 13.8 77.04 20.92-12.08-.37-5.46 16.74-9.66 4.54 3.04 20.92-12.07-59.81-50.47zm12.49 40.95l9 5.93-8.37 4.83-.64-10.76zm41.89-72.36l-20.92 12.08 36.8 63.75 20.92-12.08L-2.79 62.8 35.3 80.47l20.92-12.08-36.8-63.75L-1.5 16.72l17.17 29.75-38.1-17.68z" opacity=".5"/></g><g clip-path="url(#clip11)" opacity=".06"><path fill="#000" fill-rule="evenodd" d="M-234.6 46.69l20.91-12.08 12.27 21.25 20.92-12.08-12.27-21.25 20.92-12.07 36.8 63.75-20.92 12.07-12.26-21.25-20.92 12.08 12.27 21.25-20.92 12.07-36.8-63.74zm141.38 3.36c17.33-10 23.14-32.38 12.98-49.99-10.17-17.6-32.45-23.76-49.78-13.76-17.33 10-23.14 32.39-12.97 50 10.16 17.6 32.45 23.76 49.77 13.75zm-7.94-37.91a12.17 12.17 0 01-4.32 16.66c-5.78 3.34-13.2 1.28-16.6-4.58s-1.45-13.33 4.33-16.67a12.17 12.17 0 0116.6 4.59zM-21.53-48c-6.3-10.91-19.72-15.35-31.04-10.27l-.06-.11-35.56 20.53 36.81 63.75 20.92-12.08-12.27-21.25 4.5-2.6 20.32 16.6L3-5.5l-23.7-19.36c3.6-7.3 3.28-16-.83-23.14zm-31.02 23.57l8.37-4.83a4.87 4.87 0 001.73-6.66 4.87 4.87 0 00-6.64-1.84l-8.36 4.83 4.9 8.5zm97.39-5.22c17.33-10 23.13-32.39 12.97-50C47.65-97.24 25.36-103.4 8.03-93.4-9.3-83.4-15.1-61.01-4.94-43.41c10.16 17.6 32.45 23.76 49.78 13.76zm-7.95-37.91a12.17 12.17 0 01-4.32 16.66 12.17 12.17 0 01-16.6-4.59 12.17 12.17 0 014.33-16.66 12.17 12.17 0 0116.6 4.59zm12.98-50l41.19-1.1 21.56-35.12 36.8 63.75-20.91 12.07-15.95-27.62-6.78 12.41-14.14-.34 15.95 27.63-20.92 12.07-36.8-63.74zm112.95-65.2l-16.73 9.65 13.8 77.04 20.9-12.08-.35-5.46 16.73-9.66 4.55 3.04 20.91-12.07-59.81-50.47zm12.49 40.95l9 5.93-8.36 4.83-.64-10.76zm41.9-72.36l-20.92 12.08 36.8 63.75 20.92-12.08-17.18-29.75 38.1 17.68 20.91-12.08-36.8-63.75-20.92 12.08 17.18 29.75-38.1-17.68z" clip-rule="evenodd"/></g></g></g><defs><clipPath id="clip0"><path fill="#fff" d="M0 0h900v470H0V0z"/></clipPath><clipPath id="clip1"><path fill="#fff" d="M-993.24 484.69h2620v891h-2620z" transform="rotate(-30 -993.24 484.69)"/></clipPath><clipPath id="clip2"><path fill="#fff" d="M-222.18 982.2h1744v74h-1744z" transform="rotate(-30 -222.18 982.2)"/></clipPath><clipPath id="clip3"><path fill="#fff" d="M-630.35 1113.24h1744v74h-1744z" transform="rotate(-30 -630.35 1113.24)"/></clipPath><clipPath id="clip4"><path fill="#fff" d="M-453.08 906.28h1744v74h-1744z" transform="rotate(-30 -453.08 906.28)"/></clipPath><clipPath id="clip5"><path fill="#fff" d="M-247.23 682.82h1744v74h-1744z" transform="rotate(-30 -247.23 682.82)"/></clipPath><clipPath id="clip6"><path fill="#fff" d="M-347.6 636.86h1744v74h-1744z" transform="rotate(-30 -347.6 636.86)"/></clipPath><clipPath id="clip7"><path fill="#fff" d="M-449.18 589.02h1744v74h-1744z" transform="rotate(-30 -449.18 589.02)"/></clipPath><clipPath id="clip8"><path fill="#fff" d="M-857.35 720.06h1744v74h-1744z" transform="rotate(-30 -857.35 720.06)"/></clipPath><clipPath id="clip9"><path fill="#fff" d="M-680.08 513.1h1744v74h-1744z" transform="rotate(-30 -680.08 513.1)"/></clipPath><clipPath id="clip10"><path fill="#fff" d="M-474.23 289.64h1744v74h-1744z" transform="rotate(-30 -474.23 289.64)"/></clipPath><clipPath id="clip11"><path fill="#fff" d="M-234.6 46.69h1744v74h-1744z" transform="rotate(-30 -234.6 46.69)"/></clipPath></defs></svg>