<svg xmlns="http://www.w3.org/2000/svg" viewBox="0 0 44 44">
  <path d="M12.132 23.613a.5.5 0 1 0 0-1 .5.5 0 0 0 0 1ZM10.948 24.706a.5.5 0 1 1-1 0 .5.5 0 0 1 1 0ZM8.822 23.613a.5.5 0 1 0 0-1 .5.5 0 0 0 0 1ZM10.948 21.5a.5.5 0 1 1-1 0 .5.5 0 0 1 1 0ZM13.748 22a.5.5 0 1 0 0-1 .5.5 0 0 0 0 1ZM18.752 23.613a.5.5 0 1 0 0-1 .5.5 0 0 0 0 1ZM17.548 24.706a.5.5 0 1 1-1 0 .5.5 0 0 1 1 0ZM15.442 26.91a.5.5 0 1 0 0-1 .5.5 0 0 0 0 1ZM19.252 26.41a.5.5 0 1 1-1 0 .5.5 0 0 1 1 0ZM20.878 28.017a.5.5 0 1 1-1 0 .5.5 0 0 1 1 0ZM23.708 28.517a.5.5 0 1 0 0-1 .5.5 0 0 0 0 1ZM22.5 29.681a.5.5 0 1 1-1 0 .5.5 0 0 1 1 0ZM22 26.91a.5.5 0 1 0 0-1 .5.5 0 0 0 0 1ZM24.148 24.706a.5.5 0 1 1-1 0 .5.5 0 0 1 1 0ZM25.372 23.613a.5.5 0 1 0 0-1 .5.5 0 0 0 0 1ZM25.872 26.41a.5.5 0 1 1-1 0 .5.5 0 0 1 1 0ZM26.918 25.206a.5.5 0 1 0 0-1 .5.5 0 0 0 0 1ZM28.62 26.91a.5.5 0 1 0 0-1 .5.5 0 0 0 0 1ZM30.688 24.706a.5.5 0 1 1-1 0 .5.5 0 0 1 1 0ZM28.62 23.613a.5.5 0 1 0 0-1 .5.5 0 0 0 0 1ZM30.218 22a.5.5 0 1 0 0-1 .5.5 0 0 0 0 1ZM31.922 23.613a.5.5 0 1 0 0-1 .5.5 0 0 0 0 1ZM34.018 21.5a.5.5 0 1 1-1 0 .5.5 0 0 1 1 0ZM35.17 23.613a.5.5 0 1 0 0-1 .5.5 0 0 0 0 1ZM34.018 24.706a.5.5 0 1 1-1 0 .5.5 0 0 1 1 0ZM20.878 24.706a.5.5 0 1 1-1 0 .5.5 0 0 1 1 0ZM14.248 24.706a.5.5 0 1 1-1 0 .5.5 0 0 1 1 0ZM15.442 23.613a.5.5 0 1 0 0-1 .5.5 0 0 0 0 1Z"/>
  <path fill-rule="evenodd" d="M22.203 6.543a.5.5 0 0 0-.406 0l-18 8a.5.5 0 0 0 0 .914L11.769 19l-7.972 3.543a.5.5 0 0 0 0 .914L11.769 27l-7.972 3.543a.5.5 0 0 0 0 .914l18 8a.5.5 0 0 0 .406 0l18-8a.5.5 0 0 0 0-.914L32.231 27l7.972-3.543a.5.5 0 0 0 0-.914L32.231 19l7.972-3.543a.5.5 0 0 0 0-.914l-18-8Zm-9.595 13.178.392-.174 3.667 1.63a.498.498 0 0 0 .381.823.5.5 0 0 0 .496-.433l4.253 1.89a.5.5 0 0 0 .406 0l4.222-1.876a.5.5 0 1 0 .884-.393L31 19.548l.44.194a.5.5 0 0 0 .903.402L38.769 23l-6.644 2.953a.499.499 0 0 0-.679.301l-4.029 1.791.001-.029a.5.5 0 1 0-.813.39L22 30.453l-4.627-2.056a.499.499 0 1 0-.825-.38v.013L5.232 23l6.469-2.875a.5.5 0 0 0 .908-.404ZM5.231 31 13 27.547l8.797 3.91a.5.5 0 0 0 .406 0L31 27.547 38.769 31 22 38.453 5.231 31ZM22 22.453 5.231 15 22 7.547 38.769 15 22 22.453Z" clip-rule="evenodd"/>
</svg>