<svg xmlns="http://www.w3.org/2000/svg" viewBox="0 0 44 44">
  <path d="M16.517 11.828a.5.5 0 1 1-1 0 .5.5 0 0 1 1 0ZM14.387 13.971a.5.5 0 1 0 0-1 .5.5 0 0 0 0 1ZM13.23 15.088a.5.5 0 1 1-1 0 .5.5 0 0 1 1 0ZM11.034 17.297a.5.5 0 1 0 0-1 .5.5 0 0 0 0 1ZM9.93 18.428a.5.5 0 1 1-1 0 .5.5 0 0 1 1 0ZM7.8 20.545a.5.5 0 1 0 0-1 .5.5 0 0 0 0 1ZM6.429 21.926a.5.5 0 1 1-1 0 .5.5 0 0 1 1 0ZM7.624 24.148a.5.5 0 1 0 0-1 .5.5 0 0 0 0 1ZM9.794 25.305a.5.5 0 1 1-1 0 .5.5 0 0 1 1 0ZM10.95 27.462a.5.5 0 1 0 0-1 .5.5 0 0 0 0 1ZM13.067 28.618a.5.5 0 1 1-1 0 .5.5 0 0 1 1 0ZM14.237 30.762a.5.5 0 1 0 0-1 .5.5 0 0 0 0 1ZM16.38 31.866a.5.5 0 1 1-1 0 .5.5 0 0 1 1 0Z"/>
  <path fill-rule="evenodd" d="M15.646 8.146a.5.5 0 0 1 .708 0l3.5 3.5a.5.5 0 0 1 0 .708L10.207 22l9.647 9.646a.5.5 0 0 1 0 .708l-3.5 3.5a.5.5 0 0 1-.708 0l-13.5-13.5a.5.5 0 0 1 0-.708l13.5-13.5ZM3.207 22 16 34.793 18.793 32l-9.647-9.646a.5.5 0 0 1 0-.708L18.793 12 16 9.207 3.207 22Z" clip-rule="evenodd"/>
  <path d="M28.087 32.379a.5.5 0 1 0 0-1 .5.5 0 0 0 0 1ZM30.256 30.275a.5.5 0 1 1-1 0 .5.5 0 0 1 1 0ZM31.4 29.118a.5.5 0 1 0 0-1 .5.5 0 0 0 0 1ZM33.57 26.948a.5.5 0 1 1-1 0 .5.5 0 0 1 1 0ZM34.713 25.792a.5.5 0 1 0 0-1 .5.5 0 0 0 0 1ZM36.843 23.648a.5.5 0 1 1-1 0 .5.5 0 0 1 1 0ZM37.924 22.426a.5.5 0 1 0 0-1 .5.5 0 0 0 0 1ZM36.609 20.052a.5.5 0 1 1-1 0 .5.5 0 0 1 1 0ZM34.517 18.909a.5.5 0 1 0 0-1 .5.5 0 0 0 0 1ZM33.316 16.765a.5.5 0 1 1-1 0 .5.5 0 0 1 1 0ZM31.166 15.614a.5.5 0 1 0 0-1 .5.5 0 0 0 0 1ZM29.996 13.47a.5.5 0 1 1-1 0 .5.5 0 0 1 1 0ZM27.852 12.294a.5.5 0 1 0 0-1 .5.5 0 0 0 0 1Z"/>
  <path fill-rule="evenodd" d="M27.646 8.146a.5.5 0 0 1 .708 0l13.5 13.5a.5.5 0 0 1 0 .708l-13.5 13.5a.5.5 0 0 1-.708 0l-3.5-3.5a.5.5 0 0 1 0-.708L33.793 22l-9.647-9.646a.5.5 0 0 1 0-.708l3.5-3.5ZM25.207 12l9.647 9.646a.5.5 0 0 1 0 .708L25.207 32 28 34.793 40.793 22 28 9.207 25.207 12Z" clip-rule="evenodd"/>
</svg>