<svg xmlns="http://www.w3.org/2000/svg" viewBox="0 0 44 44">
  <path d="M30.77 11a.5.5 0 1 1-1 0 .5.5 0 0 1 1 0ZM35.742 11.5a.5.5 0 1 0 0-1 .5.5 0 0 0 0 1ZM33.5 8.213a.5.5 0 1 1-1 0 .5.5 0 0 1 1 0ZM33 14.23a.5.5 0 1 0 0-1 .5.5 0 0 0 0 1Z"/>
  <path fill-rule="evenodd" d="M32.646 4.646a.5.5 0 0 1 .708 0l6 6a.5.5 0 0 1 0 .708l-6 6a.5.5 0 0 1-.708 0l-6-6a.5.5 0 0 1 0-.708l6-6ZM27.707 11 33 16.293 38.293 11 33 5.707 27.707 11Z" clip-rule="evenodd"/>
  <path d="M8.29 31.82a.5.5 0 1 1-1 0 .5.5 0 0 1 1 0ZM10 32.32a.5.5 0 1 0 0-1 .5.5 0 0 0 0 1ZM12.71 31.82a.5.5 0 1 1-1 0 .5.5 0 0 1 1 0ZM12.21 34.5a.5.5 0 1 0 0-1 .5.5 0 0 0 0 1ZM8.29 34a.5.5 0 1 1-1 0 .5.5 0 0 1 1 0ZM7.79 36.68a.5.5 0 1 0 0-1 .5.5 0 0 0 0 1ZM10.5 36.18a.5.5 0 1 1-1 0 .5.5 0 0 1 1 0ZM12.21 36.68a.5.5 0 1 0 0-1 .5.5 0 0 0 0 1Z"/>
  <path fill-rule="evenodd" d="M5 29.5a.5.5 0 0 1 .5-.5h9a.5.5 0 0 1 .5.5v9a.5.5 0 0 1-.5.5h-9a.5.5 0 0 1-.5-.5v-9Zm1 .5v8h8v-8H6Z" clip-rule="evenodd"/>
  <path d="M10.354 17.646a.5.5 0 0 0-.708 0l-3.182 3.182a.5.5 0 1 0 .708.707L9.5 19.207V24.5a.5.5 0 0 0 1 0v-5.293l2.328 2.328a.5.5 0 1 0 .708-.707l-3.182-3.182ZM24.854 11.354l-3.182 3.182a.5.5 0 1 1-.707-.708l2.328-2.328H20a.5.5 0 0 1 0-1h3.293l-2.328-2.328a.5.5 0 1 1 .707-.708l3.182 3.182a.5.5 0 0 1 0 .708ZM36.535 24.172l-3.181 3.182a.5.5 0 0 1-.707 0l-3.182-3.182a.5.5 0 1 1 .707-.707l2.328 2.328V22.5a.5.5 0 0 1 1 0v3.293l2.328-2.328a.5.5 0 1 1 .707.707ZM10.5 8.235a.5.5 0 1 1-1 0 .5.5 0 0 1 1 0ZM12.393 10.157a.5.5 0 1 0 0-1 .5.5 0 0 0 0 1ZM12.893 12.41a.5.5 0 1 1-1 0 .5.5 0 0 1 1 0ZM10 14.265a.5.5 0 1 0 0-1 .5.5 0 0 0 0 1ZM8.107 12.41a.5.5 0 1 1-1 0 .5.5 0 0 1 1 0ZM7.607 10.157a.5.5 0 1 0 0-1 .5.5 0 0 0 0 1Z"/>
  <path fill-rule="evenodd" d="M4.5 11a5.5 5.5 0 1 1 11 0 5.5 5.5 0 0 1-11 0ZM10 6.5a4.5 4.5 0 1 0 0 9 4.5 4.5 0 0 0 0-9Z" clip-rule="evenodd"/>
  <path d="M32.986 31.752a.5.5 0 1 0 0-1 .5.5 0 0 0 0 1ZM33.486 36.748a.5.5 0 1 1-1 0 .5.5 0 0 1 1 0ZM35.36 35.848a.5.5 0 1 0 0-1 .5.5 0 0 0 0 1ZM31.14 35.348a.5.5 0 1 1-1 0 .5.5 0 0 1 1 0ZM35.36 33.161a.5.5 0 1 0 0-1 .5.5 0 0 0 0 1ZM31.14 32.661a.5.5 0 1 1-1 0 .5.5 0 0 1 1 0Z"/>
  <path fill-rule="evenodd" d="M33 28.5a5.5 5.5 0 1 0 0 11 5.5 5.5 0 0 0 0-11ZM28.5 34a4.5 4.5 0 1 1 9 0 4.5 4.5 0 0 1-9 0Z" clip-rule="evenodd"/>
  <path d="M17 11a.5.5 0 1 1-1 0 .5.5 0 0 1 1 0ZM18.131 11.5a.5.5 0 1 0 0-1 .5.5 0 0 0 0 1ZM10.5 26.05a.5.5 0 1 1-1 0 .5.5 0 0 1 1 0ZM10 28.425a.5.5 0 1 0 0-1 .5.5 0 0 0 0 1ZM33.5 18.75a.5.5 0 1 1-1 0 .5.5 0 0 1 1 0ZM33 20.926a.5.5 0 1 0 0-1 .5.5 0 0 0 0 1Z"/>
</svg>