<svg xmlns="http://www.w3.org/2000/svg" width="44" height="44" viewBox="0 0 44 44">
    <path d="M22 44C34.1503 44 44 34.1503 44 22C44 9.84974 34.1503 0 22 0C9.84974 0 0 9.84974 0 22C0 34.1503 9.84974 44 22 44Z"/>
    <path fill-rule="evenodd" clip-rule="evenodd" d="M32.7762 19.7863C32.6326 19.0788 32.4153 18.3829 32.1346 17.7181C31.8603 17.0662 31.5176 16.4376 31.1204 15.8504C30.7272 15.2683 30.2757 14.7199 29.779 14.2232C29.2809 13.7253 28.7338 13.2739 28.1504 12.8807C27.5631 12.4823 26.9344 12.1421 26.2824 11.8653C25.6175 11.5859 24.9216 11.3673 24.2153 11.2251C23.4909 11.0763 22.7458 11 22.0006 11C21.2542 11 20.5091 11.0763 19.7847 11.2251C19.0784 11.3673 18.3825 11.5859 17.7176 11.8653C17.0656 12.1421 16.4369 12.4823 15.8484 12.8807C15.2662 13.2739 14.7191 13.7253 14.221 14.2232C13.723 14.7199 13.2728 15.2683 12.8796 15.8504C12.4812 16.4376 12.1396 17.0662 11.8641 17.7181C11.5834 18.3829 11.3674 19.0788 11.2225 19.7863C11.075 20.508 11 21.2543 11 21.9994C11 22.7457 11.075 23.492 11.2225 24.2163C11.3674 24.9212 11.5834 25.6184 11.8641 26.2819C12.1396 26.9338 12.4812 27.5637 12.8796 28.1522C13.2728 28.7343 13.723 29.2801 14.221 29.7781C14.7191 30.276 15.2662 30.7261 15.8484 31.1193C16.4369 31.5177 17.0656 31.8592 17.7176 32.1347C18.3825 32.4154 19.0784 32.6301 19.7847 32.7749C20.5091 32.925 21.2542 33 22.0006 33C22.7458 33 23.4909 32.925 24.2153 32.7749C24.9216 32.6301 25.6175 32.4154 26.2824 32.1347C26.9344 31.8592 27.5631 31.5177 28.1504 31.1193C28.7338 30.7261 29.2809 30.276 29.779 29.7781C30.2757 29.2801 30.7272 28.7343 31.1204 28.1522C31.5176 27.5637 31.8603 26.9338 32.1346 26.2819C32.4153 25.6184 32.6326 24.9212 32.7762 24.2163C32.925 23.492 33 22.7457 33 21.9994C33 21.2543 32.925 20.508 32.7762 19.7863ZM31.3921 21.9062C31.2562 21.8765 28.0766 21.1923 24.8491 21.5984C24.7819 21.438 24.7146 21.2763 24.646 21.1146C24.4494 20.6542 24.2398 20.1989 24.0212 19.7514C27.7312 18.2368 29.237 16.0586 29.2551 16.0327C30.5719 17.634 31.3701 19.6776 31.3921 21.9062ZM28.2047 14.9501C28.1814 14.9864 26.8438 17.0235 23.2968 18.3519C21.6915 15.4016 19.927 13.0579 19.786 12.8716C20.4962 12.6996 21.2374 12.6064 22.0006 12.6064C24.3783 12.6064 26.5489 13.4937 28.2047 14.9501ZM19.7498 12.8794L19.7485 12.8807C19.7485 12.8807 19.7369 12.8832 19.7201 12.8871C19.7291 12.8845 19.7395 12.8832 19.7498 12.8794ZM17.9918 13.5041C18.116 13.6722 19.8546 16.0263 21.4806 18.9171C16.9699 20.1161 13.0542 20.0683 12.8058 20.0644C13.4164 17.1542 15.371 14.7419 17.9918 13.5041ZM12.6053 21.9994C12.6053 21.8998 12.6105 21.8015 12.6131 21.7032C12.7787 21.707 17.4214 21.8118 22.2581 20.3645C22.5271 20.8909 22.7846 21.4264 23.02 21.9606C22.8958 21.9955 22.7729 22.033 22.65 22.0731C17.5805 23.7119 15.0088 28.2725 15.0088 28.2725L15.0127 28.2777C13.516 26.613 12.6053 24.4129 12.6053 21.9994ZM22.0006 31.3936C19.7265 31.3936 17.6413 30.5852 16.0152 29.2413C16.1394 29.3409 16.2261 29.4056 16.2261 29.4056C16.2261 29.4056 18.0268 25.4787 23.5982 23.5372C23.6189 23.5295 23.6396 23.523 23.6616 23.5166C24.9837 26.9519 25.5283 29.8285 25.668 30.6498C24.5412 31.1284 23.3007 31.3936 22.0006 31.3936ZM27.25 29.791C27.1543 29.2245 26.6537 26.4669 25.4209 23.082C28.4543 22.5969 31.0816 23.4286 31.2757 23.492C30.8578 26.1086 29.3586 28.3669 27.25 29.791Z" fill="white"/>
</svg>
