<svg xmlns="http://www.w3.org/2000/svg" viewBox="0 0 128 88">
    <path d="M101.09 50.39v6.21H81.45V30.57h19.64v6H89.3v3.78h9.52v5.78h-9.52v4.26h11.78zM69.19 56.6h8V30.57h-8V56.6z"/>
    <path fill-rule="evenodd" d="M104.14 30.57V56.6h10.6c3.73 0 6.77-1.21 9.1-3.65 2.35-2.43 3.52-5.6 3.52-9.49 0-3.4-1.1-6.4-3.27-9-2.18-2.6-5.47-3.9-9.85-3.9h-10.1zm10.1 20.05h-2.08V36.48h2.08c1.53 0 2.7.69 3.5 2.06.82 1.37 1.22 3 1.22 4.9 0 2.22-.45 3.96-1.36 5.25-.92 1.28-2.03 1.93-3.36 1.93zM20.8 51.1a20.32 20.32 0 005.23 7l20.19-23.94L20.8 51.1zm8.22 9.13a19.74 19.74 0 0010 2.7C50.05 62.92 59 53.9 59 42.76c0-4.77-1.66-9.16-4.4-12.61-6.54 7.69-19.06 22.37-25.6 30.07zm10-37.62c-11.05 0-20 9.03-20 20.16 0 1.58.18 3.1.52 4.58l31.11-20.97a19.8 19.8 0 00-11.64-3.77zM22.16 62.68a1.79 1.79 0 00.04 2.54c.35.33.8.52 1.3.52.47 0 .94-.2 1.27-.55l4.24-4.96a19.5 19.5 0 01-2.99-2.13l-3.86 4.58zM6 56.47l15.98-31.82c.02-.03.15-.71.15-.71a1.81 1.81 0 00-3.5-.68l.02-.03L.14 60.88a1.8 1.8 0 002.71 2.2L20.8 51.1c-.54-1.2-.97-2.46-1.26-3.76L6 56.47zm48.6-26.31l4.24-4.97c.63-.64.67-1.7.06-2.42a1.83 1.83 0 00-2.44-.3l-5.81 3.91a19.9 19.9 0 013.95 3.78z" clip-rule="evenodd"/>
</svg>