<svg id="epma3re5m491" xmlns="http://www.w3.org/2000/svg" xmlns:xlink="http://www.w3.org/1999/xlink" viewBox="0 0 48 48" shape-rendering="geometricPrecision" text-rendering="geometricPrecision" width="48" height="48"><style><![CDATA[#epma3re5m492_ts {animation: epma3re5m492_ts__ts 5000ms linear infinite normal backwards}@keyframes epma3re5m492_ts__ts { 0% {transform: translate(24px,24px) scale(1,1)} 10% {transform: translate(24px,24px) scale(1,1)} 14% {transform: translate(24px,24px) scale(0.750000,0.750000)} 18% {transform: translate(24px,24px) scale(1,1)} 100% {transform: translate(24px,24px) scale(1,1)} }#epma3re5m496_to {animation: epma3re5m496_to__to 5000ms linear infinite normal backwards}@keyframes epma3re5m496_to__to { 0% {transform: translate(33px,35.210000px)} 4% {transform: translate(33px,35.210000px)} 10% {transform: translate(30px,32px)} 22% {transform: translate(30px,32px)} 28% {transform: translate(33px,35.210000px)} 100% {transform: translate(33px,35.210000px)} }#epma3re5m496_ts {animation: epma3re5m496_ts__ts 5000ms linear infinite normal backwards}@keyframes epma3re5m496_ts__ts { 0% {transform: scale(1,1)} 10% {transform: scale(1,1)} 14% {transform: scale(1.100000,1.100000)} 18% {transform: scale(1,1)} 100% {transform: scale(1,1)} }]]></style><g id="epma3re5m492_ts" transform="translate(24,24) scale(1,1)"><g id="epma3re5m492" transform="translate(-24,-24)"><circle id="epma3re5m493" r="15.500000" transform="matrix(1 0 0 1 24 24)" opacity="0.11999999731779099" fill="none" stroke="rgb(0,0,0)" stroke-width="1"/><circle id="epma3re5m494" r="12.500000" transform="matrix(1 0 0 1 24 24)" opacity="0.25" fill="none" stroke="rgb(0,0,0)" stroke-width="1"/><circle id="epma3re5m495" r="9.500000" transform="matrix(1 0 0 1 24 24)" opacity="0.5" fill="none" stroke="rgb(0,0,0)" stroke-width="1"/></g></g><g id="epma3re5m496_to" transform="translate(33,35.210000)"><g id="epma3re5m496_ts" transform="scale(1,1)"><path id="epma3re5m496" d="M22,22C22,20.895400,22.895400,20,24,20L24,20C25.104600,20,26,20.895400,26,22L26,25C26,26.656900,27.343100,28,29,28L35,28C36.656900,28,38,29.343100,38,31L38,38C38,41.313700,35.313700,44,32,44L28,44C24.686300,44,22,41.313700,22,38L22,22Z" transform="translate(-30,-32)" fill="rgb(0,0,0)" stroke="none" stroke-width="1"/></g></g></svg>