<svg xmlns="http://www.w3.org/2000/svg" viewBox="0 0 63 88">
    <path d="M62.01 13.008H.314v62H62.01v-62zM12.737 43.276h.619c2.088 0 4.441-.388 4.441-3.084 0-2.688-2.353-3.084-4.441-3.084h-.62v6.168zM26.82 56.94h-7.973L12.8 47.416h-.065v9.523H6.332V32.176h9.57c4.872 0 8.565 2.337 8.565 7.62 0 3.42-1.9 6.375-5.395 6.997L26.82 56.94zm6.384-8.403c0 2.13 1.404 3.775 3.825 3.775 2.418 0 3.822-1.645 3.822-3.775 0-2.07-1.404-3.808-3.822-3.808-2.421 0-3.825 1.738-3.825 3.808zm13.395 8.403h-5.941v-1.867h-.072c-1.042 1.673-3.098 2.425-5.065 2.425-4.968 0-8.464-4.172-8.464-8.998 0-4.827 3.44-8.966 8.404-8.966 1.922 0 3.954.724 5.197 2.203v-1.64h5.941v16.843zm9.997-23.316c0 1.844-1.509 3.352-3.335 3.352s-3.335-1.508-3.335-3.352c0-1.835 1.509-3.342 3.335-3.342s3.334 1.507 3.334 3.343zm-.362 23.316h-5.942V40.095h5.942V56.94zM.314 64.155V23.187H.01l.305 40.968z"/>
</svg>