<svg xmlns="http://www.w3.org/2000/svg" viewBox="0 0 83 88">
    <path d="M19.269 22.13h-3.22a.588.588 0 00-.6.602v42.54a.586.586 0 00.6.602h3.22a.587.587 0 00.602-.603v-42.54a.586.586 0 00-.602-.602zm30.34 0H39.223a.588.588 0 00-.601.602v42.54a.586.586 0 00.601.602h10.17a.587.587 0 00.601-.603v-3.008a.584.584 0 00-.368-.56.587.587 0 00-.233-.043H43.04V45.635h5.148a.59.59 0 00.551-.559v-2.149a.58.58 0 00-.172-.43.53.53 0 00-.386-.172h-5.149V26.34h6.574a.375.375 0 00.276-.108.33.33 0 00.107-.236v-3.48a.362.362 0 00-.106-.28.37.37 0 00-.28-.107h.005zm-14.29 43.14V28.058a6.057 6.057 0 00-4.378-5.716h-.043a3.702 3.702 0 00-.793-.171 8.662 8.662 0 00-1.738 0c-.277.026-.55.084-.815.171h.043l-.13.043-.087.043-.258.086a.38.38 0 00-.172.043l-.774.386a6.181 6.181 0 00-2.19 2.192 5.868 5.868 0 00-.815 3.051V65.27a.584.584 0 00.173.43.535.535 0 00.385.172h3.26a.587.587 0 00.6-.602V45.632h3.305V65.27a.589.589 0 00.602.602h3.219a.587.587 0 00.602-.602h.004zm-4.42-35.15v12.204h-3.304V27.972a1.73 1.73 0 01.537-1.032 1.534 1.534 0 011.094-.43 1.687 1.687 0 011.673 1.677v1.936-.002zM12.147 50.876v-.516a11.204 11.204 0 00-.623-3.48 10.684 10.684 0 00-1.567-3.136L5.751 38.07a6.839 6.839 0 01-.922-1.89 6.606 6.606 0 01-.413-2.063v-5.93A1.649 1.649 0 015.96 26.51h.097a1.645 1.645 0 011.18.473 1.547 1.547 0 01.493 1.16v2.923a.586.586 0 00.602.602h3.219a.588.588 0 00.601-.602v-2.922a5.965 5.965 0 00-1.845-4.212 6.081 6.081 0 00-8.475 0A5.774 5.774 0 000 28.145v5.973c.022 1.185.232 2.36.623 3.48a10.687 10.687 0 001.566 3.136l4.207 5.672a6.13 6.13 0 01.922 1.869c.243.654.382 1.343.413 2.04v9.454A1.682 1.682 0 015.8 61.42a1.76 1.76 0 01-.258-.064 1.575 1.575 0 01-.816-.603 1.616 1.616 0 01-.3-.946v-2.922a.586.586 0 00-.601-.602H.602a.585.585 0 00-.602.602v3.438c.029.172.058.33.087.473v.043c.027.166.063.33.107.493.043.157.08.307.108.451h.042c.03.147.073.291.13.43l.043.043c.086.143.165.287.236.43.067.137.146.266.237.387v.043l.259.343.087.13c.086.114.172.221.259.321.09.102.19.195.3.275.549.52 1.189.935 1.887 1.225.72.302 1.494.456 2.275.451.287 0 .574-.021.858-.064a6.17 6.17 0 00.857-.194l-.042.043a6.838 6.838 0 001.331-.597v.043c.143-.087.281-.173.413-.259.131-.088.254-.189.365-.301.121-.092.236-.193.343-.301l.043-.043c.113-.086.214-.187.3-.301.085-.114.186-.215.3-.301l.043-.087c.03-.06.066-.118.107-.172.046-.06.096-.117.15-.172v-.044c.082-.107.154-.222.215-.343l.043-.043c.057-.143.115-.272.172-.386l.042-.087c.029-.058.058-.122.087-.194a3.18 3.18 0 01.087-.194v-.042a.804.804 0 00.064-.194.8.8 0 01.065-.194v-.087a.804.804 0 00.065-.194c.017-.08.039-.158.065-.236v-.043a.766.766 0 00.042-.236.762.762 0 01.043-.237v-9.54h.043l-.011.013zM59.95 22.043a1.89 1.89 0 011.523.58c.353.46.528 1.032.493 1.611v4.512a2.427 2.427 0 01-.493 1.59 1.855 1.855 0 01-1.523.602h-2.102v-8.895h2.102zm0 7.992a.932.932 0 00.774-.321c.192-.283.283-.622.259-.963v-4.56a1.444 1.444 0 00-.259-.923.983.983 0 00-.815-.322h-1.073v7.09h1.116-.002zm4.25-.901l-.345 1.803h-.9l1.674-8.894h1.46l1.673 8.895h-.985l-.343-1.806h-2.236l.001.002zm.129-.86h1.974l-1.03-5.114-.944 5.114zm4.543 2.663v-8.894h.987v7.992h2.532v.902h-3.519zm4.592 0v-8.894h.987v7.992h2.532v.902h-3.52zm5.579-1.803l-.339 1.803h-.9l1.674-8.894h1.46l1.672 8.895h-.987l-.343-1.806h-2.233l-.004.002zm.128-.86h1.974l-.987-5.114-.987 5.114zm-19.393 5.413a1.883 1.883 0 011.545.58c.336.453.503 1.008.472 1.57v1.073a2.25 2.25 0 01-.515 1.612 2.043 2.043 0 01-1.545.538h-.9v3.524h-.987v-8.897h1.93zm-.043 4.512a1.064 1.064 0 00.816-.275c.197-.266.289-.595.258-.924v-1.203a1.442 1.442 0 00-.236-.902.953.953 0 00-.794-.301h-.944v3.609l.9-.004zm3.993 2.578l-.343 1.805h-.944l1.72-8.895h1.459l1.674 8.895h-.987l-.343-1.805h-2.236zm.13-.86h1.974l-1.03-5.113-.944 5.114zm6.52-6.23a1.949 1.949 0 011.502.516c.343.424.511.961.473 1.504v.73a2.34 2.34 0 01-.276 1.204 1.415 1.415 0 01-.835.645 1.325 1.325 0 01.857.665c.18.367.27.772.26 1.181v1.59a2.565 2.565 0 00.171.902l-.987-.043a1.501 1.501 0 01-.13-.413 2.565 2.565 0 01-.042-.45v-1.63a1.234 1.234 0 00-.343-1.01 1.456 1.456 0 00-.944-.274h-.689v3.781h-.987v-8.898h1.973-.003zm-.257 4.212c.32.015.637-.076.9-.258a1.177 1.177 0 00.343-.989v-.86a1.464 1.464 0 00-.237-.88.913.913 0 00-.793-.322h-.942v3.265h.73v.043l-.001.001zm4.85 4.683V34.59h-1.633v-.903h4.25v.903h-1.632v7.992h-.986zm6.779-4.941v.859h-2.19v3.18h2.662v.902h-3.647v-8.895h3.647v.903H79.56v3.05h2.19zm-21.8 7.691a1.853 1.853 0 011.523.603 2.43 2.43 0 01.493 1.59v4.51c.035.58-.14 1.151-.493 1.612a1.888 1.888 0 01-1.523.58h-2.102v-8.895h2.102zm0 7.992a.93.93 0 00.774-.322c.189-.27.28-.595.259-.924V47.48a1.444 1.444 0 00-.259-.924.983.983 0 00-.815-.322h-1.073v7.09h1.116-.002zm4.25-7.992v8.895h-.99v-8.895h.99zm7.51 2.148v.774h-.94v-.816a1.648 1.648 0 00-.237-.947 1.087 1.087 0 00-1.588 0 1.65 1.65 0 00-.237.947v4.683a1.65 1.65 0 00.237.946 1.087 1.087 0 001.588 0c.172-.285.255-.614.236-.946v-1.16h.945v1.117a2.577 2.577 0 01-.472 1.634 1.789 1.789 0 01-1.502.602 1.854 1.854 0 01-1.523-.602 2.503 2.503 0 01-.493-1.634V47.48a2.519 2.519 0 01.493-1.611 1.826 1.826 0 011.523-.623 1.774 1.774 0 011.48.623c.344.464.518 1.033.493 1.611h-.003zm2.232 2.75v3.996h-.988V45.33h.982v3.996h2.19V45.33h.986v8.895h-.987V50.23h-2.183zm5.492-4.898v8.895h-.987v-8.895h.987zM61.795 59.125v.817h-.939v-.86a1.544 1.544 0 00-.259-.946.954.954 0 00-.815-.343.893.893 0 00-.793.343 1.65 1.65 0 00-.237.946v4.684c-.018.335.072.667.26.946a.903.903 0 00.773.343.953.953 0 00.815-.343c.187-.28.278-.611.259-.946v-1.16h.944v1.117a2.502 2.502 0 01-.492 1.633 2.227 2.227 0 01-3.046 0 2.503 2.503 0 01-.493-1.633v-4.598a2.519 2.519 0 01.493-1.611 2.173 2.173 0 013.045 0c.343.465.514 1.034.486 1.611zm3.177-2.148a1.951 1.951 0 011.502.516c.346.438.514.99.472 1.547v.687c.016.417-.073.83-.259 1.203a1.344 1.344 0 01-.858.645 1.27 1.27 0 01.88.666c.166.37.248.774.237 1.18v1.59c.001.153.023.305.065.451.041.153.091.304.15.451l-1.03-.042a1.501 1.501 0 01-.13-.413 2.557 2.557 0 01-.042-.45v-1.59a1.359 1.359 0 00-.321-1.053 1.438 1.438 0 00-.964-.276h-.688v3.782h-.987v-8.895h1.973v.001zm-.26 4.21c.327.022.653-.07.922-.258a1.16 1.16 0 00.32-.946v-.858a1.544 1.544 0 00-.236-.924.918.918 0 00-.793-.322h-.945v3.309h.731zm6.736-.257v.902h-2.144v3.137h2.662v.902h-3.647v-8.895h3.647v.902h-2.662v3.051h2.147l-.003.001zm2.747 3.137l-.343 1.805h-.9l1.674-8.895h1.46l1.674 8.895h-.988l-.343-1.805h-2.234zm.13-.817h1.974l-.988-5.156-.987 5.156zM54.07 22h.43v44h-.43V22z"/>
</svg>