<svg id="et7gbg4y3pjo1" xmlns="http://www.w3.org/2000/svg" xmlns:xlink="http://www.w3.org/1999/xlink" viewBox="0 0 48 48" shape-rendering="geometricPrecision" text-rendering="geometricPrecision" width="48" height="48"><rect id="et7gbg4y3pjo2" width="48" height="48" rx="24" ry="24" fill="rgb(255,255,255)" stroke="none" stroke-width="1"/><path id="et7gbg4y3pjo3" d="M24,10.441100L36.500000,16.683200L36.500000,30.109400L24,37.582600L11.500000,30.109400L11.500000,16.683200L24,10.441100ZM12.500000,17.301600L12.500000,29.542100L24,36.417500L35.500000,29.542100L35.500000,17.301600L24,11.558900L12.500000,17.301600Z" opacity="0.25" clip-rule="evenodd" fill="rgb(0,0,0)" fill-rule="evenodd" stroke="none" stroke-width="1"/><circle id="et7gbg4y3pjo4" r="3" transform="matrix(1 0 0 1 12 17)" fill="rgb(0,0,0)" stroke="none" stroke-width="1"/><circle id="et7gbg4y3pjo5" r="3" transform="matrix(1 0 0 1 12 30)" fill="rgb(0,0,0)" stroke="none" stroke-width="1"/><circle id="et7gbg4y3pjo6" r="3" transform="matrix(1 0 0 1 24 37)" fill="rgb(0,0,0)" stroke="none" stroke-width="1"/><circle id="et7gbg4y3pjo7" r="3" transform="matrix(1 0 0 1 36 30)" fill="rgb(0,0,0)" stroke="none" stroke-width="1"/><circle id="et7gbg4y3pjo8" r="3" transform="matrix(1 0 0 1 36 17)" fill="rgb(0,0,0)" stroke="none" stroke-width="1"/><circle id="et7gbg4y3pjo9" r="3" transform="matrix(1 0 0 1 24 11)" fill="rgb(0,0,0)" stroke="none" stroke-width="1"/><path id="et7gbg4y3pjo10" d="M20.335400,24.742300L24,11L36,17L36,30L24,37L24,27C24,26.447700,23.552300,26,23,26L21.301600,26C20.644600,26,20.166100,25.377200,20.335400,24.742300Z" fill="rgb(0,0,0)" fill-opacity="0.25" stroke="rgb(0,0,0)" stroke-width="1"/><path id="et7gbg4y3pjo11" d="M24,23C24,19,30,19,30,23" fill="none" stroke="rgb(0,0,0)" stroke-width="1" stroke-linecap="round"/></svg>