<svg id="e0iboc9jt2ir1" xmlns="http://www.w3.org/2000/svg" xmlns:xlink="http://www.w3.org/1999/xlink" viewBox="0 0 48 48" shape-rendering="geometricPrecision" text-rendering="geometricPrecision" width="48" height="48"><style><![CDATA[#e0iboc9jt2ir2 {animation: e0iboc9jt2ir2_c_o 5000ms linear infinite normal forwards}@keyframes e0iboc9jt2ir2_c_o { 0% {opacity: 0.250000} 4% {opacity: 0.250000} 8% {opacity: 0.040000} 16% {opacity: 0.040000} 20% {opacity: 0.250000} 100% {opacity: 0.250000} }#e0iboc9jt2ir6_to {animation: e0iboc9jt2ir6_to__to 5000ms linear infinite normal forwards}@keyframes e0iboc9jt2ir6_to__to { 0% {transform: translate(24px,35px)} 4% {transform: translate(24px,35px)} 8% {transform: translate(21px,35px)} 12% {transform: translate(25px,35px)} 20% {transform: translate(24px,35px)} 100% {transform: translate(24px,35px)} }#e0iboc9jt2ir7_to {animation: e0iboc9jt2ir7_to__to 5000ms linear infinite normal forwards}@keyframes e0iboc9jt2ir7_to__to { 0% {transform: translate(35px,24px)} 4% {transform: translate(35px,24px)} 8% {transform: translate(35px,23px)} 12% {transform: translate(35px,19px)} 20% {transform: translate(35px,24px)} 100% {transform: translate(35px,24px)} }#e0iboc9jt2ir11_to {animation: e0iboc9jt2ir11_to__to 5000ms linear infinite normal forwards}@keyframes e0iboc9jt2ir11_to__to { 0% {transform: translate(33.406331px,33.663571px)} 4% {transform: translate(33.406331px,33.663571px)} 8% {transform: translate(29.592531px,30.752198px)} 12% {transform: translate(31.592531px,27.752198px)} 16% {transform: translate(33.406331px,33.663571px)} 100% {transform: translate(33.406331px,33.663571px)} }#e0iboc9jt2ir11_ts {animation: e0iboc9jt2ir11_ts__ts 5000ms linear infinite normal forwards}@keyframes e0iboc9jt2ir11_ts__ts { 0% {transform: scale(1,1)} 4% {transform: scale(1,1)} 12% {transform: scale(0.750000,0.750000)} 20% {transform: scale(1,1)} 100% {transform: scale(1,1)} }]]></style><path id="e0iboc9jt2ir2" d="M12.500000,12.500000L35.500000,12.500000L35.500000,24L34.500000,24L34.500000,13.500000L13.500000,13.500000L13.500000,34.500000L24,34.500000L24,35.500000L12.500000,35.500000L12.500000,12.500000Z" opacity="0.25" clip-rule="evenodd" fill="rgb(0,0,0)" fill-rule="evenodd" stroke="none" stroke-width="1"/><rect id="e0iboc9jt2ir3" width="6" height="6" rx="2" ry="2" transform="matrix(1 0 0 1 10 10)" fill="rgb(0,0,0)" stroke="none" stroke-width="1"/><rect id="e0iboc9jt2ir4" width="4" height="4" rx="1" ry="1" transform="matrix(1 0 0 1 22 11)" fill="rgb(0,0,0)" stroke="none" stroke-width="1"/><g id="e0iboc9jt2ir5"><g id="e0iboc9jt2ir6_to" transform="translate(24,35)"><rect id="e0iboc9jt2ir6" width="4" height="4" rx="1" ry="1" transform="translate(-2,-2)" fill="rgb(0,0,0)" stroke="none" stroke-width="1"/></g><g id="e0iboc9jt2ir7_to" transform="translate(35,24)"><rect id="e0iboc9jt2ir7" width="4" height="4" rx="1" ry="1" transform="translate(-2,-2)" fill="rgb(0,0,0)" stroke="none" stroke-width="1"/></g></g><rect id="e0iboc9jt2ir8" width="4" height="4" rx="1" ry="1" transform="matrix(1 0 0 1 11 22)" fill="rgb(0,0,0)" stroke="none" stroke-width="1"/><rect id="e0iboc9jt2ir9" width="6" height="6" rx="2" ry="2" transform="matrix(1 0 0 1 10 32)" fill="rgb(0,0,0)" stroke="none" stroke-width="1"/><rect id="e0iboc9jt2ir10" width="6" height="6" rx="2" ry="2" transform="matrix(1 0 0 1 32 10)" fill="rgb(0,0,0)" stroke="none" stroke-width="1"/><g id="e0iboc9jt2ir11_to" transform="translate(33.406331,33.663571)"><g id="e0iboc9jt2ir11_ts" transform="scale(1,1)"><path id="e0iboc9jt2ir11" d="M27.825400,26.412000C27.826800,25.175900,29.238700,24.471900,30.226700,25.214700L38.400100,31.359200C39.291400,32.029300,39.166000,33.403100,38.168000,33.900600L36.760400,34.602500C36.266100,34.848900,36.065200,35.449300,36.311600,35.943600L38.096400,39.523300C38.589300,40.511900,38.187500,41.712800,37.198900,42.205600L37.198900,42.205600C36.210400,42.698500,35.009500,42.296700,34.516700,41.308100L32.731900,37.728400C32.485500,37.234100,31.885000,37.033200,31.390700,37.279700L29.983100,37.981500C28.985100,38.479000,27.812500,37.752500,27.813800,36.637400L27.825400,26.412000Z" transform="translate(-33.406331,-33.663571)" fill="rgb(0,0,0)" stroke="none" stroke-width="1"/></g></g></svg>