<svg xmlns="http://www.w3.org/2000/svg" viewBox="0 0 495 495">
  <path d="M149.2 157v-.8l5.5-2.7v1l-4.2 2v.2l4.2 2v1l-5.5-2.8Zm10.7-6.1-2.8 10.4h-1L159 151h1Zm7 6-5.5 2.8v-1l4.2-2v-.2l-4.2-2v-1l5.5 2.8v.6Zm2.4 0v-.7l5.5-2.7v1l-4.2 2v.2l4.2 2v1l-5.5-2.8Zm10.7-6-2.8 10.4h-1l2.9-10.4h1Zm7 6-5.5 2.8v-1l4.2-2v-.2l-4.2-2v-1l5.5 2.8v.6Zm-70.5 61.2-.3-.6 3.3-5.1.6 1-2.7 3.8h.1l4.6-.3.6 1-6.2.2Zm6.3-10.6 2.7 10.5-.8.4L122 208l.8-.5Zm9 1.8-3.3 5.2-.6-1 2.7-3.8-.1-.1-4.6.4-.6-1 6.2-.3.3.6Zm2.1-1.2-.3-.6 3.3-5.2.6 1-2.7 3.8.1.1 4.6-.4.6 1-6.2.3Zm6.3-10.6 2.7 10.4-.8.5-2.7-10.5.8-.4Zm9 1.7-3.3 5.2-.6-1 2.7-3.8h-.1l-4.6.3-.6-1 6.2-.2.3.5Zm-29.9 88.2-.5-.3.3-6.2 1 .6-.4 4.6 3.9-2.6 1 .6-5.3 3.3Zm.1-12.3 7.7 7.7-.5.8-7.6-7.7.4-.8Zm8.8-3-.3 6.2-1-.6.4-4.6h-.1l-3.8 2.6-1-.6 5.2-3.3.6.3Zm1.2-2-.6-.4.3-6.2 1 .6-.4 4.6h.1l3.8-2.6 1 .6-5.2 3.3Zm0-12.4 7.7 7.7-.4.8-7.7-7.7.5-.8Zm8.8-3-.3 6.2-1-.6.4-4.7v.1h-.1l-3.8 2.6-1-.6 5.2-3.3.6.3Zm18.8 92.1h-.8l-2.7-5.5h1l2 4.2h.2l2-4.2h1l-2.8 5.5Zm-6.1-10.7 10.4 2.8v1L151 337v-1Zm6-7 2.8 5.5h-1l-2-4.2h-.2l-2 4.2h-1l2.8-5.5h.6Zm0-2.4h-.7l-2.7-5.5h1l2 4.2h.2l2-4.2h1l-2.8 5.5Zm-6-10.7 10.4 2.8v1l-10.4-2.9v-1Zm6-7 2.8 5.5h-1l-2-4.2h-.2l-2 4.2h-1l2.8-5.5h.6Zm61.2 69.5-.6.3-5.1-3.3 1-.6 3.8 2.7v-.1l-.3-4.6 1-.6.2 6.2Zm-10.6-6.3 10.5-2.7.4.8L208 373l-.5-.8Zm1.8-9 5.2 3.3-1 .6-3.8-2.7-.1.1.4 4.6-1 .6-.3-6.2.6-.3ZM208 361l-.6.3-5.2-3.3 1-.6 3.8 2.7.1-.1-.4-4.6 1-.6.3 6.2Zm-10.6-6.3 10.4-2.7.5.8-10.5 2.7-.4-.8Zm1.7-9 5.2 3.3-1 .6-3.8-2.7v.1l.3 4.6-1 .6-.2-6.2.5-.3Zm88.3 30-.3.6-6.2-.4.6-1 4.6.4-2.6-3.9.6-1 3.3 5.3Zm-12.3-.1 7.7-7.7.8.5-7.7 7.6-.8-.4Zm-3-8.8 6.2.3-.6 1-4.6-.4v.1l2.6 3.8-.6 1-3.3-5.2.3-.6Zm-2-1.2-.4.6-6.2-.3.6-1 4.6.4v-.1l-2.6-3.8.6-1 3.3 5.2Zm-12.4 0 7.7-7.7.8.4-7.7 7.7-.8-.5Zm-3-8.8 6.2.3-.6 1-4.7-.4h.1v.1l2.6 3.8-.6 1-3.3-5.2.3-.6Zm92.1-17.8v.8l-5.5 2.7v-1l4.2-2v-.2l-4.2-2v-1l5.5 2.8Zm-10.7 6.1 2.8-10.4h1L337 345h-1Zm-7-6 5.5-2.8v1l-4.2 2v.2l4.2 2v1l-5.5-2.8v-.6Zm-2.4 0v.6l-5.5 2.8v-1l4.2-2v-.2l-4.2-2v-1l5.5 2.8Zm-10.7 6 2.8-10.4h1l-2.9 10.4h-1Zm-7-6 5.5-2.8v1l-4.2 2v.2l4.2 2v1l-5.5-2.8v-.6Zm69.5-62.2.3.6-3.3 5.1-.6-1 2.7-3.8h-.1l-4.6.3-.6-1 6.2-.2Zm-6.3 10.6-2.7-10.5.8-.4L373 287l-.8.5Zm-9-1.8 3.3-5.2.6 1-2.7 3.8.1.1 4.6-.4.6 1-6.2.3-.3-.6ZM361 287l.3.6-3.3 5.2-.6-1 2.7-3.8-.1-.1-4.6.4-.6-1 6.2-.3Zm-6.3 10.6-2.7-10.4.8-.5 2.7 10.5-.8.4Zm-9-1.7 3.3-5.2.6 1-2.7 3.8h.1l4.6-.3.6 1-6.2.2-.3-.5Zm30-88.3.6.3-.4 6.2-1-.6.4-4.6-3.9 2.6-1-.6 5.3-3.3Zm-.1 12.3-7.7-7.7.5-.8 7.6 7.7-.4.8Zm-8.8 3 .3-6.2 1 .6-.4 4.6h.1l3.8-2.6 1 .6-5.2 3.3-.6-.3Zm-1.2 2 .6.4-.3 6.2-1-.6.4-4.6h-.1l-3.8 2.6-1-.6 5.2-3.3Zm0 12.4-7.7-7.7.4-.8 7.7 7.7-.5.8Zm-8.8 3 .3-6.2 1 .6-.4 4.7v-.1h.1l3.8-2.6 1 .6-5.2 3.3-.6-.3ZM339 149.2h.8l2.7 5.5h-1l-2-4.2h-.2l-2 4.2h-1l2.8-5.5Zm6.1 10.7-10.4-2.8v-1L345 159v1Zm-6 7-2.8-5.5h1l2 4.2h.2l2-4.2h1l-2.8 5.5h-.6Zm0 2.4h.6l2.8 5.5h-1l-2-4.2h-.2l-2 4.2h-1l2.8-5.5Zm6 10.7-10.4-2.8v-1l10.4 2.9v1Zm-6 7-2.8-5.5h1l2 4.2h.2l2-4.2h1l-2.8 5.5h-.6Zm-62.2-70.5.6-.3 5.1 3.3-1 .6-3.8-2.7v.1l.3 4.6-1 .6-.2-6.2Zm10.6 6.3-10.5 2.7-.4-.8L287 122l.5.8Zm-1.8 9-5.2-3.3 1-.6 3.8 2.7.1-.1-.4-4.6 1-.6.3 6.2-.6.3Zm1.2 2.1.6-.3 5.2 3.3-1 .6-3.8-2.7-.1.1.4 4.6-1 .6-.3-6.2Zm10.6 6.3-10.4 2.7-.5-.8 10.5-2.7.4.8Zm-1.7 9-5.2-3.3 1-.6 3.8 2.7v-.1l-.3-4.6 1-.6.2 6.2-.5.3Zm-88.2-29.9.3-.5 6.2.3-.6 1-4.6-.4 2.6 3.9-.6 1-3.3-5.3Zm12.3.1-7.7 7.7-.8-.5 7.7-7.6.8.4Zm3 8.8-6.2-.3.6-1 4.6.4v-.1l-2.6-3.8.6-1 3.3 5.2-.3.6Zm2 1.2.4-.6 6.2.3-.6 1-4.6-.4v.1l2.6 3.8-.6 1-3.3-5.2Zm12.4 0-7.7 7.7-.8-.4 7.7-7.7.8.5Zm3 8.8-6.2-.3.6-1 4.7.4h-.1v-.1l-2.6-3.8.6-1 3.3 5.2-.3.6Z"/>
  <path d="M126.5 134.4v-5.6h1v5.6h-1Zm-2.4-2.3v-1h5.7v1H124Zm11.5-1.3v1h-3.8v-1h3.8Zm-34.3 38.3-1.4-5.4.9-.3 1.4 5.5-.9.2Zm-2.8-1.6-.3-1 5.4-1.4.3 1-5.4 1.4Zm10.7-4.2.2.9-3.7 1-.2-1 3.7-1Zm-23.5 46.8-2.8-4.8.8-.5 2.8 4.9-.8.4Zm-3.2-.8-.5-.8 5-2.9.4.9-4.9 2.8Zm9.3-6.8.5.8-3.3 1.9-.5-.8 3.3-2Zm-10.3 51.1-4-4 .7-.6 4 4-.7.6Zm-3.3 0-.7-.7 4-4 .7.7-4 4Zm7.2-9 .7.7-2.7 2.7-.7-.7 2.7-2.7Zm3.2 52.1-4.9-2.8.5-.8 4.9 2.8-.5.8Zm-3.2.8-.8-.4 2.8-4.9.8.5-2.8 4.8ZM90 287l.8.5-1.9 3.3-.8-.5 2-3.3Zm17 48.6-5.5-1.5.2-.9 5.5 1.5-.3.9Zm-3 1.6-.9-.2 1.5-5.4 1 .2-1.5 5.4Zm1.8-11.3.9.2-1 3.7-1-.2 1-3.7Zm28.6 43.6h-5.6v-1h5.6v1Zm-2.3 2.4h-1v-5.7h1v5.7Zm-1.3-11.5h1v3.8h-1v-3.8Zm38.3 34.3-5.4 1.4-.3-.9 5.5-1.4.2.9Zm-1.6 2.9-1 .2-1.4-5.4 1-.3 1.4 5.4Zm-4.2-10.8.9-.2 1 3.7-1 .2-1-3.7Zm46.8 23.5-4.8 2.8-.5-.8 4.9-2.8.4.8Zm-.8 3.2-.8.5-2.9-5 .9-.4 2.8 4.9Zm-6.8-9.3.8-.5 1.9 3.3-.8.5-2-3.3Zm51.1 10.3-4 4-.6-.7 4-4 .6.7Zm0 3.3-.7.7-4-4 .7-.7 4 4Zm-9-7.2.7-.7 2.7 2.7-.7.7-2.7-2.7Zm52.1-3.2-2.8 4.9-.8-.5 2.8-4.9.8.5Zm.8 3.2-.4.8-4.9-2.8.5-.8 4.8 2.8ZM287 406l.5-.8 3.3 1.9-.5.8-3.3-2Zm48.6-17-1.5 5.5-.9-.2 1.5-5.5.9.3Zm1.6 3-.2.9-5.4-1.5.2-1 5.4 1.5Zm-11.3-1.8.2-.9 3.7 1-.2 1-3.7-1Zm43.6-28.6v5.6h-1v-5.6h1Zm2.4 2.3v1h-5.7v-1h5.7Zm-11.5 1.3v-1h3.8v1h-3.8Zm34.3-39.3 1.4 5.4-.9.3-1.4-5.5.9-.2Zm2.9 1.6.2 1-5.4 1.4-.3-1 5.4-1.4Zm-10.8 4.2-.2-.9 3.7-1 .2 1-3.7 1Zm23.5-45.8 2.8 4.8-.8.5-2.8-4.9.8-.4Zm3.2.8.5.8-5 2.9-.4-.9 4.9-2.8Zm-9.3 6.8-.5-.8 3.3-1.9.5.8-3.3 2Zm10.3-51.1 4 4-.7.6-4-4 .7-.6Zm3.3 0 .7.7-4 4-.7-.7 4-4Zm-7.2 9-.7-.7 2.7-2.7.7.7-2.7 2.7Zm-3.2-52.1 4.9 2.8-.5.8-4.9-2.8.5-.8Zm3.2-.8.8.4-2.8 4.9-.8-.5 2.8-4.8ZM406 209l-.8-.5 1.9-3.3.8.5-2 3.3Zm-17-49.6 5.5 1.5-.2.9-5.5-1.5.3-.9Zm3-1.6.9.2-1.5 5.4-1-.2 1.5-5.4Zm-1.8 11.3-.9-.2 1-3.7 1 .2-1 3.7Zm-28.6-42.6h5.6v1h-5.6v-1Zm2.3-2.4h1v5.7h-1V124Zm1.3 11.5h-1v-3.8h1v3.8Zm-39.3-34.3 5.4-1.4.3.9-5.5 1.4-.2-.9Zm1.6-2.8 1-.3 1.4 5.4-1 .3-1.4-5.4Zm4.2 10.7-.9.2-1-3.7 1-.2 1 3.7Zm-45.8-23.5 4.8-2.8.5.8-4.9 2.8-.4-.8Zm.8-3.2.8-.5 2.9 5-.9.4-2.8-4.9Zm6.8 9.3-.8.5-1.9-3.3.8-.5 2 3.3Zm-51.1-10.3 4-4 .6.7-4 4-.6-.7Zm0-3.3.7-.7 4 4-.7.7-4-4Zm9 7.2-.7.7-2.7-2.7.7-.7 2.7 2.7Zm-52.1 3.2 2.8-4.9.8.5-2.8 4.9-.8-.5Zm-.8-3.2.4-.8 4.9 2.8-.5.8-4.8-2.8ZM209 90l-.5.8-3.3-1.9.5-.8 3.3 2Zm-49.6 17 1.5-5.5.9.2-1.5 5.5-.9-.3Zm-1.6-3 .2-.9 5.4 1.5-.2 1-5.4-1.5Zm11.3 1.8-.2.9-3.7-1 .2-1 3.7 1Z" opacity=".8"/>
  <path d="m101 99.9-2.8 10.4h-1l2.9-10.4h1Zm4.3 0-2.8 10.4h-1l2.9-10.4h.9Zm-45.6 59.4 1 10.8-.9.3-1-10.8 1-.3Zm4-1.4 1 10.7-.9.4-.9-10.8.9-.3ZM41 228.6l4.5 9.8-.7.6-4.6-9.8.7-.6Zm3.2-2.7 4.5 9.8-.7.6-4.5-9.8.7-.6Zm2.3 74.1 7.6 7.6-.4.8-7.7-7.6.5-.8Zm2.1-3.7 7.7 7.6-.5.8-7.6-7.6.4-.8Zm28.9 69.3 9.8 4.5-.1 1-9.8-4.6.1-1Zm.8-4.3L88 366l-.2 1-9.8-4.7.2-.9Zm49.8 55.3 10.8 1 .2.8-10.8-1-.2-.8Zm-.7-4.3 10.8 1 .1 1-10.8-1-.1-1Zm65.1 34.8 10.4-2.8.5.8-10.5 2.8-.4-.8Zm-2.2-3.7 10.5-2.8.5.8-10.5 2.8-.5-.8Zm74.5 10.8 8.8-6.2.7.6-8.8 6.2-.7-.6Zm-3.3-2.7 8.9-6.2.7.6-8.9 6.2-.7-.6Zm72.7-15.5 6.2-9 .9.4-6.2 8.9-.9-.4Zm-4-1.5 6.2-8.9.9.3-6.2 8.9-.9-.3Zm62.8-40.4 2.8-10.4h1l-2.9 10.4h-1Zm-4.3 0 2.8-10.4h1l-2.9 10.4h-.9Zm46.6-58.4-1-10.8.9-.3 1 10.8-1 .3Zm-4 1.4-1-10.7.9-.4.9 10.8-.9.3Zm22.7-70.7-4.5-9.8.7-.6 4.6 9.8-.7.6Zm-3.2 2.7-4.5-9.8.7-.6 4.5 9.8-.7.6Zm-3.3-75.1-7.6-7.6.4-.8 7.7 7.6-.5.8Zm-2.1 3.7-7.7-7.6.5-.8 7.6 7.6-.4.8Zm-27.9-68.3-9.8-4.5.1-1 9.8 4.6-.1 1Zm-.8 4.3L407 129l.2-1 9.8 4.7-.2.9Zm-49.8-55.3-10.8-1-.2-.8 10.8 1 .2.8Zm.7 4.3-10.8-1-.1-1 10.8 1 .1 1Zm-66.1-35.8-10.4 2.8-.5-.8 10.5-2.8.4.8Zm2.2 3.7-10.5 2.8-.5-.8 10.5-2.8.5.8Zm-73.5-9.8-8.8 6.2-.7-.6 8.8-6.2.7.6Zm3.3 2.7-8.9 6.2-.7-.6 8.9-6.2.7.6ZM160.8 59l-6.2 9-.9-.4 6.2-8.9.9.4Zm4 1.5-6.2 8.9-.9-.3 6.2-8.9.9.3Z" opacity=".5"/>
  <path d="M72.4 80.3v-.5c.5 0 .8 0 1-.3.2-.2.3-.5.3-1v-1.4l.1-1 .4-.7.7-.4 1-.1v.8c-.3 0-.6 0-.7.2-.2 0-.4.2-.4.4l-.2.8v2.4l-.4.4c-.1.2-.3.3-.6.3l-1.2.1Zm3.5 5.5c-.4 0-.7 0-1-.2-.3 0-.5-.2-.7-.4l-.4-.7v-2.4c0-.4-.2-.8-.4-1-.2-.2-.5-.3-1-.3v-.5l1.2.1c.3 0 .5.2.6.3l.4.5v2.3c0 .3 0 .6.2.8 0 .2.2.4.4.5l.7.1v.9Zm-3.5-5v-1h1v1h-1ZM44 118v-.4c.4-.1.7-.3.9-.5v-1l-.2-1.4-.1-1 .2-.8.6-.5 1-.4.2.9c-.3 0-.6.1-.8.3l-.3.5.1.8.3 1.7v.6c0 .2 0 .4-.2.5 0 .2-.3.3-.6.5l-1 .3Zm4.5 4.7-1 .1c-.3 0-.6-.1-.8-.3l-.5-.6-.3-1-.2-1.3c-.1-.5-.3-.8-.5-1h-1l-.1-.5 1-.2.8.2.4.4.2.6.3 1.7.3.7c.1.2.3.4.5.4h.8l.1.8Zm-4.3-4.1-.2-1 1-.2.1 1-1 .2Zm-21.6 41.9-.2-.5c.4-.1.7-.4.8-.6.1-.3 0-.6-.1-1l-.5-1.3-.3-1v-.8l.5-.6 1-.6.3.8c-.4.1-.6.3-.7.5l-.2.5c0 .3 0 .5.2.8l.7 1.6.1.6-.1.6-.5.5-1 .5Zm5.3 3.7-1 .3-.8-.1-.6-.5-.5-1-.5-1.2c-.2-.4-.4-.7-.7-.8h-1l-.2-.4 1-.3h.8c.2 0 .3.2.5.3l.3.5.6 1.6.5.7c.1.2.3.3.5.3s.5 0 .8-.2l.3.8Zm-5.1-3.2-.4-1 1-.3.3.9-1 .4ZM10 205.7l-.3-.5c.4-.2.6-.5.7-.8 0-.2 0-.6-.4-1l-.7-1-.5-1c0-.3-.1-.5 0-.8 0-.2 0-.5.3-.7.2-.2.4-.5.8-.7l.4.7-.5.5c-.1.2-.2.4-.1.7l.4.7.9 1.4.3.6v.5l-.4.7-.9.7Zm6 2.6c-.4.2-.7.4-1 .4-.3.1-.6.1-.8 0a1 1 0 0 1-.7-.3l-.7-.8-.7-1.1c-.3-.4-.6-.6-.8-.7-.3 0-.6 0-1 .3l-.3-.4 1-.6.7-.1c.2 0 .4 0 .5.2l.4.5 1 1.4.5.6.6.2.8-.3.4.7Zm-5.7-2.2-.6-.9.8-.5.6.8-.8.6Zm-4.1 46.5-.4-.4c.4-.3.5-.6.5-1 0-.2-.1-.5-.5-.8l-1-1-.6-.8-.2-.7c0-.3 0-.6.2-.8l.6-.9.6.6-.4.7v.6l.5.7 1.2 1.2.4.5v.5c0 .2 0 .5-.2.7-.1.3-.4.6-.7.9Zm6.3 1.4-.8.6-.8.2-.8-.3a4 4 0 0 1-.8-.6l-1-1c-.3-.3-.6-.5-.8-.5-.3 0-.6.2-1 .5l-.3-.3.9-.8.6-.2h.6l.5.5 1.2 1.2.7.5h.6c.2 0 .4-.2.6-.4l.6.6Zm-6-1-.7-.8.7-.7.8.7-.7.7Zm5.7 47.3-.5-.3c.3-.4.4-.8.3-1 0-.3-.2-.6-.6-.8l-1.2-.8-.7-.6-.4-.7c-.1-.3 0-.5 0-.8 0-.3.2-.6.5-1l.7.5-.3.7.1.6.6.6 1.5 1 .4.3.2.5v.8l-.6 1Zm6.4 0c-.2.4-.4.7-.7.9a1 1 0 0 1-.7.3h-.8l-.9-.5-1.1-.8c-.4-.3-.7-.4-1-.3-.3 0-.5.2-.8.6l-.5-.3.8-.8c.2-.2.4-.4.6-.4h.6l.5.2 1.4 1c.3.2.5.3.8.3h.6c.2-.1.4-.3.5-.6l.7.5Zm-6 .2-.9-.5.6-.9.8.6-.5.8Zm14.3 44.3-.5-.2c.2-.5.2-.8 0-1 0-.3-.3-.5-.7-.7l-1.3-.5-.9-.5-.5-.6-.1-.8c0-.3 0-.7.3-1l.7.3c-.1.3-.2.5-.1.8 0 .2 0 .4.3.5.1.2.4.3.7.4l1.5.7.6.3.3.5v.7l-.3 1Zm6.3-1.2-.5 1-.6.4c-.3.1-.5.1-.8 0a4 4 0 0 1-1-.2l-1.3-.5c-.4-.2-.8-.2-1-.1-.3 0-.5.3-.7.8l-.5-.2.6-1c.1-.3.3-.4.5-.5.2-.1.4-.2.6-.1l.6.1 1.5.7.8.2c.3 0 .4 0 .6-.2l.5-.7.7.3Zm-5.9 1.4-1-.4.5-1 1 .4-.5 1Zm23 41.2-.6-.1v-1c-.2-.3-.5-.4-1-.5l-1.3-.3c-.4 0-.7-.2-1-.3a1 1 0 0 1-.6-.5 1 1 0 0 1-.3-.7v-1.1l.9.2v.8c0 .2.2.3.4.4.2.2.4.2.8.3l1.6.3c.3 0 .4.2.6.3.2 0 .3.2.4.4l.2.7-.1 1Zm6-2.4c-.1.4-.2.8-.4 1a1 1 0 0 1-.5.6l-.8.2h-1l-1.3-.3h-1c-.3.2-.5.5-.6 1l-.5-.1c.1-.5.2-.8.4-1 0-.4.2-.6.4-.7l.5-.2h.6l1.7.3.8.1.6-.3.3-.7.8.1Zm-5.6 2.5-1-.2.2-1 1 .2-.2 1Zm29.6 35.3h-.5c0-.5 0-.8-.3-1-.2-.2-.5-.3-1-.3h-1.4l-1-.1-.7-.4-.4-.7-.1-1h.8c0 .3 0 .6.2.7 0 .2.2.4.4.4l.8.2h2.4l.4.4c.2.1.3.3.3.6l.1 1.2Zm5.5-3.5c0 .4 0 .7-.2 1 0 .3-.2.5-.4.7l-.7.4h-2.4c-.4 0-.8.2-1 .4-.2.2-.3.5-.3 1h-.5l.1-1.2c0-.3.2-.5.3-.6l.5-.4h2.3c.3 0 .6 0 .8-.2.2 0 .4-.2.5-.4l.1-.7h.9Zm-5 3.5h-1v-1h1v1ZM118 451h-.4a2 2 0 0 0-.5-.9c-.2-.1-.6-.2-1 0l-1.4.2a4 4 0 0 1-1 .1l-.8-.2-.5-.6-.4-1 .9-.2c0 .3.1.6.3.8l.5.3.8-.1 1.7-.3h.6c.2 0 .4 0 .5.2.2 0 .3.3.5.6l.3 1Zm4.7-4.5.1 1c0 .3-.1.6-.3.8l-.6.5-1 .3-1.3.2c-.5.1-.8.3-1 .5v1l-.5.1-.2-1 .2-.8.4-.4.6-.2 1.7-.3.7-.3c.2-.1.4-.3.4-.5v-.8l.8-.1Zm-4.1 4.3-1 .2-.2-1 1-.1.2 1Zm41.9 21.6-.5.2c-.1-.4-.4-.7-.6-.8-.3-.1-.6 0-1 .1l-1.3.5-1 .3h-.8l-.6-.5-.6-1 .8-.3c.1.4.3.6.5.7l.5.2c.3 0 .5 0 .8-.2l1.6-.7.6-.1.6.1.5.5.5 1Zm3.7-5.3.3 1-.1.8-.5.6-1 .5-1.2.5c-.4.2-.7.4-.8.7v1l-.4.2-.3-1v-.8c0-.2.2-.3.3-.5l.5-.3 1.6-.6.7-.5c.2-.1.3-.3.3-.5s0-.5-.2-.8l.8-.3Zm-3.2 5.1-1 .4-.3-1 .9-.3.4 1Zm44.7 12.8-.5.3c-.2-.4-.5-.6-.8-.7-.2 0-.6 0-1 .4l-1 .7-1 .5c-.3 0-.5.1-.8 0-.2 0-.5 0-.7-.3-.2-.2-.5-.4-.7-.8l.7-.4.5.5c.2.1.4.2.7.1l.7-.4 1.4-.9.6-.3h.5l.7.4.7.9Zm2.6-6c.2.4.4.7.4 1 .1.3.1.6 0 .8 0 .3-.1.5-.3.7l-.8.7-1.1.7c-.4.3-.6.6-.7.8 0 .3 0 .6.3 1l-.4.3-.6-1-.1-.7c0-.2 0-.4.2-.5l.5-.4 1.4-1 .6-.5.2-.6-.3-.8.7-.4Zm-2.2 5.7-.9.6-.5-.8.8-.6.6.8Zm46.5 4.1-.4.4c-.3-.4-.6-.5-1-.5-.2 0-.5.1-.8.5l-1 1-.8.6-.7.2c-.3 0-.6 0-.8-.2l-.9-.6.6-.6.7.4h.6l.7-.5 1.2-1.2.5-.4h.5c.2 0 .5 0 .7.2.3.1.6.4.9.7Zm1.4-6.3.6.8.2.8-.3.8a4 4 0 0 1-.6.8l-1 1c-.3.3-.5.6-.5.8 0 .3.2.6.5 1l-.3.3-.8-.9-.2-.6v-.6l.5-.5 1.2-1.2.5-.7v-.6c0-.2-.2-.4-.4-.6l.6-.6Zm-1 6-.8.7-.7-.7.7-.8.7.7Zm47.3-5.7-.3.5c-.4-.3-.8-.4-1-.3-.3 0-.6.2-.8.6l-.8 1.2-.6.7-.7.4c-.3.1-.5 0-.8 0-.3 0-.6-.2-1-.5l.5-.7.7.3.6-.1.6-.6 1-1.5c0-.2.2-.3.3-.4l.5-.2h.8l1 .6Zm0-6.4c.4.2.7.4.9.7.2.2.3.4.3.7v.8l-.5.9-.8 1.1c-.3.4-.4.7-.3 1 0 .3.2.5.6.8l-.3.5-.8-.8c-.2-.2-.4-.4-.4-.6v-.6l.2-.5 1-1.4c.2-.3.3-.5.3-.8v-.6a1 1 0 0 0-.6-.5l.5-.7Zm.2 6-.5.9-.9-.6.6-.8.8.5Zm44.3-14.3-.2.5c-.5-.2-.8-.2-1 0-.3 0-.5.3-.7.7l-.5 1.3-.5.9-.6.5-.8.1c-.3 0-.7 0-1-.3l.3-.7c.3.1.5.2.8.1.2 0 .4 0 .5-.3.2-.1.3-.4.4-.7l.7-1.5.3-.6.5-.3h.7l1 .3Zm-1.2-6.3 1 .5.4.6c.1.3.1.5 0 .8 0 .3 0 .7-.2 1l-.5 1.3c-.2.4-.2.8-.1 1 0 .3.3.5.8.7l-.2.5-1-.6c-.3-.1-.4-.3-.5-.5a1 1 0 0 1-.1-.6l.1-.6.7-1.5.2-.8c0-.3 0-.4-.2-.6l-.7-.5.3-.7Zm1.4 5.9-.4 1-1-.5.4-1 1 .5Zm41.2-23-.1.6h-1c-.3.2-.4.5-.5 1l-.3 1.3c0 .4-.2.7-.3 1a1 1 0 0 1-.5.6 1 1 0 0 1-.7.3h-1.1l.2-.9h.8c.2 0 .3-.2.4-.4.2-.2.2-.4.3-.8l.3-1.6c0-.3.2-.4.3-.6 0-.2.2-.3.4-.4l.7-.2 1 .1Zm-2.4-6c.4.1.8.2 1 .4.3.1.5.3.6.5l.2.8v1l-.3 1.3v1c.2.3.5.5 1 .6l-.1.5c-.5-.1-.8-.2-1-.4-.4 0-.6-.2-.7-.4a1 1 0 0 1-.2-.5v-.6l.3-1.7.1-.8c0-.2-.1-.4-.3-.5l-.7-.4.1-.8Zm2.5 5.6-.2 1-1-.2.2-1 1 .2Zm35.3-30.6v.5c-.5 0-.8 0-1 .3-.2.2-.3.5-.3 1v1.4l-.1 1-.4.7-.7.4-1 .1v-.8c.3 0 .6 0 .7-.2.2 0 .4-.2.4-.4l.2-.8v-2.4l.4-.4c.1-.2.3-.3.6-.3l1.2-.1Zm-3.5-5.5c.4 0 .7 0 1 .2.3 0 .5.2.7.4l.4.7v2.4c0 .4.2.8.4 1 .2.2.5.3 1 .3v.5l-1.2-.1c-.3 0-.5-.2-.6-.3a1 1 0 0 1-.4-.5v-2.3c0-.3 0-.6-.2-.8 0-.2-.2-.4-.4-.5l-.7-.1v-.9Zm3.5 5v1h-1v-1h1ZM451 377v.4a2 2 0 0 0-.9.5c-.1.2-.2.6 0 1l.2 1.4.1 1-.2.8-.6.5-1 .4-.2-.9c.3 0 .6-.1.8-.3l.3-.5-.1-.8-.3-1.7v-.6c0-.2 0-.4.2-.5 0-.2.3-.3.6-.5l1-.3Zm-4.5-4.7 1-.1c.3 0 .6.1.8.3l.5.6.3 1 .2 1.3c.1.5.3.8.5 1h1l.1.5-1 .2-.8-.2a1 1 0 0 1-.4-.4 2 2 0 0 1-.2-.6l-.3-1.7-.3-.7a.9.9 0 0 0-.5-.4h-.8l-.1-.8Zm4.3 4.1.2 1-1 .2-.1-1 1-.2Zm21.6-41.9.2.5c-.4.1-.7.4-.8.6-.1.3 0 .6.1 1l.5 1.3.3 1v.8l-.5.6-1 .6-.3-.8c.4-.1.6-.3.7-.5l.2-.5c0-.3 0-.5-.2-.8l-.7-1.6a2 2 0 0 1-.1-.6l.1-.6.5-.5 1-.5Zm-5.3-3.7 1-.3.8.1.6.5.5 1 .5 1.2c.2.4.4.7.7.8h1l.2.4-1 .3h-.8a1 1 0 0 1-.5-.3 2 2 0 0 1-.3-.5l-.6-1.6-.5-.7a.9.9 0 0 0-.5-.3c-.2 0-.5 0-.8.2l-.3-.8Zm5.1 3.2.4 1-1 .3-.3-.9 1-.4Zm12.8-44.7.3.5c-.4.2-.6.5-.7.8 0 .2 0 .6.4 1l.7 1 .5 1c0 .3.1.5 0 .8 0 .2 0 .5-.3.7-.2.2-.4.5-.8.7l-.4-.7.5-.5c.1-.2.2-.4.1-.7l-.4-.7-.9-1.4a2 2 0 0 1-.3-.6v-.6l.4-.6.9-.7Zm-6-2.6c.4-.2.7-.4 1-.4.3-.1.6-.1.8 0 .3 0 .5.1.7.3l.7.8.7 1.1c.3.4.6.6.8.7.3 0 .6 0 1-.3l.3.4-1 .6-.7.1a1 1 0 0 1-.5-.2 2 2 0 0 1-.4-.5l-1-1.4-.5-.6a.9.9 0 0 0-.6-.2l-.8.3-.4-.7Zm5.7 2.2.6.9-.8.5-.6-.8.8-.6Zm4.1-47.5.4.4c-.4.3-.5.6-.5 1 0 .2.1.5.5.8l1 1 .6.8.2.7c0 .3 0 .6-.2.8l-.6.9-.6-.6.4-.7v-.6l-.5-.7-1.2-1.2a2 2 0 0 1-.4-.5 1 1 0 0 1 0-.5c0-.2 0-.5.2-.7.1-.3.4-.6.7-.9Zm-6.3-1.4.8-.6.8-.2.8.3.8.6 1 1c.3.3.6.5.8.5.3 0 .6-.2 1-.5l.3.3-.9.8-.6.2a1 1 0 0 1-.6 0 2 2 0 0 1-.5-.5l-1.2-1.2-.7-.5a.9.9 0 0 0-.6 0c-.2 0-.4.2-.6.4l-.6-.6Zm6 1 .7.8-.7.7-.8-.7.7-.7Zm-5.7-46.3.5.3c-.3.4-.4.8-.3 1 0 .3.2.6.6.8l1.2.8.7.6.4.7c.1.3 0 .5 0 .8 0 .3-.2.6-.5 1l-.7-.5.3-.7-.1-.6-.6-.6-1.5-1a2 2 0 0 1-.4-.3 1 1 0 0 1-.2-.5v-.8l.6-1Zm-6.4 0c.2-.4.4-.7.7-.9.2-.2.4-.3.7-.3h.8l.9.5 1.1.8c.4.3.7.4 1 .3.3 0 .5-.2.8-.6l.5.3-.8.8c-.2.2-.4.4-.6.4a1 1 0 0 1-.6 0 2 2 0 0 1-.5-.2l-1.4-1c-.3-.2-.5-.3-.8-.3h-.6a1 1 0 0 0-.5.6l-.7-.5Zm6-.2.9.5-.6.9-.8-.6.5-.8Zm-14.3-44.3.5.2c-.2.5-.2.8 0 1 0 .3.3.5.7.7l1.3.5.9.5.5.6.1.8c0 .3 0 .7-.3 1l-.7-.3c.1-.3.2-.5.1-.8 0-.2 0-.4-.3-.5-.1-.2-.4-.3-.7-.4l-1.5-.7a2 2 0 0 1-.6-.3 1 1 0 0 1-.3-.5v-.7l.3-1Zm-6.3 1.2.5-1 .6-.4c.3-.1.5-.1.8 0 .3 0 .7 0 1 .2l1.3.5c.4.2.8.2 1 .1.3 0 .5-.3.7-.8l.5.2-.6 1c-.1.3-.3.4-.5.5a1 1 0 0 1-.6.1 2 2 0 0 1-.6-.1l-1.5-.7-.8-.2c-.3 0-.4 0-.6.2l-.5.7-.7-.3Zm5.9-1.4 1 .4-.5 1-1-.4.5-1Zm-23-41.2.6.1v1c.2.3.5.4 1 .5l1.3.3c.4 0 .7.2 1 .3.3.1.5.3.6.5.2.2.3.4.3.7v1.1l-.9-.2v-.8c0-.2-.2-.3-.4-.4-.2-.2-.4-.2-.8-.3l-1.6-.3a2 2 0 0 1-.6-.3 1 1 0 0 1-.4-.4l-.2-.7.1-1Zm-6 2.4c.1-.4.2-.8.4-1 .1-.3.3-.5.5-.6l.8-.2h1l1.3.3h1c.3-.2.5-.5.6-1l.5.1c-.1.5-.2.8-.4 1 0 .4-.2.6-.4.7a1 1 0 0 1-.5.2 2 2 0 0 1-.6 0l-1.7-.4h-.8c-.2 0-.4.1-.5.3l-.4.7-.8-.1Zm5.6-2.5 1 .2-.2 1-1-.2.2-1Zm-30.6-36.3h.5c0 .5 0 .8.3 1 .2.2.5.3 1 .3h1.4l1 .1.7.4.4.7.1 1h-.8c0-.3 0-.6-.2-.7a.9.9 0 0 0-.4-.4l-.8-.2H415a2 2 0 0 1-.6 0 1 1 0 0 1-.4-.4c-.2-.1-.3-.3-.3-.6l-.1-1.2Zm-5.5 3.5c0-.4 0-.7.2-1 0-.3.2-.5.4-.7l.7-.4h2.4c.4 0 .8-.2 1-.4.2-.2.3-.5.3-1h.5l-.1 1.2c0 .3-.2.5-.3.6a1 1 0 0 1-.5.4 2 2 0 0 1-.6 0h-1.7c-.3 0-.6 0-.8.2-.2 0-.4.2-.5.4l-.1.7h-.9Zm5-3.5h1v1h-1v-1ZM377 44h.4c.1.4.3.7.5.9h1l1.4-.2 1-.1.8.2.5.6.4 1-.9.2c0-.3-.1-.6-.3-.8a.9.9 0 0 0-.5-.3l-.8.1-1.7.3a2 2 0 0 1-.6 0 1 1 0 0 1-.5-.2c-.2 0-.3-.3-.5-.6l-.3-1Zm-4.7 4.5-.1-1c0-.3.1-.6.3-.8l.6-.5 1-.3 1.3-.2c.5-.1.8-.3 1-.5v-1l.5-.1.2 1-.2.8a1 1 0 0 1-.4.4 2 2 0 0 1-.6.2l-1.7.3-.7.3c-.2.1-.4.3-.4.5v.8l-.8.1Zm4.1-4.3 1-.2.2 1-1 .1-.2-1Zm-41.9-21.6.5-.2c.1.4.4.7.6.8.3.1.6 0 1-.1l1.3-.5 1-.3h.8l.6.5.6 1-.8.3c-.1-.4-.3-.6-.5-.7a.9.9 0 0 0-.5-.2c-.3 0-.5 0-.8.2l-1.6.7a2 2 0 0 1-.6.1 1 1 0 0 1-.6-.1l-.5-.5-.5-1Zm-3.7 5.3-.3-1 .1-.8.5-.6 1-.5 1.2-.5c.4-.2.7-.4.8-.7v-1l.4-.2.3 1v.8c0 .2-.2.3-.3.5a2 2 0 0 1-.5.3l-1.6.6-.7.5c-.2.1-.3.3-.3.5s0 .5.2.8l-.8.3Zm3.2-5.1 1-.4.3 1-.9.3-.4-1ZM289.3 10l.5-.3c.2.4.5.6.8.7.2 0 .6 0 1-.4l1-.7 1-.5c.3 0 .5-.1.8 0 .2 0 .5 0 .7.3.2.2.5.4.7.8l-.7.4-.5-.5a.9.9 0 0 0-.7-.1l-.7.4-1.4.9a2 2 0 0 1-.6.3 1 1 0 0 1-.6 0l-.6-.4-.7-.9Zm-2.6 6c-.2-.4-.4-.7-.4-1-.1-.3-.1-.6 0-.8 0-.3.1-.5.3-.7l.8-.7 1.1-.7c.4-.3.6-.6.7-.8 0-.3 0-.6-.3-1l.4-.3.6 1 .1.7c0 .2 0 .4-.2.5a2 2 0 0 1-.5.4l-1.4 1-.6.5-.2.6.3.8-.7.4Zm2.2-5.7.9-.6.5.8-.8.6-.6-.8Zm-47.5-4.1.4-.4c.3.4.6.5 1 .5.2 0 .5-.1.8-.5l1-1 .8-.6.7-.2c.3 0 .6 0 .8.2l.9.6-.6.6-.7-.4h-.6l-.7.5-1.2 1.2a2 2 0 0 1-.5.4 1 1 0 0 1-.5 0c-.2 0-.5 0-.7-.2-.3-.1-.6-.4-.9-.7Zm-1.4 6.3-.6-.8-.2-.8.3-.8.6-.8 1-1c.3-.3.5-.6.5-.8 0-.3-.2-.6-.5-1l.3-.3.8.9.2.6v.6l-.5.5-1.2 1.2-.5.7v.6c0 .2.2.4.4.6l-.6.6Zm1-6 .8-.7.7.7-.7.8-.7-.7Zm-46.3 5.7.3-.5c.4.3.8.4 1 .3.3 0 .6-.2.8-.6l.8-1.2.6-.7.7-.4c.3-.1.5 0 .8 0 .3 0 .6.2 1 .5l-.5.7-.7-.3-.6.1-.6.6-1 1.5a2 2 0 0 1-.3.4 1 1 0 0 1-.5.2h-.8l-1-.6Zm0 6.4c-.4-.2-.7-.4-.9-.7a1 1 0 0 1-.3-.7v-.8l.5-.9.8-1.1c.3-.4.4-.7.3-1 0-.3-.2-.5-.6-.8l.3-.5.8.8c.2.2.4.4.4.6v.6l-.2.5-1 1.4c-.2.3-.3.5-.3.8v.6c.1.2.3.4.6.5l-.5.7Zm-.2-6 .5-.9.9.6-.6.8-.8-.5Zm-44.3 14.3.2-.5c.5.2.8.2 1 0 .3 0 .5-.3.7-.7l.5-1.3.5-.9.6-.5.8-.1c.3 0 .7 0 1 .3l-.3.7c-.3-.1-.5-.2-.8-.1-.2 0-.4 0-.5.3-.2.1-.3.4-.4.7l-.7 1.5-.3.6a1 1 0 0 1-.5.3h-.7l-1-.3Zm1.2 6.3-1-.5-.4-.6c-.1-.3-.1-.5 0-.8 0-.3 0-.7.2-1l.5-1.3c.2-.4.2-.8.1-1 0-.3-.3-.5-.8-.7l.2-.5 1 .6c.3.1.4.3.5.5.1.2.2.4.1.6l-.1.6-.7 1.5-.2.8c0 .3 0 .4.2.6l.7.5-.3.7Zm-1.4-5.9.4-1 1 .5-.4 1-1-.5Zm-41.2 23 .1-.6h1c.3-.2.4-.5.5-1l.3-1.3c0-.4.2-.7.3-1 .1-.3.3-.5.5-.6.2-.2.4-.3.7-.3h1.1l-.2.9h-.8c-.2 0-.3.2-.4.4-.2.2-.2.4-.3.8l-.3 1.6c0 .3-.2.4-.3.6 0 .2-.2.3-.4.4l-.7.2-1-.1Zm2.4 6c-.4-.1-.8-.2-1-.4a1 1 0 0 1-.6-.5l-.2-.8v-1l.3-1.3v-1c-.2-.3-.5-.5-1-.6l.1-.5c.5.1.8.2 1 .4.4 0 .6.2.7.4l.2.5v.6l-.4 1.7v.8l.3.6.7.3-.1.8Zm-2.5-5.6.2-1 1 .2-.2 1-1-.2Z" opacity=".3"/>
</svg>