<svg xmlns="http://www.w3.org/2000/svg" viewBox="0 0 236 30">
    <path d="M0 0h10v10h10V0h10v30H20V20H10v10H0V0z"/>
    <path fill-rule="evenodd" d="M50 30a15 15 0 100-30 15 15 0 000 30zm0-10a5 5 0 100-10 5 5 0 000 10zM93.4 3.3a10 10 0 01-1.9 15L96 30H86l-3.8-10H80v10H70V0h17a10 10 0 016.4 3.3zM80 12h4a2 2 0 000-4h-4v4zM116 30a15 15 0 100-30 15 15 0 000 30zm0-10a5 5 0 100-10 5 5 0 000 10z" clip-rule="evenodd"/>
    <path d="M151 8l-15-8v30h10V17l5 3 5-3v13h10V0l-15 8z"/>
    <path fill-rule="evenodd" d="M182 0h8l11 30h-10l-1-2h-8l-1 2h-10l11-30zm4 17l2 4h-4l2-4z" clip-rule="evenodd"/>
    <path d="M216 0h-10v30h10V16l10 14h10V0h-10v14L216 0z"/>
</svg>