<svg xmlns="http://www.w3.org/2000/svg" fill="none" viewBox="0 0 622 75">
  <path d="M0 0h75v75H0z"/>
  <path fill="#fff" fill-opacity=".3" d="M0 0h75v37.5H0z"/>
  <path fill-rule="evenodd" d="M124.5 75a37.5 37.5 0 1 0 0-75 37.5 37.5 0 0 0 0 75Z" clip-rule="evenodd"/>
  <path fill="#fff" fill-opacity=".3" d="M87 37.5h75a37.5 37.5 0 1 0-75 0Z"/>
  <path d="M249 25a25 25 0 0 1-25 25l25 25h-75V0h50a25 25 0 0 1 25 25Z"/>
  <path fill="#fff" fill-opacity=".3" d="M174 0h50a25 25 0 0 1 0 50L174 0Z"/>
  <path fill="#fff" fill-opacity=".3" d="M224 0v50a25 25 0 0 0 0-50Z"/>
  <path fill-rule="evenodd" d="M298.5 75a37.5 37.5 0 1 0 0-75 37.5 37.5 0 0 0 0 75Z" clip-rule="evenodd"/>
  <path fill="#fff" fill-opacity=".3" d="M261 37.5h75a37.5 37.5 0 1 0-75 0Z"/>
  <path d="M398 25 385.5 0 348 75h100L410.5 0 398 25Z"/>
  <path fill="#fff" fill-opacity=".3" d="M398 25 385.5 0 348 75h25l25-50Z"/>
  <path fill-rule="evenodd" d="M497.5 0 535 75h-75l37.5-75Z" clip-rule="evenodd"/>
  <path d="M547 0h75v75h-75V0Z"/>
  <path fill="#fff" fill-opacity=".3" fill-rule="evenodd" d="M547 0h75v75L547 0Z" clip-rule="evenodd"/>
</svg>