<svg fill="none" xmlns="http://www.w3.org/2000/svg" viewBox="0 0 900 470"><g clip-path="url(#clip0)"><g clip-path="url(#clip1)" opacity=".03"><g clip-path="url(#clip2)" fill-rule="evenodd" clip-rule="evenodd" fill="#000" opacity=".12"><path d="M286.169 688.702l20.917-12.077 12.269 21.25 20.917-12.077-12.269-21.249 20.917-12.076 36.806 63.748-20.917 12.076-12.269-21.249-20.917 12.076 12.269 21.25-20.917 12.076-36.806-63.748zm141.391 3.366c17.328-10.004 23.136-32.385 12.973-49.989-10.164-17.603-32.45-23.764-49.779-13.759-17.328 10.004-23.136 32.385-12.972 49.989 10.163 17.603 32.449 23.764 49.778 13.759zm-7.944-37.912c3.387 5.868 1.451 13.328-4.325 16.663-5.776 3.334-13.205 1.281-16.592-4.587-3.388-5.868-1.452-13.328 4.324-16.663 5.776-3.335 13.205-1.281 16.593 4.587zm79.625-60.139c-6.3-10.913-19.714-15.354-31.032-10.274l-.062-.106-35.558 20.53 36.805 63.748 20.917-12.076-12.269-21.25 4.498-2.596 20.321 16.6 20.917-12.077-23.697-19.354c3.591-7.315 3.276-16.008-.84-23.145zm-31.013 23.573l8.366-4.831c2.311-1.334 3.085-4.318 1.73-6.665-1.355-2.347-4.326-3.169-6.637-1.835l-8.367 4.831 4.908 8.5zm97.384-5.226c17.328-10.005 23.137-32.386 12.973-49.989-10.163-17.604-32.45-23.764-49.778-13.76-17.328 10.004-23.137 32.385-12.973 49.989 10.163 17.604 32.45 23.764 49.778 13.76zm-7.944-37.913c3.388 5.868 1.452 13.328-4.324 16.663-5.776 3.335-13.205 1.281-16.593-4.587-3.388-5.867-1.452-13.328 4.324-16.662 5.776-3.335 13.205-1.282 16.593 4.586zm12.973-49.989l41.19-1.115 21.561-35.114 36.805 63.748-20.917 12.077-15.949-27.625-6.778 12.413-14.139-.336 15.949 27.624-20.917 12.077-36.805-63.749zm112.952-65.213l-16.734 9.661 13.797 77.033 20.917-12.076-.362-5.458 16.733-9.661 4.546 3.042 20.917-12.076-59.814-50.465zm12.489 40.955l9.005 5.936-8.367 4.83-.638-10.766zm41.895-72.354l-20.917 12.077 36.805 63.748 20.917-12.076-17.175-29.749 38.092 17.673 20.917-12.077-36.805-63.748-20.917 12.076 17.176 29.749-38.093-17.673z"/><path opacity=".403" d="M794.522 395.204l20.917-12.076 12.269 21.249 20.917-12.076-12.268-21.25 20.917-12.076 36.805 63.748-20.917 12.077-12.269-21.25-20.917 12.077 12.269 21.249-20.917 12.077-36.806-63.749zm141.391 3.366c17.328-10.004 23.136-32.385 12.973-49.989-10.164-17.603-32.45-23.764-49.778-13.759-17.329 10.004-23.137 32.385-12.973 49.989 10.163 17.603 32.45 23.764 49.778 13.759zm-7.944-37.912c3.388 5.868 1.452 13.328-4.325 16.663-5.776 3.335-13.204 1.281-16.592-4.587-3.388-5.868-1.452-13.328 4.324-16.663 5.776-3.335 13.205-1.281 16.593 4.587zm79.621-60.138c-6.3-10.914-19.71-15.355-31.028-10.275l-.061-.106-35.559 20.53 36.805 63.748 20.917-12.076-12.268-21.25 4.497-2.596 20.317 16.6 20.92-12.076-23.7-19.355c3.6-7.315 3.28-16.008-.84-23.144zm-31.009 23.572l8.367-4.831c2.31-1.334 3.084-4.318 1.729-6.665-1.355-2.347-4.326-3.169-6.637-1.835l-8.367 4.831 4.908 8.5zm97.389-5.226c17.32-10.005 23.13-32.386 12.97-49.989-10.17-17.604-32.45-23.764-49.78-13.76-17.33 10.005-23.14 32.385-12.97 49.989 10.16 17.604 32.45 23.764 49.78 13.76zm-7.95-37.913c3.39 5.868 1.45 13.328-4.32 16.663-5.78 3.335-13.21 1.282-16.6-4.586-3.38-5.868-1.45-13.329 4.33-16.663 5.77-3.335 13.2-1.282 16.59 4.586zm12.97-49.989l41.19-1.115 21.57-35.114 36.8 63.748-20.92 12.077-15.95-27.625-6.77 12.414-14.14-.337 15.95 27.624-20.92 12.077-36.81-63.749zm112.96-65.213l-16.74 9.662 13.8 77.032 20.92-12.076-.37-5.458 16.74-9.661 4.54 3.042 20.92-12.076-59.81-50.465zm12.49 40.955l9 5.936-8.37 4.83-.63-10.766zm41.89-72.353l-20.92 12.076 36.81 63.749 20.92-12.077-17.18-29.749 38.09 17.673 20.92-12.077-36.81-63.748-20.91 12.076 17.17 29.749-38.09-17.672z"/></g><g clip-path="url(#clip3)" opacity=".25"><path fill-rule="evenodd" clip-rule="evenodd" d="M386.359 526.244l20.917-12.076 12.269 21.249 20.917-12.076-12.269-21.25 20.917-12.076 36.805 63.748-20.917 12.077-12.268-21.25-20.917 12.077 12.268 21.249-20.917 12.077-36.805-63.749zm141.39 3.367c17.329-10.005 23.137-32.386 12.973-49.989-10.163-17.604-32.449-23.764-49.778-13.76-17.328 10.005-23.136 32.385-12.973 49.989 10.164 17.604 32.45 23.764 49.778 13.76zm-7.944-37.913c3.388 5.868 1.452 13.328-4.324 16.663-5.776 3.335-13.205 1.281-16.593-4.586-3.387-5.868-1.451-13.329 4.325-16.663 5.776-3.335 13.205-1.282 16.592 4.586zm79.626-60.138c-6.3-10.913-19.714-15.354-31.032-10.275l-.062-.106-35.559 20.53 36.806 63.749 20.917-12.077-12.269-21.249 4.497-2.597 20.322 16.6 20.917-12.076-23.697-19.355c3.591-7.314 3.276-16.008-.84-23.144zm-31.014 23.572l8.367-4.831c2.311-1.333 3.085-4.318 1.73-6.665-1.355-2.347-4.327-3.168-6.637-1.834l-8.367 4.83 4.907 8.5zm97.385-5.226c17.328-10.005 23.136-32.385 12.973-49.989-10.164-17.604-32.45-23.764-49.778-13.76-17.329 10.005-23.137 32.386-12.973 49.989 10.163 17.604 32.45 23.764 49.778 13.76zm-7.944-37.913c3.388 5.868 1.452 13.329-4.325 16.663-5.776 3.335-13.204 1.282-16.592-4.586-3.388-5.868-1.452-13.328 4.324-16.663 5.776-3.335 13.205-1.281 16.593 4.586zm12.973-49.988l41.19-1.116 21.561-35.114 36.805 63.749L749.47 401.6l-15.949-27.624-6.778 12.413-14.139-.337 15.949 27.625-20.917 12.076-36.805-63.748zm112.952-65.213l-16.734 9.661 13.797 77.032 20.917-12.076-.362-5.458 16.733-9.661 4.546 3.043 20.917-12.077-59.814-50.464zm12.489 40.954l9.005 5.936-8.367 4.831-.638-10.767zm41.895-72.353l-20.917 12.076 36.805 63.749 20.917-12.077-17.176-29.749 38.093 17.673 20.917-12.077-36.805-63.748-20.917 12.076 17.176 29.75-38.093-17.673z" fill="#000"/></g><g clip-path="url(#clip4)" fill-rule="evenodd" clip-rule="evenodd" fill="#000" opacity=".5"><path d="M55.276 612.783l20.917-12.077 12.268 21.25 20.917-12.077L97.11 588.63l20.917-12.077 36.805 63.749-20.917 12.076-12.268-21.249-20.917 12.076 12.268 21.25-20.917 12.076-36.805-63.748zm141.39 3.366c17.328-10.005 23.137-32.385 12.973-49.989-10.163-17.604-32.45-23.764-49.778-13.76-17.328 10.005-23.136 32.386-12.973 49.989 10.164 17.604 32.45 23.764 49.778 13.76zm-7.944-37.913c3.388 5.868 1.452 13.328-4.324 16.663-5.776 3.335-13.205 1.282-16.593-4.586s-1.452-13.328 4.324-16.663c5.777-3.335 13.205-1.282 16.593 4.586zm79.626-60.138c-6.301-10.913-19.714-15.354-31.033-10.274l-.061-.107-35.559 20.53 36.805 63.749 20.917-12.077-12.268-21.249 4.497-2.596 20.322 16.6 20.917-12.077-23.697-19.354c3.591-7.315 3.275-16.008-.84-23.145zm-31.014 23.572l8.367-4.83c2.31-1.334 3.085-4.318 1.73-6.665-1.355-2.348-4.327-3.169-6.637-1.835l-8.367 4.831 4.907 8.499zm97.385-5.226c17.328-10.004 23.136-32.385 12.973-49.989-10.164-17.603-32.45-23.764-49.779-13.759-17.328 10.004-23.136 32.385-12.972 49.989 10.163 17.603 32.449 23.764 49.778 13.759zm-7.944-37.912c3.387 5.868 1.451 13.328-4.325 16.663-5.776 3.335-13.205 1.281-16.592-4.587-3.388-5.868-1.452-13.328 4.324-16.663 5.776-3.335 13.205-1.281 16.593 4.587zm12.973-49.989l41.19-1.115 21.561-35.115 36.805 63.749-20.917 12.076-15.949-27.624-6.778 12.413-14.139-.336 15.949 27.624-20.917 12.076-36.805-63.748zm112.951-65.213l-16.733 9.661 13.796 77.033 20.917-12.077-.362-5.457 16.734-9.661 4.545 3.042 20.917-12.077-59.814-50.464zm12.49 40.955l9.005 5.935-8.367 4.831-.638-10.766zm41.895-72.354l-20.917 12.077 36.805 63.748 20.917-12.076-17.176-29.75 38.093 17.673 20.917-12.076-36.805-63.749-20.917 12.077 17.176 29.749-38.093-17.673z"/><path opacity=".75" d="M563.629 319.285l20.917-12.077 12.268 21.25 20.917-12.077-12.268-21.249 20.917-12.077 36.805 63.749-20.917 12.076L630 337.631l-20.917 12.076 12.268 21.25-20.917 12.076-36.805-63.748zm141.39 3.366c17.329-10.005 23.137-32.385 12.973-49.989-10.163-17.604-32.45-23.764-49.778-13.76-17.328 10.005-23.136 32.386-12.973 49.989 10.164 17.604 32.45 23.764 49.778 13.76zm-7.944-37.913c3.388 5.868 1.452 13.329-4.324 16.663-5.776 3.335-13.205 1.282-16.593-4.586s-1.451-13.328 4.325-16.663c5.776-3.335 13.204-1.281 16.592 4.586zm79.626-60.138c-6.301-10.913-19.714-15.354-31.032-10.274l-.062-.106-35.559 20.53 36.805 63.748 20.917-12.076-12.268-21.25 4.497-2.596 20.322 16.6 20.917-12.077-23.697-19.354c3.591-7.315 3.275-16.008-.84-23.145zm-31.014 23.572l8.367-4.83c2.311-1.334 3.085-4.318 1.73-6.665-1.355-2.347-4.327-3.169-6.637-1.835l-8.367 4.831 4.907 8.499zm97.385-5.226c17.328-10.004 23.136-32.385 12.973-49.989-10.164-17.603-32.45-23.764-49.778-13.759-17.329 10.004-23.137 32.385-12.973 49.989 10.163 17.603 32.45 23.764 49.778 13.759zm-7.944-37.912c3.388 5.868 1.451 13.328-4.325 16.663-5.776 3.335-13.204 1.281-16.592-4.587-3.388-5.868-1.452-13.328 4.324-16.663 5.776-3.334 13.205-1.281 16.593 4.587zm12.973-49.989l41.19-1.115 21.561-35.114 36.805 63.748-20.917 12.077-15.949-27.625-6.778 12.413-14.139-.336 15.949 27.624-20.917 12.076-36.805-63.748zm112.952-65.213l-16.734 9.661 13.796 77.033 20.918-12.077-.362-5.457 16.733-9.661 4.546 3.042 20.92-12.077-59.817-50.464zm12.489 40.955l9.005 5.936-8.367 4.83-.638-10.766zm41.898-72.354L994.52 70.51l36.81 63.748 20.91-12.076-17.17-29.75 38.09 17.673 20.92-12.076-36.81-63.749-20.92 12.077 17.18 29.75-38.09-17.674z"/></g><g clip-path="url(#clip5)" fill-rule="evenodd" clip-rule="evenodd" fill="#000" opacity=".75"><path d="M261.125 389.323l20.917-12.077 12.268 21.25 20.917-12.077-12.268-21.249 20.917-12.076 36.805 63.748-20.917 12.076-12.269-21.249-20.917 12.076 12.269 21.25-20.917 12.076-36.805-63.748zm141.39 3.366c17.328-10.004 23.136-32.385 12.973-49.989-10.164-17.603-32.45-23.764-49.778-13.759-17.329 10.004-23.137 32.385-12.973 49.989 10.163 17.603 32.45 23.764 49.778 13.759zm-7.944-37.912c3.388 5.867 1.452 13.328-4.325 16.663-5.776 3.334-13.204 1.281-16.592-4.587-3.388-5.868-1.452-13.328 4.324-16.663 5.776-3.335 13.205-1.281 16.593 4.587zm79.625-60.139c-6.3-10.913-19.713-15.354-31.032-10.274l-.061-.106-35.559 20.53 36.805 63.748 20.917-12.076-12.268-21.25 4.497-2.596 20.321 16.6 20.917-12.077-23.696-19.354c3.591-7.315 3.275-16.008-.841-23.145zm-31.013 23.573l8.367-4.831c2.31-1.334 3.085-4.318 1.729-6.665-1.355-2.347-4.326-3.169-6.637-1.835l-8.367 4.831 4.908 8.5zm97.384-5.227c17.329-10.004 23.137-32.385 12.973-49.988-10.163-17.604-32.45-23.764-49.778-13.76-17.328 10.004-23.136 32.385-12.973 49.989 10.164 17.604 32.45 23.764 49.778 13.759zm-7.944-37.912c3.388 5.868 1.452 13.328-4.324 16.663-5.776 3.335-13.205 1.281-16.593-4.587-3.388-5.867-1.452-13.328 4.324-16.663 5.777-3.334 13.205-1.281 16.593 4.587zm12.973-49.989l41.19-1.115 21.561-35.114 36.805 63.748-20.917 12.077-15.949-27.625-6.778 12.413-14.139-.336 15.949 27.624-20.917 12.077-36.805-63.749zm112.952-65.213l-16.733 9.661 13.796 77.033 20.917-12.076-.362-5.458 16.734-9.661 4.545 3.042 20.917-12.076-59.814-50.465zm12.49 40.955l9.004 5.936-8.366 4.83-.638-10.766zm41.894-72.354l-20.917 12.077 36.806 63.748 20.917-12.076-17.176-29.749 38.093 17.672 20.917-12.076-36.806-63.748-20.917 12.076 17.176 29.749-38.093-17.673z"/><path opacity=".75" d="M769.478 95.825l20.917-12.076 12.268 21.249 20.917-12.076-12.268-21.25 20.917-12.076 36.805 63.748-20.917 12.077-12.268-21.25-20.918 12.077 12.269 21.249-20.917 12.077-36.805-63.749zm141.39 3.366c17.328-10.004 23.136-32.385 12.973-49.989-10.164-17.603-32.45-23.764-49.778-13.76-17.328 10.005-23.137 32.386-12.973 49.99 10.163 17.603 32.45 23.764 49.778 13.76zm-7.944-37.912c3.388 5.868 1.452 13.328-4.324 16.663-5.776 3.335-13.205 1.281-16.593-4.587-3.388-5.868-1.452-13.328 4.324-16.663 5.776-3.334 13.205-1.281 16.593 4.587zM982.55 1.14c-6.301-10.913-19.714-15.354-31.033-10.275l-.061-.106-35.559 20.53 36.805 63.748 20.917-12.076-12.268-21.25 4.497-2.596 20.321 16.6 20.921-12.076-23.7-19.355c3.591-7.315 3.275-16.008-.84-23.144zm-31.014 23.572l8.367-4.83c2.31-1.335 3.085-4.319 1.73-6.666-1.356-2.347-4.327-3.168-6.638-1.835l-8.366 4.831 4.907 8.5zm97.384-5.226c17.33-10.005 23.14-32.386 12.97-49.99-10.16-17.603-32.45-23.763-49.77-13.759-17.333 10.005-23.141 32.386-12.978 49.99 10.168 17.603 32.448 23.763 49.778 13.759zm-7.94-37.913c3.38 5.868 1.45 13.328-4.33 16.663-5.77 3.335-13.2 1.282-16.59-4.586-3.39-5.868-1.45-13.328 4.32-16.663 5.78-3.335 13.21-1.282 16.6 4.586zm12.97-49.989l41.19-1.115 21.56-35.114 36.81 63.748-20.92 12.077-15.95-27.625-6.78 12.414-14.14-.337 15.95 27.624-20.92 12.077-36.8-63.749zm112.95-65.213l-16.73 9.662 13.79 77.032 20.92-12.076-.36-5.458 16.73-9.661 4.55 3.042 20.92-12.076-59.82-50.465zm12.49 40.955l9.01 5.936-8.37 4.83-.64-10.766zm41.9-72.353l-20.92 12.076 36.8 63.749 20.92-12.077-17.18-29.749 38.1 17.673 20.91-12.077-36.8-63.748-20.92 12.076 17.18 29.75-38.09-17.673z"/><path opacity=".505" d="M-247.229 682.821l20.917-12.077 12.269 21.25 20.917-12.077-12.269-21.249 20.917-12.077 36.806 63.749-20.917 12.076-12.269-21.249-20.917 12.076 12.269 21.25-20.918 12.076-36.805-63.748zm141.391 3.366c17.328-10.005 23.136-32.385 12.973-49.989-10.164-17.604-32.45-23.764-49.779-13.76-17.328 10.005-23.136 32.386-12.972 49.989 10.163 17.604 32.449 23.764 49.778 13.76zm-7.944-37.913c3.387 5.868 1.451 13.329-4.325 16.663-5.776 3.335-13.205 1.282-16.592-4.586-3.388-5.868-1.452-13.328 4.324-16.663 5.776-3.335 13.205-1.281 16.593 4.586zm79.625-60.138c-6.3-10.913-19.714-15.354-31.032-10.274l-.062-.106-35.558 20.53 36.805 63.748 20.917-12.076-12.269-21.25 4.498-2.596 20.321 16.6 20.917-12.077-23.697-19.354c3.591-7.315 3.276-16.008-.84-23.145zm-31.013 23.572l8.366-4.83c2.31-1.334 3.085-4.318 1.73-6.665-1.355-2.347-4.327-3.169-6.637-1.835l-8.367 4.831 4.908 8.499zm97.384-5.226c17.328-10.004 23.136-32.385 12.973-49.989-10.163-17.603-32.45-23.764-49.778-13.759-17.328 10.004-23.136 32.385-12.973 49.989 10.163 17.603 32.45 23.764 49.778 13.759zM24.27 568.57c3.388 5.868 1.452 13.328-4.324 16.663-5.776 3.335-13.205 1.281-16.593-4.587-3.388-5.868-1.452-13.328 4.324-16.663 5.776-3.334 13.205-1.281 16.593 4.587zm12.973-49.989l41.19-1.115 21.561-35.114 36.805 63.748-20.917 12.077-15.949-27.625-6.778 12.413-14.139-.336 15.95 27.624-20.918 12.076-36.805-63.748zm112.952-65.213l-16.734 9.661 13.797 77.033 20.917-12.077-.362-5.457 16.733-9.661 4.546 3.042 20.917-12.077-59.814-50.464zm12.489 40.955l9.005 5.936-8.367 4.83-.638-10.766zm41.895-72.354l-20.917 12.077 36.805 63.748 20.917-12.076-17.175-29.749 38.092 17.672 20.917-12.076-36.805-63.749-20.917 12.077 17.176 29.749-38.093-17.673z"/></g><g clip-path="url(#clip6)" fill-rule="evenodd" clip-rule="evenodd" fill="#000"><path d="M160.748 343.363l20.917-12.076 12.268 21.249 20.918-12.076-12.269-21.25 20.917-12.076 36.805 63.748-20.917 12.077-12.268-21.25-20.917 12.077 12.268 21.249-20.917 12.077-36.805-63.749zm141.39 3.366c17.329-10.004 23.137-32.385 12.973-49.988-10.163-17.604-32.45-23.764-49.778-13.76-17.328 10.004-23.136 32.385-12.973 49.989 10.164 17.604 32.45 23.764 49.778 13.759zm-7.944-37.912c3.388 5.868 1.452 13.328-4.324 16.663-5.776 3.335-13.205 1.281-16.593-4.587-3.388-5.867-1.451-13.328 4.325-16.663 5.776-3.334 13.205-1.281 16.592 4.587zm79.626-60.138c-6.301-10.913-19.714-15.354-31.032-10.275l-.062-.106-35.559 20.53 36.805 63.749 20.917-12.077-12.268-21.249 4.497-2.597 20.322 16.6 20.917-12.076-23.697-19.355c3.591-7.315 3.275-16.008-.84-23.144zm-31.014 23.572l8.367-4.831c2.311-1.333 3.085-4.318 1.73-6.665-1.355-2.347-4.327-3.168-6.637-1.834l-8.367 4.83 4.907 8.5zm97.385-5.226c17.328-10.005 23.136-32.385 12.973-49.989-10.164-17.604-32.45-23.764-49.778-13.76-17.329 10.005-23.137 32.386-12.973 49.989 10.163 17.604 32.45 23.764 49.778 13.76zm-7.944-37.913c3.388 5.868 1.451 13.329-4.325 16.663-5.776 3.335-13.204 1.282-16.592-4.586-3.388-5.868-1.452-13.328 4.324-16.663 5.776-3.335 13.205-1.281 16.593 4.586zm12.973-49.988l41.19-1.116 21.561-35.114 36.805 63.749-20.917 12.076-15.949-27.624-6.778 12.413-14.139-.337 15.949 27.625-20.917 12.076-36.805-63.748zm112.952-65.213l-16.734 9.661 13.796 77.032 20.918-12.076-.362-5.458 16.733-9.661 4.546 3.042 20.917-12.076-59.814-50.464zm12.489 40.954l9.005 5.936-8.367 4.831-.638-10.767zm41.895-72.353l-20.917 12.076 36.805 63.749 20.917-12.077-17.176-29.749 38.093 17.673 20.917-12.077-36.805-63.748-20.917 12.076 17.176 29.75-38.093-17.673z"/><path opacity=".5" d="M669.101 49.865l20.917-12.076 12.269 21.25 20.917-12.077-12.269-21.25 20.917-12.076 36.805 63.749L747.74 89.46l-12.268-21.25-20.917 12.077 12.268 21.249-20.917 12.077-36.805-63.749zm141.391 3.367c17.328-10.005 23.136-32.386 12.972-49.99-10.163-17.603-32.449-23.763-49.778-13.759-17.328 10.005-23.136 32.385-12.973 49.99 10.164 17.603 32.45 23.763 49.779 13.759zm-7.945-37.913c3.388 5.868 1.452 13.328-4.324 16.663-5.776 3.335-13.205 1.282-16.593-4.586-3.387-5.868-1.451-13.329 4.325-16.663 5.776-3.335 13.205-1.282 16.592 4.586zm79.626-60.138c-6.3-10.913-19.714-15.354-31.032-10.274l-.062-.107-35.559 20.53 36.806 63.749 20.917-12.077-12.269-21.25 4.497-2.596 20.322 16.6L906.71-2.32l-23.697-19.355c3.591-7.314 3.276-16.007-.84-23.144zM851.16-21.247l8.366-4.83c2.311-1.334 3.085-4.318 1.73-6.666-1.355-2.347-4.327-3.168-6.637-1.834l-8.367 4.83 4.908 8.5zm97.384-5.226c17.328-10.005 23.136-32.385 12.973-49.989-10.164-17.604-32.45-23.764-49.778-13.76-17.328 10.005-23.137 32.386-12.973 49.99 10.163 17.603 32.45 23.764 49.778 13.759zM940.6-64.385c3.388 5.867 1.452 13.328-4.324 16.663-5.777 3.334-13.205 1.28-16.593-4.587-3.388-5.868-1.452-13.328 4.324-16.663 5.776-3.335 13.205-1.281 16.593 4.587zm12.973-49.989l41.19-1.115 21.557-35.115 36.81 63.749-20.92 12.076-15.95-27.624-6.77 12.413-14.144-.337 15.954 27.625-20.922 12.076-36.805-63.748zm112.947-65.213l-16.73 9.661 13.8 77.032 20.91-12.076-.36-5.457 16.74-9.662 4.54 3.043 20.92-12.077-59.82-50.464zm12.49 40.954l9.01 5.936-8.37 4.831-.64-10.767zm41.9-72.353l-20.92 12.076 36.81 63.749 20.91-12.077-17.17-29.749 38.09 17.673 20.92-12.076-36.81-63.749-20.91 12.077 17.17 29.749-38.09-17.673zM-347.605 636.861l20.917-12.076 12.268 21.249 20.917-12.076-12.268-21.25 20.917-12.076 36.805 63.748-20.917 12.077-12.268-21.25-20.917 12.077 12.268 21.249-20.917 12.077-36.805-63.749zm141.39 3.366c17.328-10.004 23.137-32.385 12.973-49.989-10.163-17.603-32.45-23.764-49.778-13.759-17.328 10.004-23.136 32.385-12.973 49.989 10.164 17.603 32.45 23.764 49.778 13.759zm-7.944-37.912c3.388 5.868 1.452 13.328-4.324 16.663-5.776 3.335-13.205 1.281-16.593-4.587-3.388-5.868-1.452-13.328 4.324-16.663 5.777-3.335 13.205-1.281 16.593 4.587zm79.626-60.138c-6.301-10.913-19.714-15.354-31.033-10.275l-.061-.106-35.559 20.53 36.805 63.748 20.917-12.076-12.268-21.25 4.497-2.596 20.322 16.6 20.917-12.076-23.697-19.355c3.591-7.315 3.275-16.008-.84-23.144zm-31.014 23.572l8.367-4.831c2.31-1.334 3.085-4.318 1.73-6.665-1.355-2.347-4.327-3.168-6.637-1.835l-8.367 4.831 4.907 8.5zm97.385-5.226c17.328-10.005 23.136-32.386 12.973-49.989-10.164-17.604-32.45-23.764-49.779-13.76-17.328 10.005-23.136 32.385-12.972 49.989 10.163 17.604 32.45 23.764 49.778 13.76zm-7.944-37.913c3.387 5.868 1.451 13.328-4.325 16.663-5.776 3.335-13.205 1.282-16.592-4.586-3.388-5.868-1.452-13.328 4.324-16.663 5.776-3.335 13.205-1.282 16.593 4.586zm12.972-49.989l41.19-1.115 21.562-35.114 36.805 63.748-20.917 12.077-15.95-27.624-6.777 12.413-14.14-.337 15.95 27.624-20.917 12.077-36.805-63.749zM49.82 407.408l-16.734 9.662 13.796 77.032 20.917-12.076-.362-5.458 16.734-9.661 4.545 3.042 20.917-12.076-59.814-50.465zm12.489 40.955l9.005 5.936-8.367 4.83-.638-10.766zm41.895-72.353l-20.917 12.076 36.805 63.749 20.917-12.077-17.176-29.749 38.093 17.673 20.917-12.077-36.805-63.748-20.917 12.076 17.176 29.75-38.093-17.673z"/></g><g clip-path="url(#clip7)" fill-rule="evenodd" clip-rule="evenodd" fill="#000" opacity=".75"><path d="M59.17 295.526l20.916-12.076 12.269 21.249 20.917-12.076-12.269-21.25 20.917-12.076 36.806 63.748-20.917 12.077-12.269-21.25-20.917 12.077 12.269 21.249-20.917 12.077-36.806-63.749zm141.39 3.367c17.328-10.005 23.136-32.386 12.973-49.989-10.164-17.604-32.45-23.764-49.779-13.76-17.328 10.005-23.136 32.385-12.972 49.989 10.163 17.604 32.449 23.764 49.778 13.76zm-7.944-37.913c3.387 5.868 1.451 13.328-4.325 16.663-5.776 3.335-13.205 1.281-16.592-4.586-3.388-5.868-1.452-13.329 4.324-16.663 5.776-3.335 13.205-1.282 16.593 4.586zm79.625-60.138c-6.3-10.913-19.714-15.354-31.032-10.275l-.062-.106-35.558 20.53 36.805 63.749 20.917-12.077-12.269-21.249 4.498-2.597 20.321 16.6 20.917-12.076-23.697-19.355c3.591-7.314 3.276-16.008-.84-23.144zm-31.013 23.572l8.366-4.83c2.311-1.334 3.085-4.318 1.73-6.666-1.355-2.347-4.326-3.168-6.637-1.834l-8.367 4.83 4.908 8.5zm97.384-5.226c17.328-10.005 23.137-32.385 12.973-49.989-10.163-17.604-32.45-23.764-49.778-13.76-17.328 10.005-23.137 32.386-12.973 49.989 10.163 17.604 32.45 23.764 49.778 13.76zm-7.944-37.912c3.388 5.867 1.452 13.328-4.324 16.662-5.776 3.335-13.205 1.282-16.593-4.586s-1.452-13.328 4.324-16.663c5.776-3.335 13.205-1.281 16.593 4.587zm12.973-49.989l41.19-1.116 21.561-35.114 36.805 63.749-20.917 12.076-15.949-27.624-6.778 12.413-14.139-.337 15.949 27.625-20.917 12.076-36.805-63.748zm112.952-65.213l-16.734 9.66 13.797 77.033 20.917-12.076-.362-5.458 16.733-9.661 4.546 3.043 20.917-12.077-59.814-50.464zm12.489 40.954l9.005 5.936-8.367 4.831-.638-10.767zm41.895-72.353L490.06 46.751l36.805 63.749 20.917-12.077-17.175-29.749 38.092 17.673 20.917-12.076-36.805-63.749-20.917 12.077 17.176 29.749-38.093-17.673z"/><path opacity=".5" d="M567.522 2.029l20.917-12.077 12.269 21.25L621.625-.876l-12.268-21.25L630.274-34.2l36.805 63.749-20.917 12.076-12.269-21.25-20.917 12.077 12.269 21.25-20.917 12.076-36.806-63.748zm141.391 3.366c17.328-10.005 23.136-32.386 12.973-49.99-10.164-17.603-32.45-23.763-49.778-13.759-17.329 10.005-23.137 32.386-12.973 49.99 10.163 17.603 32.45 23.763 49.778 13.759zm-7.944-37.913c3.388 5.868 1.452 13.328-4.325 16.663-5.776 3.335-13.204 1.282-16.592-4.586-3.388-5.868-1.452-13.329 4.324-16.663 5.776-3.335 13.205-1.282 16.593 4.586zm79.625-60.138c-6.3-10.913-19.714-15.354-31.032-10.274l-.061-.107-35.559 20.53 36.805 63.749 20.917-12.077-12.268-21.25 4.497-2.596 20.321 16.6 20.917-12.076-23.697-19.355c3.591-7.314 3.276-16.007-.84-23.144zm-31.013 23.572l8.367-4.83c2.31-1.334 3.084-4.318 1.729-6.665-1.355-2.348-4.326-3.17-6.637-1.835l-8.367 4.83 4.908 8.5zm97.384-5.226c17.328-10.004 23.137-32.385 12.973-49.989-10.163-17.603-32.45-23.764-49.778-13.759-17.328 10.004-23.136 32.385-12.973 49.988 10.164 17.604 32.45 23.765 49.778 13.76zm-7.944-37.912c3.388 5.868 1.452 13.328-4.324 16.663-5.776 3.334-13.205 1.281-16.593-4.587-3.388-5.868-1.452-13.328 4.324-16.663 5.777-3.335 13.205-1.281 16.593 4.587zm12.973-49.989l41.19-1.115 21.561-35.115 36.805 63.749-20.917 12.076-15.949-27.624-6.778 12.413-14.139-.337 15.949 27.625-20.917 12.076-36.805-63.748zm112.952-65.213l-16.734 9.661 13.797 77.033 20.917-12.077-.362-5.457 16.734-9.662 4.542 3.043 20.92-12.077-59.814-50.464zm12.49 40.955l9.004 5.935-8.366 4.831-.638-10.766zm41.894-72.354l-20.917 12.077 36.807 63.748 20.92-12.076-17.18-29.75 38.09 17.673 20.92-12.076-36.81-63.749-20.91 12.077 17.17 29.749-38.09-17.673zM-449.184 589.024l20.917-12.076 12.269 21.249 20.917-12.076-12.269-21.25 20.917-12.076 36.805 63.748-20.917 12.077-12.268-21.25-20.917 12.077 12.268 21.249-20.917 12.077-36.805-63.749zm141.391 3.366c17.328-10.004 23.136-32.385 12.972-49.989-10.163-17.603-32.449-23.764-49.778-13.759-17.328 10.004-23.136 32.385-12.973 49.989 10.164 17.603 32.45 23.764 49.779 13.759zm-7.945-37.912c3.388 5.868 1.452 13.328-4.324 16.663-5.776 3.335-13.205 1.281-16.593-4.587-3.387-5.868-1.451-13.328 4.325-16.663 5.776-3.334 13.205-1.281 16.592 4.587zm79.626-60.138c-6.3-10.913-19.714-15.354-31.032-10.275l-.062-.106-35.559 20.53 36.806 63.748 20.917-12.076-12.269-21.249 4.497-2.597 20.322 16.6 20.917-12.076-23.697-19.355c3.591-7.315 3.276-16.008-.84-23.144zm-31.014 23.572l8.367-4.831c2.311-1.334 3.085-4.318 1.73-6.665-1.355-2.347-4.327-3.168-6.637-1.834l-8.367 4.83 4.907 8.5zm97.385-5.226c17.328-10.005 23.136-32.385 12.973-49.989-10.164-17.604-32.45-23.764-49.778-13.76-17.328 10.005-23.137 32.386-12.973 49.989 10.163 17.604 32.45 23.764 49.778 13.76zm-7.944-37.913c3.388 5.868 1.452 13.328-4.324 16.663-5.777 3.335-13.205 1.282-16.593-4.586s-1.452-13.328 4.324-16.663c5.776-3.335 13.205-1.282 16.593 4.586zm12.973-49.989l41.19-1.115 21.561-35.114 36.805 63.748-20.917 12.077-15.949-27.624-6.778 12.413-14.139-.337 15.949 27.624-20.917 12.077-36.805-63.749zm112.952-65.212l-16.734 9.661 13.797 77.032 20.917-12.076-.362-5.458 16.733-9.661 4.546 3.042 20.917-12.076-59.814-50.464zm12.49 40.954l9.004 5.936-8.367 4.831-.638-10.767zm41.894-72.353l-20.917 12.076 36.805 63.749 20.917-12.077-17.176-29.749 38.093 17.673 20.917-12.077-36.805-63.748-20.917 12.076 17.176 29.75-38.093-17.673z"/></g><g clip-path="url(#clip8)" fill-rule="evenodd" clip-rule="evenodd" fill="#000" opacity=".5"><path opacity=".5" d="M-348.994 426.567l20.917-12.077 12.268 21.25 20.917-12.077-12.268-21.249 20.917-12.077 36.805 63.749-20.917 12.076-12.268-21.249-20.917 12.076 12.268 21.25-20.917 12.076-36.805-63.748zm141.39 3.366c17.329-10.005 23.137-32.385 12.973-49.989-10.163-17.604-32.45-23.764-49.778-13.76-17.328 10.005-23.136 32.386-12.973 49.989 10.164 17.604 32.45 23.764 49.778 13.76zm-7.944-37.913c3.388 5.868 1.452 13.329-4.324 16.663-5.776 3.335-13.205 1.282-16.593-4.586s-1.452-13.328 4.325-16.663c5.776-3.335 13.204-1.282 16.592 4.586zm79.626-60.138c-6.301-10.913-19.714-15.354-31.032-10.274l-.062-.107-35.559 20.53 36.805 63.749 20.917-12.077-12.268-21.249 4.497-2.596 20.322 16.6 20.917-12.077-23.697-19.354c3.591-7.315 3.275-16.008-.84-23.145zm-31.014 23.572l8.367-4.83c2.311-1.334 3.085-4.318 1.73-6.665-1.355-2.348-4.327-3.169-6.637-1.835l-8.367 4.831 4.907 8.499zm97.385-5.226c17.328-10.004 23.136-32.385 12.973-49.989-10.164-17.603-32.45-23.764-49.778-13.759-17.329 10.004-23.137 32.385-12.973 49.989 10.163 17.603 32.45 23.764 49.778 13.759zm-7.944-37.912c3.388 5.868 1.451 13.328-4.325 16.663-5.776 3.335-13.205 1.281-16.592-4.587-3.388-5.868-1.452-13.328 4.324-16.663 5.776-3.335 13.205-1.281 16.593 4.587zm12.973-49.989l41.19-1.115 21.56-35.114 36.806 63.748-20.917 12.076-15.949-27.624-6.778 12.413-14.14-.336 15.95 27.624-20.917 12.076-36.805-63.748zM48.43 197.114l-16.734 9.661 13.796 77.033 20.917-12.077-.362-5.457 16.734-9.661 4.545 3.042 20.918-12.077-59.814-50.464zm12.49 40.955l9.004 5.935-8.367 4.831-.638-10.766zm41.894-72.354l-20.917 12.077 36.805 63.748 20.917-12.076-17.176-29.75 38.093 17.673 20.917-12.076-36.805-63.749-20.917 12.077 17.176 29.749-38.093-17.673z"/><path d="M159.359 133.069l20.917-12.077 12.269 21.25 20.917-12.077-12.269-21.249 20.917-12.077 36.805 63.749-20.917 12.076-12.268-21.249-20.917 12.076 12.268 21.25-20.917 12.076-36.805-63.748zm141.39 3.366c17.329-10.004 23.137-32.385 12.973-49.989-10.163-17.604-32.449-23.764-49.778-13.76-17.328 10.005-23.136 32.386-12.973 49.989 10.164 17.604 32.45 23.764 49.778 13.76zm-7.944-37.913c3.388 5.868 1.452 13.329-4.324 16.663-5.776 3.335-13.205 1.282-16.593-4.586-3.387-5.868-1.451-13.328 4.325-16.663 5.776-3.335 13.205-1.281 16.592 4.586zm79.626-60.138c-6.3-10.913-19.714-15.354-31.032-10.274l-.062-.106-35.559 20.53 36.806 63.748 20.917-12.076-12.269-21.25 4.497-2.596 20.322 16.6 20.917-12.077-23.697-19.354c3.591-7.315 3.276-16.008-.84-23.145zm-31.014 23.572l8.367-4.83c2.311-1.334 3.085-4.318 1.73-6.665-1.355-2.347-4.327-3.169-6.637-1.835l-8.367 4.83 4.907 8.5zm97.385-5.226c17.328-10.004 23.136-32.385 12.973-49.989-10.164-17.603-32.45-23.764-49.778-13.76-17.329 10.005-23.137 32.386-12.973 49.99 10.163 17.604 32.45 23.764 49.778 13.76zm-7.944-37.912c3.388 5.868 1.452 13.328-4.325 16.663-5.776 3.335-13.204 1.281-16.592-4.587-3.388-5.867-1.452-13.328 4.324-16.663 5.776-3.334 13.205-1.281 16.593 4.587zm12.973-49.989l41.19-1.115L506.582-67.4l36.805 63.748L522.47 8.425 506.521-19.2l-6.778 12.413-14.139-.336L501.553 20.5l-20.917 12.076-36.805-63.748zm112.952-65.213l-16.734 9.661L553.846-9.69l20.917-12.077-.362-5.457 16.733-9.661 4.546 3.042 20.917-12.076-59.814-50.465zm12.489 40.955l9.005 5.936-8.367 4.83-.638-10.766zm41.895-72.354l-20.917 12.077 36.805 63.748 20.917-12.076-17.176-29.75 38.093 17.673 20.917-12.076-36.805-63.749-20.917 12.077 17.176 29.749-38.093-17.673z"/></g><g clip-path="url(#clip9)" opacity=".25"><path fill-rule="evenodd" clip-rule="evenodd" d="M-171.724 219.607l20.917-12.076 12.268 21.249 20.917-12.076-12.268-21.25 20.917-12.076 36.805 63.748-20.917 12.077-12.268-21.25-20.917 12.077 12.268 21.249-20.917 12.077-36.805-63.749zm141.39 3.366c17.328-10.004 23.137-32.385 12.973-49.989-10.163-17.603-32.45-23.764-49.778-13.759-17.328 10.004-23.136 32.385-12.973 49.989 10.163 17.603 32.45 23.764 49.778 13.759zm-7.944-37.912c3.388 5.868 1.452 13.328-4.324 16.663-5.776 3.335-13.205 1.281-16.593-4.587-3.388-5.868-1.452-13.328 4.324-16.663 5.777-3.335 13.205-1.281 16.593 4.587zm79.626-60.138c-6.3-10.913-19.714-15.355-31.033-10.275l-.061-.106-35.559 20.53L11.5 198.82l20.917-12.076-12.268-21.25 4.497-2.596 20.322 16.6 20.916-12.076-23.696-19.355c3.59-7.315 3.275-16.008-.84-23.144zm-31.014 23.572l8.367-4.831c2.31-1.334 3.085-4.318 1.73-6.665-1.355-2.347-4.327-3.168-6.637-1.835l-8.367 4.831 4.907 8.5zm97.385-5.226c17.328-10.005 23.136-32.386 12.973-49.99-10.164-17.603-32.45-23.763-49.779-13.759-17.328 10.005-23.136 32.385-12.973 49.989 10.164 17.604 32.45 23.764 49.779 13.76zm-7.944-37.913c3.387 5.868 1.451 13.328-4.325 16.663-5.776 3.335-13.205 1.282-16.593-4.586-3.387-5.868-1.451-13.329 4.325-16.663 5.776-3.335 13.205-1.282 16.593 4.586zm12.972-49.989l41.191-1.115 21.561-35.114 36.805 63.748-20.917 12.077-15.949-27.624-6.778 12.413-14.139-.337 15.949 27.624-20.917 12.077-36.806-63.749zM225.699-9.846L208.966-.184l13.796 77.032 20.917-12.076-.362-5.458 16.734-9.661 4.545 3.042 20.917-12.076-59.814-50.465zm12.49 40.955l9.005 5.936-8.367 4.83-.638-10.766zm41.895-72.353l-20.917 12.076 36.805 63.749 20.917-12.077-17.176-29.75 38.093 17.674L358.723-1.65l-36.805-63.748-20.917 12.076 17.175 29.75-38.092-17.673z" fill="#000"/></g><g clip-path="url(#clip10)" fill-rule="evenodd" clip-rule="evenodd" fill="#000" opacity=".12"><path d="M34.124-3.853l20.917-12.076L67.31 5.32 88.227-6.757l-12.268-21.25 20.917-12.076 36.805 63.748-20.917 12.077-12.269-21.25L79.578 26.57l12.269 21.25L70.93 59.895 34.124-3.853zM175.515-.486c17.328-10.005 23.136-32.386 12.973-49.99-10.164-17.603-32.45-23.763-49.778-13.759-17.329 10.005-23.137 32.385-12.973 49.989C135.9 3.358 158.187 9.518 175.515-.486zM167.571-38.4c3.388 5.868 1.452 13.328-4.325 16.663-5.776 3.335-13.204 1.281-16.592-4.586-3.388-5.868-1.452-13.329 4.324-16.663 5.776-3.335 13.205-1.282 16.593 4.586zm79.625-60.138c-6.3-10.913-19.713-15.354-31.032-10.275l-.061-.106-35.559 20.53 36.805 63.749 20.917-12.077-12.268-21.25 4.497-2.596 20.321 16.6 20.917-12.076-23.696-19.355c3.591-7.314 3.275-16.008-.841-23.144zm-31.013 23.572l8.367-4.83c2.31-1.334 3.085-4.319 1.729-6.666-1.355-2.347-4.326-3.168-6.637-1.834l-8.367 4.83 4.908 8.5zm97.384-5.226c17.329-10.004 23.137-32.385 12.973-49.989-10.163-17.604-32.45-23.764-49.778-13.759-17.328 10.004-23.136 32.385-12.973 49.988 10.164 17.604 32.45 23.764 49.778 13.76zm-7.944-37.912c3.388 5.867 1.452 13.328-4.324 16.662-5.776 3.335-13.205 1.282-16.593-4.586s-1.452-13.328 4.324-16.663c5.777-3.335 13.205-1.281 16.593 4.587zm12.973-49.989l41.19-1.116 21.561-35.114 36.805 63.749-20.917 12.076-15.949-27.624-6.778 12.413-14.139-.337 15.949 27.625-20.917 12.076-36.805-63.748zm112.952-65.213l-16.733 9.661 13.796 77.032 20.917-12.076-.362-5.458 16.734-9.661 4.545 3.043 20.917-12.077-59.814-50.464zm12.49 40.954l9.004 5.936-8.366 4.831-.638-10.767zm41.894-72.353l-20.917 12.076 36.806 63.749 20.917-12.077-17.176-29.749 38.093 17.673 20.917-12.076-36.806-63.749-20.917 12.077 17.176 29.749-38.093-17.673z"/><path opacity=".5" d="M-474.229 289.645l20.917-12.076 12.269 21.249 20.917-12.076-12.269-21.25 20.917-12.076 36.806 63.748-20.917 12.077-12.269-21.25-20.917 12.077 12.269 21.249-20.918 12.077-36.805-63.749zm141.391 3.366c17.328-10.004 23.136-32.385 12.973-49.989-10.164-17.603-32.45-23.764-49.779-13.759-17.328 10.004-23.136 32.385-12.972 49.989 10.163 17.603 32.449 23.764 49.778 13.759zm-7.944-37.912c3.387 5.868 1.451 13.328-4.325 16.663-5.776 3.335-13.205 1.281-16.592-4.587-3.388-5.867-1.452-13.328 4.324-16.663 5.776-3.334 13.205-1.281 16.593 4.587zm79.625-60.138c-6.3-10.913-19.714-15.354-31.032-10.275l-.062-.106-35.558 20.53 36.805 63.748 20.917-12.076-12.269-21.249 4.498-2.597 20.321 16.6 20.917-12.076-23.697-19.355c3.591-7.315 3.276-16.008-.84-23.144zm-31.013 23.572l8.366-4.831c2.311-1.334 3.085-4.318 1.73-6.665-1.355-2.347-4.326-3.168-6.637-1.834l-8.367 4.83 4.908 8.5zm97.384-5.226c17.328-10.005 23.136-32.385 12.973-49.989-10.163-17.604-32.45-23.764-49.778-13.76-17.328 10.005-23.137 32.386-12.973 49.989 10.163 17.604 32.45 23.764 49.778 13.76zm-7.944-37.913c3.388 5.868 1.452 13.328-4.324 16.663-5.776 3.335-13.205 1.282-16.593-4.586s-1.452-13.328 4.324-16.663c5.776-3.335 13.205-1.282 16.593 4.586zm12.973-49.989l41.19-1.115 21.561-35.114 36.805 63.749-20.917 12.076-15.949-27.624-6.778 12.413-14.139-.337 15.949 27.624-20.917 12.077-36.805-63.749zm112.952-65.212l-16.734 9.66 13.797 77.033 20.917-12.076-.362-5.458 16.733-9.661 4.546 3.042 20.917-12.076-59.814-50.464zm12.49 40.954l9.004 5.936-8.367 4.831-.638-10.767zm41.894-72.353L-43.338 40.87l36.805 63.749 20.917-12.077L-2.79 62.793 35.3 80.466l20.917-12.077L19.413 4.641-1.504 16.717l17.176 29.75-38.093-17.673z"/></g><g clip-path="url(#clip11)" opacity=".06"><path fill-rule="evenodd" clip-rule="evenodd" d="M-234.605 46.685l20.917-12.076 12.268 21.25 20.917-12.077-12.268-21.25 20.917-12.076 36.805 63.749-20.917 12.076-12.268-21.25-20.917 12.077 12.268 21.25-20.917 12.076-36.805-63.748zm141.39 3.367C-75.886 40.047-70.078 17.666-80.242.062-90.405-17.54-112.692-23.7-130.02-13.696c-17.328 10.005-23.136 32.385-12.973 49.99 10.164 17.603 32.45 23.763 49.778 13.759zm-7.944-37.913c3.388 5.868 1.452 13.328-4.324 16.663-5.776 3.335-13.205 1.282-16.593-4.586s-1.452-13.328 4.325-16.663c5.776-3.335 13.204-1.282 16.592 4.586zm79.626-60.138c-6.3-10.913-19.714-15.354-31.032-10.274l-.062-.107-35.559 20.53L-51.38 25.9l20.917-12.077-12.268-21.25 4.497-2.596 20.322 16.6L3.004-5.5l-23.697-19.355c3.591-7.314 3.275-16.007-.84-23.144zm-31.014 23.572l8.367-4.83c2.31-1.334 3.085-4.318 1.73-6.665-1.355-2.348-4.327-3.169-6.637-1.835l-8.367 4.83 4.907 8.5zm97.385-5.226C62.166-39.657 67.974-62.038 57.81-79.642c-10.164-17.603-32.45-23.764-49.778-13.76C-9.296-83.396-15.104-61.015-4.94-43.411 5.223-25.81 27.51-19.648 44.838-29.652zm-7.944-37.912c3.388 5.868 1.451 13.328-4.325 16.663-5.776 3.334-13.205 1.281-16.592-4.587-3.388-5.868-1.452-13.328 4.324-16.663 5.776-3.335 13.205-1.281 16.593 4.587zm12.973-49.989l41.19-1.115 21.561-35.115 36.805 63.749-20.917 12.076-15.949-27.624-6.778 12.413-14.14-.337 15.95 27.625-20.917 12.076-36.805-63.748zm112.952-65.213l-16.734 9.661 13.796 77.033 20.917-12.077-.362-5.457 16.734-9.662 4.545 3.043 20.917-12.077-59.813-50.464zm12.489 40.955l9.005 5.935-8.367 4.831-.638-10.766zm41.895-72.354l-20.917 12.077 36.805 63.748 20.917-12.076-17.176-29.75 38.093 17.673 20.917-12.076-36.805-63.749-20.917 12.077 17.176 29.749-38.093-17.673z" fill="#000"/></g></g></g><defs><clipPath id="clip0"><path d="M0 0h900v470H0V0z" fill="#fff"/></clipPath><clipPath id="clip1"><path transform="rotate(-30 -993.243 484.686)" fill="#fff" d="M-993.243 484.686h2620v891h-2620z"/></clipPath><clipPath id="clip2"><path transform="rotate(-30 -222.184 982.2)" fill="#fff" d="M-222.184 982.2h1744v74h-1744z"/></clipPath><clipPath id="clip3"><path transform="rotate(-30 -630.347 1113.24)" fill="#fff" d="M-630.347 1113.24h1744v74h-1744z"/></clipPath><clipPath id="clip4"><path transform="rotate(-30 -453.077 906.28)" fill="#fff" d="M-453.077 906.28h1744v74h-1744z"/></clipPath><clipPath id="clip5"><path transform="rotate(-30 -247.229 682.821)" fill="#fff" d="M-247.229 682.821h1744v74h-1744z"/></clipPath><clipPath id="clip6"><path transform="rotate(-30 -347.605 636.861)" fill="#fff" d="M-347.605 636.861h1744v74h-1744z"/></clipPath><clipPath id="clip7"><path transform="rotate(-30 -449.184 589.024)" fill="#fff" d="M-449.184 589.024h1744v74h-1744z"/></clipPath><clipPath id="clip8"><path transform="rotate(-30 -857.347 720.064)" fill="#fff" d="M-857.347 720.064h1744v74h-1744z"/></clipPath><clipPath id="clip9"><path transform="rotate(-30 -680.077 513.105)" fill="#fff" d="M-680.077 513.105h1744v74h-1744z"/></clipPath><clipPath id="clip10"><path transform="rotate(-30 -474.229 289.645)" fill="#fff" d="M-474.229 289.645h1744v74h-1744z"/></clipPath><clipPath id="clip11"><path transform="rotate(-30 -234.605 46.685)" fill="#fff" d="M-234.605 46.685h1744v74h-1744z"/></clipPath></defs></svg>