<svg xmlns="http://www.w3.org/2000/svg" fill="#000" viewBox="0 0 116 88">
    <path d="M0 41.345c.056-.216.129-.433.162-.65.632-4.098 3.296-6.838 7.44-7.53 2.734-.457 5.452-.353 8.003.844 2.498 1.17 4.014 3.088 4.26 5.885.008.108 0 .217 0 .35h-6.997a.57.57 0 01-.062-.12c-.267-1.578-.944-2.214-2.455-2.305-1.405-.083-2.455.637-2.835 2.028a9.82 9.82 0 00-.023 5.027c.381 1.514 1.266 2.132 2.857 2.089 1.351-.036 2.159-.757 2.48-2.206.022-.108.042-.216.072-.358h7.043c-.1 1.68-.632 3.172-1.734 4.444-1.15 1.33-2.622 2.156-4.315 2.587-2.399.61-4.823.637-7.218-.019C2.905 50.38.604 47.682.135 43.84A2.65 2.65 0 000 43.4v-2.055zM10.905 0h5.452C19.9.084 23.445.14 26.98.257c6.608.217 13.2.674 19.776 1.373 6.449.687 12.858 1.623 19.208 2.94C74.476 6.34 82.8 8.71 90.717 12.36c5.211 2.406 10.103 5.315 14.375 9.17 4.124 3.723 7.35 8.057 9.104 13.368a25.462 25.462 0 011.214 10.181c-.017.197-.018.395-.025.593-.905 7.98-4.568 14.691-9.763 20.663-5.464 6.285-12.095 11.078-19.547 14.779a70.686 70.686 0 01-22.547 6.843 2.893 2.893 0 01-.764.03c1.99-.615 4.029-1.11 5.962-1.868 13.117-5.134 22.558-14.05 27.726-27.14 2.726-6.915 3.195-14.053 1.161-21.269-1.45-5.146-4.115-9.628-7.693-13.59-4.325-4.791-9.544-8.404-15.267-11.348-7.33-3.773-15.124-6.262-23.147-8.1-7.96-1.82-16.03-2.928-24.165-3.606C21.4.57 15.45.316 9.487.226V.04L10.905 0zm67.92 38.923h-6.876c.023-1.776.678-3.204 2.116-4.242 1.411-1.016 3.053-1.406 4.746-1.59 2.677-.29 5.343-.243 7.929.59.602.196 1.18.461 1.72.79 1.704 1.03 2.24 2.658 2.243 4.529.005 3.317.005 6.635 0 9.952 0 .658.096 1.249.634 1.709.11.094.11.31.188.53-.23.015-.388.033-.545.034-2.072 0-4.144-.005-6.216.015-.327 0-.45-.095-.51-.396-.08-.401-.207-.793-.335-1.274-.23.175-.407.315-.59.448-2.633 1.929-5.568 2.32-8.642 1.438-2.49-.713-3.768-2.955-3.544-5.718.172-2.12 1.219-3.51 3.257-4.204 1.942-.662 3.96-.878 5.975-1.157a15.99 15.99 0 002.624-.65c.473-.142.793-.58.783-1.07.016-.638-.317-1.17-1.02-1.276a9.704 9.704 0 00-2.478-.07c-.877.1-1.315.763-1.459 1.612zm4.963 4.454c-1.26.368-2.392.687-3.513 1.034-.362.116-.711.27-1.041.459-.744.418-.992.88-.864 1.514.133.656.648 1.137 1.418 1.214a6.42 6.42 0 001.571-.03c1.348-.203 2.098-.95 2.306-2.293.095-.594.085-1.208.123-1.898zm-41.502.573H28.982c-.23 1.463.72 2.98 2.077 3.38.79.232 1.592.248 2.356-.037.407-.153.89-.398 1.09-.743.319-.56.73-.57 1.253-.566 1.925.017 3.849.006 5.847.006-.081.301-.133.557-.218.8-.715 1.962-2.072 3.344-4.01 4.098-3.185 1.24-6.455 1.384-9.706.33-3.519-1.142-5.71-4.26-5.83-8.068-.043-1.34.052-2.668.458-3.955.873-2.75 2.703-4.606 5.428-5.569 2.261-.798 4.596-.902 6.933-.439 3.998.792 6.666 3.59 7.306 7.608.155 1.009.208 2.035.32 3.155zm-7.052-3.539c-.103-1.272-.426-2.38-1.601-2.946-1.134-.54-2.333-.562-3.422.17-.97.648-1.258 1.644-1.299 2.776h6.322zM47.028 51.19V37.559h-2.18v-3.961h2.18c0-.235-.007-.423 0-.609.037-.684.03-1.373.127-2.048.327-2.286 1.663-3.672 3.97-4.052.907-.15 1.843-.146 2.767-.17 1.05-.026 2.1-.006 3.173-.006v4.347c-.94.116-2.064-.227-2.694.722-.3.45-.285 1.11-.437 1.76h3.117v4.002h-2.963V51.19h-7.06zm21.703.014h-7.075V27.307h7.075v23.897z"/>
</svg>