<svg xmlns="http://www.w3.org/2000/svg" viewBox="0 0 117 88">
    <path d="M.756 41.345c.055-.216.129-.433.162-.65.632-4.098 3.296-6.838 7.44-7.53 2.733-.457 5.452-.353 8.003.844 2.498 1.17 4.014 3.088 4.26 5.885.008.108 0 .217 0 .35h-6.997a.575.575 0 01-.063-.12c-.267-1.578-.943-2.214-2.454-2.305-1.405-.083-2.455.637-2.835 2.028a9.82 9.82 0 00-.023 5.027c.381 1.514 1.266 2.132 2.857 2.089 1.35-.036 2.159-.757 2.48-2.206l.071-.358h7.044c-.1 1.68-.633 3.172-1.734 4.444-1.15 1.33-2.623 2.156-4.315 2.587-2.4.61-4.823.637-7.218-.019C3.661 50.38 1.36 47.682.891 43.84a2.65 2.65 0 00-.135-.439v-2.055zM11.66 0h5.452c3.542.084 7.088.14 10.622.257 6.608.217 13.2.674 19.776 1.373 6.449.687 12.858 1.623 19.208 2.94 8.513 1.77 16.838 4.139 24.754 7.79 5.211 2.406 10.103 5.315 14.374 9.17 4.125 3.723 7.35 8.057 9.105 13.368a25.462 25.462 0 011.214 10.181c-.017.197-.018.395-.025.593-.906 7.98-4.568 14.691-9.764 20.663-5.463 6.285-12.094 11.078-19.547 14.779a70.686 70.686 0 01-22.547 6.843 2.892 2.892 0 01-.763.03c1.99-.615 4.028-1.11 5.962-1.868 13.117-5.134 22.558-14.05 27.725-27.14 2.727-6.915 3.196-14.053 1.162-21.269-1.45-5.146-4.116-9.628-7.694-13.59-4.324-4.791-9.543-8.404-15.266-11.348-7.33-3.773-15.124-6.262-23.147-8.1-7.96-1.82-16.03-2.928-24.165-3.606-5.94-.496-11.891-.75-17.854-.84V.04L11.661 0zm67.92 38.923h-6.876c.023-1.776.677-3.204 2.116-4.242 1.41-1.016 3.053-1.406 4.746-1.59 2.677-.29 5.343-.243 7.929.59.602.196 1.18.461 1.72.79 1.704 1.03 2.24 2.658 2.242 4.529.005 3.317.005 6.635 0 9.952 0 .658.096 1.249.635 1.709.11.094.11.31.188.53-.23.015-.389.033-.546.034-2.072 0-4.143-.005-6.215.015-.328 0-.45-.095-.51-.396-.08-.401-.207-.793-.336-1.274-.23.175-.406.315-.59.448-2.632 1.929-5.568 2.32-8.642 1.438-2.49-.713-3.767-2.955-3.544-5.718.173-2.12 1.22-3.51 3.258-4.204 1.942-.662 3.96-.878 5.974-1.157.892-.142 1.77-.36 2.625-.65.473-.142.793-.58.783-1.07.016-.638-.317-1.17-1.02-1.276a9.704 9.704 0 00-2.478-.07c-.877.1-1.315.763-1.46 1.612zm4.963 4.454c-1.261.368-2.392.687-3.513 1.034-.362.116-.711.27-1.041.459-.744.418-.993.88-.864 1.514.133.656.648 1.137 1.418 1.214a6.42 6.42 0 001.571-.03c1.348-.203 2.098-.95 2.305-2.293.096-.594.085-1.208.124-1.898zm-41.502.573H29.738c-.23 1.463.72 2.98 2.077 3.38.79.232 1.592.248 2.356-.037.406-.153.89-.398 1.09-.743.319-.56.73-.57 1.253-.566 1.925.017 3.848.006 5.847.006-.081.301-.133.557-.218.8-.715 1.962-2.072 3.344-4.01 4.098-3.185 1.24-6.455 1.384-9.706.33-3.519-1.142-5.71-4.26-5.83-8.068-.043-1.34.051-2.668.458-3.955.873-2.75 2.703-4.606 5.428-5.569 2.261-.798 4.596-.902 6.933-.439 3.998.792 6.666 3.59 7.306 7.608.155 1.009.207 2.035.32 3.155zm-7.052-3.539c-.103-1.272-.426-2.38-1.601-2.946-1.134-.54-2.333-.562-3.422.17-.97.648-1.259 1.644-1.299 2.776h6.322zM47.784 51.19V37.559h-2.18v-3.961h2.18c0-.235-.007-.423 0-.609.036-.684.03-1.373.127-2.048.327-2.286 1.663-3.672 3.97-4.052.907-.15 1.843-.146 2.767-.17 1.049-.026 2.1-.006 3.173-.006v4.347c-.94.116-2.064-.227-2.694.722-.3.45-.285 1.11-.437 1.76h3.117v4.002h-2.963V51.19h-7.06zm21.703.014h-7.075V27.307h7.075v23.897z"/>
</svg>