<svg xmlns="http://www.w3.org/2000/svg" width="127" height="44" viewBox="0 0 127 44">
    <path d="M116.252.135h5.201v32.068h-.028c.026 3.48 1.765 4.992 4.757 6.942l-2.959 4.035c-4.403-2.737-6.945-5.837-6.97-10.977l-.001-.079V.135zM45.664 24.762V14.78c2.96-2.777 7.026-4.506 11.562-4.506h.387v.005c7.742.201 14.024 6.153 14.024 13.619v18.836h-5.2V23.898c0-4.847-4.066-8.62-9.073-8.698h-.138c-7.081 0-10.788 5.606-11.562 9.562zM45.664 11.61h-5.2v17.213h5.2V11.611zM35.292 23.898H17.119v4.925h18.173v-4.925z"/>
    <path d="M18.115 10.248c-4.778.026-9.124 1.864-12.268 4.833l-.013-.012C2.68 18.082.744 22.195.744 26.753v.131c.038 4.559 2.022 8.648 5.2 11.606 3.144 2.925 7.441 4.716 12.17 4.716v.026c5.616 0 10.622-2.515 13.803-6.445l-4.121-2.986c-2.225 2.705-5.677 4.48-9.598 4.506v-.026h-.111c-3.325 0-6.328-1.247-8.532-3.288l.013-.013C7.346 32.9 5.94 30.023 5.917 26.832h.027v-.105c0-3.196 1.356-6.078 3.568-8.174a12.525 12.525 0 018.52-3.38v.027h.11c3.375 0 6.417 1.283 8.63 3.38 1.535 1.454 2.665 3.285 3.209 5.318h5.31c-.625-3.402-2.375-6.448-4.853-8.79l.013-.013c-3.153-2.987-7.496-4.82-12.309-4.82h-.027v-.027z"/>
    <path fill-rule="evenodd" d="M76.505 26.753c0-4.505 1.891-8.575 4.98-11.553 3.152-3.039 7.55-4.926 12.39-4.952v4.925c-3.36 0-6.396 1.304-8.602 3.38-2.213 2.096-3.568 4.978-3.568 8.174v.105h-.027c.022 3.191 1.428 6.069 3.65 8.148l-.013.013c2.204 2.041 5.207 3.288 8.533 3.288h.11v.026c3.906-.017 7.396-1.794 9.626-4.506l4.121 2.986c-3.18 3.93-8.187 6.445-13.802 6.445v-.026h-.028c-4.729 0-9.026-1.79-12.17-4.716-3.178-2.958-5.163-7.047-5.2-11.606v-.13zm25.945-8.252c1.577 1.467 2.738 3.327 3.291 5.397H92.907v4.925h18.173v-4.925h-.028c-.636-3.459-2.406-6.55-4.979-8.908l-3.623 3.51z" clip-rule="evenodd"/>
</svg>