<svg xmlns="http://www.w3.org/2000/svg" viewBox="0 0 128 88">
    <path d="M116.263 22.135h5.2v32.068h-.028c.026 3.48 1.765 4.992 4.758 6.942l-2.96 4.035c-4.403-2.737-6.945-5.837-6.97-10.977V22.135zM45.673 46.762v-9.981c2.96-2.778 7.026-4.507 11.562-4.507h.388v.005c7.741.201 14.024 6.153 14.024 13.619v18.836h-5.2V45.898c0-4.847-4.067-8.62-9.073-8.698h-.139c-7.08 0-10.787 5.606-11.562 9.562z"/>
    <path d="M45.673 33.61h-5.2v17.213h5.2V33.611zM35.3 45.898H17.129v4.925H35.3v-4.925z"/>
    <path d="M18.124 32.248c-4.778.026-9.124 1.864-12.268 4.833l-.014-.012C2.69 40.082.753 44.195.752 48.753v.131c.038 4.559 2.023 8.648 5.201 11.606 3.144 2.925 7.441 4.716 12.17 4.716v.026c5.616 0 10.622-2.515 13.803-6.445l-4.121-2.986c-2.225 2.705-5.677 4.48-9.598 4.506v-.026h-.111c-3.325 0-6.328-1.247-8.533-3.288l.014-.013c-2.223-2.079-3.628-4.957-3.651-8.148h.027v-.105c0-3.196 1.355-6.078 3.568-8.174a12.525 12.525 0 018.52-3.38v.027h.11c3.375 0 6.417 1.283 8.63 3.38 1.535 1.454 2.665 3.285 3.209 5.318h5.31c-.625-3.402-2.374-6.448-4.853-8.79l.013-.013c-3.153-2.987-7.496-4.82-12.309-4.82h-.027v-.027zM81.494 37.2c-3.088 2.978-4.98 7.048-4.98 11.553v.131c.038 4.559 2.023 8.648 5.2 11.606 3.145 2.925 7.442 4.716 12.171 4.716h.028v.026c5.615 0 10.622-2.515 13.803-6.445l-4.122-2.986c-2.23 2.712-5.72 4.489-9.625 4.506v-.026h-.111c-3.326 0-6.329-1.247-8.533-3.288l.013-.013c-2.222-2.08-3.628-4.957-3.65-8.148h.027v-.105c0-3.196 1.355-6.078 3.568-8.174a12.528 12.528 0 018.602-3.38v-4.925c-4.84.026-9.238 1.913-12.391 4.952z"/>
    <path d="M105.751 45.898c-.553-2.07-1.714-3.93-3.291-5.397l3.623-3.51c2.573 2.357 4.343 5.449 4.979 8.907h.028v4.925H92.917v-4.925h12.834z"/>
</svg>