<svg xmlns="http://www.w3.org/2000/svg" viewBox="0 0 245 28">
    <path d="M147.231 26.567h-10.853V1.623h10.372c4.898 0 8.164 2.39 8.164 6.117v.095c0 3.345-2.209 5.065-4.226 5.925 2.977.764 5.666 2.485 5.666 5.925v.096c-.192 4.109-3.745 6.785-9.123 6.785zm5.666-18.635c0-2.772-2.305-4.587-6.243-4.587h-8.451v9.843h8.259c3.746-.096 6.435-1.912 6.435-5.256zm1.441 11.754c0-3.058-2.69-4.874-7.588-4.874h-8.451v10.034h9.124c4.129 0 6.915-1.91 6.915-5.16zm30.637 6.88l-3.17-6.976h-14.79l-3.169 6.977h-1.921l11.717-25.134h1.825l11.717 25.134h-2.209zM174.41 3.44l-6.627 14.43h13.254L174.41 3.44zm39.089 23.127L195.827 4.396v22.17h-1.825V1.625h1.729l17.287 21.693V1.624h1.825v24.943h-1.344zm29.1 0l-10.276-12.615-6.243 6.307v6.308h-1.825V1.623h1.825v16.437l15.943-16.437h2.497l-10.949 10.99L245 26.567h-2.401zM44.37 2.102h23.435v5.065H49.46v5.925h17.383v5.065H49.461v8.505h-5.09V2.102zM92.68 16.82c-1.057 3.44-4.323 5.925-8.164 5.925-4.706 0-8.548-3.822-8.548-8.41 0-4.682 3.842-8.41 8.548-8.41 3.841 0 7.107 2.486 8.163 5.926h5.186C96.713 5.638 91.143.86 84.515.86c-7.49 0-13.637 6.02-13.637 13.475 0 7.453 6.05 13.474 13.638 13.474 6.626 0 12.197-4.683 13.35-10.99h-5.187zM112.56 0L97 26.567h5.859l9.605-16.533 9.604 16.533h5.858L112.56 0zM36.207.287v13.092L9.892 27.522c-2.593 1.242-5.954.287-6.819-2.58L0 17.966c4.322-.86 11.045-4.492 11.045-4.492l19.592-10.32 5.57-2.867z"/>
</svg>