<svg xmlns="http://www.w3.org/2000/svg" viewBox="0 0 220 40">
  <path d="M157.985 31.52v-16c0-4.96-2.71-5.92-10.362-5.92-8.29 0-11.159 1.12-11.159 6.88v2.56h7.014v-2.08c0-2.88.16-3.36 3.826-3.36 3.029 0 3.189.32 3.189 3.36v5.76h-7.334c-5.739 0-7.492 2.72-7.492 5.92h7.174v-.16c0-1.44.956-2.72 2.391-2.72h5.42v6.4c0 2.24-1.116 2.72-2.71 2.72h-2.87c-1.753 0-2.391-1.12-2.391-2.72v-3.52h-7.174v4c0 3.36 2.551 6.08 6.536 6.08h18.812V34.4h-2.87v-2.88zm58.348 3.04V10.24h-10.681v4h3.029v20.32h-3.029v4.16h13.551v-4.16h-2.87zM189.391 9.6c-3.985 0-6.536 4.96-8.29 7.04v-6.56H170.58v4h2.869V34.4h-2.869v4.32h13.072V34.4h-2.71V23.52c0-.96 6.217-8.8 6.217-8V26.4h7.334V14.24c0-2.88-1.754-4.64-5.102-4.64zM48.623 23.36H41.13v-7.68c0-1.44.479-2.24 2.232-2.24h3.189c1.275 0 2.072.64 2.072 1.6v8.32zM45.435 9.6h-1.116c-8.609 0-10.84 1.92-10.84 6.88v16c0 5.44 3.188 6.4 11 6.56h.796c8.45-.16 11-.8 11-5.92v-4.16h-7.333v2.08c0 2.88-.478 3.04-3.986 3.04-4.144 0-3.985-.32-3.826-3.04v-4.96h15.305V15.36c0-4-3.03-5.76-11-5.76zM208.84 5.12h7.811V0h-7.811v5.12zm-207.725 0H5.58v30.24H0v4.16h20.725v-4.16H13.71V21.92h3.986v3.84h4.782v-12h-4.782v3.52H13.71V5.12h189.073V0H1.116v5.12zM85.768 9.6c-3.985 0-6.536 4.96-8.29 7.04v-6.56H66.957v4h2.87V34.4h-2.87v4.32h13.072V34.4h-2.71V23.52c0-.96 6.217-8.8 6.217-8V26.4h7.334V14.24c0-2.88-1.754-4.64-5.102-4.64zm33.478 0c-3.985 0-6.536 4.96-8.289 7.04v-6.56h-10.522v4h2.869V34.4h-2.869v4.32h13.072V34.4h-2.71V23.52c0-.96 6.217-8.8 6.217-8V26.4h7.334V14.24c0-2.88-1.754-4.64-5.102-4.64z"/>
</svg>