<svg xmlns="http://www.w3.org/2000/svg" width="62" height="62" viewBox="0 0 62 62">
  <path d="M61.988.008H0V62h61.988V.008zM12.48 30.272h.622c2.098 0 4.462-.387 4.462-3.083 0-2.688-2.364-3.084-4.462-3.084h-.622v6.167zm14.15 13.662H18.62l-6.075-9.523h-.064v9.523H6.046v-24.76h9.616c4.894 0 8.604 2.336 8.604 7.619 0 3.419-1.907 6.374-5.42 6.996l7.785 10.145zm6.414-8.403c0 2.13 1.41 3.775 3.844 3.775 2.429 0 3.84-1.645 3.84-3.775 0-2.07-1.411-3.807-3.84-3.807-2.433 0-3.844 1.738-3.844 3.807zm13.459 8.403h-5.97v-1.867h-.072c-1.047 1.672-3.113 2.424-5.089 2.424-4.992 0-8.504-4.17-8.504-8.996 0-4.826 3.456-8.965 8.444-8.965 1.931 0 3.972.723 5.221 2.203v-1.641h5.97v16.842zM56.548 20.62a3.366 3.366 0 01-3.35 3.35 3.366 3.366 0 01-3.351-3.35c0-1.835 1.515-3.342 3.35-3.342 1.835 0 3.35 1.507 3.35 3.342zm-.364 23.313h-5.97V27.092h5.97v16.842zM0 51.148V10.185h-.306L0 51.148z"/>
</svg>