<svg xmlns="http://www.w3.org/2000/svg" viewBox="0 0 83 44">
    <path d="M19.472.13h-3.22a.588.588 0 00-.601.601v42.54a.586.586 0 00.602.602h3.219a.587.587 0 00.601-.602V.731a.584.584 0 00-.369-.56.588.588 0 00-.232-.042zm30.34 0H39.427a.588.588 0 00-.602.601v42.54a.586.586 0 00.602.602h10.17a.587.587 0 00.6-.602v-3.008a.584.584 0 00-.368-.56.587.587 0 00-.233-.043h-6.351V23.634h5.148a.59.59 0 00.55-.559v-2.149a.58.58 0 00-.172-.43.53.53 0 00-.385-.172h-5.15V4.339h6.575a.376.376 0 00.353-.214.326.326 0 00.03-.13V.516a.362.362 0 00-.107-.278.368.368 0 00-.279-.108h.004zm-14.29 43.14V6.058a6.044 6.044 0 00-1.246-3.579A6.058 6.058 0 0031.143.342h-.042a3.704 3.704 0 00-.793-.171 8.654 8.654 0 00-1.738 0 3.74 3.74 0 00-.815.171h.043l-.13.043-.087.043-.258.086a.38.38 0 00-.173.043l-.773.386a6.18 6.18 0 00-2.19 2.192 5.868 5.868 0 00-.815 3.051V43.27a.584.584 0 00.172.43.534.534 0 00.386.172h3.259a.587.587 0 00.602-.602V23.632h3.304V43.27a.589.589 0 00.602.602h3.219a.587.587 0 00.602-.602h.004zm-4.42-35.15v12.204h-3.305V5.972a1.73 1.73 0 01.537-1.032 1.534 1.534 0 011.095-.43 1.686 1.686 0 011.673 1.678v1.936-.003zM12.349 28.876v-.516a11.207 11.207 0 00-.622-3.48 10.687 10.687 0 00-1.567-3.136L5.954 16.07a6.839 6.839 0 01-.923-1.89 6.606 6.606 0 01-.413-2.063v-5.93A1.649 1.649 0 016.163 4.51h.098a1.645 1.645 0 011.18.473 1.547 1.547 0 01.492 1.16v2.923a.587.587 0 00.602.602h3.22a.589.589 0 00.601-.602V6.145a5.965 5.965 0 00-1.845-4.212 6.082 6.082 0 00-8.476 0A5.775 5.775 0 00.202 6.145v5.973c.022 1.185.232 2.36.623 3.48a10.687 10.687 0 001.567 3.136l4.206 5.672a6.13 6.13 0 01.922 1.869c.243.655.383 1.343.413 2.04v9.454a1.682 1.682 0 01-1.931 1.652 1.76 1.76 0 01-.26-.064 1.575 1.575 0 01-.814-.603 1.616 1.616 0 01-.3-.946v-2.922a.586.586 0 00-.602-.602H.804a.585.585 0 00-.602.602v3.438c.029.172.058.33.087.473v.043c.027.166.063.33.107.493.044.157.08.307.108.451h.043c.03.147.073.291.129.43l.043.043c.086.143.165.287.236.43.067.137.146.266.237.387v.043l.26.343.086.13c.086.114.172.221.259.321.09.102.19.195.3.275.55.52 1.189.935 1.888 1.225.72.302 1.493.456 2.274.451.287 0 .574-.021.858-.064a6.17 6.17 0 00.858-.194l-.043.043a6.838 6.838 0 001.332-.597v.043c.143-.087.28-.173.413-.259.13-.088.253-.189.364-.301a3.27 3.27 0 00.343-.301l.043-.043c.114-.086.215-.187.3-.301.085-.114.187-.215.3-.301l.043-.087c.03-.06.066-.118.107-.172.047-.06.097-.117.15-.172v-.044c.082-.107.154-.222.215-.343l.043-.043c.058-.143.115-.272.172-.386l.043-.087c.028-.058.057-.122.086-.194a3.12 3.12 0 01.087-.194v-.042a.803.803 0 00.065-.194.808.808 0 01.065-.194v-.087a.804.804 0 00.064-.194c.017-.08.039-.158.065-.236v-.043a.763.763 0 00.043-.236.765.765 0 01.042-.237v-9.54h.043l-.01.013zM60.154.043a1.89 1.89 0 011.523.58c.353.46.528 1.033.493 1.611v4.512a2.426 2.426 0 01-.493 1.59 1.856 1.856 0 01-1.523.601h-2.103V.043h2.103zm0 7.993a.932.932 0 00.774-.322c.192-.283.283-.622.259-.963v-4.56a1.444 1.444 0 00-.26-.923.983.983 0 00-.814-.322H59.04v7.09h1.115-.001zm4.249-.902l-.344 1.803h-.9L64.832.043h1.46l1.673 8.895h-.985l-.343-1.806h-2.236l.001.002zm.13-.86h1.974l-1.03-5.114-.945 5.114zm4.543 2.663V.043h.987v7.993h2.532v.902h-3.519zm4.592 0V.043h.987v7.993h2.532v.902h-3.519zm5.58-1.803l-.34 1.803h-.9L79.682.043h1.46l1.672 8.895h-.987l-.343-1.806h-2.233l-.004.002zm.127-.86h1.975l-.988-5.114-.987 5.114zm-19.393 5.413a1.883 1.883 0 011.545.58 2.41 2.41 0 01.472 1.57v1.074a2.249 2.249 0 01-.515 1.611 2.042 2.042 0 01-1.545.538h-.9v3.524h-.988v-8.896H59.982zm-.043 4.512a1.064 1.064 0 00.815-.275c.198-.266.29-.595.26-.924v-1.203a1.442 1.442 0 00-.238-.902.953.953 0 00-.793-.301h-.944v3.609l.9-.004zm3.993 2.578l-.343 1.805h-.944l1.72-8.895h1.459l1.674 8.895h-.987l-.343-1.805h-2.236zm.13-.86h1.974l-1.03-5.113-.944 5.114zm6.52-6.23a1.95 1.95 0 011.503.516c.342.424.51.961.472 1.504v.73a2.34 2.34 0 01-.276 1.204 1.415 1.415 0 01-.835.644 1.325 1.325 0 01.858.666c.18.367.268.772.258 1.181v1.59a2.556 2.556 0 00.172.902l-.987-.043a1.505 1.505 0 01-.13-.412 2.565 2.565 0 01-.042-.451v-1.63a1.234 1.234 0 00-.343-1.01 1.456 1.456 0 00-.944-.274h-.689v3.781h-.987v-8.898h1.973-.003zm-.257 4.212c.32.015.637-.076.9-.258a1.177 1.177 0 00.343-.989v-.86a1.464 1.464 0 00-.237-.88.913.913 0 00-.793-.323h-.941v3.266h.73v.043l-.002.001zm4.85 4.683V12.59h-1.632v-.902h4.249v.902H76.16v7.993h-.986zm6.779-4.941v.859h-2.19v3.18h2.662v.902H78.78v-8.895h3.647v.902h-2.661v3.052h2.189zm-21.8 7.691a1.853 1.853 0 011.523.603 2.43 2.43 0 01.493 1.59v4.51c.035.58-.14 1.151-.493 1.612a1.888 1.888 0 01-1.523.58h-2.103v-8.895h2.103zm0 7.992a.93.93 0 00.774-.322c.189-.27.28-.595.259-.924V25.48a1.444 1.444 0 00-.26-.924.984.984 0 00-.814-.322H59.04v7.09h1.115-.001zm4.249-7.992v8.895h-.989v-8.895h.989zm7.51 2.148v.774h-.94v-.817a1.647 1.647 0 00-.236-.946 1.086 1.086 0 00-1.588 0 1.65 1.65 0 00-.237.947v4.683a1.65 1.65 0 00.237.946 1.086 1.086 0 001.588 0c.172-.285.255-.614.236-.946v-1.16h.945v1.117a2.577 2.577 0 01-.472 1.634 1.789 1.789 0 01-1.502.602 1.854 1.854 0 01-1.523-.602 2.503 2.503 0 01-.493-1.634V25.48a2.519 2.519 0 01.493-1.611 1.826 1.826 0 011.522-.623 1.774 1.774 0 011.48.623c.345.464.52 1.033.494 1.611h-.003zm2.233 2.75v3.996h-.987V23.33h.981v3.996h2.19V23.33h.987v8.895h-.987V28.23h-2.184zm5.492-4.898v8.895h-.987v-8.895h.987zM62 37.125v.817h-.939v-.86a1.544 1.544 0 00-.259-.946.954.954 0 00-.815-.343.893.893 0 00-.793.343 1.65 1.65 0 00-.237.946v4.684c-.019.335.072.667.259.946a.902.902 0 00.774.343.953.953 0 00.815-.343c.187-.28.278-.611.259-.946v-1.16h.944v1.117a2.502 2.502 0 01-.493 1.633 2.227 2.227 0 01-3.045 0 2.504 2.504 0 01-.493-1.633v-4.598a2.519 2.519 0 01.493-1.611 2.173 2.173 0 013.045 0c.342.465.514 1.034.486 1.611H62zm3.176-2.148a1.95 1.95 0 011.503.516c.346.438.514.99.472 1.547v.687c.016.417-.074.83-.259 1.203a1.345 1.345 0 01-.858.645 1.271 1.271 0 01.88.666c.166.37.248.774.237 1.18v1.59c.001.153.023.304.065.451.041.153.091.304.15.451l-1.03-.042a1.501 1.501 0 01-.13-.413 2.557 2.557 0 01-.042-.45v-1.59a1.359 1.359 0 00-.321-1.053 1.438 1.438 0 00-.964-.276h-.688v3.782h-.988v-8.895h1.973v.001zm-.26 4.21c.328.022.654-.07.923-.258a1.16 1.16 0 00.32-.946v-.858a1.543 1.543 0 00-.236-.924.918.918 0 00-.793-.322h-.945v3.309h.731zm6.737-.257v.902h-2.144v3.137h2.662v.902h-3.647v-8.895h3.647v.902h-2.662v3.051h2.147l-.003.001zm2.747 3.137l-.343 1.805h-.9l1.674-8.895h1.46l1.674 8.895h-.987l-.343-1.805H74.4zm.13-.817h1.974l-.987-5.156-.988 5.156zM54.274 0h.43v44h-.43V0z"/>
</svg>