<svg xmlns="http://www.w3.org/2000/svg" viewBox="0 0 119 32">
  <path fill-rule="evenodd" d="M69.129 2.664c0-2.215-.126-2.299-.753-2.299H47.013c-.627 0-.753 0-.752 2.3v2.047c0 2.215.167 2.382.752 2.382h7.107v23.95c0 .543.418.669 2.843.669h1.254c2.383 0 3.052-.126 3.052-.669V7.094h7.107c.585 0 .752-.25.752-2.382V2.664zm9.03-2.299c2.299 0 2.968.209 2.968.669v30.01c0 .543-.669.669-2.968.669H76.82c-2.425 0-2.843-.126-2.843-.669V1.034c0-.46.418-.669 2.843-.669h1.338zm35.576 0h2.091c2.299 0 2.968.209 2.968.669v30.01c0 .543-.669.669-2.968.669h-1.254c-2.467 0-2.927-.126-2.927-.669V13.238h-.167s-.293 1.004-.711 2.007l-4.348 10.741c-.208.544-.376.71-2.633.71h-1.422c-2.215 0-2.466-.208-2.675-.71l-4.766-11.16c-.335-.752-.544-1.588-.544-1.588h-.167v17.806c0 .543-.669.669-3.01.669h-1.296c-2.383 0-2.843-.126-2.843-.669V1.034c0-.46.46-.669 2.76-.669h2.34c2.258 0 3.303.167 3.554.752l4.139 9.78c1.923 4.556 2.843 7.022 3.344 8.862.544-1.84 1.965-5.392 3.345-8.694l4.139-9.948c.209-.46.376-.752 3.051-.752zM2.161 7.073h33.916c.5 0 .954-.204 1.28-.534.323-.326.523-.774.523-1.269V2.172c0-.494-.2-.942-.522-1.268A1.797 1.797 0 0036.077.37H2.16c-.499 0-.95.203-1.277.53a1.797 1.797 0 00-.526 1.274V5.27c0 .495.2.944.523 1.27.327.329.78.532 1.28.532zm0 5.614h13.206v6.704H2.16c-.5 0-.953-.204-1.28-.533a1.797 1.797 0 01-.523-1.27V14.49c0-.497.201-.947.526-1.273.327-.327.778-.53 1.277-.53zm33.916 0c.501 0 .955.204 1.281.535.323.325.522.773.522 1.268v3.098c0 .494-.2.943-.522 1.268-.327.33-.78.534-1.281.534H22.87v-6.703h13.206zm0 12.317c.501 0 .955.205 1.281.535.323.326.522.773.522 1.268v3.098c0 .495-.2.943-.522 1.269-.327.33-.78.534-1.281.534H22.87v-6.703h13.206zm-33.916 0h13.206v6.704H2.16c-.5 0-.953-.204-1.28-.533a1.797 1.797 0 01-.523-1.27v-3.098a1.798 1.798 0 011.803-1.802z" clip-rule="evenodd"/>
</svg>