<svg xmlns="http://www.w3.org/2000/svg" viewBox="0 0 231 36">
    <path d="M74.155 23.919l12.472-5.39-17.76-7.778V.978L97.82 13.731v9.596L69.48 35.6s-2.051-8.698 4.676-11.68zM100.086 22.753v-4.832l.005-4.761L129.295.402s2.05 8.7-4.677 11.683L111.2 17.921l18.045 7.904V35.6l-29.159-12.847z"/>
    <path fill-rule="evenodd" d="M135.332 29.718l-.002-25.805h5.814c5.514 0 9.769 1.438 9.859 7.262.039 2.535-1.089 4.54-2.495 5.726 3.454 1.555 5.904 3.714 5.904 8.771 0 1.497-.255 2.852-.713 4.046 0-.001 0 0 0 0l-5.36-.004a5.364 5.364 0 001.446-3.682c0-5.695-3.726-6.55-7.325-6.55h-2.796v10.236h-4.332zm5.97-21.887c2.502 0 5.763.074 5.586 3.976-.186 4.06-3.049 4.175-4.3 4.175h-2.924l-.001-8.155 1.639.004z" clip-rule="evenodd"/>
    <path d="M135.332 29.718h4.332v1.938h4.499c1.401 0 3.033-.7 4.176-1.942l5.36.004c-1.382 3.593-4.612 5.697-8.265 5.697h-10.101l-.001-5.697z"/>
    <path fill-rule="evenodd" d="M155.759 29.718c.297 4.054 3.531 6.024 8.573 6.11 1.689.028 3.518-.393 5.006-1.23.889.87 1.314.864 2.608.844.216-.003.456-.007.726-.007l.002-5.717V19.27c0-4.797-2.778-7.185-7.946-7.185-2.3 0-5.209.777-7.338 1.828 0 0 .426.834.785 1.298 1.065 1.38 2.069 1.13 3.534.764.769-.192 1.664-.415 2.761-.451 1.867-.061 4.253.457 4.253 3.106 0 .44.044 2.348.044 2.348-9.065 0-13.031 2.912-13.031 8.115 0 .214.008.421.023.626zm13.008 0v-5.372c-.31 0-.519-.007-.715-.015-.404-.014-.752-.027-1.823.035-3.475 0-6.151 1.847-6.151 4.406 0 .335.035.65.102.946.408 1.811 2.017 2.893 4.235 2.927a14.234 14.234 0 004.352-.623v-2.304zM179.271 35.418V18.29c-.004-.356-.034-.517-.034-.517 1.524-1.102 3.376-2.131 5.112-2.131 3.081 0 4.904 1.735 4.904 5.07v9.006l-.001 5.7h3.906v-5.7l.001-9.783c0-5.493-3.978-7.987-8.502-7.831-1.846.065-3.963.574-5.772 2.196-.123-.332-.227-.533-.227-.533s-.917-2.18-3.296-1.112l.003 22.763h3.906z" clip-rule="evenodd"/>
    <path d="M201.288 29.722l-4.963-.005c1.878 3.915 5.756 6.106 10.158 6.106 2.168 0 4.292-.503 6.2-1.414l-1.127-3.194c-1.257.501-2.948 1.095-4.856 1.095a6.857 6.857 0 01-5.412-2.588zM213.555 29.718a8.51 8.51 0 01-.022-.626c0-5.203 3.966-8.115 13.031-8.115 0 0-.045-1.908-.045-2.348 0-2.65-2.386-3.167-4.252-3.106-1.097.036-1.993.26-2.761.451-1.466.366-2.47.616-3.535-.764-.359-.464-.784-1.298-.784-1.298 2.128-1.051 5.037-1.828 7.338-1.828 5.167 0 7.945 2.388 7.945 7.185v10.449h-3.907v-5.372c-.31 0-.519-.007-.714-.015-.405-.014-.753-.027-1.823.035-3.476 0-6.151 1.847-6.151 4.406 0 .335.034.65.101.946h-4.421z"/>
    <path d="M226.563 29.718h3.907l-.001 5.717c-.271 0-.511.004-.726.007-1.295.02-1.719.026-2.608-.844-1.489.837-3.319 1.258-5.006 1.23-5.043-.087-8.276-2.056-8.574-6.11h4.421c.408 1.811 2.016 2.893 4.235 2.927a14.234 14.234 0 004.352-.623v-2.304zM196.325 29.718h4.963c-1.131-1.402-1.829-3.344-1.829-5.721 0-4.198 2.125-8.345 6.764-8.34 1.085.002 1.93.155 2.633.283 1.336.242 2.156.39 3.133-.78.605-.724.694-1.602.694-1.602-2.081-.911-4.423-1.459-6.677-1.459-6.59 0-10.882 4.962-10.882 11.988 0 2.143.433 4.031 1.201 5.63zM.97 24.43c0 9.17 3.422 11.283 11.544 11.56.36.012.7.013 1.034.003 8.179-.266 11.622-2.365 11.622-11.562V3.953h-6.873l-.014 19.585c0 5.095-.97 6.101-4.886 6.377-.33.024-.333.024-.64.002l-.05-.004c-3.887-.28-4.85-1.295-4.85-6.375L7.843 3.953H.97v20.478z"/>
    <path fill-rule="evenodd" d="M28.725 35.46h12.146c5.162 0 9.911-4.263 9.808-10.016-.046-4.57-2.645-6.335-5.159-7.611 1.165-1.246 2.241-3.258 2.115-5.956 0-6.139-5.541-7.924-11.061-7.924h-7.849V35.46zm6.829-18.599V9.255l1.632.001c3.207 0 4.675 1.676 4.675 3.84 0 2.558-1.495 3.765-3.73 3.765h-2.577zm.003 13.411l-.045-9.005h2.73c4.02 0 5.766 2.227 5.766 4.293 0 3.16-2.094 4.712-5.179 4.712h-3.272z" clip-rule="evenodd"/>
    <path d="M53.735 8.58l-.01 26.916h6.878l.005-32.223s-1.145-.005-1.705.073a8.26 8.26 0 00-2.014.54c-1.497.63-3.154 1.983-3.154 4.694z"/>
</svg>